<svg width="234" height="226" viewBox="0 0 234 226" fill="none" xmlns="http://www.w3.org/2000/svg">
<path d="M32.9736 147.692C24.2036 138.955 13.1278 135.544 7.50238 125.867C-3.71346 106.584 -2.5608 80.4432 12.3587 63.3874C25.5661 48.2808 46.2861 46.9928 65.6081 47.9674C69.0672 18.0675 89.9265 0.245949 117.949 0.00229473C144.084 -0.24136 165.397 18.9378 169.241 48.3155C197.962 42.9203 224.621 56.9131 232.168 83.8195C239.191 108.846 225.46 138.189 200.548 146.926C216.026 171.152 208.793 199.207 188.214 215.741C168.402 231.648 138.913 228.968 117.285 208.257C98.2421 226.81 69.8009 232.031 48.9066 218.073C26.1954 202.932 17.6348 174.146 32.9736 147.727V147.692Z" fill="#CFF23C"/>
</svg>
