<svg width="253" height="222" viewBox="0 0 253 222" fill="none" xmlns="http://www.w3.org/2000/svg">
<path d="M167.897 63.4235C178.049 60.0015 193.101 58.8452 202.312 54.1959C207.282 51.6943 207.376 48.2247 210.933 46.1478C264.499 15.0424 264.499 120.065 224.572 128.466C217.553 129.953 192.207 127.31 203.914 134.839C220.403 145.435 263.463 126.909 243.04 170.57C234.96 187.845 192.512 216.732 173.762 216.449C157.649 216.213 156.213 206.112 157.485 193.368C157.674 191.409 160.312 186.217 154.988 188.53C149.665 190.842 137.062 208.236 130.066 213.145C119.796 220.366 92.8942 228.981 88.2301 212.767C85.3328 202.69 93.8602 199.244 96.0744 190.937C72.7777 203.445 75.77 222.939 44.4171 218.998C-8.65422 212.342 0.814918 137.954 44.087 138.85C51.036 138.992 79.3026 149.636 80.7159 148.385C86.1809 143.523 59.0446 134.248 56.6655 133.564C26.4904 125.044 -6.81764 138.048 1.21491 91.1304C4.08872 74.3977 15.7259 66.5387 32.4506 68.0255C42.1791 68.8987 46.325 75.5069 54.8286 77.5602C60.6941 71.6128 23.0746 54.1012 30.4711 28.4711C37.9854 2.41621 73.555 0.0563255 96.0273 2.08596C147.308 6.75885 111.009 30.6427 106.863 55.376C106.463 57.7596 104.978 64.0371 108.983 63.3999C128.534 29.722 138.688 -14.9773 187.425 4.9179C202.995 11.2664 210.863 21.887 203.466 38.8793C198.096 51.1987 174.375 50.8209 167.897 63.3999V63.4235Z" fill="#FF9DDE"/>
</svg>
