<svg width="1440" height="863" viewBox="0 0 1440 863" fill="none" xmlns="http://www.w3.org/2000/svg">
<path d="M-299.876 703.39C-297.208 507.653 -356.584 275.516 -287.201 72.1437C-150.103 -56.1414 206.819 7.74651 366.267 100.651C625.118 251.59 911.655 230.209 1152.49 91.2339C1361.31 -29.4153 1670.53 -21.2699 1877.01 97.852C2076.15 212.647 2282.97 233.011 2553.49 166.069C2538.48 372.496 2592.85 607.939 2529.48 808.258C2360.69 911.598 2049.47 854.072 1891.35 756.077C1666.19 616.338 1375.32 615.064 1153.16 749.204C915.658 892.761 595.43 898.617 355.258 756.841C179.8 636.446 -25.3474 619.648 -299.876 703.39Z" fill="#8AACF6"/>
</svg>
