<svg width="1398" height="832" viewBox="0 0 1398 832" fill="none" xmlns="http://www.w3.org/2000/svg">
<path d="M695.003 95.528C791.125 24.6822 947.755 -9.4288 962.938 130.514C1104.94 6.40219 1237.35 26.7813 1197.38 209.231C1393.2 130.076 1386.61 271.331 1264.26 349.086C1492.11 375.763 1396.1 486.317 1219.6 489.204C1442.77 625.123 1177.51 652.062 1029.81 602.907C1125.49 779.672 865.926 771.625 756.296 672.966C738.434 672.703 725.482 818.943 589.617 803.636C528.103 796.727 518.839 750.109 488.362 716.785C460.452 714.949 339.993 868.535 217.413 823.841C126.204 790.605 200.664 655.473 225.895 602.995C-25.8517 689.234 -75.7547 515.005 119.614 410.311C148.975 394.567 217.186 384.86 180.569 362.906C152.882 346.288 95.1692 342.351 70.8318 308.939C7.86724 222.525 150.318 113.633 259.278 174.333C239.852 30.0176 330.838 -15.2013 437.901 113.108C480.993 9.0262 694.113 -70.3037 694.894 95.6156L695.003 95.528Z" fill="#FE6E2F"/>
</svg>
