<svg width="257" height="255" viewBox="0 0 257 255" fill="none" xmlns="http://www.w3.org/2000/svg">
<path d="M153.256 24.9042C153.256 27.3332 152.934 29.6743 152.26 31.8984L128.505 143.25L103.989 31.2839L103.578 29.528C103.343 28.0648 103.168 26.6015 103.168 25.0505C103.138 11.2376 114.311 0.0585866 128.124 5.74756e-05C141.966 -0.0292071 153.168 11.1206 153.227 24.9042H153.256Z" fill="#FE6E2F"/>
<path d="M198.888 48.2867C197.774 50.423 196.366 52.3837 194.753 54.0225L121.877 141.611L152.318 31.0791L152.787 29.3525C153.257 27.9478 153.784 26.5723 154.517 25.1969C160.911 12.9643 176.014 8.22342 188.272 14.6031C200.53 20.9828 205.281 36.0541 198.888 48.2867Z" fill="#FE6E2F"/>
<path d="M228.419 90.1349C226.425 91.5104 224.284 92.5932 222.085 93.2955L116.774 137.046L195.193 53.2908L196.424 51.974C197.48 50.9497 198.624 49.984 199.885 49.106C211.263 41.2339 226.836 44.0432 234.724 55.3979C242.613 66.7525 239.798 82.292 228.419 90.1642V90.1349Z" fill="#FE6E2F"/>
<path d="M235.047 140.909C232.642 141.202 230.238 141.172 227.98 140.792L114.341 130.696L222.789 92.9151L224.49 92.3006C225.898 91.8909 227.364 91.5397 228.889 91.3641C242.613 89.6668 255.106 99.3826 256.807 113.078C258.508 126.774 248.772 139.241 235.047 140.938V140.909Z" fill="#FE6E2F"/>
<path d="M217.305 188.932C215.047 188.083 212.935 186.942 211.088 185.538L115.191 123.906L228.8 140.733L230.589 140.997C232.026 141.289 233.493 141.67 234.93 142.197C247.863 147.054 254.402 161.453 249.534 174.358C244.666 187.264 230.237 193.79 217.305 188.932Z" fill="#FE6E2F"/>
<path d="M179.21 223.201C177.597 221.387 176.277 219.397 175.31 217.319L119.091 118.258L211.85 185.859L213.316 186.913C214.46 187.849 215.574 188.844 216.601 189.986C225.809 200.287 224.871 216.06 214.548 225.249C204.225 234.438 188.418 233.502 179.21 223.201Z" fill="#FE6E2F"/>
<path d="M129.532 235.902C128.945 233.561 128.711 231.19 128.799 228.878L125.162 115.098L175.838 217.963L176.659 219.572C177.245 220.918 177.744 222.323 178.125 223.816C181.468 237.219 173.316 250.739 159.884 254.075C146.453 257.411 132.904 249.276 129.561 235.873L129.532 235.902Z" fill="#FE6E2F"/>
<path d="M79.6184 224.108C80.205 221.767 81.0848 219.543 82.2579 217.553L132.024 115.127L128.974 229.698V231.483C128.828 232.946 128.623 234.439 128.271 235.931C124.986 249.334 111.467 257.558 98.0354 254.28C84.604 251.002 76.3633 237.511 79.6478 224.108H79.6184Z" fill="#FE6E2F"/>
<path d="M40.9076 190.512C42.5206 188.698 44.3389 187.147 46.3037 185.918L138.065 118.287L82.023 218.343L81.1432 219.923C80.3514 221.182 79.5009 222.382 78.4745 223.552C69.3247 233.912 53.5179 234.907 43.1365 225.776C32.755 216.646 31.7579 200.872 40.9076 190.512Z" fill="#FE6E2F"/>
<path d="M22.2865 142.841C24.5446 141.963 26.8906 141.436 29.1781 141.29L141.937 123.965L45.7181 186.562L44.2224 187.557C42.9614 188.289 41.6124 188.962 40.1754 189.518C27.2425 194.434 12.8142 187.996 7.85806 175.09C2.93127 162.185 9.383 147.786 22.3158 142.841H22.2865Z" fill="#FE6E2F"/>
<path d="M28.0045 91.9493C30.4092 92.242 32.7258 92.8566 34.8373 93.7638L142.728 130.696L28.3857 141.494L26.5967 141.67C25.1304 141.728 23.6348 141.728 22.0805 141.524C8.35587 139.885 -1.43916 127.477 0.173775 113.781C1.81604 100.085 14.2505 90.3106 27.9751 91.9201L28.0045 91.9493Z" fill="#FE6E2F"/>
<path d="M56.7735 49.5742C58.7677 50.9497 60.5272 52.5592 61.9935 54.3444L140.324 137.104L34.0458 93.6467L32.3741 92.9736C31.0251 92.359 29.7347 91.6274 28.4444 90.7495C17.0365 82.9359 14.1333 67.3963 21.9634 56.0124C29.7935 44.6285 45.3657 41.7313 56.7735 49.5449V49.5742Z" fill="#FE6E2F"/>
<path d="M101.965 25.3724C103.109 27.5087 103.9 29.7622 104.34 32.0155L135.162 141.611L61.2896 53.8469L60.1164 52.4714C59.2073 51.3009 58.3863 50.0717 57.6825 48.6963C51.2307 36.493 55.8936 21.3924 68.1226 14.9542C80.3516 8.51603 95.4838 13.1691 101.936 25.3724H101.965Z" fill="#FE6E2F"/>
</svg>
