<svg width="271" height="157" viewBox="0 0 271 157" fill="none" xmlns="http://www.w3.org/2000/svg">
<g clip-path="url(#clip0_223_64)">
<path d="M176.033 30.1268C197.254 18.3814 224.724 29.5637 229.996 53.5728C233.343 68.7989 226.619 83.7141 213.647 91.9047C213.84 93.6673 214.61 95.2816 214.965 97.0294C222.088 132.488 178.995 154.334 153.539 129.896C149.703 141.182 139.618 149.817 128.082 152.542C110.031 156.823 91.2527 147.166 85.1515 129.599C84.8109 129.348 81.8494 132.266 81.2866 132.68C60.1545 148.484 30.5814 138.457 23.4436 113.322C3.64429 103.28 -3.10893 78.604 10.0412 60.2231C16.6607 50.966 27.8562 45.2046 39.2885 45.2194C38.7998 33.6073 44.4721 22.2766 53.5202 15.1968C72.2829 0.533625 100.583 4.4291 114.014 24.1874C130.052 2.71099 164.586 5.79174 176.033 30.1119L176.033 30.1268Z" fill="white"/>
<path d="M230.115 123.748C230.841 123.6 231.951 123.6 232.692 123.704C233.432 123.807 234.395 124.459 234.795 124.459C235.209 124.459 235.905 123.807 236.586 123.704C242.332 122.756 244.539 129.08 243.073 133.746C242.881 134.338 242.169 135.197 242.169 135.671C242.169 136.101 242.599 136.782 242.644 137.449C242.91 141.388 241 144.928 236.602 144.38C235.061 144.188 233.936 142.751 233.27 142.692C232.514 142.618 231.196 143.951 229.256 143.743C224.221 143.195 222.962 136.056 225.228 132.161C225.539 131.643 226.25 131.213 226.443 130.695C226.635 130.176 226.472 128.369 226.739 127.451C227.153 125.955 228.545 124.074 230.13 123.748L230.115 123.748Z" fill="white"/>
<path d="M265.463 144.944C266.234 145.433 268.426 144.203 269.699 146.188C270.677 147.728 270.025 149.772 269.107 151.194C268.752 151.742 267.966 152.157 267.714 152.779C267.389 153.549 267.937 154.601 267.048 155.638C265.671 157.237 263.509 156.215 262.014 156.23C260.133 156.23 258.311 157.208 256.475 155.653C255.186 154.557 255.882 153.283 255.645 151.965C255.409 150.646 254.15 150.069 254.491 147.832C254.891 145.27 258.208 146.188 258.593 145.847C258.711 145.744 259.2 143.789 259.807 143.063C261.495 141.063 263.376 141.448 264.798 143.418C265.064 143.774 265.39 144.885 265.479 144.944L265.463 144.944Z" fill="white"/>
</g>
<defs>
<clipPath id="clip0_223_64">
<rect width="271" height="157" fill="white"/>
</clipPath>
</defs>
</svg>
