<svg width="491" height="455" viewBox="0 0 491 455" fill="none" xmlns="http://www.w3.org/2000/svg">
<path d="M370.242 436.371C380.21 435.117 398.885 435.522 405.445 444.354C408.915 449.027 409.654 453.498 402.76 454.121C391.508 455.133 370.46 455.017 359.123 454.121C356.889 453.942 354.687 453.412 352.509 452.953C349.233 442.734 361.877 437.423 370.242 436.371ZM403.111 449.409C399.64 440.211 383.914 439.51 375.448 440.024C368.133 440.476 358.843 441.948 355.645 449.409H403.111Z" fill="#3C3C3B"/>
<path d="M22.3095 2.06031L466.427 1.81104C475.85 2.4341 485.39 9.428 486.269 19.3347V326.257C484.542 338.874 476.333 344.489 464.093 345.338H23.6009C12.0068 343.881 4.77039 336.405 3.7666 324.691V20.8924C4.65367 10.5651 12.1236 3.34539 22.3015 2.06031H22.3095ZM472.279 23.811H17.7574V289.27H472.279V23.811ZM254.441 315.633C254.441 310.516 250.294 306.365 245.181 306.365C240.069 306.365 235.922 310.516 235.922 315.633C235.922 320.75 240.069 324.901 245.181 324.901C250.294 324.901 254.441 320.75 254.441 315.633Z" fill="#C5B2D8"/>
<path d="M193.793 351.276H295.339L296.506 353.223L303.533 422.555C303.618 423.209 302.731 424.494 302.342 424.494H187.957L193.793 351.284V351.276Z" fill="#C5B2D8"/>
<path d="M153.331 443.957L179.515 430.826L187.14 428.341L304.615 428.45L336.969 443.957H153.331Z" fill="#C5B2D8"/>
<path d="M342.416 447.812H147.883V449.409H342.416V447.812Z" fill="#C5B2D8"/>
<path d="M403.11 449.409H355.644C358.842 441.955 368.133 440.475 375.447 440.024C383.913 439.502 399.64 440.211 403.11 449.409Z" fill="#3C3C3B"/>
<path d="M468.473 29.6191H21.8262V287.451H468.473V29.6191Z" fill="white"/>
<path d="M472.767 23.811V289.811H17.7666V23.811H472.767ZM468.825 27.7492H21.7081V285.912H468.825V27.7492Z" fill="#CDB4F6"/>
<path d="M245.329 324.391C249.003 324.391 251.981 321.409 251.981 317.732C251.981 314.054 249.003 311.073 245.329 311.073C241.654 311.073 238.675 314.054 238.675 317.732C238.675 321.409 241.654 324.391 245.329 324.391Z" fill="#D69CE8"/>
</svg>
