<svg width="110" height="108" viewBox="0 0 110 108" fill="none" xmlns="http://www.w3.org/2000/svg">
<path d="M80.75 107.196C72.2849 112.543 59.1061 89.7898 55.4047 80.9283C52.3838 87.8076 39.3541 111.76 31.0052 107.213C21.926 102.249 32.4327 79.9955 35.9847 71.9835C27.2208 74.3821 1.72595 78.03 0.066125 68.7521C-1.42771 60.3403 22.8057 52.1951 30.5903 50.7626C24.3659 46.3652 5.72616 28.1092 10.4899 21.4797C15.7681 14.1507 35.9516 26.7267 43.5868 33.1562C44.6159 27.4762 45.9104 -0.574035 55.0726 0.00895715C64.7826 0.625263 65.7286 24.4113 66.4424 33.456C73.1314 28.1591 93.2319 13.9675 99.6886 21.4631C105.066 27.7094 86.8417 45.8155 78.8082 50.7959C85.3312 52.0618 112.502 59.191 109.813 68.6688C106.892 78.9295 84.468 73.2328 75.339 72.9496C79.5549 80.6951 86.4766 103.548 80.717 107.18L80.75 107.196Z" fill="#99B7F5"/>
<path d="M46.6172 59.2344C46.4922 59.3229 46.2682 59.4453 45.9453 59.6016C45.6276 59.7526 45.1875 59.888 44.625 60.0078C44.0625 60.1276 43.3568 60.1875 42.5078 60.1875C41.3672 60.1875 40.3828 60 39.5547 59.625C38.7318 59.2448 38.099 58.6328 37.6562 57.7891C37.2135 56.9401 36.9922 55.8177 36.9922 54.4219C36.9922 52.5625 37.4688 51.1302 38.4219 50.125C39.375 49.1146 40.7031 48.6094 42.4062 48.6094C43.2188 48.6094 43.8672 48.6875 44.3516 48.8438C44.8359 49 45.2031 49.1823 45.4531 49.3906C45.7031 49.599 45.8776 49.7812 45.9766 49.9375C46.013 49.9948 46.0391 50.0469 46.0547 50.0938C46.0703 50.1354 46.0807 50.2031 46.0859 50.2969C46.1016 50.4219 46.1042 50.6042 46.0938 50.8438C46.0885 51.0833 46.0703 51.2943 46.0391 51.4766C46.0182 51.5911 45.9844 51.6667 45.9375 51.7031C45.9167 51.724 45.8802 51.7422 45.8281 51.7578C45.776 51.7734 45.6979 51.7812 45.5938 51.7812C45.4271 51.7812 45.2318 51.776 45.0078 51.7656C44.7891 51.75 44.6276 51.7344 44.5234 51.7188C44.3984 51.6979 44.3073 51.6693 44.25 51.6328C44.1979 51.5911 44.1406 51.5286 44.0781 51.4453C44.0156 51.362 43.9297 51.2656 43.8203 51.1562C43.7109 51.0417 43.5443 50.9401 43.3203 50.8516C43.1016 50.763 42.7969 50.7188 42.4062 50.7188C41.5469 50.7188 40.8724 51.0312 40.3828 51.6562C39.8932 52.276 39.6484 53.1693 39.6484 54.3359C39.6484 55.5599 39.901 56.4896 40.4062 57.125C40.9167 57.7604 41.6484 58.0781 42.6016 58.0781C43.0807 58.0781 43.4323 58.0443 43.6562 57.9766C43.8854 57.9036 44.0312 57.849 44.0938 57.8125V55.3828C44.0938 55.2318 44.1198 55.1172 44.1719 55.0391C44.4062 54.6953 44.7344 54.3333 45.1562 53.9531C45.2344 53.8906 45.3021 53.8594 45.3594 53.8594C45.4219 53.8594 45.487 53.8906 45.5547 53.9531C45.7839 54.151 45.9766 54.3411 46.1328 54.5234C46.2891 54.7005 46.4245 54.8724 46.5391 55.0391C46.5911 55.1224 46.6172 55.237 46.6172 55.3828V59.2344ZM50.7578 60.1953C50.2005 60.1953 49.737 60.1484 49.3672 60.0547C49.0026 59.9609 48.7083 59.849 48.4844 59.7188C48.2656 59.5833 48.0938 59.4609 47.9688 59.3516C47.875 59.263 47.8646 59.1641 47.9375 59.0547L48.7344 57.875C48.849 57.7083 48.9792 57.6979 49.125 57.8438C49.276 57.9896 49.4792 58.1328 49.7344 58.2734C49.9948 58.4089 50.3177 58.4766 50.7031 58.4766C51.0469 58.4766 51.3281 58.4193 51.5469 58.3047C51.7708 58.1849 51.8828 58.013 51.8828 57.7891C51.8828 57.6328 51.8333 57.5052 51.7344 57.4062C51.6354 57.3073 51.4609 57.2057 51.2109 57.1016C50.9609 56.9974 50.612 56.8646 50.1641 56.7031C49.5026 56.4635 49.0026 56.1745 48.6641 55.8359C48.3255 55.4974 48.1562 55.0026 48.1562 54.3516C48.1562 53.7526 48.3203 53.2656 48.6484 52.8906C48.9818 52.5156 49.4062 52.2422 49.9219 52.0703C50.4427 51.8932 50.9844 51.8047 51.5469 51.8047C52.2604 51.8047 52.7604 51.8724 53.0469 52.0078C53.3385 52.138 53.526 52.2396 53.6094 52.3125C53.6875 52.3802 53.7422 52.4583 53.7734 52.5469C53.8411 52.75 53.8932 53.0182 53.9297 53.3516C53.9505 53.5443 53.901 53.6719 53.7812 53.7344C53.7188 53.7708 53.6198 53.8099 53.4844 53.8516C53.349 53.8932 53.2135 53.9297 53.0781 53.9609C52.9427 53.9922 52.8411 54.0078 52.7734 54.0078C52.7526 54.0078 52.7292 54.0026 52.7031 53.9922C52.6823 53.9766 52.6432 53.9427 52.5859 53.8906C52.5182 53.8229 52.401 53.7448 52.2344 53.6562C52.0729 53.5677 51.849 53.5234 51.5625 53.5234C51.2812 53.5234 51.0443 53.5703 50.8516 53.6641C50.6641 53.7526 50.5703 53.9115 50.5703 54.1406C50.5703 54.3906 50.6901 54.5781 50.9297 54.7031C51.1745 54.8281 51.5755 54.9896 52.1328 55.1875C52.5703 55.3385 52.9505 55.5052 53.2734 55.6875C53.6016 55.8646 53.8542 56.099 54.0312 56.3906C54.2083 56.6771 54.2969 57.0651 54.2969 57.5547C54.2969 58.1901 54.1224 58.7031 53.7734 59.0938C53.4297 59.4792 52.987 59.7604 52.4453 59.9375C51.9089 60.1094 51.3464 60.1953 50.7578 60.1953ZM57.8984 60.1953C57.1328 60.1953 56.5234 59.9818 56.0703 59.5547C55.6224 59.1224 55.3984 58.5286 55.3984 57.7734C55.3984 57.3828 55.4688 57.0208 55.6094 56.6875C55.7552 56.349 56.0052 56.0521 56.3594 55.7969C56.7188 55.5365 57.2188 55.3281 57.8594 55.1719C58.5052 55.0156 59.3281 54.9245 60.3281 54.8984C60.3281 54.4245 60.2083 54.0833 59.9688 53.875C59.7344 53.6667 59.3802 53.5625 58.9062 53.5625C58.4792 53.5625 58.1302 53.6354 57.8594 53.7812C57.5885 53.9271 57.4193 54.026 57.3516 54.0781C57.2786 54.1406 57.1901 54.1641 57.0859 54.1484C56.9453 54.1276 56.7943 54.0911 56.6328 54.0391C56.4766 53.987 56.3073 53.9271 56.125 53.8594C56.099 53.849 56.0703 53.8333 56.0391 53.8125C56.0078 53.7865 55.9896 53.75 55.9844 53.7031C55.9844 53.6771 55.987 53.6458 55.9922 53.6094C55.9974 53.5677 56.0104 53.4948 56.0312 53.3906C56.0521 53.2865 56.0833 53.1589 56.125 53.0078C56.1667 52.8516 56.2057 52.7318 56.2422 52.6484C56.2891 52.5599 56.3672 52.4766 56.4766 52.3984C56.5651 52.3255 56.8333 52.2083 57.2812 52.0469C57.7292 51.8854 58.3776 51.8047 59.2266 51.8047C61.5651 51.8047 62.7344 52.9427 62.7344 55.2188V59.6406C62.7344 59.7396 62.7057 59.8255 62.6484 59.8984C62.5964 59.9661 62.5052 60 62.375 60H61.2031C61.1198 60 61.0443 59.9896 60.9766 59.9688C60.9141 59.9427 60.8542 59.8958 60.7969 59.8281L60.3125 59.2031H60.2578C60.0182 59.5521 59.6953 59.8047 59.2891 59.9609C58.888 60.1172 58.4245 60.1953 57.8984 60.1953ZM58.7578 58.3828C59.237 58.3828 59.599 58.2604 59.8438 58.0156C60.0885 57.7708 60.2448 57.5182 60.3125 57.2578V56.3906C59.5885 56.3906 59.0443 56.4479 58.6797 56.5625C58.3203 56.6719 58.0807 56.8177 57.9609 57C57.8411 57.1771 57.7812 57.3698 57.7812 57.5781C57.7812 57.8802 57.875 58.0911 58.0625 58.2109C58.25 58.3255 58.4818 58.3828 58.7578 58.3828ZM69.7422 51.8047C70.5026 51.8047 71.1276 51.9766 71.6172 52.3203C72.112 52.6589 72.4792 53.1276 72.7188 53.7266C72.9635 54.3203 73.0859 55.0026 73.0859 55.7734C73.0859 56.6068 72.9427 57.3568 72.6562 58.0234C72.375 58.6901 71.9583 59.2188 71.4062 59.6094C70.8542 60 70.1693 60.1953 69.3516 60.1953C68.9297 60.1953 68.5807 60.1458 68.3047 60.0469C68.0339 59.9531 67.8151 59.8411 67.6484 59.7109C67.487 59.5755 67.3594 59.4531 67.2656 59.3438H67.2344V62.6719C67.2344 62.7969 67.2083 62.8932 67.1562 62.9609C66.9375 63.2474 66.6172 63.5573 66.1953 63.8906C66.1224 63.9427 66.0573 63.9688 66 63.9688C65.9375 63.9688 65.8724 63.9427 65.8047 63.8906C65.5807 63.7188 65.3906 63.5573 65.2344 63.4062C65.0833 63.2552 64.9531 63.1068 64.8438 62.9609C64.7917 62.8932 64.7656 62.7969 64.7656 62.6719V53.0391C64.7656 52.9141 64.7917 52.8177 64.8438 52.75C64.9531 52.6042 65.0833 52.4557 65.2344 52.3047C65.3906 52.1536 65.5807 51.9922 65.8047 51.8203C65.8724 51.7682 65.9427 51.7422 66.0156 51.7422C66.0833 51.7422 66.1536 51.7682 66.2266 51.8203C66.4453 51.9922 66.6328 52.1562 66.7891 52.3125C66.9453 52.4688 67.0833 52.6302 67.2031 52.7969H67.2422C67.3307 52.6875 67.4661 52.5547 67.6484 52.3984C67.8307 52.2422 68.0885 52.1042 68.4219 51.9844C68.7604 51.8646 69.2005 51.8047 69.7422 51.8047ZM68.7812 58.2031C69.3438 58.2031 69.7786 58.0078 70.0859 57.6172C70.3984 57.2214 70.5547 56.651 70.5547 55.9062C70.5547 54.5 69.9766 53.7969 68.8203 53.7969C68.3307 53.7969 67.9688 53.8984 67.7344 54.1016C67.5 54.2995 67.3333 54.5104 67.2344 54.7344V56.4297C67.2344 56.9349 67.3646 57.3568 67.625 57.6953C67.8854 58.0339 68.2708 58.2031 68.7812 58.2031Z" fill="black"/>
</svg>
