<svg width="110" height="108" viewBox="0 0 110 108" fill="none" xmlns="http://www.w3.org/2000/svg">
<path d="M80.75 107.196C72.2849 112.543 59.1061 89.7898 55.4047 80.9283C52.3838 87.8076 39.3541 111.76 31.0052 107.213C21.926 102.249 32.4327 79.9955 35.9847 71.9835C27.2208 74.3821 1.72595 78.03 0.066125 68.7521C-1.42771 60.3403 22.8057 52.1951 30.5903 50.7626C24.3659 46.3652 5.72616 28.1092 10.4899 21.4797C15.7681 14.1507 35.9516 26.7267 43.5868 33.1562C44.6159 27.4762 45.9104 -0.574035 55.0726 0.00895715C64.7826 0.625263 65.7286 24.4113 66.4424 33.456C73.1314 28.1591 93.2319 13.9675 99.6886 21.4631C105.066 27.7094 86.8417 45.8155 78.8082 50.7959C85.3312 52.0618 112.502 59.191 109.813 68.6688C106.892 78.9295 84.468 73.2328 75.339 72.9496C79.5549 80.6951 86.4766 103.548 80.717 107.18L80.75 107.196Z" fill="#99B7F5"/>
<path d="M51.0489 43.448H51.4009L62.7289 67H58.6009L56.5849 62.392H45.8009L43.7849 67H39.7849L51.0489 43.448ZM51.2089 50.264L49.8009 53.464L47.2409 59.16H55.1769L52.6489 53.496L51.2729 50.264H51.2089ZM64.6061 67V52.312H68.1901V67H64.6061ZM66.3981 49.56C65.7368 49.56 65.1821 49.336 64.7341 48.888C64.3075 48.44 64.0941 47.8853 64.0941 47.224C64.0941 46.6267 64.3075 46.1147 64.7341 45.688C65.1821 45.2613 65.7368 45.048 66.3981 45.048C67.0595 45.048 67.6035 45.2613 68.0301 45.688C68.4781 46.1147 68.7021 46.6267 68.7021 47.224C68.7021 47.8853 68.4781 48.44 68.0301 48.888C67.6035 49.336 67.0595 49.56 66.3981 49.56Z" fill="black"/>
</svg>
