<svg width="440" height="465" viewBox="0 0 440 465" fill="none" xmlns="http://www.w3.org/2000/svg">
<g clip-path="url(#clip0_253_188)">
<path d="M94.4132 385.607C94.824 387.167 93.2796 386.382 92.9519 386.751C92.6815 387.058 92.9831 387.953 92.8011 388.129C92.5514 388.374 91.1834 388.046 90.2524 388.494C89.6803 388.769 86.5961 392.982 87.1318 393.409C89.2174 392.644 89.5763 394.158 90.1432 394.402C99.198 398.366 107.452 401.372 115.55 406.839C145.835 427.275 156.539 455.508 195.535 463.148C227.412 469.395 248.262 459.637 272.041 439.69C281.569 431.696 291.555 422.77 299.861 413.59C302.753 410.396 305.681 407.031 308.406 404.3C312.005 400.691 319.952 390.86 322.35 386.507C322.766 385.752 322.547 384.494 322.854 384.13C323.005 383.953 323.811 384.177 324.332 383.703C325.72 382.424 331.972 370.258 333.241 367.756C344.454 345.541 347.949 326.535 352.781 302.515C357.768 277.726 365.429 260.801 381.532 241.285C396.864 222.701 412.305 209.739 423.976 188.294C434.435 169.075 444.863 130.767 437.639 109.826C433.458 97.7021 423.8 86.3528 414.105 78.3895C391.554 59.8572 363.468 48.6015 336.268 38.4225C315.817 30.7713 294.379 25.4139 274.449 16.504C263.116 11.4379 251.518 3.83877 239.15 1.35253C225.664 -1.35737 198.687 -0.842527 187.042 5.68516C173.488 13.2843 154.266 28.878 146.002 42.1362C134.846 60.034 130.242 81.3596 122.909 100.703C117.635 114.617 110.588 129.524 103.416 142.049C93.6694 159.073 84.885 170.188 70.5096 183.54C65.0278 188.632 51.4898 199.133 48.2756 205.25C36.0846 228.479 26.1041 252.27 19.1452 277.809C17.0544 285.481 14.4903 298.869 8.64961 304.627C8.12431 305.147 7.19332 304.986 6.80845 305.506C2.36164 311.503 -0.217933 323.399 0.270956 330.759C1.27994 345.863 15.6554 363.813 28.4289 371.256C29.2663 371.745 30.6029 371.641 31.1958 372.042C31.669 372.359 31.305 373.238 31.8355 373.685C39.9229 380.556 58.9479 383.157 68.7881 388.166C69.6722 388.618 70.1353 388.566 71.0351 388.213C69.1939 391.932 65.3712 401.674 72.8346 401.237C78.2123 400.92 87.8497 388.265 94.4393 385.612L94.4132 385.607Z" fill="#D8D8D8"/>
<path d="M71.0084 388.207C70.1087 388.556 69.6459 388.608 68.7617 388.161C58.9215 383.147 39.8966 380.546 31.8091 373.68C31.2786 373.233 31.6479 372.354 31.1694 372.037C30.5765 371.641 29.2449 371.74 28.4023 371.251C15.6288 363.808 1.25357 345.858 0.244589 330.753C-0.2443 323.394 2.33528 311.498 6.78209 305.501C7.16696 304.981 8.09795 305.142 8.62324 304.622C14.4691 298.864 17.0278 285.481 19.1186 277.804C26.0775 252.265 36.0582 228.474 48.2492 205.245C51.4582 199.128 65.0015 188.627 70.4833 183.535C84.8587 170.183 93.6379 159.068 103.39 142.044C110.562 129.519 117.604 114.617 122.883 100.698C130.216 81.3544 134.819 60.0289 145.975 42.131C154.239 28.8728 173.462 13.2739 187.016 5.67998C198.666 -0.852908 225.638 -1.36775 239.124 1.34735C251.492 3.83359 263.095 11.4327 274.423 16.4988C294.353 25.4087 315.791 30.761 336.241 38.4173C363.442 48.5964 391.527 59.852 414.079 78.3844C423.773 86.3528 433.431 97.6969 437.613 109.821C444.837 130.762 434.409 169.07 423.95 188.289C412.284 209.734 396.837 222.696 381.505 241.28C365.403 260.801 357.742 277.721 352.754 302.51C347.922 326.53 344.428 345.536 333.214 367.751C331.951 370.258 325.699 382.418 324.305 383.698C323.79 384.171 322.979 383.948 322.828 384.124C322.521 384.494 322.74 385.753 322.324 386.502C319.926 390.855 311.979 400.686 308.38 404.295C305.66 407.026 302.726 410.386 299.835 413.585C291.529 422.765 281.543 431.691 272.015 439.685C248.236 459.632 227.385 469.39 195.509 463.143C156.512 455.503 145.814 427.27 115.523 406.834C107.426 401.367 99.1717 398.36 90.1168 394.397C89.5499 394.147 89.191 392.639 87.1055 393.404C86.5698 392.977 89.6539 388.764 90.226 388.488C91.157 388.041 92.5248 388.369 92.7744 388.124C92.9513 387.948 92.6548 387.053 92.9253 386.746C93.253 386.377 94.7925 387.162 94.3868 385.602C94.5376 385.539 94.7665 385.664 94.9069 385.602C97.8038 384.281 101.496 382.158 104.789 382.481C105.974 382.595 107.025 383.334 108.211 383.474C112.07 383.932 114.036 382.84 117.281 381.191C130.502 374.466 146.963 363.184 159.56 354.815C179.615 341.494 197.958 326.078 216.989 311.862C227.463 304.039 230.938 297.709 231.713 284.456C232.612 268.998 230.189 253.124 228.051 237.884C228.951 237.348 229.716 236.588 230.397 235.808C239.592 225.317 247.482 213.817 256.656 203.295L289.017 199.768C291.612 199.388 290.686 197.49 291.211 195.701C291.362 195.196 291.986 194.837 292.023 194.712C291.726 195.696 291.706 199.414 291.435 199.841C291.222 200.179 289.864 200.085 289.526 200.538C288.746 201.588 288.127 207.248 290.853 207.102L322.714 201.984C321.309 196.013 316.753 190.166 316.67 183.956C316.665 183.441 316.883 180.788 316.998 180.669C317.279 180.378 319.718 180.648 320.41 181.142C320.753 181.392 322.261 183.618 322.578 184.174C325.226 188.866 324.856 196.143 330.739 187.904C333.422 184.148 336.772 178.38 338.935 174.256C339.736 172.732 340.896 166.495 343.673 167.187C347.532 168.149 341.962 176.965 341.187 179.108C340.688 180.476 338.441 186.635 341.608 185.782C343.278 185.334 349.051 174.718 351.319 172.596C352.806 171.202 356.109 169.538 356.53 172.627C357.154 177.194 347.969 182.718 347.163 187.42C347.517 187.789 350.565 185.22 351.048 184.809C352.265 183.769 358.293 177.777 358.969 177.6C360.717 177.142 361.559 179.332 361.117 180.809C360.92 181.465 353.805 188.086 352.619 189.495C351.433 190.905 347.033 195.134 350.975 195.144C353.82 194.036 358.683 188.606 361.185 188.159C363.255 187.784 363.655 188.835 363.177 190.687C362.142 194.692 353.737 197.667 350.559 200.439C348.354 202.364 346.783 205.323 344.531 206.894C342.539 208.283 340.475 208.376 338.654 209.339C336.949 210.239 332.939 213.229 331.389 214.556C330.848 215.018 330.296 215.06 330.525 216.028C337.77 216.282 344.88 217.427 352.114 216.558C354.502 215.929 358.637 215.247 360.108 213.11C360.561 212.449 362.298 209.593 362.651 208.891C365.065 204.085 357.903 198.603 358.111 197.625C374.51 184.851 388.583 166.448 394.871 146.449C395.792 143.526 396.952 135.641 398.19 133.643C400.15 130.486 408.893 129.592 412.607 124.655C416.32 119.719 417.189 114.653 410.464 111.902C404.894 109.618 399.105 111.387 393.868 109.254C388.349 107.007 381.38 96.9376 376.299 92.4957C361.981 79.9812 339.117 72.4497 320.659 68.5591C319.453 68.3042 314.621 68.0234 314.402 67.7997C314.267 67.6593 314.642 66.0521 314.142 65.199C313.887 64.7673 307.719 59.3266 306.71 58.4632C294.483 48.0449 279.53 40.1545 264.068 35.6969C259.85 34.4798 254.472 33.9753 250.587 32.5346C243.045 29.7467 240.221 21.7782 230.137 24.3477C226.876 25.1799 220.936 31.5775 219.542 34.5578C217.561 38.7917 217.805 44.586 216.921 49.1008C214.992 58.9521 206.608 66.7593 201.329 75.1179C199.763 77.5937 198.645 81.0891 197.105 83.3777C190.292 93.4995 169.202 99.7254 177.716 115.813C179.89 119.917 183.547 121.425 185.773 124.141C189.065 128.166 193.917 136.39 196.866 141.128C197.069 141.456 197.199 141.836 197.386 142.168C197.241 142.231 197.012 142.106 196.866 142.168C189.699 145.196 183.609 150.064 177.363 154.652C174.892 156.467 174.081 155.676 172.942 158.813C168.958 160.857 166.649 162.36 164.1 166.095C158.265 169.252 153.683 174.885 149.215 179.556C147.956 180.872 142.272 185.917 142.261 187.15C142.261 187.587 142.766 187.852 142.776 187.94C142.813 188.273 142.693 188.747 142.776 188.981C143.406 190.749 143.973 190.473 144.337 191.061C144.373 191.124 144.352 191.425 144.337 191.581C141.96 190.978 142.386 193.963 141.575 195.066C140.608 196.382 136.577 199.565 136.057 200.84C129.67 216.444 134.268 230.799 141.715 244.791C141.934 245.197 142.787 245.327 143.177 246.034C146.401 251.854 148.331 255.885 152.663 261.019C153.199 261.659 153.631 263.188 153.787 263.287C154.27 263.583 155.352 263.152 155.706 263.427C155.904 263.583 156.84 266.86 157.63 268.015C158.582 269.404 160.652 271.307 161.973 272.441C161.973 275.76 155.051 276.587 152.648 277.663C143.265 281.871 133.201 286.266 124.292 291.463C123.59 291.873 122.768 291.889 123.007 293.013C122.664 293.189 122.305 293.356 121.967 293.533C120.839 291.863 115.945 295.119 115.196 295.879C114.447 296.638 114.847 297.361 114.686 297.694C114.124 297.985 113.318 297.819 112.616 298.49C112.205 298.88 111.456 301.147 110.666 301.303C108.471 301.746 104.757 300.664 101.949 300.82C95.6922 301.163 94.5792 302.692 93.0761 308.591C91.3806 315.238 90.6629 318.588 87.7868 325.126C86.497 328.059 84.994 331.731 84.2295 335.112C83.7666 337.146 82.9188 341.38 83.4493 343.2C84.5571 346.982 86.1745 347.601 89.9972 347.122C90.819 347.018 95.6714 344.75 96.0146 344.298C96.5503 343.596 96.285 342.628 96.6335 342.056C98.511 338.982 102.724 335.19 105.319 332.283C107.197 330.176 107.342 327.565 111.045 328.387C113.152 331.716 114.281 331.393 117.276 333.328C115.997 334.181 115.825 335.653 114.967 336.73C110.094 342.888 99.4264 351.018 98.563 359.075C97.1016 359.148 95.609 358.95 94.1476 359.085C83.2412 360.079 85.0252 364.609 80.9685 372.427C78.238 377.685 73.6141 382.928 70.998 388.202L71.0084 388.207ZM346.398 187.956V188.476C346.737 188.304 346.737 188.127 346.398 187.956Z" fill="#CDB4F6"/>
<path d="M121.978 293.543C119.523 294.812 117.188 296.404 114.697 297.704C113.864 299.4 111.441 302.432 111.056 303.425C106.198 301.761 99.7596 300.133 96.2697 305.022C94.1165 308.039 94.0384 313.069 92.8734 316.71C90.6474 323.669 83.0125 335.95 84.6456 343.112C85.9978 349.047 91.8904 345.645 94.6937 342.982C98.3812 339.481 101.538 332.574 105.314 329.677C106.328 328.902 109.745 327.622 110.016 327.357C111.56 327.014 110.869 328.101 111.056 328.397C107.358 327.581 107.212 330.191 105.33 332.293C102.734 335.2 98.5216 338.992 96.6441 342.066C96.2956 342.638 96.5609 343.606 96.0252 344.308C95.6819 344.76 90.8295 347.028 90.0078 347.132C86.1799 347.611 84.5677 346.997 83.4599 343.211C82.9294 341.395 83.7771 337.156 84.24 335.122C85.0045 331.741 86.5075 328.069 87.7974 325.136C90.6735 318.598 91.3912 315.248 93.0867 308.601C94.5898 302.702 95.7028 301.179 101.96 300.83C104.768 300.674 108.481 301.761 110.676 301.314C111.467 301.152 112.216 298.885 112.627 298.5C113.329 297.829 114.14 297.995 114.697 297.704C114.863 297.371 114.457 296.653 115.206 295.889C115.955 295.124 120.849 291.873 121.978 293.543Z" fill="#D8D8D8"/>
<path d="M144.862 191.077H144.342C143.977 190.489 143.411 190.765 142.781 188.996C143.993 189.059 144.799 189.844 144.862 191.077Z" fill="#FF5CDB"/>
<path d="M196.871 141.144C193.922 136.4 189.07 128.177 185.778 124.156C183.552 121.436 179.895 119.933 177.721 115.829C169.207 99.7413 190.303 93.5153 197.111 83.3935C198.65 81.1049 199.768 77.6096 201.334 75.1337C206.613 66.7752 214.991 58.968 216.926 49.1166C217.81 44.6018 217.566 38.8128 219.547 34.5737C220.941 31.5933 226.881 25.1957 230.142 24.3635C240.226 21.794 243.05 29.7625 250.592 32.5504C254.482 33.986 259.855 34.4956 264.073 35.7127C279.535 40.1703 294.493 48.0607 306.715 58.479C307.724 59.3372 313.893 64.783 314.147 65.2147C314.647 66.0626 314.272 67.675 314.408 67.8154C314.626 68.0391 319.463 68.3252 320.664 68.5749C339.122 72.4655 361.986 80.0023 376.304 92.5115C381.385 96.9535 388.355 107.018 393.873 109.27C399.11 111.403 404.894 109.634 410.469 111.918C417.194 114.674 416.372 119.673 412.612 124.671C408.851 129.67 400.156 130.502 398.195 133.659C396.957 135.651 395.792 143.542 394.877 146.465C388.589 166.459 374.515 184.866 358.116 197.641C357.908 198.619 365.075 204.101 362.657 208.907C362.303 209.609 360.566 212.465 360.113 213.125C358.641 215.268 354.507 215.944 352.119 216.574C344.89 217.448 334.031 216.095 326.791 215.835C326.562 214.868 329.469 211.685 330.01 211.222C331.56 209.895 336.501 206.78 338.212 205.875C340.033 204.912 342.331 204.044 344.318 202.655C346.565 201.084 347.522 199.404 349.727 197.475C352.905 194.702 359.349 194.437 360.384 190.437C360.862 188.585 363.26 187.795 361.19 188.169C358.688 188.622 352.042 194.739 349.197 195.846C345.254 195.836 348.853 190.343 350.091 188.877C351.329 187.41 359.255 181.132 359.453 180.477C359.895 178.999 360.722 177.158 358.974 177.611C358.298 177.787 352.276 183.785 351.053 184.82C350.57 185.231 345.993 189.106 345.639 188.742C345.988 186.723 345.291 185.059 347.231 182.698C349.805 179.561 355.089 175.707 354.736 173.101C354.314 170.017 352.972 173.231 351.48 174.63C349.212 176.752 343.283 185.35 341.614 185.797C338.446 186.651 338.597 182.271 339.096 180.903C339.871 178.76 347.543 168.165 343.684 167.203C340.906 166.511 339.747 172.747 338.946 174.271C336.777 178.396 333.427 184.164 330.749 187.92C324.867 196.159 324.185 190.973 321.538 186.286C321.221 185.725 320.763 181.408 320.42 181.158C319.733 180.664 318.001 181.543 317.721 181.839C317.606 181.959 323.79 196.132 323.795 196.647C323.878 202.853 322.49 196.273 323.894 202.244L290.863 207.118C288.138 207.264 286.343 200.819 287.123 199.768C287.461 199.311 288.59 196.85 288.803 196.512C289.074 196.081 290.634 195.373 290.93 194.385C291.008 194.089 290.941 193.532 291.019 193.235C291.06 193.074 291.289 193.069 291.331 192.903C291.372 192.736 292.002 192.804 292.038 192.637C292.075 192.46 292.402 191.883 292.558 191.077C292.621 190.76 292.511 190.369 292.558 190.037C292.569 189.953 292.969 189.47 293.078 188.476C293.115 188.138 293.057 187.779 293.078 187.436C293.874 187.072 293.562 186.037 293.598 185.355C293.874 180.492 295.45 168.295 296.865 163.915C297.302 162.558 298.857 161.029 299.413 159.702C301.223 155.427 302.565 151.068 302.44 146.345C305.483 146.803 308.858 147.604 312 147.989C312.39 148.566 312.374 149.081 312.931 149.476C313.165 149.643 317.372 151.084 317.783 151.084C319.307 151.084 321.309 148.572 322.068 148.816C323.155 149.165 322.105 151.755 324.612 151.604C326.926 151.469 329.995 147.724 333.022 147.219C334.364 146.996 335.513 148.233 336.938 148.306C342.898 148.603 346.96 148.613 352.359 146.085C354.845 144.92 352.79 143.365 355.661 143.016C361.882 142.257 365.169 142.335 368.575 136.811C371.035 132.827 373.605 127.511 373.111 122.736C372.825 120.006 371.088 117.239 370.692 114.758C370.219 111.777 370.619 108.313 369.818 105.229C368.347 99.5489 358.59 88.8237 353.077 86.6027C347.564 84.3817 341.978 85.5416 336.725 84.1269C326.474 81.3598 321.632 74.7021 309.285 77.0011C304.656 77.8645 300.037 81.2609 295.356 81.7967C291.087 82.2908 286.811 80.9072 282.422 81.3441C278.427 81.7394 273.944 84.0437 269.924 84.4494C263.62 85.0892 257.754 82.9566 251.57 84.8187C247.721 85.9786 242.791 89.6039 240.008 92.5011C238.328 94.2487 234.937 99.9494 233.746 100.802C232.618 101.609 230.75 101.447 229.325 102.103C224.213 104.464 220.863 115.293 221.935 120.484C222.164 121.592 223.381 123.569 223.896 125.025C223.994 125.296 224.384 125.457 224.416 125.545C224.468 125.701 226.896 133.415 226.948 133.571C226.064 134.122 223.973 131.157 223.563 131.443C222.918 131.896 216.796 130.731 215.095 131.568C214.336 131.943 213.946 133.014 213.135 133.248C212.12 133.54 210.633 133.072 209.957 133.456C209.582 133.67 209.088 135.631 208.709 135.844C208.241 136.109 205.749 136.026 204.371 136.452C202.036 137.175 199.722 140.915 196.851 141.154L196.871 141.144Z" fill="white"/>
<path d="M224.956 127.62L223.916 128.655C225.008 128.806 225.091 128.707 224.956 127.62C225.44 129.342 226.028 130.996 225.996 132.822C225.549 132.031 224.031 129.706 223.235 129.784C214.893 132.785 207.466 137.711 199.368 141.191C198.894 141.393 198.328 141.778 197.397 142.184C197.209 141.851 197.079 141.471 196.876 141.144C199.747 140.905 202.062 137.17 204.397 136.442C205.775 136.015 208.272 136.098 208.735 135.833C209.114 135.62 209.608 133.659 209.983 133.446C210.659 133.066 212.146 133.534 213.161 133.238C213.977 133.004 214.367 131.932 215.121 131.558C216.827 130.72 221.903 129.675 222.548 129.222C222.959 128.936 223.557 126.606 224.441 126.055C224.639 126.622 224.79 127.001 224.962 127.615L224.956 127.62Z" fill="#D8D8D8"/>
<path d="M292.568 190.037L293.088 188.477C292.979 189.47 292.579 189.954 292.568 190.037Z" fill="#CDB4F6"/>
<path d="M292.048 192.638L292.568 191.077C292.412 191.883 292.085 192.461 292.048 192.638Z" fill="#CDB4F6"/>
<path d="M346.398 187.956C346.736 188.128 346.736 188.305 346.398 188.476V187.956Z" fill="white"/>
<path d="M226.673 133.098C230.209 139.324 232.051 143.162 238.838 146.767C245.625 150.371 250.42 148.187 257.405 149.003C263.032 149.664 267.958 153.476 274.121 153.128C285.402 152.483 287.019 144.02 302.445 146.345C302.57 151.068 301.228 155.427 299.418 159.702C298.857 161.024 297.307 162.553 296.87 163.916C295.455 168.295 293.879 180.492 293.604 185.355C292.459 186.037 293.11 187.041 293.084 187.436C293.063 187.779 293.12 188.138 293.084 188.476L292.563 190.037C292.517 190.37 292.626 190.76 292.563 191.077L292.043 192.637C292.007 192.804 292.085 192.996 292.043 193.157L291.534 193.418L292.043 193.678C291.965 193.979 292.121 194.421 292.043 194.718C292.007 194.843 291.383 195.207 291.232 195.706C290.707 197.495 291.633 199.394 289.037 199.774L256.677 203.3C247.502 213.822 239.618 225.323 230.417 235.814C229.731 236.594 228.966 237.353 228.072 237.889C218.991 233.546 210.051 228.875 201.391 223.741C191.332 217.781 181.742 210.067 171.73 204.512C162.951 199.633 153.147 196.897 144.857 191.077C144.794 189.844 143.988 189.059 142.776 188.996C142.693 188.762 142.813 188.289 142.776 187.956C146.027 185.21 148.674 181.345 151.623 178.339C155.399 174.48 161.203 170.36 164.1 166.111C166.336 164.899 172.167 160.966 172.942 158.829C180.067 155.167 188.274 148.228 195.498 143.651C196.159 143.23 197.168 143.485 196.866 142.184C197.012 142.122 197.241 142.247 197.386 142.184C198.317 141.784 198.889 141.394 199.357 141.191C207.455 137.711 218.024 132.38 226.366 129.379C227.162 129.295 226.215 132.307 226.662 133.098H226.673Z" fill="#FF5CDB"/>
<path d="M196.871 142.185C197.168 143.48 196.164 143.23 195.503 143.651C188.279 148.228 180.077 155.172 172.947 158.829C172.172 160.967 166.342 164.899 164.105 166.111C161.208 170.36 155.399 174.48 151.628 178.339C148.685 181.345 146.032 185.21 142.781 187.956C142.771 187.868 142.267 187.603 142.267 187.166C142.277 185.928 147.956 180.888 149.22 179.572C153.688 174.901 158.27 169.268 164.105 166.111C166.654 162.376 168.963 160.873 172.947 158.829C174.086 155.692 174.897 156.483 177.368 154.668C183.614 150.08 189.704 145.212 196.871 142.185Z" fill="#FF5CDB"/>
<path d="M293.088 187.436C293.114 187.041 292.464 186.037 293.608 185.355C293.572 186.037 293.884 187.072 293.088 187.436Z" fill="#CDB4F6"/>
<path d="M292.049 193.677L291.539 193.417L292.049 193.157C292.007 193.318 292.09 193.516 292.049 193.677Z" fill="#CDB4F6"/>
<path d="M357.06 143.744L344.183 140.239C339.736 139.677 334.728 140.348 330.541 141.934C321.533 145.341 323.353 149.383 311.292 147.911C308.151 147.526 305.493 146.808 302.45 146.35C287.024 144.025 285.402 152.488 274.126 153.133C267.963 153.481 263.038 149.669 257.41 149.008C250.42 148.191 245.713 150.418 238.843 146.771C231.973 143.125 229.538 139.053 226.002 132.827C226.033 131.001 225.445 129.347 224.962 127.625C224.79 127.012 224.639 126.632 224.442 126.065C224.39 125.909 224.494 125.701 224.442 125.545L223.921 125.025C223.407 123.574 222.184 121.592 221.961 120.484C220.889 115.293 224.234 104.464 229.351 102.102C230.776 101.442 232.643 101.603 233.772 100.802C234.963 99.9491 238.359 94.2484 240.034 92.5008C242.817 89.6036 247.747 85.9783 251.596 84.8184C257.78 82.9563 263.646 85.0889 269.95 84.4491C273.97 84.0434 278.453 81.7391 282.448 81.3438C286.842 80.9121 291.112 82.2905 295.382 81.7964C300.058 81.2554 304.682 77.859 309.311 77.0007C321.653 74.7017 326.5 81.3594 336.751 84.1266C342.004 85.5465 347.413 84.3138 353.103 86.6024C358.792 88.891 368.372 99.5486 369.844 105.228C370.645 108.313 370.245 111.777 370.718 114.757C371.113 117.238 372.851 120.005 373.137 122.736C373.636 127.516 371.062 132.827 368.601 136.811C365.195 142.335 363.291 142.99 357.071 143.744H357.06Z" fill="#2E2929"/>
<path d="M224.436 125.54C224.405 125.451 224.015 125.29 223.916 125.02L224.436 125.54Z" fill="#D8D8D8"/>
<path d="M228.077 237.888C230.214 253.128 232.638 269.008 231.738 284.461C230.969 297.714 227.489 304.044 217.014 311.867C197.984 326.082 179.64 341.494 159.586 354.82C146.989 363.189 130.528 374.47 117.307 381.196C114.062 382.85 112.096 383.942 108.237 383.479C107.051 383.339 106 382.6 104.814 382.486C104.31 381.341 103.488 380.785 102.214 380.925C101.84 379.193 100.758 378.163 100.274 376.364C99.6291 373.976 98.3237 361.384 98.5733 359.08C99.4367 351.028 110.104 342.893 114.977 336.735C115.83 335.653 116.007 334.181 117.286 333.333C114.291 331.398 113.162 331.72 111.056 328.392C110.868 328.095 111.56 327.008 110.015 327.351C111.388 326.009 109.651 321.12 109.506 319.279C109.292 316.611 110.166 305.703 111.056 303.425C111.44 302.432 113.864 299.399 114.696 297.704C117.187 296.403 119.523 294.812 121.978 293.543C122.316 293.366 122.674 293.199 123.018 293.022C136.421 286.198 150.936 280.586 164.625 274.293C164.839 273.507 164.417 273.429 164.116 272.992C161.853 269.71 157.708 265.783 155.061 262.282C144.014 247.677 127.506 221.629 136.977 203.211C138.147 200.938 144.217 192.954 144.347 191.596C144.363 191.44 144.383 191.139 144.347 191.076H144.867C153.157 196.896 162.961 199.632 171.74 204.511C181.747 210.072 191.343 217.785 201.401 223.741C210.061 228.874 219.007 233.545 228.082 237.888H228.077Z" fill="#2E2929"/>
<path d="M144.342 191.596C144.212 192.954 138.142 200.938 136.972 203.211C127.501 221.624 144.009 247.677 155.056 262.283C157.703 265.783 161.848 269.71 164.111 272.992C164.412 273.429 164.834 273.507 164.62 274.293C150.932 280.592 136.421 286.199 123.013 293.023C122.774 291.904 123.601 291.884 124.298 291.473C133.207 286.277 143.27 281.882 152.653 277.674C155.051 276.597 161.973 275.765 161.978 272.451C160.657 271.318 158.587 269.414 157.635 268.025C156.845 266.87 155.909 263.594 155.711 263.437C155.358 263.162 154.276 263.594 153.792 263.297C153.636 263.203 153.204 261.669 152.669 261.029C148.336 255.896 146.401 251.865 143.182 246.044C142.787 245.332 141.934 245.207 141.721 244.801C134.273 230.809 129.675 216.459 136.062 200.85C136.582 199.581 140.608 196.397 141.58 195.076C142.392 193.973 141.965 190.988 144.342 191.591V191.596Z" fill="#D8D8D8"/>
<path d="M111.055 303.425C110.166 305.703 109.292 316.611 109.505 319.279C109.651 321.115 111.388 326.009 110.015 327.351C109.745 327.617 106.328 328.891 105.314 329.671C101.538 332.568 98.3807 339.476 94.6932 342.976C91.8899 345.639 85.9973 349.046 84.6451 343.106C83.012 335.944 90.6469 323.664 92.8729 316.704C94.0379 313.063 94.116 308.034 96.2692 305.017C99.7643 300.127 106.203 301.761 111.055 303.42V303.425Z" fill="#FF5CDB"/>
<path d="M98.5733 359.079C98.3236 361.383 99.6291 373.981 100.274 376.363C100.758 378.163 101.839 379.193 102.214 380.925C101.496 381.003 97.4397 383.526 96.3007 384.139C95.5725 384.529 94.657 384.347 94.9326 385.606C94.7922 385.668 94.5634 385.544 94.4125 385.606C87.8229 388.259 78.191 400.914 72.808 401.231C65.3447 401.668 69.1619 391.926 71.0083 388.207C73.6244 382.933 78.2482 377.69 80.9787 372.431C85.0354 364.613 83.2514 360.083 94.1578 359.09C95.6193 358.954 97.1118 359.152 98.5733 359.079Z" fill="#FF5CDB"/>
<path d="M104.815 382.485C101.523 382.163 97.83 384.285 94.933 385.606C94.6574 384.347 95.5729 384.529 96.3011 384.139C97.4401 383.525 101.497 381.003 102.214 380.925C103.489 380.784 104.31 381.341 104.815 382.485Z" fill="#D8D8D8"/>
<path d="M258.253 201.906C258.253 201.906 258.076 231.829 263.209 235.017C268.343 238.206 274.542 238.736 281.979 236.609C289.417 234.481 323.41 221.379 328.72 215.185C334.031 208.99 339.788 207.923 339.788 207.923C339.788 207.923 343.949 207.039 349.436 200.043C349.436 200.043 358.423 193.625 362.584 190.749C362.584 190.749 363.957 188.491 362.761 187.825C361.564 187.16 360.368 187.56 358.511 188.886C356.655 190.213 351.121 195.04 349.524 195.175C347.927 195.31 348.463 192.34 348.463 192.34C348.463 192.34 361.034 180.611 360.857 179.415C360.68 178.219 360.415 175.566 357.58 177.865C354.746 180.164 347.225 188.444 346.294 188.044C345.363 187.643 346.159 186.01 346.159 186.01L353.597 176.715C353.597 176.715 356.738 173.704 355.765 171.316C354.793 168.929 350.72 173.532 350.72 173.532C350.72 173.532 343.018 184.689 341.691 185.35C340.365 186.01 339.081 185.126 339.299 183.581C339.517 182.036 343.86 171.894 343.86 171.894C343.86 171.894 346.294 167.421 343.725 166.625C341.156 165.829 337.219 177.204 337.219 177.204C337.219 177.204 331.862 187.342 330.577 188.007C329.292 188.673 328.897 191.945 325.574 191.461C325.574 191.461 323.894 190.088 322.474 184.554C321.054 179.02 317.824 180.081 317.824 180.081C317.824 180.081 314.901 181.542 319.109 190.13C323.317 198.717 322.739 201.552 322.739 201.552C322.739 201.552 297.551 204.475 293.879 206.332C290.207 208.189 288.345 205.006 288.345 205.006L288.481 199.43L287.373 196.153L258.248 201.906H258.253Z" fill="#F2C09A"/>
<path d="M311.859 148.035C311.859 148.035 311.459 151.088 315.245 150.292C315.245 150.292 316.509 152.149 318.964 151.156C321.419 150.163 320.555 148.763 322.22 149.361C322.22 149.361 323.348 152.815 324.477 152.815C325.605 152.815 325.538 152.285 328.658 150.688C331.779 149.091 331.914 146.574 335.165 148.498C338.415 150.423 348.178 148.3 348.178 148.3C348.178 148.3 354.684 145.445 356.078 143.453C357.472 141.461 343.195 135.947 343.195 135.947L318.095 138.205L311.854 148.03L311.859 148.035Z" fill="#F2C09A"/>
<path d="M224.956 127.62C225.091 128.707 225.008 128.806 223.916 128.655L224.956 127.62Z" fill="white"/>
<path d="M274.059 380.785C274.059 380.785 271.406 386.127 271.406 388.337C271.406 388.337 274.605 392.753 283.675 392.753C292.746 392.753 292.845 390.896 292.845 390.896C292.845 390.896 293.713 387.817 291.316 387.932C288.918 388.046 277.278 388.629 277.075 387.583C276.873 386.538 276.311 386.481 277.382 383.11C278.454 379.74 274.064 380.785 274.064 380.785H274.059Z" fill="#F9B328"/>
<path d="M274.111 381.747C274.111 381.747 271.641 386.324 271.641 388.217C271.641 388.217 274.621 391.999 283.067 391.999C291.513 391.999 291.607 390.407 291.607 390.407C291.607 390.407 292.413 387.77 290.182 387.869C287.951 387.968 277.112 388.467 276.92 387.573C276.727 386.678 276.207 386.626 277.206 383.739C277.585 382.637 278.272 380.421 277.684 380.161C277.31 379.994 276.212 379.578 275.781 379.578C275.115 379.578 274.116 381.747 274.116 381.747H274.111Z" fill="#FCCA59"/>
<path d="M233.72 321.51C224.291 331.175 218.372 347.819 221.773 361.108C222.855 365.337 224.821 368.744 226.6 372.676C226.548 372.765 226.475 372.848 226.407 372.931C227.744 374.205 229.283 375.386 229.627 377.409C229.767 377.279 229.897 377.154 230.017 377.035L233.517 380.977C233.392 381.159 233.257 381.326 233.132 381.498C235.556 380.925 236.216 383.427 237.178 384.878C237.194 384.863 237.205 384.852 237.22 384.837L237.777 384.676L240.076 386.335C240.029 386.402 239.982 386.465 239.935 386.533C242.12 386.439 242.697 389.123 244.179 389.83C244.257 389.685 244.325 389.544 244.377 389.398L251.101 392.342C251.159 392.483 251.19 392.618 251.211 392.753C253.223 393.268 254.893 394.199 256.984 394.615C257.083 394.465 257.171 394.319 257.249 394.189C262.076 394.948 266.569 394.641 271.323 393.58C281.6 389.757 288.086 381.659 289.916 370.851C291.102 363.844 290.332 355.179 287.935 348.552L296.137 355.033C295.97 353.91 295.731 352.755 295.408 351.668C293.479 345.182 289.635 337.031 286.354 331.091C278.843 317.495 268.832 304.663 257.899 293.704L256.198 318.088C255.902 318.983 255.189 318.078 254.867 317.646C252.256 314.135 249.905 309.485 247.424 305.782C247.154 305.381 246.863 304.887 246.358 305.329C245.474 306.104 242.088 325.619 240.679 328.251L240.143 328.59L235.582 320.168C234.953 320.387 234.193 321.027 233.725 321.505L233.72 321.51Z" fill="#FCCA59"/>
<path d="M232.128 332.896C229.736 334.415 226.527 334.098 226.215 337.322M235.577 320.168C235.577 320.168 210.097 342.81 226.595 372.676C226.595 372.676 235.265 384.135 244.371 389.404C244.371 389.404 264.702 400.566 278.526 389.773C292.355 378.985 291.679 361.977 287.929 348.552L296.131 355.033C296.131 355.033 290.285 326.228 257.894 293.704L255.569 317.235L246.577 304.658L240.336 328.766L235.582 320.168H235.577Z" stroke="#EAEBA0" stroke-width="4" stroke-miterlimit="10"/>
<path d="M240.565 385.409C240.565 385.409 239.181 388.691 230.704 392.426C230.704 392.426 228.467 394.501 230.438 397.164C232.404 399.827 235.395 399.208 237.018 397.409C237.018 397.409 237.309 396.925 236.69 396.285C236.69 396.285 237.423 394.319 240.559 392.951C243.69 391.583 244.912 388.421 244.912 388.421" fill="#FCCA59"/>
<path d="M234.49 379.578C234.49 379.578 233.018 382.969 224.322 386.969C224.322 386.969 222.007 389.143 223.958 391.833C225.903 394.522 228.956 393.825 230.641 391.952C230.641 391.952 230.948 391.453 230.329 390.808C230.329 390.808 231.114 388.779 234.328 387.313C237.543 385.846 238.843 382.579 238.843 382.579" fill="#FCCA59"/>
<path d="M234.313 333.749L230.771 330.035L226.61 334.155C226.61 334.155 224.764 336.828 225.019 338.373C225.274 339.918 227.957 338.747 227.957 338.747L234.313 333.744V333.749Z" fill="#FCCA59"/>
<path d="M247.201 358.144C247.201 358.144 247.346 364.687 255.486 363.085" stroke="#2B2B2B" stroke-width="2" stroke-miterlimit="10" stroke-linecap="round"/>
<path d="M269.602 367.152C269.602 367.152 269.747 373.696 277.887 372.094" stroke="#2B2B2B" stroke-width="2" stroke-miterlimit="10" stroke-linecap="round"/>
<path d="M259.122 375.74C259.122 376.764 256.968 378.361 254.321 379.308C251.674 380.255 249.567 380.187 249.567 379.173C249.567 378.158 251.689 376.572 254.321 375.62C256.953 374.668 259.122 374.715 259.122 375.74Z" fill="#2B2B2B"/>
<path d="M251.231 380.124C251.231 380.124 253.993 380.056 254.066 380.566C254.139 381.076 253.873 382.335 254.503 382.361C255.132 382.387 256.053 382.069 256.151 381.513C256.25 380.956 256.516 380.493 256.854 381.003C257.192 381.513 257.171 382.673 256.854 382.891C256.536 383.11 256.443 384.249 257.337 384.103C258.232 383.958 259.132 382.917 259.007 382.382C258.882 381.846 258.039 381.071 258.206 380.421C258.372 379.77 259.007 379.791 259.272 379.937C259.537 380.082 261.597 380.036 260.676 378.969C259.756 377.903 258.664 379.235 258.57 378.366C258.476 377.497 258.814 377.81 259.007 377.419C259.199 377.029 258.996 376.852 258.684 376.676C258.372 376.499 254.134 377.274 253.77 378.387C253.406 379.5 249.843 379.568 251.226 380.129L251.231 380.124Z" fill="white"/>
<path d="M254.082 380.691C254.082 380.691 254.051 381.83 254.134 382.018C254.217 382.205 254.264 382.366 254.581 382.361C254.899 382.356 255.523 382.267 255.918 381.903C255.918 381.903 254.639 382.288 254.628 382.07C254.628 382.07 254.28 382.07 254.082 380.691Z" fill="#C2C1C1"/>
<path d="M256.854 382.892C256.854 382.892 256.636 383.006 256.63 383.521C256.625 384.036 257.026 384.099 257.026 384.099C257.026 384.099 257.457 384.276 258.263 383.662C259.069 383.048 259.018 382.444 259.018 382.444C259.018 382.444 258.924 382.034 258.669 381.722C258.669 381.722 258.945 382.814 258.378 383.069C257.811 383.324 257.676 383.969 257.301 383.797C256.927 383.625 256.687 383.708 256.854 382.897V382.892Z" fill="#C2C1C1"/>
<path d="M173.228 394.621C173.228 394.621 192.352 388.54 200.32 371.272C208.288 354.004 218.377 358.144 218.377 358.144C218.377 358.144 230.262 362.477 232.134 376.645C232.134 376.645 246.988 389.602 255.923 389.602C264.858 389.602 274.948 388.197 276.275 392.748C277.601 397.3 277.335 412.706 265.384 415.629C253.432 418.552 239.431 427.847 237.267 431.301C235.104 434.754 209.874 433.959 208.283 440.33C206.691 446.702 191.816 447.238 190.225 438.739C188.633 430.24 180.666 416.695 175.886 415.9C171.106 415.104 158.889 399.115 173.228 394.626V394.621Z" fill="#C2A0FB"/>
<path d="M223.792 361.4C223.792 361.4 221.139 366.742 221.139 368.953C221.139 368.953 224.338 373.369 233.408 373.369C242.479 373.369 242.578 371.512 242.578 371.512C242.578 371.512 243.446 368.433 241.049 368.547C238.651 368.661 227.011 369.244 226.808 368.199C226.605 367.153 226.044 367.096 227.115 363.725C228.187 360.355 223.797 361.4 223.797 361.4H223.792Z" fill="#F9B328"/>
<path d="M223.849 362.362C223.849 362.362 221.378 366.939 221.378 368.833C221.378 368.833 224.359 372.614 232.805 372.614C241.251 372.614 241.345 371.022 241.345 371.022C241.345 371.022 242.151 368.385 239.92 368.484C237.689 368.583 226.85 369.083 226.657 368.188C226.465 367.293 225.945 367.241 226.944 364.354C227.323 363.252 228.01 361.036 227.422 360.776C227.048 360.61 225.95 360.193 225.518 360.193C224.853 360.193 223.854 362.362 223.854 362.362H223.849Z" fill="#FCCA59"/>
</g>
<defs>
<clipPath id="clip0_253_188">
<rect width="440" height="465" fill="white"/>
</clipPath>
</defs>
</svg>
