<svg width="1017" height="521" viewBox="0 0 1017 521" fill="none" xmlns="http://www.w3.org/2000/svg">
<path d="M593.093 8.95191C600.53 8.41555 608.681 9.1308 616.189 9.05929C621.052 9.73867 623.698 13.1355 623.984 17.927C624.27 22.1821 623.841 26.5798 623.841 30.8349C623.841 38.5942 625.735 47.891 614.938 48.7135C607.787 48.3559 600.136 49.1783 593.057 48.7135C587.551 48.3201 584.513 44.9596 584.155 39.5245C584.513 32.4803 583.726 25.0428 584.155 18.0344C584.513 12.492 587.552 9.30941 593.093 8.88033V8.95191ZM616.69 20.1435H591.592C591.521 20.3938 591.7 20.43 591.807 20.573C594.524 24.113 598.813 27.2591 601.674 30.7633C603.211 32.0863 604.714 32.1937 606.322 30.9064C609.647 27.2235 613.437 23.9338 616.69 20.1793V20.1435ZM590.733 20.9658V36.5206L598.42 28.7257L590.733 20.93V20.9658ZM617.369 20.9658L609.503 28.7615L617.369 36.6995V21.0016V20.9658ZM591.449 37.3787H616.69C615.796 36.4848 609.468 29.5123 608.896 29.5123C608.395 29.5123 606.821 32.4082 604.676 32.6227C601.673 32.9088 601.102 31.1572 599.064 29.5481L591.412 37.3787H591.449Z" fill="#4496D2"/>
<path d="M616.692 20.1422C613.438 23.8967 609.649 27.1864 606.324 30.8694C604.715 32.1567 603.248 32.0501 601.675 30.7271C598.815 27.2587 594.49 24.0759 591.808 20.536C591.701 20.3929 591.522 20.3567 591.594 20.1064H616.692V20.1422Z" fill="#FDFEFF"/>
<path d="M591.45 37.3767L599.101 29.546C601.139 31.1551 601.675 32.9067 604.714 32.6207C606.823 32.4419 608.433 29.5103 608.933 29.5103C609.469 29.5103 615.832 36.4827 616.726 37.3767H591.485H591.45Z" fill="#FDFEFF"/>
<path d="M617.37 20.9653V36.6632L609.541 28.761L617.37 20.9653Z" fill="#FDFEFF"/>
<path d="M590.734 20.9653L598.42 28.761L590.734 36.5559V20.9653Z" fill="#FDFEFF"/>
<path d="M324.415 239.799C330.565 239.334 337.321 239.978 343.506 239.906C347.546 240.443 349.728 243.303 349.978 247.272C350.192 250.812 349.835 254.423 349.835 257.963C349.835 264.399 351.408 272.052 342.47 272.767C336.535 272.445 330.243 273.16 324.344 272.767C319.767 272.445 317.265 269.656 316.979 265.186C317.265 259.358 316.621 253.207 316.979 247.415C317.265 242.838 319.802 240.192 324.379 239.835L324.415 239.799ZM343.936 249.024H323.164C323.128 249.238 323.234 249.239 323.342 249.382C325.558 252.314 329.134 254.924 331.529 257.785C332.816 258.858 334.033 258.964 335.356 257.891C338.109 254.816 341.254 252.135 343.936 249.024ZM322.485 249.739V262.612L328.848 256.175L322.485 249.739ZM344.543 249.739L338.037 256.175L344.543 262.719V249.704V249.739ZM323.055 263.327H343.936C343.221 262.576 337.964 256.819 337.499 256.819C337.07 256.819 335.784 259.215 334.032 259.394C331.53 259.608 331.1 258.178 329.384 256.855L323.055 263.362V263.327Z" fill="#4496D2"/>
<path d="M343.936 249.022C341.255 252.133 338.109 254.85 335.356 257.89C334.033 258.962 332.781 258.856 331.529 257.783C329.17 254.887 325.594 252.276 323.342 249.38C323.235 249.273 323.128 249.237 323.164 249.022H343.936Z" fill="#FDFEFF"/>
<path d="M323.056 263.324L329.384 256.817C331.064 258.14 331.53 259.606 334.033 259.356C335.785 259.213 337.106 256.781 337.5 256.781C337.965 256.781 343.221 262.538 343.936 263.288H323.056V263.324Z" fill="#FDFEFF"/>
<path d="M344.544 249.738V262.717L338.038 256.173L344.544 249.738Z" fill="#FDFEFF"/>
<path d="M322.485 249.738L328.848 256.173L322.485 262.61V249.738Z" fill="#FDFEFF"/>
<path d="M479.26 15.0995C478.259 21.214 476.113 27.6143 474.754 33.6573C473.288 37.4475 470.035 38.9137 466.102 38.2343C462.634 37.6264 459.167 36.4465 455.735 35.6241C449.478 34.1223 441.647 33.8721 443.041 25.0401C444.722 19.3547 445.474 13.0259 447.226 7.41203C448.585 3.04965 451.872 1.22597 456.305 1.97687C461.919 3.6217 468.069 4.40801 473.611 6.0886C478.008 7.44737 479.975 10.4868 479.26 15.0637V15.0995ZM465.745 31.941L470.535 11.7385C470.356 11.6312 470.285 11.7386 470.142 11.8101C466.781 13.3119 463.421 16.1722 460.061 17.8171C458.702 18.8183 458.308 19.9626 459.058 21.536C461.382 24.9329 463.314 28.6156 465.71 31.941H465.745ZM470.036 10.8804L457.486 7.91225L462.278 15.5997L469.999 10.9162L470.036 10.8804ZM464.922 32.3347L460.167 24.539L452.303 29.3308L464.959 32.3347H464.922ZM456.663 8.30596L451.836 28.6516C452.73 28.1152 459.56 24.3247 459.668 23.8956C459.775 23.5023 457.736 21.6434 457.987 19.9271C458.344 17.4598 459.847 17.3522 461.527 15.9934L456.663 8.30596Z" fill="#4496D2"/>
<path d="M465.744 31.9427C463.348 28.6172 461.418 24.9346 459.094 21.5376C458.343 20.0001 458.736 18.8199 460.094 17.8187C463.455 16.1739 466.817 13.3136 470.178 11.8118C470.321 11.7403 470.356 11.6329 470.57 11.7402L465.78 31.9427H465.744Z" fill="#FDFEFF"/>
<path d="M456.663 8.30762L461.526 15.9951C459.846 17.3181 458.344 17.4257 457.986 19.9287C457.736 21.6808 459.774 23.5039 459.667 23.8973C459.56 24.3264 452.73 28.1169 451.836 28.6533L456.663 8.30762Z" fill="#FDFEFF"/>
<path d="M464.922 32.3372L452.266 29.3333L460.167 24.5415L464.922 32.3372Z" fill="#FDFEFF"/>
<path d="M470.035 10.8812L462.277 15.6005L457.485 7.91309L470.035 10.8812Z" fill="#FDFEFF"/>
<path d="M753.836 332.338C759.986 331.874 766.742 332.517 772.927 332.446C776.967 332.982 779.148 335.843 779.399 339.812C779.613 343.352 779.256 346.963 779.256 350.503C779.256 356.94 780.828 364.591 771.89 365.306C765.956 364.985 759.664 365.7 753.765 365.306C749.188 364.985 746.685 362.196 746.399 357.726C746.685 351.898 746.042 345.748 746.399 339.955C746.685 335.378 749.225 332.732 753.801 332.374L753.836 332.338ZM773.357 341.564H752.584C752.549 341.779 752.657 341.778 752.764 341.921C754.981 344.853 758.556 347.464 760.952 350.324C762.239 351.397 763.454 351.505 764.777 350.432C767.53 347.357 770.675 344.675 773.357 341.564ZM751.905 342.279V355.152L758.27 348.716L751.905 342.279ZM773.964 342.279L767.458 348.716L773.964 355.258V342.243V342.279ZM752.478 355.867H773.357C772.642 355.116 767.387 349.359 766.922 349.359C766.493 349.359 765.205 351.755 763.453 351.933C760.951 352.148 760.522 350.718 758.806 349.395L752.478 355.903V355.867Z" fill="#4496D2"/>
<path d="M773.357 341.565C770.675 344.676 767.53 347.394 764.777 350.433C763.454 351.506 762.203 351.398 760.952 350.326C758.592 347.429 755.017 344.819 752.764 341.922C752.657 341.815 752.549 341.78 752.585 341.565H773.357Z" fill="#FDFEFF"/>
<path d="M752.479 355.869L758.807 349.36C760.487 350.684 760.951 352.149 763.454 351.899C765.206 351.756 766.529 349.325 766.923 349.325C767.387 349.325 772.642 355.082 773.357 355.833H752.479V355.869Z" fill="#FDFEFF"/>
<path d="M773.965 342.281V355.296L767.458 348.718L773.965 342.281Z" fill="#FDFEFF"/>
<path d="M751.906 342.281L758.271 348.718L751.906 355.154V342.281Z" fill="#FDFEFF"/>
<path d="M237.644 336.736C243.401 331.23 250.586 326.296 256.664 321.147C261.097 318.393 265.602 319.394 269.106 323.113C272.216 326.438 274.862 330.336 277.758 333.804C283.049 340.169 290.916 346.498 282.621 354.543C276.508 359.084 270.823 364.985 264.673 369.419C259.883 372.852 255.127 372.172 251.123 367.952C246.618 361.945 240.898 356.367 236.536 350.324C233.068 345.533 233.389 340.848 237.679 336.736H237.644ZM264.602 329.871L244.008 346.963C244.115 347.214 244.293 347.142 244.472 347.178C249.084 348.251 254.769 347.893 259.489 348.823C261.67 348.823 262.956 347.964 263.385 345.783C263.6 340.491 264.495 335.199 264.602 329.907V329.871ZM243.901 348.214L254.484 360.98L255.484 349.359L243.901 348.178V348.214ZM265.745 330.086L264.602 341.814L276.436 342.994L265.745 330.086ZM255.627 361.195L276.328 344.031C275.005 343.888 265.067 342.493 264.602 342.886C264.209 343.208 264.851 346.677 263.242 348.286C260.954 350.574 259.311 349.502 256.558 349.573L255.592 361.23L255.627 361.195Z" fill="#4496D2"/>
<path d="M264.602 329.872C264.495 335.164 263.6 340.42 263.385 345.748C262.956 347.929 261.67 348.823 259.489 348.787C254.77 347.893 249.084 348.215 244.472 347.143C244.293 347.107 244.115 347.178 244.008 346.928L264.602 329.836V329.872Z" fill="#FDFEFF"/>
<path d="M255.627 361.196L256.593 349.539C259.346 349.468 260.991 350.54 263.279 348.252C264.888 346.643 264.208 343.174 264.637 342.852C265.102 342.459 275.042 343.89 276.365 343.997L255.664 361.161L255.627 361.196Z" fill="#FDFEFF"/>
<path d="M265.745 330.087L276.436 342.959L264.602 341.816L265.745 330.087Z" fill="#FDFEFF"/>
<path d="M243.901 348.214L255.484 349.358L254.484 360.979L243.901 348.214Z" fill="#FDFEFF"/>
<path d="M194.098 256.317C202.965 257.247 212.368 259.858 221.199 261.324C226.776 263.147 229.136 267.724 228.493 273.409C227.921 278.487 226.49 283.564 225.596 288.534C223.952 297.652 224.202 308.952 211.367 307.665C203.037 305.698 193.884 305.09 185.661 303.016C179.262 301.407 176.401 296.794 177.116 290.358C179.011 282.17 179.655 273.23 181.657 265.113C183.23 258.677 187.484 255.566 194.098 256.281V256.317ZM219.446 274.446L189.951 269.118C189.843 269.405 190.022 269.476 190.094 269.654C192.525 274.374 196.924 278.988 199.57 283.708C201.107 285.567 202.823 286.031 205.004 284.851C209.688 281.204 214.835 278.165 219.483 274.446H219.446ZM188.772 269.941L185.482 288.248L196.172 280.74L188.807 269.977L188.772 269.941ZM220.09 275.591L209.222 283.063L216.765 294.041L220.09 275.591ZM186.126 289.393L215.799 294.72C214.941 293.469 208.971 283.957 208.328 283.85C207.756 283.743 205.253 286.818 202.75 286.603C199.139 286.282 198.89 284.101 196.817 281.812L186.162 289.428L186.126 289.393Z" fill="#4496D2"/>
<path d="M219.447 274.446C214.835 278.165 209.687 281.24 204.968 284.851C202.787 286.031 201.071 285.567 199.533 283.707C196.887 278.987 192.49 274.374 190.059 269.654C189.952 269.475 189.773 269.404 189.916 269.118L219.412 274.446H219.447Z" fill="#FDFEFF"/>
<path d="M186.125 289.392L196.779 281.776C198.853 284.101 199.104 286.281 202.715 286.567C205.253 286.782 207.72 283.707 208.292 283.814C208.936 283.921 214.942 293.468 215.764 294.684L186.09 289.356L186.125 289.392Z" fill="#FDFEFF"/>
<path d="M220.09 275.589L216.764 294.039L209.221 283.062L220.09 275.589Z" fill="#FDFEFF"/>
<path d="M188.772 269.939L196.135 280.738L185.481 288.246L188.772 269.939Z" fill="#FDFEFF"/>
<path d="M837.104 63.6224C847.793 64.7309 859.163 67.8773 869.782 69.6651C876.503 71.8463 879.363 77.3532 878.577 84.2544C877.862 90.3688 876.146 96.4828 875.073 102.526C873.107 113.539 873.392 127.162 857.911 125.625C847.864 123.265 836.817 122.55 826.914 120.047C819.191 118.116 815.759 112.574 816.617 104.779C818.906 94.91 819.691 84.147 822.087 74.3495C824.017 66.5902 829.131 62.8358 837.104 63.694V63.6224ZM867.708 85.4695L832.133 79.0689C831.99 79.3907 832.206 79.4986 832.313 79.7131C835.245 85.3985 840.536 90.9766 843.718 96.662C845.577 98.9147 847.651 99.4864 850.261 98.0204C855.946 93.6222 862.13 89.9392 867.708 85.4695ZM830.704 80.0344L826.736 102.097L839.607 93.0147L830.704 80.0344ZM868.493 86.8646L855.372 95.9112L864.49 109.141L868.493 86.8646ZM827.521 103.491L863.31 109.928C862.273 108.426 855.051 96.9482 854.301 96.8052C853.586 96.6621 850.582 100.381 847.543 100.13C843.181 99.737 842.859 97.1263 840.392 94.3373L827.521 103.491Z" fill="#4496D2"/>
<path d="M867.709 85.4715C862.131 89.9769 855.947 93.6599 850.262 98.0223C847.652 99.4526 845.578 98.9166 843.719 96.6639C840.537 90.9785 835.246 85.4005 832.314 79.7151C832.207 79.5005 831.991 79.3926 832.134 79.0708L867.709 85.4715Z" fill="#FDFEFF"/>
<path d="M827.522 103.491L840.393 94.3374C842.86 97.1265 843.182 99.7372 847.544 100.13C850.583 100.381 853.586 96.698 854.301 96.8053C855.088 96.9483 862.31 108.426 863.311 109.928L827.522 103.491Z" fill="#FDFEFF"/>
<path d="M868.494 86.8647L864.491 109.106L855.373 95.8756L868.494 86.8647Z" fill="#FDFEFF"/>
<path d="M830.704 80.0347L839.608 93.0508L826.736 102.133L830.704 80.0347Z" fill="#FDFEFF"/>
<path d="M699.492 272.732C701.423 282.243 701.781 292.864 703.104 302.482C703.033 308.847 699.065 312.816 692.951 313.996C687.517 315.033 681.76 315.212 676.29 315.891C666.279 317.143 654.659 321.111 651.799 307.345C651.12 298.084 648.761 288.394 648.261 279.169C647.867 271.981 651.692 267.547 658.628 266.188C667.745 265.509 677.22 263.256 686.265 262.684C693.451 262.255 698.062 265.652 699.492 272.732ZM688.946 304.914L684.87 272.589C684.548 272.553 684.512 272.768 684.369 272.911C680.257 276.952 676.898 283.03 672.858 287.285C671.428 289.502 671.498 291.397 673.429 293.292C678.72 296.975 683.583 301.338 688.946 304.914ZM683.655 271.623L663.597 274.162L674.86 282.78L683.655 271.623ZM687.981 305.951L676.683 297.119L667.745 308.525L687.981 305.986V305.951ZM662.633 275.199L666.744 307.703C667.745 306.415 675.682 297.118 675.611 296.403C675.539 295.759 671.535 294.186 670.927 291.505C670.069 287.679 672.249 286.677 674.001 283.78L662.668 275.199H662.633Z" fill="#4496D2"/>
<path d="M688.947 304.911C683.585 301.335 678.757 296.972 673.43 293.289C671.499 291.43 671.393 289.499 672.859 287.282C676.899 283.027 680.259 276.949 684.37 272.908C684.549 272.729 684.549 272.514 684.871 272.586L688.947 304.911Z" fill="#FDFEFF"/>
<path d="M662.633 275.198L673.967 283.779C672.25 286.675 670.068 287.641 670.891 291.503C671.498 294.185 675.467 295.758 675.574 296.402C675.646 297.117 667.745 306.414 666.708 307.701L662.597 275.198H662.633Z" fill="#FDFEFF"/>
<path d="M687.981 305.949L667.745 308.523L676.683 297.117L687.981 305.949Z" fill="#FDFEFF"/>
<path d="M683.655 271.622L674.861 282.779L663.597 274.161L683.655 271.622Z" fill="#FDFEFF"/>
<path d="M73.7029 37.8722C87.5391 39.3382 102.269 43.3786 116.07 45.7028C124.793 48.5276 128.511 55.6792 127.475 64.5827C126.545 72.485 124.328 80.4236 122.934 88.2544C120.36 102.522 120.79 120.185 100.697 118.183C87.6832 115.143 73.3814 114.178 60.5105 110.924C50.4999 108.385 46.0309 101.234 47.175 91.1151C50.1424 78.3141 51.1434 64.3686 54.2539 51.6748C56.7208 41.6271 63.3705 36.7637 73.7029 37.8364V37.8722ZM113.353 66.1916L67.2682 57.8966C67.0894 58.3256 67.3748 58.4329 67.5178 58.7547C71.3076 66.1207 78.2083 73.3432 82.3198 80.7092C84.7152 83.6413 87.3971 84.3565 90.7935 82.4971C98.1228 76.8117 106.166 72.0201 113.388 66.2274L113.353 66.1916ZM65.409 59.1475L60.2609 87.7533L76.922 75.989L65.3724 59.1475H65.409ZM114.354 67.9795L97.3714 79.6721L109.169 96.8358L114.354 67.9795ZM61.2612 89.5412L107.633 97.8729C106.31 95.942 96.9427 81.0312 95.9417 80.8524C95.0121 80.6736 91.1511 85.5007 87.2183 85.1431C81.5694 84.6425 81.175 81.2461 77.9573 77.6346L61.2978 89.5054L61.2612 89.5412Z" fill="#4496D2"/>
<path d="M113.353 66.1907C106.131 72.0191 98.0852 76.775 90.756 82.4604C87.3595 84.3198 84.6794 83.6046 82.284 80.6725C78.1725 73.3066 71.3076 66.084 67.4821 58.718C67.3391 58.4319 67.0519 58.2889 67.2307 57.8599L113.316 66.1549L113.353 66.1907Z" fill="#FDFEFF"/>
<path d="M61.2615 89.5402L77.9226 77.6694C81.1403 81.2809 81.5331 84.6773 87.1819 85.1779C91.1147 85.5355 95.0115 80.7084 95.9053 80.8872C96.9064 81.066 106.274 95.941 107.596 97.9077L61.2266 89.576L61.2615 89.5402Z" fill="#FDFEFF"/>
<path d="M114.353 67.9795L109.169 96.8358L97.3711 79.6722L114.353 67.9795Z" fill="#FDFEFF"/>
<path d="M65.4089 59.145L76.9568 75.9865L60.2607 87.7508L65.4089 59.145Z" fill="#FDFEFF"/>
<path d="M709.004 440.11C722.84 441.577 737.57 445.617 751.371 447.941C760.094 450.766 763.812 457.917 762.775 466.821C761.846 474.723 759.629 482.661 758.235 490.492C755.661 504.759 756.089 522.423 735.996 520.421C722.982 517.382 708.682 516.416 695.811 513.162C685.801 510.623 681.332 503.472 682.476 493.353C685.443 480.551 686.444 466.606 689.555 453.912C692.022 443.864 698.671 439.002 709.004 440.075V440.11ZM748.618 468.466L702.532 460.17C702.354 460.599 702.641 460.706 702.784 461.028C706.573 468.394 713.472 475.617 717.584 482.983C719.979 485.915 722.661 486.631 726.058 484.771C733.387 479.086 741.431 474.294 748.653 468.501L748.618 468.466ZM700.673 461.422L695.525 490.027L712.186 478.263L700.638 461.422H700.673ZM749.618 470.218L732.636 481.91L744.435 499.074L749.618 470.218ZM696.562 491.779L742.934 500.11C741.611 498.179 732.244 483.269 731.242 483.09C730.313 482.911 726.452 487.739 722.519 487.381C716.87 486.881 716.476 483.484 713.258 479.872L696.599 491.744L696.562 491.779Z" fill="#4496D2"/>
<path d="M748.616 468.465C741.394 474.293 733.351 479.049 726.021 484.734C722.625 486.594 719.943 485.878 717.548 482.946C713.436 475.58 706.571 468.357 702.746 460.991C702.603 460.705 702.317 460.562 702.496 460.133L748.58 468.429L748.616 468.465Z" fill="#FDFEFF"/>
<path d="M696.561 491.779L713.222 479.908C716.44 483.519 716.833 486.916 722.482 487.417C726.414 487.775 730.311 482.947 731.205 483.126C732.206 483.304 741.573 498.179 742.896 500.146L696.526 491.815L696.561 491.779Z" fill="#FDFEFF"/>
<path d="M749.617 470.217L744.434 499.074L732.635 481.91L749.617 470.217Z" fill="#FDFEFF"/>
<path d="M700.673 461.421L712.22 478.263L695.561 489.991L700.673 461.421Z" fill="#FDFEFF"/>
<path d="M25.9193 325.97C17.9823 319.676 10.5103 311.452 2.96658 304.623C-1.28795 299.474 -0.78707 293.645 3.32445 288.568C6.97119 284.062 11.4397 280.057 15.3368 275.802C22.4872 268.043 29.1017 257.03 40.6497 266.112C47.4426 273.049 55.844 279.235 62.4939 286.243C67.6422 291.678 67.6061 297.829 62.9583 303.621C56.1296 310.344 50.0873 318.496 43.2229 325.076C37.7885 330.296 31.8193 330.69 25.8844 325.97H25.9193ZM12.6553 293.109L37.7186 316.172C38.0047 315.993 37.8609 315.815 37.8967 315.565C38.433 309.557 37.039 302.441 37.3608 296.327C37.039 293.609 35.6795 292.107 32.8551 291.929C26.1336 292.572 19.3419 292.358 12.6204 293.109H12.6553ZM39.3264 316.101L53.6274 300.546L38.7905 301.262L39.2915 316.101H39.3264ZM12.7269 291.642L27.7069 291.071L27.1343 275.945L12.692 291.642H12.7269ZM53.699 299.08L28.4942 275.874C28.5658 277.59 28.4939 290.355 29.0302 290.892C29.5307 291.356 33.7843 289.926 36.0724 291.678C39.3259 294.181 38.2534 296.434 38.8254 299.902L53.699 299.116V299.08Z" fill="#4496D2"/>
<path d="M12.6543 293.108C19.34 292.358 26.1692 292.572 32.8907 291.928C35.7151 292.107 37.0729 293.573 37.3946 296.326C37.0729 302.441 38.4669 309.557 37.9306 315.564C37.9306 315.814 38.0385 315.993 37.7525 316.172L12.691 293.108H12.6543Z" fill="#FDFEFF"/>
<path d="M53.6979 299.08L38.8243 299.866C38.2523 296.398 39.3248 294.145 36.0713 291.642C33.7832 289.89 29.5296 291.32 29.0291 290.855C28.4928 290.355 28.5289 277.554 28.4932 275.837L53.6979 299.044V299.08Z" fill="#FDFEFF"/>
<path d="M12.7256 291.643L27.133 275.946L27.7056 291.071L12.7256 291.643Z" fill="#FDFEFF"/>
<path d="M39.3252 316.1L38.8242 301.297L53.6262 300.581L39.3252 316.1Z" fill="#FDFEFF"/>
<path d="M405.251 495.498C398.887 490.457 392.88 483.841 386.802 478.371C383.406 474.259 383.799 469.538 387.088 465.462C390.02 461.85 393.596 458.633 396.742 455.2C402.463 448.978 407.825 440.11 417.085 447.404C422.555 452.982 429.313 457.953 434.64 463.567C438.787 467.929 438.75 472.9 434.996 477.512C429.526 482.912 424.665 489.455 419.159 494.747C414.797 498.93 409.971 499.253 405.216 495.463L405.251 495.498ZM394.56 469.109L414.69 487.631C414.904 487.488 414.833 487.346 414.833 487.131C415.262 482.304 414.153 476.582 414.404 471.684C414.118 469.502 413.044 468.287 410.792 468.144C405.393 468.644 399.924 468.501 394.525 469.109H394.56ZM416.011 487.595L427.525 475.116L415.619 475.689L416.048 487.595H416.011ZM394.632 467.929L406.681 467.465L406.216 455.307L394.632 467.929ZM427.561 473.937L407.288 455.307C407.324 456.666 407.289 466.964 407.718 467.357C408.111 467.715 411.543 466.57 413.367 467.965C415.977 469.967 415.119 471.791 415.584 474.58L427.525 473.937H427.561Z" fill="#4496D2"/>
<path d="M394.561 469.109C399.959 468.501 405.395 468.68 410.829 468.144C413.081 468.287 414.189 469.467 414.439 471.683C414.153 476.582 415.298 482.339 414.869 487.131C414.869 487.31 414.94 487.488 414.725 487.631L394.597 469.109H394.561Z" fill="#FDFEFF"/>
<path d="M427.562 473.936L415.619 474.58C415.154 471.791 416.012 469.967 413.402 467.964C411.579 466.57 408.148 467.714 407.755 467.357C407.326 466.964 407.361 456.666 407.325 455.307L427.596 473.936H427.562Z" fill="#FDFEFF"/>
<path d="M394.632 467.929L406.217 455.307L406.681 467.464L394.632 467.929Z" fill="#FDFEFF"/>
<path d="M416.012 487.596L415.584 475.689L427.49 475.117L416.012 487.596Z" fill="#FDFEFF"/>
<path d="M389.986 302.232C396.707 297.655 404.823 293.936 411.867 289.752C416.836 287.75 421.162 289.538 424.094 293.9C426.668 297.798 428.671 302.16 430.994 306.164C435.213 313.495 442.077 321.254 432.353 327.905C425.381 331.445 418.658 336.416 411.687 339.813C406.252 342.459 401.569 340.957 398.28 335.986C394.776 329.157 389.985 322.542 386.589 315.712C383.907 310.277 385.052 305.629 390.057 302.196L389.986 302.232ZM418.338 299.943L394.633 313.602C394.704 313.853 394.884 313.817 395.062 313.889C399.531 315.748 405.324 316.391 409.936 318.108C412.117 318.501 413.583 317.822 414.405 315.712C415.549 310.42 417.336 305.235 418.373 299.907L418.338 299.943ZM394.277 314.854L402.749 329.55L405.753 318L394.24 314.818L394.277 314.854ZM419.446 300.336L416.264 311.958L427.99 315.175L419.446 300.336ZM403.894 329.979L427.74 316.212C426.418 315.855 416.621 312.709 416.121 313.03C415.656 313.317 415.727 316.928 413.832 318.251C411.115 320.146 409.65 318.787 406.862 318.394L403.894 329.979Z" fill="#4496D2"/>
<path d="M418.337 299.941C417.3 305.269 415.512 310.419 414.367 315.747C413.545 317.856 412.079 318.535 409.898 318.142C405.286 316.426 399.496 315.782 395.027 313.923C394.848 313.852 394.669 313.923 394.597 313.637L418.301 299.977L418.337 299.941Z" fill="#FDFEFF"/>
<path d="M403.893 329.979L406.861 318.394C409.649 318.787 411.114 320.146 413.831 318.251C415.726 316.928 415.655 313.316 416.12 313.03C416.656 312.744 426.417 315.855 427.74 316.212L403.893 329.979Z" fill="#FDFEFF"/>
<path d="M419.446 300.336L428.026 315.175L416.298 311.993L419.446 300.336Z" fill="#FDFEFF"/>
<path d="M394.276 314.852L405.787 318.034L402.785 329.584L394.276 314.852Z" fill="#FDFEFF"/>
<path d="M375.326 387.297C370.892 396.129 364.494 404.889 359.488 413.471C355.413 418.548 349.728 419.228 344.079 416.296C339.038 413.686 334.353 410.217 329.527 407.321C320.696 402.029 308.863 397.845 315.262 385.044C320.554 377.177 324.772 367.916 330.171 360.157C334.354 354.15 340.253 352.97 346.689 356.259C354.447 361.444 363.457 365.628 371.108 370.884C377.186 375.068 378.722 380.682 375.397 387.297H375.326ZM346.546 406.498L363.634 377.964C363.384 377.714 363.241 377.893 363.027 377.928C357.164 378.608 350.656 381.361 344.721 382.219C342.183 383.077 341.04 384.687 341.397 387.405C343.328 393.698 344.472 400.241 346.546 406.498ZM363.242 376.427L345.544 365.807L349.155 379.824L363.242 376.391V376.427ZM345.116 406.713L341.612 392.482L327.275 396.022L345.116 406.713ZM344.114 366.021L326.917 394.734C328.526 394.341 340.789 391.874 341.146 391.23C341.504 390.658 339.252 386.868 340.504 384.329C342.256 380.718 344.614 381.29 347.832 380.074L344.15 366.021H344.114Z" fill="#4496D2"/>
<path d="M346.547 406.497C344.509 400.239 343.365 393.696 341.398 387.403C341.005 384.685 342.148 383.076 344.722 382.217C350.621 381.324 357.165 378.57 363.028 377.927C363.278 377.927 363.421 377.748 363.635 377.963L346.547 406.497Z" fill="#FDFEFF"/>
<path d="M344.114 366.019L347.798 380.072C344.58 381.288 342.219 380.716 340.468 384.327C339.252 386.866 341.469 390.656 341.112 391.228C340.718 391.872 328.491 394.339 326.882 394.732L344.079 366.019H344.114Z" fill="#FDFEFF"/>
<path d="M345.116 406.712L327.24 396.021L341.613 392.481L345.116 406.712Z" fill="#FDFEFF"/>
<path d="M363.242 376.426L349.191 379.858L345.544 365.806L363.242 376.426Z" fill="#FDFEFF"/>
<path d="M377.935 32.8354C373.502 41.6674 367.104 50.4282 362.098 59.0099C358.022 64.0874 352.338 64.7669 346.689 61.8348C341.648 59.2246 336.963 55.7561 332.136 52.8597C323.306 47.5677 311.472 43.3842 317.872 30.5831C323.163 22.7165 327.382 13.4555 332.781 5.69621C336.964 -0.310999 342.863 -1.4913 349.299 1.79836C357.057 6.98316 366.067 11.1671 373.718 16.4234C379.796 20.607 381.332 26.2203 378.007 32.8354H377.935ZM349.155 52.0374L366.244 23.5032C365.994 23.2529 365.851 23.4317 365.637 23.4674C359.773 24.1468 353.266 26.9 347.331 27.7581C344.793 28.6163 343.65 30.2252 344.007 32.9427C345.938 39.236 347.082 45.7799 349.155 52.0374ZM365.888 21.965L348.19 11.3453L351.8 25.3627L365.888 21.9292V21.965ZM347.726 52.2513L344.222 38.02L329.884 41.5599L347.726 52.2513ZM346.724 11.5958L329.527 40.3089C331.135 39.9156 343.398 37.4484 343.756 36.8048C344.113 36.2327 341.862 32.4418 343.114 29.903C344.865 26.2916 347.224 26.8639 350.442 25.6481L346.76 11.5958H346.724Z" fill="#4496D2"/>
<path d="M349.156 52.0358C347.119 45.7783 345.975 39.2344 344.008 32.9411C343.615 30.2236 344.758 28.6147 347.332 27.7565C353.231 26.8626 359.774 24.1094 365.638 23.4658C365.888 23.4658 366.031 23.2871 366.245 23.5016L349.156 52.0358Z" fill="#FDFEFF"/>
<path d="M346.724 11.5933L350.408 25.6456C347.19 26.8613 344.829 26.289 343.077 29.9005C341.862 32.4393 344.079 36.2301 343.722 36.8023C343.328 37.4459 331.101 39.9131 329.492 40.3064L346.689 11.5933H346.724Z" fill="#FDFEFF"/>
<path d="M347.726 52.2513L329.85 41.5599L344.223 38.02L347.726 52.2513Z" fill="#FDFEFF"/>
<path d="M365.889 21.9644L351.801 25.3969L348.19 11.3804L365.889 21.9644Z" fill="#FDFEFF"/>
<path d="M238.074 442.397C232.818 452.802 225.309 463.101 219.41 473.184C214.619 479.156 207.933 479.942 201.248 476.509C195.313 473.47 189.772 469.358 184.087 465.961C173.683 459.739 159.775 454.84 167.283 439.715C173.504 430.454 178.51 419.548 184.838 410.43C189.772 403.35 196.707 401.991 204.287 405.853C213.439 411.968 224.022 416.867 233.032 423.088C240.182 427.987 242.006 434.638 238.074 442.397ZM204.179 465.031L224.309 431.419C224.022 431.133 223.843 431.348 223.593 431.348C216.693 432.134 209.006 435.389 202.07 436.426C199.067 437.427 197.709 439.322 198.173 442.504C200.461 449.942 201.784 457.63 204.215 464.996L204.179 465.031ZM223.842 429.631L203 417.152L207.255 433.672L223.842 429.631ZM202.499 465.281L198.388 448.547L181.477 452.695L202.499 465.281ZM201.319 417.403L181.083 451.193C182.978 450.728 197.387 447.832 197.852 447.081C198.245 446.402 195.635 441.968 197.065 438.964C199.103 434.709 201.892 435.388 205.682 433.958L201.319 417.403Z" fill="#4496D2"/>
<path d="M204.179 465.033C201.748 457.667 200.426 449.979 198.138 442.541C197.673 439.323 199.033 437.464 202.036 436.463C209.007 435.426 216.694 432.171 223.559 431.385C223.845 431.385 224.022 431.17 224.273 431.456L204.145 465.069L204.179 465.033Z" fill="#FDFEFF"/>
<path d="M201.32 417.403L205.682 433.958C201.893 435.388 199.139 434.709 197.066 438.965C195.635 441.932 198.246 446.402 197.853 447.081C197.424 447.832 183.014 450.728 181.083 451.193L201.32 417.403Z" fill="#FDFEFF"/>
<path d="M202.5 465.281L181.478 452.695L198.352 448.547L202.5 465.281Z" fill="#FDFEFF"/>
<path d="M223.843 429.631L207.29 433.672L203.036 417.151L223.843 429.631Z" fill="#FDFEFF"/>
<path d="M768.066 163.169C762.81 173.575 755.301 183.873 749.402 193.957C744.611 199.928 737.927 200.715 731.241 197.282C725.306 194.243 719.764 190.131 714.079 186.734C703.675 180.512 689.769 175.613 697.277 160.488C703.498 151.226 708.502 140.321 714.83 131.203C719.764 124.123 726.699 122.764 734.279 126.626C743.432 132.74 754.014 137.639 763.024 143.861C770.174 148.76 771.998 155.41 768.066 163.169ZM734.207 185.804L754.337 152.193C754.051 151.906 753.872 152.121 753.622 152.121C746.721 152.908 739.034 156.161 732.099 157.198C729.095 158.199 727.737 160.094 728.202 163.277C730.49 170.714 731.813 178.402 734.244 185.768L734.207 185.804ZM753.871 150.369L733.029 137.89L737.283 154.409L753.871 150.369ZM732.528 186.054L728.417 169.319L711.506 173.468L732.528 186.054ZM731.348 138.175L711.111 171.966C713.006 171.502 727.416 168.605 727.881 167.854C728.274 167.174 725.663 162.74 727.094 159.737C729.131 155.482 731.921 156.161 735.71 154.731L731.348 138.175Z" fill="#4496D2"/>
<path d="M734.208 185.804C731.777 178.438 730.454 170.75 728.166 163.313C727.701 160.094 729.061 158.235 732.064 157.234C739.036 156.197 746.723 152.943 753.587 152.157C753.873 152.157 754.051 151.942 754.301 152.228L734.173 185.84L734.208 185.804Z" fill="#FDFEFF"/>
<path d="M731.348 138.175L735.711 154.731C731.921 156.161 729.168 155.481 727.094 159.737C725.664 162.704 728.274 167.174 727.881 167.853C727.452 168.604 713.042 171.501 711.112 171.966L731.348 138.175Z" fill="#FDFEFF"/>
<path d="M732.528 186.055L711.506 173.468L728.38 169.285L732.528 186.055Z" fill="#FDFEFF"/>
<path d="M753.872 150.368L737.319 154.408L733.064 137.889L753.872 150.368Z" fill="#FDFEFF"/>
<path d="M967.439 476.602C973.195 471.095 980.381 466.16 986.459 461.011C990.892 458.258 995.397 459.259 998.9 462.978C1002.01 466.303 1004.66 470.201 1007.55 473.669C1012.84 480.034 1020.71 486.363 1012.42 494.409C1006.3 498.95 1000.62 504.849 994.468 509.283C989.677 512.716 984.922 512.037 980.918 507.818C976.413 501.81 970.692 496.232 966.33 490.189C962.862 485.397 963.184 480.714 967.474 476.602H967.439ZM994.396 469.736L973.802 486.828C973.909 487.078 974.088 487.007 974.266 487.042C978.878 488.115 984.564 487.757 989.283 488.687C991.464 488.687 992.751 487.83 993.18 485.648C993.394 480.356 994.289 475.064 994.396 469.771V469.736ZM973.696 488.08L984.278 500.845L985.278 489.224L973.696 488.044V488.08ZM995.576 469.95L994.431 481.679L1006.27 482.859L995.576 469.95ZM985.422 501.059L1006.12 483.895C1004.8 483.752 994.861 482.358 994.396 482.752C994.003 483.074 994.645 486.542 993.036 488.151C990.748 490.44 989.105 489.366 986.352 489.438L985.387 501.095L985.422 501.059Z" fill="#4496D2"/>
<path d="M994.397 469.736C994.289 475.029 993.394 480.286 993.18 485.613C992.751 487.795 991.464 488.688 989.283 488.652C984.564 487.758 978.879 488.08 974.267 487.007C974.088 486.972 973.91 487.043 973.802 486.793L994.397 469.701V469.736Z" fill="#FDFEFF"/>
<path d="M985.422 501.06L986.387 489.403C989.14 489.332 990.785 490.405 993.073 488.117C994.682 486.507 994.003 483.039 994.432 482.717C994.896 482.324 1004.84 483.754 1006.16 483.862L985.459 501.024L985.422 501.06Z" fill="#FDFEFF"/>
<path d="M995.577 469.952L1006.23 482.861L994.396 481.681L995.577 469.952Z" fill="#FDFEFF"/>
<path d="M973.696 488.082L985.279 489.261L984.278 500.848L973.696 488.082Z" fill="#FDFEFF"/>
<path d="M933.492 194.531C928.772 200.395 922.658 205.902 917.581 211.48C913.756 214.626 909.431 214.198 905.677 211.158C902.352 208.441 899.383 205.115 896.273 202.183C890.553 196.856 882.401 191.885 889.194 183.339C894.378 178.333 898.991 172.111 904.211 167.213C908.287 163.387 912.827 163.458 917.082 166.926C922.016 172.004 928.057 176.545 932.919 181.659C936.78 185.735 937.03 190.168 933.527 194.531H933.492ZM909.038 204.257L926.27 185.735C926.127 185.52 925.984 185.627 925.805 185.592C921.336 185.162 916.044 186.164 911.539 185.914C909.501 186.164 908.393 187.165 908.25 189.239C908.679 194.245 908.501 199.286 909.038 204.257ZM926.235 184.554L914.757 173.863L915.223 184.877L926.235 184.554ZM907.964 204.185L907.606 193.065L896.381 193.423L907.964 204.185ZM913.65 173.791L896.345 192.422C897.596 192.386 907.107 192.493 907.465 192.064C907.822 191.706 906.75 188.524 908.072 186.843C909.931 184.412 911.612 185.234 914.186 184.841L913.65 173.791Z" fill="#4496D2"/>
<path d="M909.038 204.258C908.502 199.288 908.68 194.246 908.251 189.24C908.394 187.166 909.502 186.165 911.54 185.915C916.08 186.201 921.373 185.164 925.806 185.593C925.985 185.593 926.127 185.521 926.27 185.736L909.038 204.258Z" fill="#FDFEFF"/>
<path d="M913.651 173.793L914.186 184.842C911.612 185.236 909.932 184.449 908.073 186.845C906.75 188.525 907.823 191.708 907.465 192.065C907.072 192.459 897.597 192.387 896.345 192.423L913.651 173.793Z" fill="#FDFEFF"/>
<path d="M907.965 204.188L896.382 193.426L907.607 193.068L907.965 204.188Z" fill="#FDFEFF"/>
<path d="M926.235 184.554L915.223 184.876L914.757 173.863L926.235 184.554Z" fill="#FDFEFF"/>
</svg>
