<svg width="465" height="279" viewBox="0 0 465 279" fill="none" xmlns="http://www.w3.org/2000/svg">
<g clip-path="url(#clip0_227_93)">
<path d="M154.718 153.433C154.718 153.433 158.795 162.173 166.039 159.953C173.282 157.732 168.652 148.991 168.652 148.991C168.652 148.991 184.055 159.039 178.687 132.65L171.094 121.489L147.124 143.029L154.718 153.447L154.718 153.433Z" fill="#E0A57C"/>
<path d="M267.592 127.89C267.592 127.89 265.629 142.391 267.575 144.81C269.521 147.229 271.276 150.943 279.365 146.86C279.365 146.86 274.613 158.474 281.111 159.966C287.609 161.458 294.115 154.403 294.115 154.403L297.283 141.49L293.961 120.112L267.592 127.89Z" fill="#E0A57C"/>
<path d="M254.507 10.8542C256.123 8.90467 260.054 3.98717 262.526 3.59652C269.332 2.54044 285.437 8.19155 291.628 11.6486C299.998 16.3309 299.254 19.1985 304.089 26.0759C305.875 28.6258 307.88 30.3751 309.694 33.3618C320.218 50.7285 328.715 75.6212 334.817 95.1093C341.44 116.243 348.932 141.339 339.605 162.806C335.116 173.154 321.201 187.191 309.811 177.89C295.675 166.344 284.351 148.976 271.583 135.859C263.87 127.945 257.341 128.171 246.581 127.724C229.512 127.008 209.911 126.959 192.854 127.684C184.042 128.054 175.959 128.046 169.467 134.46C156.994 146.781 146.741 162.074 133.759 174.233C128.229 179.397 125.012 182.64 116.828 179.735C103.02 174.828 96.6396 157.466 95.8679 143.997C94.453 119.519 109.544 78.6625 119.353 55.7686C125.11 42.335 131.416 31.5376 139.498 19.5624C145.701 10.3664 163.753 3.97779 174.571 3.47904C181.042 3.17977 181.779 7.70891 186.356 10.8586C209.069 9.54183 231.795 10.4091 254.521 10.8542L254.507 10.8542ZM170.686 6.43097C169.276 6.09466 163.56 7.55936 161.844 8.06725C158.586 9.01042 154.6 10.6664 151.545 12.1194C147.166 14.2117 142.205 16.9149 140.877 21.8787L148.005 18.5952C148.269 16.7462 149.097 17.7229 150.537 17.3748C152.587 16.8818 154.9 15.5735 156.98 14.9932C163.06 13.2812 169.546 12.2395 175.828 11.5906C175.916 11.5907 176.322 11.9405 176.729 11.8972C178.939 11.6956 181.165 10.7951 183.564 11.2198C181.37 9.13544 179.251 5.36205 176.038 5.30058C174.787 5.2702 171.545 5.47083 170.7 6.43098L170.686 6.43097ZM293.57 18.7122C295.458 20.4468 297.696 21.7743 300.181 22.5922C295.813 14.1136 285.203 10.026 276.437 7.67293C273.734 6.94219 263.587 4.39853 261.666 5.89633C261.506 6.01266 261.607 6.4786 261.564 6.52223C261.447 6.62404 260.836 6.57974 260.633 6.88531L256.412 11.3075C267.244 11.9008 277.929 13.1781 288.133 16.9595C289.775 17.5727 291.955 19.1328 293.555 18.7122L293.57 18.7122ZM186.022 126.192C186.749 126.12 187.069 125.829 187.127 125.829C188.436 125.714 189.847 125.905 191.17 125.833C191.824 125.79 191.868 125.47 191.912 125.47C195.198 125.313 198.557 125.535 201.843 125.48C216.383 125.247 232.088 124.87 246.569 125.51C259.219 126.076 265.093 126.024 273.968 135.308C284.833 146.676 293.878 159.964 305.325 170.78C306.313 171.713 307.925 173.374 309.234 173.492C309.595 175.443 309.742 174.308 310.337 174.964C311.107 175.823 310.583 175.837 312.182 176.815C312.589 177.063 312.341 177.63 313.65 177.559C313.795 177.923 314.027 178.142 314.391 178.302C315.364 178.711 315.714 178.565 316.6 178.668C316.702 178.668 317.007 179.076 317.531 179.077C318.098 179.078 318.36 178.685 318.447 178.67C342.951 175.331 343.424 139.047 339.734 120.77C334.844 96.5798 320.852 56.6115 308.354 35.4571C294.797 12.4961 259.099 13.3775 235.632 12.8007C209.183 12.148 165.753 9.78953 142.722 23.5552C136.873 27.0584 133.961 31.1761 130.756 36.9971C123.589 49.9633 117.671 65.0419 112.713 79.0005C103.833 103.992 84.9208 156.682 112.951 175.158C118.487 178.819 123.444 180.295 128.974 175.728C142.362 164.632 153.575 148.102 165.612 135.417C173.312 127.3 175.014 127.361 186.051 126.236L186.022 126.192ZM140.499 22.6063C140.761 22.0824 140.267 21.616 140.136 21.878C139.874 22.4019 140.367 22.8683 140.499 22.6063Z" fill="#252525"/>
<path d="M318.433 178.641C317.794 178.422 317.169 178.188 316.587 178.639C315.7 178.536 315.351 178.667 314.377 178.273L314.378 177.166C313.971 177.02 313.679 177.53 313.636 177.53C312.327 177.601 312.575 177.033 312.168 176.785C313.247 174.53 312.446 175.228 311.327 174.95C310.861 174.833 311.212 173.348 310.323 174.949C309.728 174.293 309.581 175.429 309.219 173.477C309.075 172.647 309.061 171.73 308.859 170.9C309.717 170.74 309.978 171.207 310.531 171.629C312.637 173.262 313.697 174.661 316.59 174.955C316.386 176.105 317.549 176.048 317.332 174.956C318.829 174.914 321.608 174.159 322.321 172.748C322.627 172.137 321.407 170.883 321 170.359C316.702 164.792 310.266 159.267 305.386 153.948C297.906 145.786 282.906 126.26 273.808 121.839C266.41 118.25 251.258 119.108 242.694 118.881C242.869 117.644 242.273 118.328 241.648 118.283C239.932 118.165 237.679 117.77 236.064 118.511C225.305 118.311 214.079 118.241 203.319 118.478C203.058 117.662 202.389 117.705 201.691 117.719C200.208 117.776 198.535 118.036 196.863 118.093C196.151 118.121 195.395 117.713 195.598 118.834C194.376 118.891 193.14 118.773 191.919 118.83L191.557 116.981C192.706 116.56 194.103 115.717 195.238 115.135C196.081 115.879 196.576 114.874 197.449 114.759L197.086 114.03C197.362 113.943 198.031 114.148 198.176 114.032C198.293 113.93 198.119 113.478 198.177 113.304C199.675 112.766 199.572 114.018 199.659 114.033C200.532 114.34 200.65 112.199 199.283 111.819C204.918 104.72 207.135 97.4416 203.538 88.6143C202.16 85.264 197.382 78.8379 193.806 77.917C193.69 77.8878 193.559 77.9459 193.443 77.9166C192.891 77.1589 192.019 77.1002 191.234 76.8082C190.623 76.5891 190.362 76.5597 189.766 76.4427C189.722 76.4426 189.606 76.0785 189.024 76.0779C188.908 76.0778 188.777 76.0777 188.661 76.0775C188.24 75.6694 187.731 75.6544 187.193 75.7121C187.077 75.7119 186.946 75.7118 186.83 75.7117C185.289 75.1714 182.802 75.0233 181.304 75.7061C181.1 75.6768 180.243 75.676 180.199 75.705L178.73 76.0676C178.613 76.0675 178.483 76.0673 178.366 76.0672C177.276 76.0807 174.818 77.1408 173.945 77.9116C173.828 77.9406 173.683 77.8822 173.581 77.9113C171.792 78.4482 168.576 81.4156 167.338 82.8849C157.381 94.6981 162.438 112.263 176.857 117.33C177.073 119.077 177.132 118.714 178.178 119.312C178.628 119.574 177.827 120.287 179.108 119.4C179.748 118.964 179.981 119.051 179.793 118.061C179.909 118.076 180.04 118.047 180.157 118.061C180.215 118.061 180.534 118.367 181.261 118.426C182.54 118.544 184.78 118.561 186.045 118.431L186.044 119.174C183.077 119.579 178.306 121.743 179.044 125.428C186.213 124.576 193.382 124.103 200.609 123.95C201.292 123.936 201.787 124.344 201.859 124.344L201.858 125.451C198.557 125.506 195.213 125.284 191.927 125.441L191.185 125.804C189.861 125.876 188.452 125.685 187.143 125.8L186.037 126.163C175.014 127.302 173.299 127.228 165.599 135.345C153.561 148.029 142.348 164.573 128.96 175.655C123.43 180.236 118.488 178.746 112.937 175.086C84.8927 156.595 103.805 103.919 112.699 78.9276C117.672 64.9545 123.59 49.8759 130.742 36.9242C133.947 31.1178 136.874 26.9856 142.708 23.4823C165.725 9.71663 209.154 12.0754 235.617 12.7281C259.085 13.305 294.783 12.4235 308.341 35.3845C320.839 56.539 334.844 96.5069 339.72 120.697C343.409 138.974 342.937 175.258 318.433 178.597L318.433 178.641ZM231.849 29.1195C231.856 22.6838 226.656 17.4659 220.229 17.4594C213.802 17.453 208.591 22.6604 208.585 29.0961C208.578 35.5319 213.779 40.7498 220.205 40.7562C226.632 40.7627 231.843 35.5552 231.849 29.1195ZM274.053 36.3693C273.108 36.0917 273.049 37.533 272.99 38.0717C272.682 41.3184 272.985 43.0079 274.989 45.558C277.574 48.8367 282.066 50.0352 285.964 48.5103C286.517 48.2924 287.681 47.8567 286.911 47.026C291.536 45.5018 294.347 40.816 293.538 35.9957C292.728 31.1753 288.515 27.7055 283.644 27.788C278.773 27.8705 274.698 31.5213 274.068 36.3693L274.053 36.3693ZM175.137 49.0395C175.145 40.3469 168.115 33.2925 159.434 33.2838C150.754 33.275 143.709 40.3153 143.7 49.008C143.691 57.7006 150.722 64.755 159.403 64.7638C168.083 64.7725 175.128 57.7322 175.137 49.0395ZM194.459 50.6312C193.907 50.9219 193.674 50.82 193.426 51.5768C192.303 54.9974 193.041 58.4925 195.772 60.8687C197.53 62.3993 200.438 62.6934 202.678 62.2879C203.289 62.172 203.972 62.2456 203.74 61.2844C207.667 60.5457 210.505 57.0833 210.436 53.0791C210.368 49.0749 207.434 45.7085 203.48 45.093C199.525 44.4775 195.714 46.8176 194.459 50.6167L194.459 50.6312ZM229.515 51.4382C229.515 51.4382 228.963 51.3066 228.832 51.4812C228.206 52.3106 228.508 55.8928 228.899 57.0289C230.204 60.8888 234.331 62.8004 238.17 62.4985C239.304 62.4122 239.115 62.6887 239.073 61.3927C242.548 61.0613 245.882 57.3082 246.075 53.8284C246.518 46.2282 237.144 41.9527 231.889 47.3639C230.798 48.4985 230.214 50.7837 229.501 51.4236L229.515 51.4382ZM256.747 54.0428C255.787 53.7215 255.713 55.6582 255.683 56.1096C255.152 64.2338 262.94 69.2357 270.098 65.4135C271.247 64.8031 271.496 63.9297 271.816 63.6389C276.051 59.6244 278.44 55.9574 275.334 49.999C270.835 41.4038 257.382 44.0986 256.747 54.0428ZM291.179 53.6842C291.15 53.9317 291.135 54.1938 291.12 54.4413C291.12 54.8053 291.119 55.1693 291.133 55.5334L290.218 54.8044C288.785 63.2772 295.889 69.2978 303.832 65.7093C304.283 65.506 306.508 64.4744 305.607 63.5708C309.739 61.3617 311.766 56.5589 310.447 52.0584C309.128 47.5579 304.812 44.6122 300.144 45.0006C295.476 45.3891 291.722 49.0254 291.179 53.6842ZM141.58 46.5594C140.504 46.369 140.983 46.821 140.794 47.4178C139.218 52.4833 139.824 57.6529 142.946 61.9368C148.609 69.6887 160.268 71.5495 167.676 65.194L161.233 66.4691C149.237 67.287 140.361 58.6725 141.566 46.5594L141.58 46.5594ZM274.019 70.6448C273.074 70.3672 273.014 71.8085 272.956 72.3472C272.735 74.7349 272.661 76.2638 273.866 78.3472C276.217 82.4265 280.868 84.5424 285.435 83.0035C286.322 82.6987 286.25 82.6547 286.163 81.7228C298.279 78.2113 294.531 61.0117 282.723 62.2375C278.433 62.6846 274.43 66.277 274.033 70.6594L274.019 70.6448ZM211.964 67.0148C210.246 68.8186 210.52 71.5711 212.379 73.1601C215.793 76.0756 228.444 76.059 229.119 70.3665C229.969 63.2909 215.428 63.3782 211.964 67.0148ZM119.479 74.9014L116.58 79.9219C106.688 99.7288 96.8971 133.718 103.68 155.289C105.898 162.338 111.719 171.328 118.303 174.902C121.631 176.711 124.612 175.549 127.276 173.265C132.718 168.611 129.127 168.666 125.669 166.071C103.802 149.712 107.293 119.619 113.307 96.1826C115.146 89.0352 117.669 82.0488 119.479 74.9014ZM269.999 91.6515C270.008 82.9589 262.977 75.9044 254.297 75.8957C245.616 75.887 238.571 82.9273 238.563 91.6199C238.554 100.313 245.585 107.367 254.265 107.376C262.946 107.384 269.99 100.344 269.999 91.6515ZM236.83 94.3699C236.628 92.5788 236.979 90.4971 236.835 88.6623L235.392 92.563C233.284 105.971 247.277 115.654 259.366 110.351C260.82 109.712 261.81 108.533 263.323 108.04C263.411 107.21 263.193 107.472 262.596 107.69C261.069 108.212 258.466 109.098 256.837 109.3C247.777 110.368 237.867 103.864 236.844 94.3991L236.83 94.3699ZM321.925 176.431L321.925 176.795C322.158 176.679 322.158 176.548 321.925 176.431ZM319.162 176.792C318.639 176.53 318.173 177.024 318.435 177.156C318.958 177.418 319.424 176.924 319.162 176.792ZM317.416 177.519C317.417 177.271 317.213 177.067 316.966 177.067C316.719 177.067 316.515 177.27 316.515 177.518C316.514 177.765 316.718 177.97 316.965 177.97C317.212 177.97 317.416 177.766 317.416 177.519Z" fill="#FEFEFE"/>
<path d="M308.872 170.883C309.089 171.713 309.088 172.645 309.233 173.461C307.924 173.343 306.298 171.682 305.324 170.749C293.877 159.934 284.832 146.645 273.967 135.277C265.092 125.993 259.218 126.045 246.568 125.479C232.087 124.839 216.382 125.216 201.842 125.449L201.843 124.342C217.431 124.038 233.135 123.791 248.751 124.39C259.612 124.808 267.797 125.661 276.165 133.066C285.375 141.215 292.213 151.691 300.23 160.915C302.089 163.058 307.406 167.693 308.524 169.573C308.887 170.185 308.742 170.403 308.872 170.869L308.872 170.883Z" fill="#FEFEFE"/>
<path d="M170.685 6.43017C171.732 6.67875 175.116 10.3806 175.827 11.5898C169.545 12.2387 163.059 13.2804 156.979 14.9924C154.899 15.5727 152.586 16.881 150.536 17.374C149.096 17.7221 148.268 16.7309 148.004 18.5944L140.876 21.8779C142.204 16.9141 147.165 14.2109 151.544 12.1186C154.599 10.6656 158.585 9.00962 161.843 8.06645C163.559 7.57312 169.29 6.09387 170.685 6.43017Z" fill="#47484A"/>
<path d="M261.579 6.52177C269.72 7.62199 278.355 10.1203 285.942 13.273C290.317 15.0975 290.374 15.7673 293.57 18.7117C291.97 19.1324 289.791 17.5723 288.148 16.9591C277.945 13.1777 267.258 11.9004 256.426 11.3071L260.647 6.88485C260.851 6.59384 261.462 6.62358 261.579 6.52177Z" fill="#47484A"/>
<path d="M170.686 6.43136C171.53 5.47121 174.773 5.27058 176.023 5.30096C179.237 5.37699 181.356 9.13582 183.549 11.2202C181.15 10.7955 178.94 11.6814 176.715 11.8976C176.308 11.9409 175.915 11.5765 175.813 11.591C175.102 10.3818 171.718 6.67993 170.671 6.43135L170.686 6.43136Z" fill="#47484A"/>
<path d="M310.337 174.949C311.225 173.348 310.875 174.848 311.34 174.95C312.459 175.228 313.26 174.53 312.181 176.785C310.583 175.808 311.121 175.809 310.337 174.934L310.337 174.949Z" fill="#F5F4F5"/>
<path d="M318.433 178.641C318.346 178.641 318.083 179.048 317.516 179.048C316.993 179.047 316.688 178.654 316.587 178.639C317.169 178.188 317.794 178.422 318.433 178.641Z" fill="#F5F4F5"/>
<path d="M313.65 177.529C313.65 177.529 313.985 177.005 314.377 177.166L314.376 178.273C314.027 178.127 313.781 177.893 313.65 177.529Z" fill="#F5F4F5"/>
<path d="M187.128 125.815C187.128 125.815 186.75 126.105 186.023 126.177L187.128 125.815Z" fill="#F5F4F5"/>
<path d="M140.499 22.6074C140.368 22.8548 139.874 22.3884 140.136 21.879C140.267 21.6316 140.761 22.0981 140.499 22.6074Z" fill="#47484A"/>
<path d="M191.911 125.456C191.911 125.456 191.838 125.791 191.169 125.819L191.911 125.456Z" fill="#F5F4F5"/>
<path d="M293.569 18.712C290.373 15.7676 290.315 15.0978 285.94 13.2733C278.353 10.1206 269.719 7.6223 261.577 6.52209C261.621 6.47845 261.519 6.02707 261.679 5.89619C263.6 4.38382 273.747 6.94205 276.451 7.67279C285.216 10.0258 295.826 14.1134 300.195 22.592C297.709 21.7741 295.471 20.4467 293.583 18.7121L293.569 18.712Z" fill="#47484A"/>
<path d="M236.077 118.495C238.098 118.527 240.526 118.82 242.693 118.866C251.257 119.093 266.395 118.235 273.807 121.824C282.905 126.245 297.905 145.771 305.385 153.933C310.265 159.252 316.701 164.777 320.999 170.343C321.406 170.868 322.626 172.121 322.32 172.733C321.606 174.144 318.828 174.899 317.331 174.941C317.098 174.941 316.837 174.969 316.589 174.94C313.696 174.646 312.636 173.232 310.529 171.614C309.977 171.191 309.716 170.725 308.857 170.884C308.742 170.404 308.888 170.2 308.51 169.588C307.392 167.709 302.075 163.088 300.216 160.931C292.199 151.692 285.361 141.23 276.15 133.082C267.797 125.676 259.612 124.824 248.736 124.405C233.12 123.793 217.417 124.053 201.829 124.358C201.771 124.358 201.276 123.95 200.578 123.964C193.337 124.131 186.183 124.59 179.013 125.442C178.276 121.757 183.047 119.592 186.014 119.188C187.395 119 190.275 118.886 191.903 118.83C193.125 118.773 194.36 118.89 195.582 118.833C198.097 118.734 200.933 118.518 203.303 118.477C214.063 118.24 225.289 118.31 236.048 118.51L236.077 118.495Z" fill="#FEFEFE"/>
<path d="M119.477 74.9009C117.667 82.0628 115.144 89.0346 113.305 96.182C107.291 119.618 103.801 149.697 125.667 166.07C129.14 168.666 132.717 168.625 127.274 173.265C124.596 175.548 121.614 176.71 118.301 174.901C111.718 171.313 105.896 162.323 103.679 155.288C96.881 133.717 106.672 99.7282 116.579 79.9213L119.477 74.9009Z" fill="#FEFEFE"/>
<path d="M236.829 94.3693C237.866 103.835 247.761 110.339 256.821 109.271C258.435 109.083 261.054 108.197 262.581 107.66C263.178 107.457 263.396 107.18 263.308 108.01C261.795 108.504 260.805 109.682 259.351 110.321C247.277 115.624 233.284 105.956 235.377 92.5332L236.82 88.6325C236.964 90.4673 236.613 92.549 236.815 94.3401L236.829 94.3693Z" fill="#FEFEFE"/>
<path d="M305.622 63.5712C306.523 64.4603 304.297 65.5064 303.846 65.7098C295.903 69.3128 288.8 63.2922 290.233 54.8049L291.148 55.5338C291.377 58.8684 293.279 61.8697 296.2 63.4889C299.121 65.108 302.669 65.1408 305.622 63.5712Z" fill="#FEFEFE"/>
<path d="M256.746 54.0425C256.199 62.7055 264.323 66.9072 271.815 63.6386C271.494 63.944 271.246 64.8028 270.097 65.4132C262.924 69.2354 255.151 64.219 255.682 56.1093C255.712 55.6579 255.772 53.7212 256.746 54.0425Z" fill="#FEFEFE"/>
<path d="M274.052 36.3689C273.612 39.732 274.932 43.082 277.533 45.2541C280.133 47.4263 283.68 48.0854 286.895 47.0257C287.665 47.8564 286.501 48.2921 285.948 48.5099C282.05 50.0349 277.558 48.8509 274.974 45.5576C272.955 42.993 272.68 41.3035 272.974 38.0713C273.018 37.5326 273.078 36.1059 274.037 36.3689L274.052 36.3689Z" fill="#FEFEFE"/>
<path d="M274.018 70.6433C273.547 75.7681 276.262 79.7313 280.986 81.527C281.684 81.7898 282.367 81.5719 282.949 81.7181C283.269 81.7912 283.239 82.4173 283.384 82.4465C284.445 82.7243 284.199 81.8067 284.563 81.7051C285.072 81.5746 285.755 81.8082 286.148 81.7067C286.234 82.6532 286.322 82.6972 285.42 82.9875C280.867 84.5263 276.202 82.4105 273.85 78.3311C272.646 76.2478 272.719 74.7188 272.94 72.3311C272.984 71.7924 273.043 70.3657 274.003 70.6287L274.018 70.6433Z" fill="#FEFEFE"/>
<path d="M203.741 61.2836C203.958 62.2448 203.289 62.1713 202.678 62.2871C200.453 62.6926 197.545 62.3985 195.773 60.8679C193.042 58.4917 192.303 54.9967 193.426 51.5761C193.674 50.8192 193.907 50.9211 194.46 50.6304C193.541 53.3815 194.148 56.4256 196.065 58.6116C197.983 60.7976 200.89 61.8195 203.741 61.2836Z" fill="#FEFEFE"/>
<path d="M229.515 51.4367L229.514 52.1793C228.801 52.7319 229.236 53.97 229.148 54.7562C229.322 54.7127 229.454 54.3924 229.512 54.3779C229.686 54.3636 229.803 54.3784 229.875 54.5678C230.481 59.2423 234.55 61.809 239.072 61.3912C239.115 62.6872 239.304 62.4107 238.17 62.4969C234.331 62.7989 230.189 60.8727 228.898 57.0274C228.522 55.8913 228.206 52.309 228.832 51.4797C228.963 51.3051 229.456 51.4949 229.515 51.4367Z" fill="#FEFEFE"/>
<path d="M191.557 116.98L191.918 118.83C190.29 118.901 187.411 119 186.03 119.188L186.03 118.445C187.543 118.287 190.073 117.517 191.557 116.98Z" fill="#FEFEFE"/>
<path d="M203.318 118.462C200.948 118.518 198.113 118.719 195.597 118.819C195.395 117.712 196.164 118.106 196.862 118.077C198.534 118.021 200.193 117.746 201.691 117.703C202.388 117.675 203.072 117.647 203.318 118.462Z" fill="#FEFEFE"/>
<path d="M236.078 118.496C237.678 117.755 239.932 118.15 241.662 118.269C242.272 118.313 242.884 117.629 242.708 118.867C240.527 118.806 238.113 118.527 236.092 118.496L236.078 118.496Z" fill="#FEFEFE"/>
<path d="M179.778 118.075C179.966 119.065 179.734 118.977 179.093 119.413C177.813 120.286 178.613 119.588 178.163 119.325C177.116 118.713 177.058 119.091 176.841 117.344C177.67 117.636 178.906 117.928 179.778 118.089L179.778 118.075Z" fill="#F5F4F5"/>
<path d="M199.282 111.834C200.634 112.199 200.531 114.34 199.659 114.048C199.586 114.019 199.689 112.781 198.176 113.318C198.628 112.081 198.802 112.46 199.282 111.849L199.282 111.834Z" fill="#FEFEFE"/>
<path d="M197.07 114.03L197.433 114.759C196.56 114.874 196.065 115.878 195.222 115.135C195.862 114.801 195.979 114.349 197.07 114.03Z" fill="#F5F4F5"/>
<path d="M317.331 174.957C317.563 176.049 316.385 176.106 316.59 174.956C316.823 174.985 317.084 174.957 317.331 174.957Z" fill="#F5F4F5"/>
<path d="M316.964 177.969C317.213 177.969 317.415 177.767 317.415 177.518C317.416 177.269 317.214 177.066 316.965 177.066C316.716 177.066 316.514 177.268 316.514 177.517C316.513 177.766 316.715 177.969 316.964 177.969Z" fill="#F5F4F5"/>
<path d="M181.246 118.44C180.519 118.367 180.199 118.075 180.141 118.075L181.246 118.44Z" fill="#F5F4F5"/>
<path d="M319.161 176.792C319.409 176.923 318.943 177.418 318.434 177.155C318.187 177.024 318.653 176.529 319.161 176.792Z" fill="#F5F4F5"/>
<path d="M321.925 176.431C322.158 176.547 322.158 176.678 321.925 176.795L321.925 176.431Z" fill="#F5F4F5"/>
<path d="M231.849 29.12C231.842 35.5558 226.631 40.7632 220.205 40.7567C213.778 40.7503 208.578 35.5324 208.584 29.0967C208.59 22.6609 213.801 17.4535 220.228 17.4599C226.655 17.4664 231.855 22.6843 231.849 29.12ZM223.295 19.3702C222.088 19.5874 220.925 18.9746 219.805 18.9735C218.991 18.9727 215.995 19.4065 217.041 20.4705C217.171 20.6162 220.457 21.2602 220.865 21.2024C221.083 21.1735 223.206 20.564 223.294 20.4622C223.381 20.3604 223.251 19.6759 223.295 19.3702ZM227.712 22.6944C226.727 19.0824 222.07 22.7179 220.165 22.716C218.028 22.7139 214.396 19.172 212.618 22.6793C213.447 22.8112 217.182 24.708 217.022 25.4358C216.963 25.6979 215.756 26.6575 215.406 27.1377C214.489 28.4181 211.954 32.3906 211.662 33.7299C211.341 35.2293 212.009 35.6668 213.13 34.4302C215.343 31.9863 217.352 29.3091 220.16 27.4628C220.466 27.4631 223.037 29.6352 223.473 30.0433C224.243 30.7867 227.771 35.3186 228.237 35.2172C229.458 34.9563 227.877 31.8533 227.529 31.154C227.151 30.3965 226.483 29.362 226.004 28.619C225.496 27.8467 223.405 25.748 223.289 25.4421C223.042 24.7867 225.369 24.0172 225.748 23.4934L227.697 22.6799L227.712 22.6944ZM228.801 23.4381C228.642 23.2924 225.135 25.2402 225.135 25.4586C225.135 26.1575 227.345 25.4752 226.224 27.1194C228.071 26.9611 226.878 27.353 227.11 28.2269C227.544 29.8436 229.579 30.8066 229.345 32.641C231.252 29.6289 229.991 26.3951 228.801 23.4236L228.801 23.4381ZM212.53 24.6304C211.6 24.1199 211.264 24.9785 210.958 25.6189C210.098 27.4526 209.95 29.5638 210.399 31.5154L212.393 29.6536C213.034 28.9262 213.341 27.5434 213.836 26.8595C214.069 26.5249 215.087 26.2347 215.189 25.8126C215.495 24.4005 213.328 25.3738 212.848 25.2859C212.601 25.242 212.602 24.6742 212.53 24.645L212.53 24.6304ZM221.813 31.9054C222.236 31.105 220.74 28.8905 219.969 29.1372C218.82 29.4855 216.607 32.9921 215.167 33.5585C215.035 34.796 213.915 34.6786 214.074 35.5815L214.801 35.9463L213.331 36.6874L214.8 36.3249C214.101 38.2316 217.895 39.1382 219.407 39.2707C220.643 39.3739 221.777 39.6954 221.429 38.1807C222.054 38.0358 221.661 38.7196 221.835 38.8509C222.242 39.157 226.184 37.5886 226.52 36.4387C227.074 34.5463 225.722 34.6176 224.966 33.7141C224.545 33.2041 223.399 31.2664 223.268 31.1643C223.108 31.0477 221.9 32.0366 221.813 31.9054Z" fill="#252525"/>
<path d="M227.712 22.6947L225.762 23.5082C225.398 24.0174 223.056 24.7869 223.303 25.457C223.419 25.7628 225.511 27.8616 226.019 28.6338C226.498 29.3623 227.166 30.3967 227.543 31.1688C227.891 31.8681 229.473 34.9711 228.252 35.232C227.786 35.3334 224.257 30.8015 223.487 30.0581C223.051 29.65 220.48 27.4779 220.175 27.4776C217.367 29.3239 215.357 32.0011 213.145 34.4451C212.024 35.667 211.356 35.2441 211.677 33.7447C211.969 32.4054 214.503 28.4329 215.421 27.1525C215.77 26.6724 216.978 25.7127 217.036 25.4507C217.197 24.7228 213.477 22.826 212.633 22.6941C214.411 19.1868 218.028 22.7287 220.18 22.7308C222.084 22.7327 226.726 19.0972 227.726 22.7093L227.712 22.6947Z" fill="#F5F4F5"/>
<path d="M221.812 31.9043C221.914 32.0354 223.107 31.0465 223.267 31.1631C223.398 31.2506 224.544 33.2029 224.966 33.7129C225.721 34.6164 227.074 34.5452 226.519 36.4375C226.184 37.5728 222.241 39.1559 221.834 38.8497C221.66 38.7185 222.068 38.0346 221.428 38.1795C221.776 39.6942 220.642 39.3873 219.406 39.2696C217.894 39.137 214.1 38.2304 214.8 36.3237L213.33 36.6862L214.8 35.9451L214.073 35.5803C213.914 34.6774 215.034 34.7948 215.166 33.5573C216.621 32.9909 218.834 29.4844 219.968 29.136C220.739 28.9039 222.235 31.1184 221.812 31.9043Z" fill="#3A3A3A"/>
<path d="M228.802 23.4383C229.991 26.4098 231.253 29.629 229.345 32.6557C229.58 30.8213 227.545 29.8437 227.11 28.2416C226.878 27.3677 228.057 26.9758 226.225 27.1341C227.346 25.4899 225.135 26.1722 225.136 25.4733C225.136 25.2548 228.642 23.3071 228.802 23.4528L228.802 23.4383Z" fill="#3A3A3A"/>
<path d="M212.53 24.6303C212.53 24.6303 212.601 25.2272 212.849 25.2712C213.328 25.359 215.496 24.3858 215.189 25.7979C215.101 26.22 214.069 26.5101 213.836 26.8448C213.341 27.5432 213.048 28.9115 212.393 29.6389L210.399 31.5007C209.936 29.5491 210.099 27.4379 210.958 25.6041C211.264 24.9492 211.6 24.1051 212.53 24.6157L212.53 24.6303Z" fill="#3A3A3A"/>
<path d="M223.295 19.3688C223.251 19.6745 223.381 20.359 223.293 20.4608C223.206 20.5626 221.097 21.1721 220.865 21.201C220.443 21.2588 217.171 20.6003 217.041 20.4691C215.995 19.4051 218.991 18.9567 219.805 18.9721C220.94 18.9732 222.102 19.6005 223.295 19.3688Z" fill="#3A3A3A"/>
<path d="M173.2 79.7445C172.982 80.021 172.807 80.2247 172.56 80.4865C171.396 81.6356 169.723 82.4641 168.427 83.9917C167.321 85.2864 166.578 86.596 166.213 88.2118C166.008 89.0998 166.226 89.6097 166.211 89.6825C166.138 90.0173 165.934 90.3666 165.847 90.7887C164.444 97.7327 164.633 97.6602 166.197 104.418C166.269 104.738 166.123 105.19 166.195 105.524C166.195 105.554 165.788 105.655 165.991 106.209C167.195 109.428 171.727 113.276 174.823 114.75C175.288 114.75 175.02 106.407 175.021 105.533C175.022 105.169 175.022 104.791 175.022 104.427C175.022 104.31 175.023 104.179 175.023 104.063L176.491 104.064C176.491 104.181 176.491 104.312 176.491 104.428C176.49 104.792 176.49 105.171 176.489 105.535C176.502 107.835 176.12 111.795 176.481 113.82C176.756 115.305 181.147 115.79 182.528 115.864C185.669 116.042 187.88 115.433 190.818 114.751C191.239 114.65 191.879 114.854 192.286 114.753C195.544 113.955 200.464 108.704 201.499 105.545C202.228 103.333 201.37 104.351 201.137 104.074C201.021 103.943 201.896 101.935 202.012 101.44C203.035 96.8396 202.557 95.1792 201.529 90.81C201.457 90.5041 201.602 90.0529 201.53 89.7034C201.297 89.6595 201.036 89.732 200.803 89.7026C200.847 89.2222 200.731 88.6979 200.805 88.232C200.834 88.0573 201.372 87.8102 201.125 87.0383C201.067 86.8489 199.253 84.3575 198.962 83.9932C198.033 82.8856 195.359 80.3346 194.197 79.7365L193.835 77.8872C197.411 78.8082 202.203 85.2339 203.567 88.5842C207.178 97.397 204.961 104.689 199.312 111.789C198.831 112.4 198.658 112.022 198.206 113.259C198.147 113.434 198.307 113.885 198.205 113.987C198.045 114.118 197.376 113.913 197.114 113.986C196.024 114.305 195.921 114.756 195.267 115.091C194.132 115.672 192.735 116.5 191.586 116.936C190.117 117.473 187.572 118.242 186.059 118.401C184.794 118.531 182.555 118.514 181.275 118.396L180.17 118.031C180.054 118.017 179.923 118.046 179.807 118.031C178.92 117.87 177.699 117.577 176.87 117.285C162.451 112.218 157.395 94.6534 167.352 82.8402C168.604 81.3563 171.806 78.4039 173.595 77.8669L173.23 79.7154L173.2 79.7445Z" fill="#252525"/>
<path d="M181.288 75.7049C183.876 76.1297 184.356 75.9264 186.813 75.7104C186.93 75.7106 187.061 75.7107 187.177 75.7108C186.943 77.2831 188.369 76.0906 188.646 76.0763C188.762 76.0764 188.893 76.0765 189.009 76.0767C188.892 76.9356 189.139 77.096 189.75 76.4414C190.346 76.5585 190.608 76.5879 191.219 76.8069C191.217 78.394 192.57 77.7252 193.428 77.9154C193.544 77.9446 193.675 77.8865 193.791 77.9157L194.153 79.7653C193.659 79.5173 192.859 79.4728 192.321 79.0209C192.073 80.302 192.632 87.8013 192.312 88.2378C192.268 88.296 191.731 88.1499 191.629 88.2808C191.177 88.8482 192.645 90.3057 193.054 88.2385C195.613 88.343 198.216 88.1709 200.775 88.2463C200.702 88.7122 200.817 89.251 200.773 89.7169C199.668 89.5848 192.805 89.3013 192.325 89.7376C192.223 90.0869 192.324 90.4656 192.309 90.815C192.147 92.7806 192.645 103.527 192.296 104.08C192.194 104.225 191.017 103.976 191.19 105.36C191.277 105.739 191.96 105.506 192.294 105.55L192.285 114.767C191.878 114.869 191.239 114.664 190.817 114.766L190.826 105.549L176.475 105.535C176.475 105.171 176.475 104.792 176.476 104.428C176.796 104.428 176.999 104.152 177.217 104.065C177.305 104.021 177.464 104.094 177.581 104.065C178.118 104.604 178.773 104.416 179.427 104.431C182.859 104.522 186.698 104.598 190.1 104.442C190.347 104.442 190.594 104.457 190.841 104.442L190.798 89.7506C190.58 89.5903 190.275 89.7501 190.115 89.7062C189.301 89.4142 189.577 89.7057 189.373 89.7055C185.084 89.7012 180.78 89.6969 176.491 89.6925C176.515 94.483 176.437 99.2735 176.476 104.064L175.008 104.062C175.027 99.6652 175.148 95.1951 175.021 90.7977C175.022 90.4337 175.036 90.0551 175.022 89.6911L166.196 89.6822C166.21 89.6094 165.993 89.0996 166.197 88.2116L175.024 88.2204L175.033 79.3821C175.935 78.3492 175.12 78.7998 174.67 78.6391C174.466 78.5661 174.031 78.1434 173.943 78.2598C174.131 79.2065 173.52 79.3369 173.2 79.7297L173.565 77.8812C173.682 77.8522 173.827 77.9106 173.929 77.8816C175.107 77.5188 178.233 77.5801 178.351 76.0368C178.467 76.0369 178.598 76.0371 178.714 76.0372C178.816 76.0373 179.295 76.6056 179.964 76.4316C180.328 76.3446 180.154 75.6892 180.198 75.6746C180.242 75.6456 181.099 75.6464 181.303 75.6758L181.288 75.7049ZM180.923 77.9174C180.385 77.2762 177.55 77.6811 177.985 78.657C176.981 78.9327 176.065 78.9902 176.136 80.2716C176.151 80.5628 176.499 80.796 176.514 80.8542C176.513 81.1018 176.513 81.3493 176.513 81.5968C175.466 81.4502 175.465 82.1054 176.512 81.9608C176.569 84.0431 176.465 86.1397 176.506 88.2219L190.858 88.2363C191.34 85.5286 191.299 83.5191 190.865 80.8686C190.778 80.3589 191.056 79.5002 190.795 79.0922C190.46 78.9463 190.097 78.7857 189.763 78.6543C189.4 77.46 189.037 76.9354 188.294 78.2888C186.157 77.8644 183.104 77.6866 180.937 77.9174L180.923 77.9174Z" fill="#141415"/>
<path d="M186.814 75.71C184.357 75.9259 183.891 76.1293 181.289 75.7044C182.787 75.0216 185.273 75.1697 186.814 75.71Z" fill="#252525"/>
<path d="M178.352 76.066C178.235 77.6093 175.108 77.5476 173.93 77.9104C174.803 77.1541 177.262 76.094 178.352 76.066Z" fill="#252525"/>
<path d="M193.429 77.9301C192.571 77.74 191.218 78.4084 191.22 76.8213C192.005 77.1133 192.877 77.1724 193.429 77.9301Z" fill="#252525"/>
<path d="M180.184 75.7036C180.184 75.7036 180.315 76.3732 179.951 76.4602C179.296 76.6343 178.802 76.0663 178.7 76.0662L180.17 75.7036L180.184 75.7036Z" fill="#252525"/>
<path d="M188.646 76.0761C188.37 76.0758 186.944 77.2829 187.178 75.7106C187.716 75.6529 188.225 75.668 188.646 76.0761Z" fill="#252525"/>
<path d="M189.751 76.4419C189.14 77.0965 188.893 76.9216 189.01 76.0772C189.592 76.0778 189.708 76.4419 189.751 76.4419Z" fill="#252525"/>
<path d="M176.475 105.535L190.826 105.55L190.817 114.766C187.879 115.448 185.654 116.057 182.528 115.879C181.146 115.805 176.741 115.32 176.481 113.835C176.119 111.81 176.501 107.85 176.489 105.55L176.475 105.535Z" fill="#6A6A6D"/>
<path d="M175.022 90.7973C175.149 95.1947 175.028 99.6648 175.009 104.062C175.009 104.179 175.009 104.31 175.009 104.426L166.182 104.417C164.619 97.645 164.429 97.732 165.832 90.7881L175.037 90.7973L175.022 90.7973Z" fill="#47484A"/>
<path d="M201.514 90.8237C202.542 95.1929 203.02 96.8534 201.997 101.453C201.88 101.948 201.021 103.942 201.123 104.088C198.504 104.93 195.393 104.228 192.659 104.444C192.63 104.269 192.471 104.123 192.296 104.079C192.646 103.526 192.147 92.78 192.309 90.8145L201.514 90.8237Z" fill="#47484A"/>
<path d="M201.5 105.56C200.464 108.719 195.559 113.97 192.286 114.768L192.295 105.551C192.412 105.551 192.543 105.551 192.659 105.551C195.581 105.714 198.563 105.441 201.485 105.56L201.5 105.56Z" fill="#5B5B5C"/>
<path d="M175.007 105.534C175.006 106.407 175.273 114.75 174.808 114.75C171.712 113.276 167.179 109.442 165.976 106.209C165.773 105.641 166.18 105.554 166.18 105.525L175.007 105.534Z" fill="#5B5B5C"/>
<path d="M174.671 78.6394L175.034 79.3823L175.025 88.2207L166.198 88.2118C166.564 86.5959 167.321 85.2718 168.413 83.9916C169.709 82.4641 171.381 81.6356 172.546 80.4864C172.808 80.2392 172.968 80.0209 173.187 79.7445C173.507 79.3517 174.118 79.2067 173.93 78.2746C174.017 78.1582 174.453 78.5664 174.656 78.6539L174.671 78.6394Z" fill="#47484A"/>
<path d="M194.168 79.7651C195.345 80.3633 198.004 82.9143 198.934 84.0218C199.224 84.3715 201.039 86.863 201.097 87.0669C201.343 87.8389 200.805 88.0859 200.776 88.2606C198.217 88.1853 195.614 88.3574 193.055 88.2529C192.982 88.2528 192.691 87.8303 192.313 88.2521C192.633 87.8302 192.074 80.3309 192.322 79.0352C192.86 79.4871 193.674 79.5317 194.154 79.7797L194.168 79.7651Z" fill="#47484A"/>
<path d="M200.775 89.7168C201.007 89.7461 201.269 89.6736 201.502 89.7175C201.574 90.067 201.428 90.5183 201.501 90.8241L192.296 90.8149C192.326 90.4655 192.224 90.0868 192.312 89.7374C192.777 89.3011 199.655 89.5992 200.76 89.7168L200.775 89.7168Z" fill="#81817D"/>
<path d="M189.374 89.7053L176.869 90.0568L177.218 104.065C177.015 104.166 176.796 104.443 176.477 104.428C176.477 104.311 176.477 104.18 176.477 104.064C176.438 99.2733 176.516 94.4828 176.491 89.6924C180.781 89.6967 185.085 89.701 189.374 89.7053Z" fill="#6A6A6D"/>
<path d="M201.137 104.089C201.369 104.365 202.228 103.362 201.499 105.56C198.576 105.44 195.596 105.714 192.673 105.551C192.644 105.187 192.717 104.794 192.674 104.444C195.408 104.228 198.519 104.93 201.137 104.089Z" fill="#141415"/>
<path d="M166.197 89.682L175.023 89.6909C175.023 90.0549 175.022 90.4335 175.022 90.7975L165.818 90.7883C165.905 90.3661 166.109 90.0168 166.182 89.682L166.197 89.682Z" fill="#81817D"/>
<path d="M175.008 104.442C175.008 104.806 175.007 105.184 175.007 105.548L166.181 105.539C166.108 105.204 166.254 104.753 166.182 104.433L175.008 104.442Z" fill="#141415"/>
<path d="M190.116 89.7073C190.537 90.3192 190.478 91.0183 190.492 91.7172C190.605 95.0371 190.818 100.002 190.495 103.191C190.407 104.035 189.273 103.423 190.086 104.457C186.684 104.614 182.845 104.537 179.414 104.447C179.619 103.005 178.324 103.878 177.567 104.081C177.451 104.11 177.291 104.037 177.204 104.08L176.854 90.0725L189.36 89.7211C189.563 89.7213 189.287 89.4298 190.101 89.7218L190.116 89.7073Z" fill="#5B5B5C"/>
<path d="M190.852 80.8677C191.285 83.5182 191.327 85.5276 190.844 88.2354L176.493 88.221C176.451 86.1388 176.555 84.0421 176.499 81.9599C176.499 81.8434 176.499 81.7124 176.499 81.5959C176.5 81.3484 176.5 81.1008 176.5 80.8533C181.199 78.4992 186.084 79.3923 190.852 80.8677Z" fill="#47484A"/>
<path d="M188.28 78.2888C188.498 78.3327 189.617 78.6104 189.748 78.6542C190.097 78.7711 190.446 78.9462 190.78 79.0922C191.027 79.5001 190.765 80.3589 190.851 80.8686C186.084 79.3932 181.199 78.5001 176.5 80.8542C176.5 80.7959 176.151 80.5627 176.123 80.2715C176.051 78.9755 176.967 78.9326 177.97 78.657C178.567 78.4974 180.501 77.9606 180.908 77.9173C183.075 77.6865 186.128 77.8643 188.265 78.2887L188.28 78.2888Z" fill="#81817D"/>
<path d="M190.115 89.7058C190.261 89.7642 190.58 89.5899 190.798 89.7503L190.842 104.442C190.595 104.456 190.348 104.441 190.101 104.441C189.273 103.421 190.421 104.019 190.509 103.175C190.817 99.9863 190.619 95.0211 190.506 91.7012C190.478 91.0023 190.551 90.3032 190.13 89.6913L190.115 89.7058Z" fill="#6A6A6D"/>
<path d="M180.923 77.9182C180.501 77.9615 178.581 78.4837 177.985 78.6579C177.549 77.6964 180.4 77.277 180.923 77.9182Z" fill="#252525"/>
<path d="M192.296 104.079C192.47 104.123 192.644 104.283 192.659 104.444C192.702 104.793 192.629 105.186 192.658 105.55C192.541 105.55 192.411 105.55 192.294 105.55C191.945 105.506 191.277 105.738 191.19 105.359C191.017 103.976 192.194 104.225 192.296 104.079Z" fill="#252525"/>
<path d="M177.582 104.066C178.338 103.863 179.633 102.99 179.428 104.432C178.774 104.416 178.119 104.591 177.582 104.066Z" fill="#6A6A6D"/>
<path d="M188.28 78.2878C189.023 76.949 189.386 77.459 189.748 78.6533C189.617 78.6095 188.498 78.3317 188.28 78.2878Z" fill="#252525"/>
<path d="M193.055 88.238C192.661 90.2906 191.193 88.8477 191.63 88.2803C191.732 88.1494 192.27 88.2955 192.313 88.2373C192.692 87.8154 192.982 88.2379 193.055 88.238Z" fill="#252525"/>
<path d="M174.671 78.6396C175.122 78.8003 175.951 78.3352 175.034 79.3826L174.671 78.6396Z" fill="#252525"/>
<path d="M176.499 81.5963C176.499 81.7128 176.499 81.8438 176.499 81.9603C175.452 82.1048 175.452 81.4496 176.499 81.5963Z" fill="#252525"/>
<path d="M270.723 50.0085C270.127 49.775 269.401 49.1481 268.732 49.2348C268.427 49.2781 268.295 50.0934 268.135 50.3699C267.218 50.6893 266.084 51.3289 265.197 50.731C264.98 50.3959 264.137 49.3321 263.861 49.2882C263.629 49.2443 262.247 50.0439 262.217 50.2332C261.969 51.689 265.194 54.0947 265.193 54.9683C265.192 55.842 262.106 59.115 262.251 59.7413C263.006 60.6593 263.443 60.6888 264.446 60.3258C266.468 59.5852 265.642 57.575 267.385 58.4795C267.4 58.5086 267.88 58.4219 267.996 58.5967C268.344 59.0921 268.808 60.5776 269.404 60.6219C269.724 60.6513 270.932 59.7645 271.02 59.3569C271.224 58.3088 268.1 55.8886 268.145 54.6073C268.175 53.6318 270.97 50.6349 270.709 50.0085C270.869 50.1397 271.421 50.1113 271.828 50.534C273.251 51.9914 274.514 54.5699 274.381 56.6519C272.248 66.4781 258.088 64.4547 258.534 54.2336C258.609 52.5301 260.184 47.7119 262.437 48.8936C262.684 48.457 262.088 48.3691 262.612 47.8017C265.201 47.7024 267.411 47.6901 269.736 48.9738C270.317 49.2947 270.447 49.819 270.709 50.0231L270.723 50.0085Z" fill="#47484A"/>
<path d="M274.395 56.6374C274.528 54.5554 273.265 51.9915 271.842 50.5195C271.435 50.1114 270.883 50.1252 270.723 49.994C270.461 49.7899 270.346 49.2657 269.75 48.9447C267.425 47.6611 265.215 47.6733 262.626 47.7727C263.048 47.3363 264.503 46.8573 265.114 46.756C271.28 45.8303 275.695 50.6543 274.395 56.6228L274.395 56.6374Z" fill="#A5A69F"/>
<path d="M265.211 50.7302C265.588 51.2839 265.746 52.4489 266.502 52.9302C267.375 52.2758 267.682 51.2714 268.162 50.3546C268.308 50.0781 268.455 49.2632 268.76 49.2198C269.429 49.1186 270.155 49.7451 270.751 49.9932C271.012 50.6196 268.217 53.6165 268.187 54.592C268.142 55.8733 271.266 58.2935 271.061 59.3416C270.988 59.7347 269.766 60.6215 269.446 60.6066C268.85 60.5623 268.386 59.0768 268.038 58.5814C267.922 58.4211 267.456 58.5079 267.427 58.4642C267.239 58.1874 267.414 56.7751 266.339 56.6139L264.488 60.2959C263.47 60.6589 263.049 60.6295 262.294 59.7114C262.163 59.0997 265.234 55.8266 265.235 54.9385C265.236 54.0503 262.01 51.6591 262.259 50.2033C262.288 50.014 263.67 49.2144 263.903 49.2583C264.179 49.3023 265.007 50.366 265.239 50.7011L265.211 50.7302Z" fill="#5AB5D3"/>
<path d="M267.398 58.4782C265.654 57.5737 266.481 59.5839 264.459 60.3245L266.31 56.6425C267.385 56.7892 267.224 58.2014 267.398 58.4928L267.398 58.4782Z" fill="#5B5B5C"/>
<path d="M265.211 50.7302C266.097 51.3135 267.231 50.6886 268.148 50.3692C267.667 51.286 267.361 52.2758 266.488 52.9447C265.732 52.4635 265.573 51.2985 265.196 50.7448L265.211 50.7302Z" fill="#5B5B5C"/>
<path d="M271.814 63.6381C264.308 66.9066 256.184 62.7049 256.745 54.042C257.38 44.0978 270.833 41.403 275.332 49.9982C278.452 55.942 276.064 59.6091 271.814 63.6381ZM262.641 47.7868C262.117 48.3541 262.712 48.4421 262.465 48.8787C260.212 47.697 258.637 52.5152 258.562 54.2187C258.116 64.4398 272.276 66.4632 274.409 56.637C275.709 50.6685 271.294 45.8445 265.128 46.7701C264.517 46.8569 263.063 47.3359 262.641 47.7868Z" fill="#252525"/>
<path d="M293.667 37.6702C293.672 32.2246 289.271 27.8083 283.833 27.8029C278.395 27.7974 273.984 32.2048 273.979 37.6505C273.973 43.0961 278.375 47.5124 283.813 47.5178C289.251 47.5233 293.661 43.1159 293.667 37.6702ZM279.861 30.347C276.529 32.1637 274.853 36.0062 275.78 39.691C276.707 43.3757 280.005 45.956 283.8 45.9743C287.595 45.9927 290.913 43.4337 291.876 39.7508C292.708 36.5338 291.563 33.1398 288.963 31.0987C286.362 29.0576 282.785 28.7628 279.876 30.347L279.861 30.347Z" fill="#252525"/>
<path d="M285.095 30.8618C284.092 31.2976 285.473 31.1533 285.473 31.4299C285.473 31.8376 284.947 33.9777 284.525 34.1665C283.608 34.5733 282.768 32.2284 281.416 31.7611C279.265 30.9872 279.816 32.036 279.554 32.3269C279.466 32.4287 279.292 32.6033 279.19 32.6905C279.059 32.8069 277.954 32.3691 278.432 34.2916C278.563 34.8013 279.508 34.613 279.827 34.9919C279.987 35.1813 281.903 39.1 281.961 39.333C282.265 40.6292 281.464 41.7348 281.724 42.7834C281.84 43.2349 282.393 42.9445 282.48 43.0174C282.582 43.1049 282.742 43.2797 282.843 43.3818C283.003 43.5567 282.755 44.4737 283.744 44.4893C286.754 44.536 285.173 40.6321 285.582 39.3221C285.786 38.6525 286.937 36.2947 287.316 35.5234C287.505 35.145 288.496 33.2969 289.106 33.4431C290.922 35.032 291.675 37.2607 291.847 39.7507C290.884 43.419 287.567 45.978 283.772 45.9742C279.977 45.9704 276.678 43.3755 275.752 39.6908C274.825 36.0061 276.5 32.1635 279.832 30.3468C282.072 29.9268 283.06 30.2628 285.066 30.8618L285.095 30.8618Z" fill="#47484A"/>
<path d="M291.876 39.7498C291.704 37.2453 290.951 35.0312 289.135 33.4423C288.844 33.1799 288.772 32.5974 288.03 32.6986C288.03 32.5966 288.06 32.4219 288.031 32.3345C287.726 31.2568 285.909 31.1093 285.095 30.861C283.089 30.262 282.115 29.926 279.861 30.346C282.77 28.7618 286.347 29.0566 288.948 31.0977C291.548 33.1388 292.709 36.5474 291.862 39.7498L291.876 39.7498Z" fill="#A5A69F"/>
<path d="M279.582 32.3265C283.058 31.0778 281.775 35.634 284.173 36.7576C285.454 35.2591 285.283 31.2839 288.045 32.335C288.074 32.4224 288.045 32.6117 288.045 32.699C287.81 34.2568 285.175 37.4574 284.81 39.2334C284.547 40.5291 284.924 41.9709 284.733 43.1792C284.66 43.6451 283.323 43.2945 282.887 43.396C282.785 43.2794 282.625 43.1191 282.523 43.0316C283.981 39.4512 281.091 35.5605 279.218 32.7047C279.32 32.6175 279.495 32.4429 279.582 32.3411L279.582 32.3265Z" fill="#E8DB3E"/>
<path d="M289.135 33.4433C288.524 33.297 287.534 35.1451 287.344 35.5235C286.951 36.2948 285.814 38.6527 285.61 39.3222C285.201 40.6468 286.782 44.5361 283.773 44.4894C282.784 44.4885 283.032 43.5568 282.872 43.3819C283.308 43.2804 284.646 43.631 284.719 43.1652C284.909 41.9568 284.533 40.5296 284.796 39.2194C285.161 37.4434 287.796 34.2573 288.03 32.685C288.772 32.5838 288.83 33.1663 289.135 33.4287L289.135 33.4433Z" fill="#3A3A3A"/>
<path d="M288.045 32.3365C285.283 31.2854 285.454 35.2461 284.173 36.7591C281.775 35.6355 283.058 31.0793 279.582 32.328C279.844 32.0225 279.293 30.9883 281.444 31.7622C282.781 32.2441 283.622 34.589 284.553 34.1677C284.975 33.9788 285.501 31.8388 285.501 31.4311C285.502 31.1399 284.12 31.2988 285.123 30.863C285.952 31.1113 287.755 31.2588 288.059 32.3366L288.045 32.3365Z" fill="#3A3A3A"/>
<path d="M279.203 32.6913C281.062 35.547 283.966 39.4377 282.508 43.0182C282.421 42.9453 281.868 43.2357 281.752 42.7842C281.491 41.7356 282.292 40.63 281.988 39.3338C281.93 39.1008 280.015 35.1821 279.855 34.9926C279.535 34.6137 278.576 34.8021 278.46 34.2923C277.982 32.3844 279.072 32.8076 279.218 32.6913L279.203 32.6913Z" fill="#3A3A3A"/>
<path d="M239.072 61.3933C234.549 61.8256 230.48 59.2444 229.874 54.5699C229.802 54.3951 229.686 54.3656 229.511 54.38L229.514 51.4388C230.213 50.7843 230.797 48.5133 231.903 47.3787C237.143 41.9675 246.517 46.2288 246.088 53.8435C245.88 57.3233 242.561 61.0765 239.086 61.4079L239.072 61.3933ZM242.113 58.5717C242.244 58.4554 242.39 58.339 242.506 58.2227C245.213 55.6336 245.334 51.3528 242.807 48.5983C240.28 45.8438 236.005 45.621 233.211 48.1081C230.416 50.5951 230.107 54.8612 232.532 57.7175C234.958 60.5738 239.217 60.9568 242.113 58.5863L242.113 58.5717Z" fill="#252525"/>
<path d="M242.52 58.2227C242.522 56.7812 242.084 57.6688 241.445 57.6827C240.092 57.725 238.377 57.8544 237.068 57.6783C236.123 57.5609 234.874 56.1327 235.018 57.6908L233.551 56.5827C236.067 56.2795 239.453 56.9964 241.838 56.5911C243.147 56.374 242.887 55.6165 241.491 55.4695C238.801 55.1756 235.587 55.7111 232.825 55.4754C232.577 56.1013 233.086 56.3056 233.187 56.5824C233.97 58.5488 236.819 59.8039 238.855 59.5148C239.96 59.3557 240.804 58.2937 242.113 58.5426C239.217 60.913 234.957 60.5301 232.532 57.6738C230.106 54.8175 230.401 50.5517 233.21 48.0647C236.019 45.5777 240.279 45.8001 242.806 48.5546C245.334 51.3091 245.198 55.5899 242.506 58.179L242.52 58.2227ZM242.397 49.9811L233.194 49.9719L233.193 50.7145L242.397 50.7237L242.397 49.9811ZM242.394 52.9223L232.827 52.9127C232.798 53.1457 233.321 53.6558 233.379 53.6559L242.394 53.6649L242.394 52.9223Z" fill="#F5F4F5"/>
<path d="M233.55 56.5961L235.017 57.7041C234.873 56.146 236.123 57.5742 237.068 57.6916C238.362 57.8531 240.092 57.7383 241.444 57.696C242.084 57.6675 242.521 56.78 242.52 58.236C242.389 58.3524 242.258 58.4833 242.127 58.5851C240.818 58.3362 239.974 59.3982 238.868 59.5572C236.832 59.8464 233.969 58.5767 233.201 56.6249L233.564 56.6252L233.55 56.5961Z" fill="#DBDEE3"/>
<path d="M229.51 54.3807C229.51 54.3807 229.321 54.7154 229.147 54.7589C229.235 53.9728 228.8 52.7346 229.513 52.1821L229.51 54.3953L229.51 54.3807Z" fill="#FEFEFE"/>
<path d="M233.552 56.5975L233.189 56.5972C233.087 56.335 232.578 56.1306 232.826 55.4902C235.589 55.7259 238.803 55.1758 241.492 55.4843C242.902 55.6459 243.163 56.3888 241.84 56.6058C239.455 57.0111 236.068 56.2943 233.552 56.5975Z" fill="#47484A"/>
<path d="M242.395 52.9227L242.394 53.6653L233.379 53.6562C233.379 53.6562 232.798 53.1606 232.828 52.9131L242.395 52.9227Z" fill="#141415"/>
<path d="M242.397 49.9809L233.193 49.9717L233.193 50.7143L242.396 50.7235L242.397 49.9809Z" fill="#252525"/>
<path d="M211.964 67.0157C215.428 63.3936 229.969 63.2918 229.119 70.3673C228.444 76.0453 215.794 76.0765 212.38 73.161C210.52 71.572 210.246 68.8195 211.964 67.0157ZM214.038 72.42C216.944 74.1411 222.586 74.0594 225.438 72.4315C226.951 71.5594 228.071 71.24 227.579 69.0118C226.594 64.5553 210.367 64.9759 212.353 70.9623C212.672 71.9382 213.326 71.9971 214.038 72.42Z" fill="#252525"/>
<path d="M225.453 72.4319L225.457 68.748L224.351 68.7469L224.13 71.7025C222.953 71.4538 215.812 72 215.507 71.6939C215.202 71.3878 216.151 68.6513 214.973 68.7521L214.417 72.0568C214.417 72.0568 214.285 72.4352 214.053 72.4204C213.341 71.9975 212.687 71.9386 212.368 70.9627C210.382 64.9763 226.609 64.5557 227.593 69.0122C228.085 71.2259 226.98 71.5598 225.453 72.4319ZM221.4 68.38C221.475 66.5891 218.843 66.0475 218.463 67.8235C218.215 68.9444 219.524 68.3053 219.568 68.3781C219.756 68.7132 219.435 70.3582 219.565 70.9554C221.397 71.0446 219.074 67.7661 221.4 68.38Z" fill="#F5F4F5"/>
<path d="M225.453 72.4315C222.601 74.0595 216.959 74.1411 214.053 72.4201C214.286 72.4203 214.402 72.0419 214.417 72.0564C218.066 72.526 221.731 72.486 225.453 72.4315Z" fill="#DBDEE3"/>
<path d="M214.417 72.0562L214.973 68.7515C216.165 68.6653 215.217 71.3872 215.507 71.6932C215.798 71.9993 222.953 71.4678 224.13 71.7019L224.351 68.7463L225.457 68.7474L225.453 72.4313C221.73 72.4858 218.066 72.5112 214.417 72.0562Z" fill="#F5F4F5"/>
<path d="M221.4 68.3795C219.074 67.7656 221.397 71.0441 219.565 70.9549C219.434 70.3578 219.756 68.7127 219.567 68.3776C219.524 68.3193 218.229 68.9585 218.463 67.823C218.843 66.047 221.489 66.5741 221.4 68.3795Z" fill="#F5F4F5"/>
<path d="M269.998 91.6515C269.99 100.344 262.945 107.384 254.264 107.376C245.584 107.367 238.553 100.313 238.562 91.6199C238.571 82.9273 245.615 75.887 254.296 75.8957C262.977 75.9044 270.007 82.9588 269.998 91.6515ZM241.256 87.5601C240.264 90.8935 240.087 93.4853 241.363 96.85C241.987 98.4815 244.6 102.08 246.141 102.781C246.65 103.014 247.377 102.724 247.522 102.855C247.871 103.147 247.681 103.918 248.117 104.166C253.785 107.288 261.363 105.082 265.163 100.121C268.73 95.4506 268.864 91.3299 266.645 86.115C264.135 80.1864 259.602 77.6336 253.044 77.991C247.213 78.3055 242.919 82.0143 241.256 87.5601Z" fill="#252525"/>
<path d="M245.866 86.5758C244.06 89.5881 243.998 93.3446 245.711 96.4332C247.424 99.5217 250.65 101.432 254.154 101.48C257.658 101.527 260.946 99.6954 262.737 96.6686C264.802 96.9327 264.335 99.0291 265.148 100.107C261.362 105.069 253.784 107.274 248.102 104.153C247.652 103.905 247.856 103.133 247.508 102.841C247.363 102.71 246.649 103.001 246.126 102.767C244.571 102.067 241.957 98.4679 241.348 96.8366C240.072 93.4864 240.249 90.88 241.241 87.5466C241.984 86.3243 244.296 86.5597 245.852 86.5613L245.866 86.5758Z" fill="#47484A"/>
<path d="M266.644 86.1004L262.892 86.8684C260.947 83.3428 257.052 81.3587 253.053 81.8643L253.028 77.9764C259.586 77.619 264.12 80.1717 266.63 86.1004L266.644 86.1004Z" fill="#6A6A6D"/>
<path d="M253.043 77.9903L253.068 81.8783C250.072 82.2538 247.424 83.9838 245.881 86.5741C244.31 86.5725 242.012 86.3371 241.27 87.5594C242.918 82.0135 247.226 78.3048 253.057 77.9903L253.043 77.9903Z" fill="#5B5B5C"/>
<path d="M266.646 86.1006C268.851 91.3155 268.731 95.4361 265.164 100.106C264.35 99.0136 264.803 96.9172 262.753 96.6676C264.53 93.6699 264.592 89.9426 262.908 86.8832L266.66 86.1152L266.646 86.1006Z" fill="#5B5B5C"/>
<path d="M264.125 91.6449C264.13 86.2138 259.729 81.7975 254.305 81.7921C248.881 81.7867 244.472 86.1941 244.466 91.6251C244.461 97.0562 248.862 101.472 254.285 101.478C259.709 101.483 264.119 97.076 264.125 91.6449ZM248.937 84.9171C246.477 86.8803 245.297 90.0244 245.831 93.1263C246.366 96.2282 248.559 98.7786 251.524 99.7863C254.49 100.794 257.776 100.113 260.105 97.9894C263.525 94.8623 263.836 89.5769 260.83 86.0502C257.823 82.5235 252.56 82.0232 248.937 84.9171Z" fill="#252525"/>
<path d="M260.104 97.9895C259.043 97.6244 258.04 97.9872 256.92 97.8405C252.966 97.356 249.972 95.096 248.871 91.1636C248.19 88.7604 248.41 87.3628 248.936 84.9171C252.559 82.0232 257.808 82.5236 260.829 86.0503C263.85 89.577 263.524 94.8478 260.104 97.9895Z" fill="#47484A"/>
<path d="M248.936 84.9183C248.41 87.3785 248.191 88.7616 248.872 91.1647C249.987 95.0972 252.966 97.3426 256.92 97.8417C258.04 97.9738 259.043 97.6255 260.105 97.9906C257.79 100.114 254.504 100.81 251.524 99.7875C248.544 98.7652 246.366 96.2149 245.831 93.1275C245.296 90.0401 246.477 86.8815 248.936 84.9183Z" fill="#5B5B5C"/>
<path d="M141.58 46.558C140.375 58.6711 149.251 67.2856 161.248 66.4677L167.691 65.1926C160.283 71.5481 148.609 69.7018 142.96 61.9354C139.838 57.6514 139.233 52.4819 140.809 47.4164C140.998 46.8196 140.505 46.3676 141.595 46.558L141.58 46.558Z" fill="#FEFEFE"/>
<path d="M175.137 49.0391C175.128 57.7318 168.083 64.7721 159.402 64.7634C150.722 64.7546 143.691 57.7002 143.7 49.0076C143.709 40.315 150.753 33.2746 159.434 33.2834C168.115 33.2921 175.145 40.3465 175.137 49.0391ZM156.32 35.5372C152.291 36.465 148.886 39.1408 147.036 42.8373C143.991 48.9205 145.801 56.3336 151.337 60.3142C156.873 64.2948 164.449 63.6471 169.238 58.8179C173.401 54.5995 174.44 48.2085 171.799 42.8913C171.726 42.7456 171.653 42.5999 171.566 42.4396C171.508 42.3376 171.465 42.2503 171.407 42.1629C168.373 36.8744 162.254 34.189 156.32 35.5518L156.32 35.5372Z" fill="#252525"/>
<path d="M151.98 42.594C149.607 45.3581 148.949 49.2016 150.269 52.5955C151.589 55.9895 154.684 58.3659 158.304 58.7773C161.924 59.1886 165.473 57.5615 167.527 54.5641C167.904 54.7101 168.385 54.6084 168.428 54.6813C168.544 54.8561 168.831 58.1617 169.223 58.8028C164.435 63.6466 156.844 64.2797 151.323 60.2992C145.801 56.3186 143.977 48.92 147.022 42.8222C148.723 43.1297 150.425 41.8353 151.98 42.5794L151.98 42.594Z" fill="#47484A"/>
<path d="M171.407 42.1621C171.465 42.2495 171.508 42.3514 171.566 42.4388L171.799 42.8905C174.44 48.2078 173.401 54.5987 169.238 58.8171C168.846 58.176 168.558 54.8704 168.442 54.6956C168.399 54.6227 167.919 54.7244 167.541 54.5784C169.841 51.2172 169.832 46.776 167.509 43.4248L171.421 42.1621L171.407 42.1621Z" fill="#5B5B5C"/>
<path d="M171.407 42.1627L167.494 43.4253C165.083 39.943 160.737 38.3954 156.679 39.5852L156.68 39.0755C157.974 38.771 156.77 36.5276 156.32 35.537C162.254 34.1743 168.388 36.8596 171.407 42.1481L171.407 42.1627Z" fill="#6A6A6D"/>
<path d="M156.32 35.5367C156.77 36.5272 157.974 38.7707 156.68 39.0751L156.68 39.5849C154.861 40.1218 153.217 41.1683 151.98 42.6085C150.439 41.8644 148.723 43.1588 147.022 42.8513C148.872 39.1548 152.277 36.4791 156.306 35.5512L156.32 35.5367Z" fill="#5B5B5C"/>
<path d="M171.799 42.8775L171.566 42.4258C171.639 42.5715 171.726 42.7172 171.799 42.8775Z" fill="#6A6A6D"/>
<path d="M169.248 49.0326C169.253 43.6016 164.866 39.1999 159.443 39.1944C154.019 39.189 149.624 43.5818 149.618 49.0129C149.613 54.444 153.999 58.8457 159.423 58.8511C164.847 58.8566 169.242 54.4637 169.248 49.0326ZM152.327 44.1523C150.493 46.8005 150.285 50.2659 151.809 53.1067C153.333 55.9475 156.298 57.7267 159.526 57.6717C162.754 57.6167 165.678 55.785 167.12 52.9035C169.145 48.8577 167.697 43.9348 163.802 41.6303C159.908 39.3258 154.904 40.4274 152.341 44.1377L152.327 44.1523Z" fill="#252525"/>
<path d="M167.106 52.9189C165.956 54.432 162.307 54.1079 160.533 53.946C155.91 53.49 151.378 49.2629 152.328 44.1677C154.905 40.4428 159.908 39.3558 163.788 41.6603C167.668 43.9647 169.117 48.8876 167.106 52.9334L167.106 52.9189Z" fill="#47484A"/>
<path d="M152.327 44.1529C151.377 49.2627 155.895 53.4897 160.533 53.9312C162.307 54.1077 165.956 54.4318 167.106 52.9041C165.664 55.7856 162.739 57.6319 159.511 57.6723C156.283 57.7128 153.319 55.9482 151.795 53.1073C150.271 50.2665 150.478 46.8011 152.313 44.1529L152.327 44.1529Z" fill="#5B5B5C"/>
<path d="M305.621 63.5704C302.668 65.14 299.12 65.1072 296.199 63.4881C293.278 61.8689 291.376 58.8676 291.147 55.533C291.118 55.169 291.118 54.805 291.133 54.441L291.192 53.6838C291.749 49.025 295.49 45.3887 300.158 45.0003C304.826 44.6118 309.127 47.5575 310.46 52.058C311.793 56.5586 309.767 61.3759 305.621 63.5704ZM295.749 48.5485C287.891 54.9181 296.487 66.4153 304.124 62.6518C304.72 62.3612 304.794 61.706 305.042 61.5606C305.405 61.3426 306.03 61.4743 306.38 61.2563C307.966 60.2241 308.534 58.8266 308.623 57.0358C309.438 56.7891 309.38 56.0611 309.395 55.3768C309.548 48.0821 301.483 43.8949 295.749 48.5485Z" fill="#252525"/>
<path d="M291.119 54.4554C291.12 54.2079 291.149 53.9458 291.178 53.6983L291.119 54.4554Z" fill="#DBDEE3"/>
<path d="M295.75 48.5477C297.103 47.9667 298.513 47.7209 299.996 47.7952C304.867 48.033 308.861 52.172 308.624 57.035C308.535 58.8258 307.966 60.2233 306.38 61.2555C306.031 61.4881 305.421 61.3418 305.042 61.5599C304.795 61.7052 304.721 62.3604 304.125 62.651C296.502 66.4145 287.906 54.9174 295.75 48.5477ZM302.917 49.2975C301.361 49.0339 299.209 49.4831 297.581 49.2922C297.912 52.1755 298.011 55.0443 297.95 57.9709C297.934 59.0047 296.973 60.474 298.34 60.5482C300.753 60.6962 304.897 60.8171 305.221 57.4976C305.441 55.2264 303.754 55.2246 303.464 54.8166C303.188 54.4377 304.352 53.3469 304.498 52.721C304.761 51.5418 304.167 49.5172 302.917 49.2975Z" fill="#47484A"/>
<path d="M295.75 48.5492C301.484 43.8956 309.549 48.0828 309.396 55.3775C309.395 56.0619 309.424 56.7898 308.624 57.0365C308.862 52.1881 304.867 48.0345 299.996 47.7967C298.528 47.7224 297.103 47.9682 295.75 48.5492Z" fill="#A5A69F"/>
<path d="M302.917 49.2975C304.182 49.5172 304.761 51.5418 304.498 52.721C304.352 53.3469 303.188 54.4377 303.464 54.8166C303.754 55.2245 305.441 55.2409 305.221 57.4976C304.897 60.8025 300.739 60.6816 298.34 60.5482C296.988 60.474 297.934 58.9901 297.95 57.9709C298.011 55.0589 297.898 52.19 297.581 49.2922C299.209 49.4831 301.362 49.0339 302.917 49.2975ZM302.319 51.1899C302.145 50.913 299.964 50.605 299.804 50.765L299.801 54.0849C301.574 54.7564 303.204 52.6031 302.319 51.1899ZM299.782 58.8753C300.508 59.5895 304.624 58.4143 302.765 56.0828C302.3 55.4999 299.989 55.3518 299.785 55.5555C299.668 55.6718 299.665 58.7587 299.782 58.8753Z" fill="#D1777D"/>
<path d="M299.78 58.8764C299.664 58.7598 299.667 55.6729 299.783 55.5565C299.987 55.3529 302.299 55.4864 302.763 56.0838C304.622 58.43 300.506 59.6051 299.78 58.8764Z" fill="#47484A"/>
<path d="M302.318 51.1907C303.204 52.604 301.559 54.7573 299.8 54.0857L299.803 50.7659C299.963 50.6059 302.159 50.9139 302.318 51.1907Z" fill="#47484A"/>
<path d="M286.149 81.7076C285.771 81.8237 285.072 81.5755 284.563 81.706C284.2 81.8076 284.446 82.7251 283.385 82.4474C283.239 82.4036 283.269 81.7921 282.949 81.719C282.368 81.5728 281.684 81.7907 280.987 81.5279C276.263 79.7322 273.533 75.769 274.018 70.6442C274.43 66.2619 278.417 62.6548 282.707 62.2223C294.515 61.0111 298.264 78.1961 286.149 81.7076ZM280.321 64.4623C276.786 66.0895 274.848 69.9605 275.673 73.7617C276.498 77.5628 279.825 80.3035 283.722 80.3511C287.619 80.3987 291.009 77.7231 291.9 73.9237C292.63 70.823 291.528 67.5895 289.073 65.5777C286.618 63.5659 283.215 63.1257 280.335 64.4623L280.321 64.4623Z" fill="#252525"/>
<path d="M291.885 73.9389C290.994 77.7383 287.603 80.3993 283.706 80.3663C279.809 80.3332 276.468 77.5925 275.657 73.7768C274.847 69.9611 276.77 66.1047 280.305 64.4775C281.09 65.1043 282.138 64.3628 283.286 64.4805C288.317 64.9514 291.235 69.3662 291.885 73.9534L291.885 73.9389ZM285.392 66.6375C285.189 66.4626 282.659 66.4454 282.295 66.9547L278.794 77.6384C281.702 78.1946 281.034 76.7236 281.967 74.6715C282.883 74.8471 284.73 74.3974 285.442 74.8641C286.575 75.6224 285.147 79.4067 288.74 77.0806C287.695 75.7837 285.901 67.0602 285.407 66.6229L285.392 66.6375Z" fill="#47484A"/>
<path d="M291.884 73.9382C291.235 69.3365 288.331 64.9217 283.286 64.4653C282.138 64.3622 281.089 65.0892 280.305 64.4623C283.185 63.1256 286.588 63.5658 289.043 65.5777C291.498 67.5895 292.6 70.8376 291.87 73.9237L291.884 73.9382Z" fill="#A5A69F"/>
<path d="M285.393 66.6381C285.887 67.0754 287.681 75.7989 288.727 77.0958C285.133 79.4219 286.562 75.623 285.429 74.8793C284.717 74.4126 282.884 74.8623 281.953 74.6867C281.021 76.7388 281.688 78.2097 278.78 77.6535L282.281 66.9698C282.645 66.446 285.175 66.4777 285.379 66.6527L285.393 66.6381ZM284.082 69.4177C283.907 69.1118 283.937 68.777 283.952 68.4421C283.414 67.8301 282.639 72.4887 282.115 72.8522L285.052 72.8551C284.588 71.9082 284.895 70.7436 284.678 69.8115C284.62 69.5493 284.169 69.5634 284.082 69.4177Z" fill="#83B276"/>
<path d="M284.081 69.4156C284.168 69.5759 284.604 69.5618 284.677 69.8094C284.908 70.7415 284.587 71.9207 285.051 72.853L282.114 72.8501C282.653 72.4721 283.428 67.828 283.951 68.4401C283.951 68.7749 283.907 69.1097 284.081 69.4156Z" fill="#3A3A3A"/>
<path d="M210.435 53.2245C210.44 48.6962 206.78 45.0089 202.243 45.0043C197.706 44.9998 194.038 48.6652 194.034 53.2081C194.029 57.7509 197.69 61.4241 202.226 61.4286C206.763 61.4332 210.43 57.7674 210.435 53.2245ZM197.005 48.6975C195.345 50.6178 194.862 53.282 195.762 55.6562C196.661 58.0305 198.782 59.7217 201.282 60.0591C203.783 60.3965 206.285 59.3358 207.771 57.2843C209.94 54.3016 209.377 50.1367 206.486 47.8332C203.595 45.5298 199.421 45.9189 197.005 48.6975Z" fill="#252525"/>
<path d="M207.77 57.2841L207.435 57.3129C207.362 56.8324 207.101 56.3079 207.073 55.842C207.684 55.0709 207.701 52.5664 207.077 51.7941C206.975 51.6629 206.903 51.459 206.714 51.4297C204.737 50.8162 201.727 50.7986 199.72 51.4227C199.705 52.2817 199.748 53.1409 199.718 53.9999C199.47 54.1016 199.237 54.2615 198.975 54.3632C197.508 53.5754 198.528 51.0866 198.239 49.572L203.939 49.5777C204.055 49.5778 204.461 50.0878 204.854 49.9426L204.855 48.836L197.498 48.8286L196.989 48.7119C199.405 45.9332 203.593 45.5442 206.47 47.8476C209.347 50.1511 209.924 54.316 207.755 57.2987L207.77 57.2841Z" fill="#F5F4F5"/>
<path d="M197.514 48.8284L197.508 54.7255C198.235 54.9592 198.541 54.5372 198.977 54.3629C199.224 54.2612 199.457 54.1013 199.719 53.9997C199.719 54.4802 199.762 54.9898 199.718 55.4703L197.508 55.1041C197.58 55.9778 199.136 56.023 199.353 56.2125C199.426 56.2708 199.353 56.7367 199.542 56.9553C200.253 57.8151 205.983 57.0783 207.451 57.3273L207.786 57.2985C206.3 59.35 203.798 60.4252 201.298 60.0732C198.797 59.7213 196.662 58.0446 195.777 55.6704C194.893 53.2961 195.36 50.6174 197.019 48.7116L197.528 48.8284L197.514 48.8284Z" fill="#DBDEE3"/>
<path d="M206.701 51.4148C206.89 51.4587 206.962 51.6481 207.064 51.7792C207.135 53.1189 206.959 54.502 207.06 55.8271C207.088 56.2931 207.364 56.8175 207.422 57.2981C205.953 57.0491 200.224 57.7859 199.512 56.9261C199.338 56.7075 199.397 56.2562 199.324 56.1833C199.688 56.0818 199.659 55.7614 199.688 55.4411C199.733 54.9606 199.689 54.451 199.69 53.9705C199.72 53.1114 199.677 52.2523 199.692 51.3932C201.742 51.6865 204.797 51.0052 206.687 51.4003L206.701 51.4148ZM206.336 52.1425L200.448 52.1366L200.443 56.563L206.332 56.569L206.336 52.1425Z" fill="#F5F4F5"/>
<path d="M197.514 48.8291L204.872 48.8365L204.871 49.9431C204.478 50.0883 204.071 49.5783 203.954 49.5782L198.255 49.5724C198.529 51.087 197.509 53.5759 198.992 54.3637C198.541 54.5379 198.249 54.9745 197.522 54.7262L197.528 48.8291L197.514 48.8291Z" fill="#F5F4F5"/>
<path d="M206.701 51.4155C204.811 51.0205 201.757 51.7017 199.707 51.4085C201.714 50.7844 204.724 50.802 206.701 51.4155Z" fill="#DBDEE3"/>
<path d="M207.074 55.8282C206.973 54.4885 207.149 53.1199 207.078 51.7803C207.702 52.5526 207.685 55.0571 207.074 55.8282Z" fill="#DBDEE3"/>
<path d="M199.702 55.4561C199.673 55.7618 199.701 56.0968 199.338 56.1983C199.134 56.0088 197.564 55.9781 197.492 55.0898L199.702 55.4561Z" fill="#FEFEFE"/>
<path d="M206.336 52.1436L200.447 52.1377L200.443 56.5641L206.331 56.5701L206.336 52.1436Z" fill="#F5F4F5"/>
<path d="M202.198 60.0458C205.956 60.0496 209.005 57.0015 209.009 53.238C209.013 49.4746 205.97 46.4208 202.211 46.417C198.453 46.4132 195.403 49.4609 195.399 53.2244C195.396 56.9878 198.439 60.042 202.198 60.0458Z" fill="#F5F4F5"/>
<path d="M237.765 60.0809C241.523 60.0847 244.573 57.0366 244.576 53.2732C244.58 49.5098 241.537 46.4559 237.779 46.4521C234.021 46.4484 230.971 49.4961 230.967 53.2595C230.963 57.023 234.007 60.0772 237.765 60.0809Z" fill="#F5F4F5"/>
<path d="M69.1971 278.436C69.1971 278.436 97.1068 214.15 98.9687 213.409C100.831 212.669 106.773 202.642 117.554 195.955C128.336 189.268 136.516 166.227 136.516 166.227C136.516 166.227 140.627 140.576 140.269 120.511C140.269 120.511 146.231 106.015 149.2 103.426C152.169 100.837 165.938 72.5888 163.341 66.6309C160.744 60.673 154.078 53.2407 143.296 60.2917C143.296 60.2917 125.449 80.7166 124.339 85.9282C123.228 91.1397 111.68 123.467 102.396 130.141C102.396 130.141 124.869 123.102 126.486 76.2623C128.118 29.4227 172.911 21.0369 174.285 13.86C175.659 6.68303 177.398 -2.12433 166.125 2.58196C154.851 7.28825 130.585 20.1499 128.487 23.6132C126.39 27.0765 114.989 28.798 113.631 34.0093C112.274 39.2206 93.535 78.85 85.3739 82.6858C77.2129 86.5216 73.1973 131.99 65.6346 148.101C58.072 164.212 53.4658 190.591 46.8991 199.51C40.3325 208.429 8.46581 274.56 0.66766 279.022L69.2262 278.465L69.1971 278.436Z" fill="#F2C09B"/>
<path d="M390.699 279.385C390.699 279.385 365.537 199.19 356.625 197.317C347.714 195.444 333.248 179.821 333.248 179.821C333.248 179.821 316.449 155.386 317.46 132.716C318.472 110.046 311.296 102.963 311.296 102.963C311.296 102.963 291.514 81.1315 289.303 66.627C287.093 52.1225 304.045 54.7456 304.045 54.7456C304.045 54.7456 325.81 70.755 333.839 82.528C341.869 94.3009 340.377 103.225 346.432 110.788C352.488 118.351 359.163 132.234 359.163 132.234C359.163 132.234 324.943 79.7818 324.702 74.336C324.46 68.8901 311.24 42.7259 309.395 41.734C307.549 40.742 299.599 22.7663 289.16 21.2706C278.722 19.7749 269.445 20.2608 267.345 11.5807C265.245 2.90048 266.37 -1.80156 276.022 0.188369C285.675 2.17829 314.989 16.71 325.628 21.3072C336.267 25.9045 338.232 38.1665 338.232 38.1665C338.232 38.1665 349.59 65.0712 353.542 68.0455C357.494 71.0199 366.642 83.5511 366.877 95.3162C367.112 107.081 411.338 186.073 411.338 186.073C411.338 186.073 462.36 272.992 463.459 279.444L390.699 279.371L390.699 279.385Z" fill="#F2C09B"/>
<path d="M139.939 72.6811C139.939 72.6811 145.068 61.5036 148.775 62.017C152.483 62.5303 159.344 64.2698 160.081 69.1628C160.818 74.0559 156.26 80.8366 156.26 80.8366C156.26 80.8366 144.088 81.9749 139.939 72.6811Z" fill="#E89FC6"/>
<path d="M158.364 12.1565C158.364 12.1565 170.64 8.47048 172.606 5.67683C174.571 2.88318 169.295 1.52361 169.295 1.52361C169.295 1.52361 166.401 1.97231 156.857 6.8405C156.857 6.8405 155.328 9.41605 158.364 12.171L158.364 12.1565Z" fill="#E89FC6"/>
<path d="M298.628 78.0376C298.628 78.0376 290.466 67.7207 293.075 62.1612C295.683 56.6017 302.88 56.9149 304.623 59.0861C306.365 61.2574 312.611 67.8447 312.611 67.8447C312.611 67.8447 309.504 77.2914 298.613 78.0376L298.628 78.0376Z" fill="#E89FC6"/>
<path d="M287.673 11.6164C287.673 11.6164 273.935 8.87984 272.892 4.72904C271.849 0.578247 272.925 -0.23629 272.925 -0.23629C272.925 -0.23629 277.986 -0.929913 289.671 5.08076C289.671 5.08076 290.844 9.77043 287.687 11.631L287.673 11.6164Z" fill="#E89FC6"/>
</g>
<defs>
<clipPath id="clip0_227_93">
<rect width="463.839" height="277.628" fill="white" transform="translate(0.27882) rotate(0.0575418)"/>
</clipPath>
</defs>
</svg>
