<svg width="131" height="133" viewBox="0 0 131 133" fill="none" xmlns="http://www.w3.org/2000/svg">
<path opacity="0.39" d="M66.9102 6.71442L10.2989 43.6227C4.61094 47.3309 3.18385 55.2206 7.11134 61.2447L46.2013 121.203C50.1288 127.227 57.9236 129.104 63.6115 125.396L120.223 88.4876C125.911 84.7793 127.338 76.8896 123.41 70.8655L84.3204 10.9077C80.3929 4.88353 72.5982 3.00614 66.9102 6.71442Z" fill="#CDB4F6"/>
<path d="M79.3349 87.4298L78.9765 87.5169C72.5353 84.433 66.0194 81.4469 59.8404 77.7033C51.6465 72.7805 43.0106 66.8261 44.0916 55.9543C45.5357 41.1796 64.1164 36.6912 73.0159 48.9259C77.9789 55.7596 78.7897 73.0723 79.0982 81.4741C79.1731 83.4294 79.0635 85.4561 79.3349 87.4298ZM67.1802 53.7081C64.4967 49.592 59.1861 48.3129 55.2997 50.8467C51.4134 53.3804 50.4411 58.7557 53.1246 62.8718C55.8082 66.9879 61.1188 68.267 65.0051 65.7332C68.8915 63.1995 69.8637 57.8242 67.1802 53.7081Z" fill="#D69CE8"/>
</svg>
