<svg width="147" height="148" viewBox="0 0 147 148" fill="none" xmlns="http://www.w3.org/2000/svg">
<path d="M105.46 89.1192L80.1991 105.589C71.5843 111.205 61.2029 112.059 51.8369 108.878C44.5213 106.364 37.8757 101.409 33.2243 94.2748C22.6244 78.0162 26.4735 56.7366 41.8247 46.7283L67.0861 30.259C82.4372 20.2507 103.461 25.3141 114.061 41.5727C124.661 57.8313 120.812 79.1109 105.46 89.1192Z" fill="#FF5CDB"/>
<path d="M101.127 120.344C101.127 120.344 100.126 123.978 56.8638 110.146L90.6375 98.7343C90.6375 98.7343 105.779 120.048 101.104 120.31L101.127 120.344Z" fill="#FF5CDB"/>
<path opacity="0.25" d="M53.049 22.1068L27.7874 38.5763C12.4408 48.5816 8.5904 69.8688 19.1872 86.1226C29.784 102.376 50.8151 107.442 66.1618 97.4365L91.4233 80.967C106.77 70.9617 110.62 49.6745 100.024 33.4207C89.4268 17.1669 68.3956 12.1014 53.049 22.1068Z" fill="#E03C7A"/>
</svg>
