<svg width="134" height="136" viewBox="0 0 134 136" fill="none" xmlns="http://www.w3.org/2000/svg">
<path opacity="0.42" d="M39.7518 26.1577C61.3018 12.108 90.8801 19.2014 105.8 42.0856C120.719 64.9698 115.276 94.8957 93.7259 108.945C72.1759 122.995 42.5984 115.901 27.679 93.017C12.7595 70.1329 18.2021 40.2075 39.7518 26.1577Z" fill="#FE6E2F" stroke="#FE6E2F"/>
<path d="M28.9043 65.0893L62.1004 43.4468" stroke="#FE6E2F" stroke-width="5" stroke-miterlimit="10" stroke-linecap="round"/>
<path d="M40.854 81.1524L66.3745 64.5141" stroke="#FE6E2F" stroke-width="5" stroke-miterlimit="10" stroke-linecap="round"/>
<path d="M51.1762 100.525C51.1762 100.525 57.753 94.3307 54.5135 88.8663C54.5135 88.8663 77.6872 113.156 86.7197 85.1728" stroke="#FE6E2F" stroke-width="5" stroke-linecap="round" stroke-linejoin="round"/>
<path d="M69.2677 28.4735C69.8009 26.9257 70.781 25.5699 72.6334 25.5483C73.1838 25.5418 73.6685 25.5244 74.0984 25.5083C74.5309 25.4921 74.901 25.4772 75.2337 25.4723C75.9013 25.4623 76.3615 25.4967 76.7633 25.628C77.5445 25.8833 78.2356 26.5458 79.6663 28.4894L88.0193 62.5587L85.9531 76.3049L77.2509 65.6984L68.7264 31.4786C68.7277 31.4354 68.7312 31.3693 68.7359 31.2858C68.7453 31.1187 68.7634 30.8776 68.7983 30.5876C68.8684 30.0052 69.0049 29.2367 69.2677 28.4735Z" fill="#FE6E2F" stroke="#FE6E2F"/>
</svg>
