<svg width="603" height="408" viewBox="0 0 603 408" fill="none" xmlns="http://www.w3.org/2000/svg">
<path d="M602.803 210.494C601.46 229.017 590.166 246.051 571.247 254.211C571.979 251.532 561.879 240.985 561.065 241.971C568.126 256.591 568.038 270.538 563.297 282.39C551.812 311.073 513.031 327.454 482.404 311.222C480.831 310.399 479.284 309.481 477.764 308.475L477.608 302.96L477.534 300.199L475.594 292.291C475.75 295.997 475.356 299.567 474.501 302.96C473.782 305.85 472.724 308.611 471.388 311.222C460.019 333.492 428.476 344.733 410.608 329.331C407.251 326.441 404.375 322.605 402.204 317.723C402.007 317.274 401.81 316.812 401.627 316.336C401.193 315.261 400.793 314.133 400.427 312.963C400.264 312.426 400.101 311.882 399.952 311.324C399.707 312.31 399.565 313.269 399.497 314.187C399.443 314.921 399.429 315.635 399.45 316.329C399.47 316.805 399.497 317.267 399.538 317.723C399.918 322.197 401.227 325.903 399.049 329.331C398.9 329.562 398.731 329.8 398.548 330.031C398.412 330.208 398.263 330.378 398.1 330.555C397.822 330.861 397.51 331.16 397.164 331.466C396.628 331.921 396.011 332.377 395.298 332.833C395.095 332.969 394.885 333.098 394.661 333.227C394.41 333.377 394.159 333.519 393.901 333.655C386.636 337.579 378.163 337.3 371.258 333.547C368.694 332.159 366.347 330.283 364.352 327.971C364.339 327.957 364.325 327.937 364.311 327.923C362.656 325.985 361.592 323.775 360.486 321.585C359.889 320.409 359.278 319.246 358.559 318.124C357.006 319.314 355.412 320.477 353.784 321.592C334.505 334.845 310.519 342.339 287.91 332.527C287.632 332.404 287.347 332.282 287.075 332.159C282.137 329.902 277.924 326.978 274.363 323.523C264.507 313.99 259.623 300.465 258.158 286.144C258.076 285.362 258.008 284.58 257.947 283.798C257.9 283.233 257.866 282.662 257.832 282.091L257.391 283.798L254.142 296.283L253.769 297.731C249.895 297.201 245.961 296.888 242.115 296.153C237.645 295.297 233.5 294.066 229.701 292.495C224.227 290.244 219.451 287.307 215.368 283.798C205.003 274.917 199.128 262.439 197.772 248.465C197.717 247.88 197.663 247.295 197.629 246.704C197.317 242.311 197.453 237.775 198.036 233.172C198.056 232.934 198.091 232.703 198.124 232.465C198.247 231.533 198.389 230.595 198.552 229.656C198.721 228.663 198.918 227.664 199.128 226.664C199.325 225.733 199.542 224.794 199.773 223.856C199.983 223.04 200.2 222.217 200.437 221.394C200.695 220.456 200.98 219.517 201.285 218.579C201.387 218.239 201.496 217.906 201.611 217.566L219.173 217.831C215.524 216.185 211.596 215.737 207.859 214.213C207.832 214.2 207.804 214.193 207.777 214.179C207.235 213.955 206.699 213.724 206.183 213.479C204.664 212.792 203.246 212.024 201.93 211.194C200.444 210.276 199.094 209.277 197.866 208.209C196.822 207.318 195.872 206.373 195.018 205.394C194.217 204.483 193.498 203.544 192.867 202.585C192.338 201.783 191.863 200.96 191.456 200.124H191.449C188.546 194.283 188.492 187.884 191.449 182.321C191.694 181.859 191.958 181.41 192.25 180.961C192.786 180.118 193.403 179.289 194.095 178.5C194.95 177.514 195.92 176.569 197.012 175.685C200.092 173.175 204.107 171.101 209.08 169.714C209.276 169.653 209.473 169.599 209.67 169.544C210.62 169.293 219.75 168.184 218.495 167.178C219.918 168 209.08 173.334 206.173 172.889L204.25 166.491C204.843 147.556 211.05 131.556 238.167 129.084L250.511 130.223L242.915 148.131C243.275 143.677 242.427 138.557 242.915 134.191C246.68 100.667 287.869 76.9758 315.824 100.545L328.38 114.804C326.329 114.667 314.358 115.556 324.452 98.9194C347.217 68.2242 402.208 71.7878 426.534 101.334C424.356 102.388 414.562 109.334 412.508 110.051C424.372 99.6266 438.556 91.419 454.402 89.1546C488.828 84.2382 523.125 107.134 529.156 141.406C529.468 143.16 529.705 144.949 529.861 146.764C531.387 147.05 530.94 146.703 531.374 145.901C532.14 144.5 528.261 146.46 528.512 144.889C528.993 141.884 515.654 137.059 534.379 132.471C549.058 128.873 562.375 142.138 563.982 157.778C559.587 158.968 552.454 158.667 550.883 156.971H562.075C571.66 156.971 583.545 164.981 590.824 173.23C592.526 175.161 593.978 177.099 595.09 178.955C598.801 185.143 601.148 191.665 602.227 198.199C602.308 198.682 602.383 199.165 602.45 199.648C602.491 199.927 602.525 200.199 602.552 200.477C602.613 200.947 602.667 201.409 602.708 201.878C602.986 204.768 603.013 207.645 602.803 210.494Z" fill="#2E2929"/>
<path d="M233.439 169.707H209.08C204.107 171.101 200.092 173.175 197.012 175.684H207.777V178.499H194.095C193.403 179.288 192.786 180.118 192.25 180.961H207.777V183.776H191.449V182.321C188.492 187.883 188.546 194.282 191.449 200.117V197.308H207.777V200.123H191.456C191.863 200.96 192.338 201.783 192.867 202.585H207.777V205.393H195.018C195.872 206.373 196.822 207.318 197.866 208.209H207.777V211.194H201.93C203.246 212.023 204.664 212.792 206.183 213.479H207.777V214.179C207.777 214.179 207.832 214.199 207.859 214.213C211.596 215.736 215.524 216.185 219.173 217.831L201.611 217.565C201.496 217.905 201.387 218.239 201.285 218.579H207.777V221.394H200.437C200.2 222.217 199.983 223.039 199.773 223.855H207.777V226.664H199.128C198.918 227.663 198.721 228.663 198.552 229.656H207.777V232.464H198.124C198.091 232.702 198.056 232.933 198.036 233.171H215.239V223.325H211.508V222.271L215.246 222.169V221.217H211.508C211.142 219.85 212.403 220.333 214.513 220.149C215.191 220.095 215.565 219.905 216.324 219.871C218.176 219.789 218.889 220.061 220.157 220.156C220.991 220.217 222.755 220.034 223.216 220.265C225.645 221.503 219.499 221.135 219.431 221.319V222.271H223.175V223.325H219.438V233.171H230.169V213.655C231.248 213.649 232.347 213.669 233.432 213.655V213.479C233.296 208.385 233.412 203.163 233.432 198.015C233.473 188.584 233.405 179.139 233.439 169.707ZM207.777 194.847H191.449V191.861H207.777V194.847ZM207.777 189.577H191.449V186.585H207.078C207.126 186.585 207.777 186.829 207.777 186.85V189.577Z" fill="#6266EC"/>
<path d="M602.708 201.877H600.076V210.493H602.803C603.014 207.644 602.986 204.767 602.708 201.877ZM602.451 199.647L600.07 199.695V200.477H602.552C602.525 200.198 602.491 199.926 602.451 199.647ZM595.091 178.955C593.978 177.098 592.526 175.16 590.824 173.229H562.293V167.422C562.293 167.381 564.24 167.456 564.626 167.422V166.898C561.771 167.075 560.916 166.436 564.389 166.545C565.372 165.824 563.534 165.96 562.449 165.776C562.3 165.749 562.286 165.531 561.96 165.497C559.315 165.239 559.749 165.749 559.023 165.926C558.379 166.082 557.239 165.987 557.158 166.021C557.11 166.035 557.11 166.524 557.158 166.545C557.476 166.674 559.389 166.239 559.023 166.898H556.228C556.12 167.66 559.498 167.32 559.498 167.687V173.229H553.427C553.434 181.546 553.434 189.869 553.434 198.185V221.04C556.222 221.054 559.043 221.006 561.825 221.04C562.177 220.346 561.262 217.756 562.028 217.341C562.707 216.974 568.69 217.266 570.223 217.171C570.236 215.886 570.175 214.593 570.223 213.308H561.825V207.855H570.691C570.63 208.732 570.772 209.616 570.691 210.493H581.883C582.039 210.058 581.395 207.855 582.582 207.855H590.749V210.493C591.835 210.48 592.933 210.5 594.019 210.493V201.98C593.944 201.789 591.434 201.884 590.749 201.877C590.566 202.115 591.007 203.816 590.749 203.816H581.883V198.539C583.084 198.444 588.355 198.668 588.884 198.539C588.924 198.539 588.694 198.233 589.189 198.185C590.085 198.097 593.768 198.28 594.019 198.192C594.215 198.117 593.815 196.852 594.012 196.777C594.229 196.703 599.866 196.703 600.083 196.777C600.28 196.852 599.88 198.117 600.076 198.192C600.165 198.226 601.141 198.212 602.227 198.192C601.148 191.657 598.801 185.136 595.091 178.948V178.955ZM561.363 179.2H570.223V184.476H561.363V179.2ZM561.865 189.835C561.886 189.569 560.841 188.522 562.062 188.522H570.223V193.969C569.761 193.969 569.293 193.962 568.825 193.969H568.357C566.349 194.01 564.301 193.942 562.293 193.969C561.961 193.969 561.886 193.908 561.825 193.792C561.058 192.256 561.757 191.283 561.865 189.835ZM570.691 203.816H561.825V198.539H570.691V203.816ZM590.281 193.969H581.422V188.522H590.281V193.969ZM590.281 184.476H581.422V179.2H590.281V184.476Z" fill="#6266EC"/>
<path d="M439.615 186.938C439.493 186.673 439.703 186.34 439.615 186.061H432.153C431.97 185.871 432.614 185.673 432.614 185.619V179.73C432.614 179.689 434.561 179.764 434.947 179.73V179.207L432.614 179.111L434.947 178.853C435.348 178.091 434.194 178.37 432.98 178.132C432.214 177.983 432.906 177.711 430.477 177.785C428.944 177.826 429.453 178.105 429.025 178.146C427.384 178.302 426.699 177.779 427.018 178.853L429.351 178.941L427.018 179.207V179.73C427.404 179.764 429.351 179.689 429.351 179.73V186.061H383.638V143.52H358.912V137.543H301.538V143.52H291.512C291.125 143.52 290.685 143.942 290.786 144.125C290.827 159.215 290.807 174.311 290.807 189.4V213.655C294.687 213.655 298.594 213.662 302.474 213.655V212.248L313.198 212.254C313.239 211.67 313.192 211.078 313.198 210.493H302.474V207.678H313.198C313.205 207.093 313.192 206.509 313.198 205.924C311.767 205.835 302.474 206.155 302.474 205.659V202.932H313.198C313.232 202.639 313.171 202.347 313.198 202.054C315.2 202.177 325.28 201.823 326.06 202.224C326.42 202.408 326.216 202.721 326.264 202.932H332.328V205.924H326.264C326.277 206.509 326.25 207.093 326.264 207.678H332.328V210.493H326.264C326.27 211.078 326.223 211.67 326.264 212.254H332.328V213.655C334.03 213.669 335.754 213.649 337.456 213.655V239.502C354.55 239.468 371.672 239.536 388.766 239.502V236.51H397.164C397.191 234.96 396.92 233.294 397.164 231.764H388.766V228.602H407.427C406.966 229.105 407.807 229.683 407.895 230.009V221.747C409.91 221.741 411.938 221.747 413.959 221.747C413.858 221.108 413.858 220.938 415.567 220.857C420.906 220.605 427.594 221.061 433.082 220.863C433.109 221.156 433.048 221.455 433.082 221.747C433.455 224.835 432.811 227.969 433.082 231.063C435.409 231.063 437.749 231.057 440.076 231.063L439.615 186.938ZM313.198 201.354H302.935V198.539H313.198V201.354ZM313.198 196.784H302.935V193.793H313.198V196.784ZM313.198 192.208H302.935V189.223H313.198V192.208ZM313.198 187.462H302.935V184.653H313.198V187.462ZM313.198 183.246H303.173C303.118 183.246 302.474 183.001 302.474 182.981V180.261H313.198V183.246ZM313.198 178.499H302.935V175.684H313.198V178.499ZM313.198 173.93H302.474L302.935 171.114H313.198V173.93ZM313.198 169.36H303.173C303.118 169.36 302.474 169.115 302.474 169.095V166.368H313.198V169.36ZM313.198 164.791H302.935V161.975H313.198V164.791ZM313.198 160.221H302.935V157.229H313.198V160.221ZM313.198 155.644H302.935V152.659H313.198V155.644ZM313.198 150.898H302.935V148.09H313.198V150.898ZM332.328 201.354H322.065L321.597 198.539H332.328V201.354ZM332.328 196.784H322.295C321.237 196.784 321.237 193.793 322.295 193.793H332.328V196.784ZM332.328 192.208H322.295C321.237 192.208 321.237 189.223 322.295 189.223H332.328V192.208ZM332.328 187.462H322.295C322.248 187.462 321.597 187.217 321.597 187.203V184.653H332.328V187.462ZM332.328 182.981C332.328 183.178 331.188 183.232 330.713 183.253C329.221 183.321 324.133 183.341 322.763 183.253C322.377 183.225 321.597 183.11 321.597 182.987V180.267H332.328V182.987V182.981ZM332.328 178.499H321.597V175.684H332.328V178.499ZM332.328 173.93H321.597V171.114H332.328V173.93ZM332.328 169.007L331.86 169.183L321.597 169.36V166.368H332.328V169.007ZM332.328 164.791H321.597C322.092 163.791 321.834 162.975 321.597 161.975H332.328V164.791ZM332.328 160.221H322.295C321.237 160.221 321.237 157.229 322.295 157.229H332.328V160.221ZM332.328 155.644H322.295C321.237 155.644 321.237 152.659 322.295 152.659H332.328V155.644ZM332.328 150.898H322.295C322.248 150.898 321.597 150.653 321.597 150.64V148.09H332.328V150.898ZM340.719 157.229H350.752C350.799 157.229 351.45 157.474 351.45 157.494V160.221H340.719V157.229ZM340.719 166.368H350.982V169.36H340.719V166.368ZM340.719 171.114H350.982V173.93H340.719V171.114ZM340.719 175.684H350.982V178.499H340.719V175.684ZM340.719 180.261H350.982V183.069H340.719V180.261ZM340.719 193.793H350.752C350.799 193.793 351.45 194.037 351.45 194.058V196.784H340.719V193.793ZM350.982 237.741H340.719V234.926H350.982V237.741ZM350.982 233.171H340.719V230.356H350.982V233.171ZM350.982 228.602H340.719V225.61H350.982V228.602ZM350.982 224.032H340.719V221.04H350.982V224.032ZM350.982 219.809C347.55 219.809 344.104 219.877 340.719 219.633V216.824H350.982V219.809ZM350.982 215.063H340.719V212.254H350.982V215.063ZM350.982 210.493H340.719V207.678H350.982V210.493ZM350.982 205.924H340.719V202.932H350.982V205.924ZM350.752 201.354H340.719V198.539H350.752C351.81 198.539 351.81 201.354 350.752 201.354ZM350.752 192.208H340.719V189.223H350.752C351.81 189.223 351.81 192.208 350.752 192.208ZM350.752 187.462H340.719V184.653H350.752C351.81 184.653 351.81 187.462 350.752 187.462ZM350.752 164.791H340.719V161.975H350.752C351.81 161.975 351.81 164.791 350.752 164.791ZM350.752 155.644H340.719V152.659H350.752C351.81 152.659 351.81 155.644 350.752 155.644ZM350.752 150.898H340.719V148.09H350.752C351.81 148.09 351.81 150.898 350.752 150.898ZM370.112 237.741H360.079C360.031 237.741 359.38 237.496 359.38 237.476V234.926H370.112V237.741ZM370.112 233.171H359.38V230.356H370.112V233.171ZM370.112 228.602H359.38V225.875C359.38 225.875 360.031 225.61 360.079 225.61H370.112V228.602ZM370.112 224.032H359.38V221.305C359.38 221.305 360.031 221.04 360.079 221.04H370.112V224.032ZM370.112 219.809H360.079C360.031 219.809 359.38 219.565 359.38 219.544V216.824H370.112V219.809ZM370.112 215.063H359.38V212.254H370.112V215.063ZM370.112 210.493H359.38V207.678H370.112V210.493ZM370.112 205.924H360.079C360.031 205.924 359.38 205.679 359.38 205.659V202.932H370.112V205.924ZM370.112 201.354H359.848V198.539H370.112V201.354ZM370.112 196.784H359.848V193.793H370.112V196.784ZM370.112 192.208H359.848V189.223H370.112V192.208ZM370.112 187.462H359.848V184.653H370.112V187.462ZM370.112 183.246H360.079C360.031 183.246 359.38 183.001 359.38 182.981V180.261H370.112V183.246ZM370.112 178.499H359.38V175.684H370.112V178.499ZM370.112 173.93H359.38V171.114H370.112V173.93ZM370.112 169.36H360.079C360.031 169.36 359.38 169.115 359.38 169.095V166.368H370.112V169.36ZM370.112 164.791H359.848V161.975H370.112V164.791ZM370.112 160.221H359.848V157.229H370.112V160.221ZM370.112 155.644H359.848V152.659H370.112V155.644ZM370.112 150.898H359.848V148.09H370.112V150.898ZM387.369 190.807H406.03V193.969H387.369V190.807ZM387.369 198.362H406.03V201.531H387.369V198.362ZM387.369 206.277H406.03V209.439H387.369V206.277ZM387.369 217.001V213.832H405.792C405.84 213.832 406.491 214.077 406.491 214.097V217.001H387.369ZM407.427 224.202H388.766V221.04H407.427V224.202ZM431.685 217.001H413.023V213.832H431.685V217.001ZM431.685 209.439H413.023V206.277L431.685 206.101V209.439ZM431.685 201.531H413.023L412.555 198.362H431.685V201.531ZM431.685 193.969H412.555V190.807H431.685V193.969Z" fill="#6266EC"/>
<path d="M497.457 141.405C497.28 141.596 497.918 141.793 497.918 141.847V148.267H451.743V231.063C459.164 231.07 469.706 231.383 476.72 231.07C477.188 231.05 478.327 230.988 478.327 230.798V226.841H474.596V225.787C476.306 225.746 478.307 226.065 478.341 225.174C478.355 224.624 475.492 225.025 474.596 224.909V223.855C475.288 223.808 478.165 223.916 478.334 223.855C478.524 223.78 478.137 222.692 478.327 222.624C478.497 222.556 481.549 222.672 482.262 222.618C482.94 222.658 482.262 223.753 482.526 223.855C482.696 223.916 485.572 223.808 486.264 223.855V224.909H482.526V225.684L486.264 225.787V226.841H482.526V231.063C483.964 231.227 491.135 230.744 491.413 231.179C491.826 235.898 490.782 240.781 491.392 245.473H512.38C513.126 243.269 512.367 239.917 512.38 237.564H504.919V230.533H512.38C512.401 229.187 512.346 227.833 512.38 226.494H504.919V219.456H513.316C513.106 219.898 513.608 220.673 513.316 221.04H524.977V219.456H533.104L533.375 221.04C537.099 221.04 540.843 221.033 544.567 221.04V141.405H497.457ZM513.316 215.77H504.919V208.562H513.316V215.77ZM513.316 204.693H504.919V197.485H513.316V204.693ZM513.316 193.269H504.919V186.238H513.316V193.269ZM513.316 182.192H504.919V174.984H513.316V182.192ZM513.316 171.468H504.919V164.26H513.316V171.468ZM513.316 160.132C513.316 160.132 512.665 160.391 512.617 160.391H505.617C505.57 160.391 504.919 160.146 504.919 160.132V153.183H513.316V160.132ZM533.375 215.77H524.977V208.562H533.375V215.77ZM533.375 204.693H524.977V197.485H533.375V204.693ZM533.375 193.269H524.977V186.238H533.375V193.269ZM533.375 182.192H524.977V174.984H533.375V182.192ZM533.375 171.468H524.977V164.26H533.375V171.468ZM533.375 160.132C533.375 160.132 532.724 160.391 532.676 160.391H525.676C525.628 160.391 524.977 160.146 524.977 160.132V153.183H533.375V160.132Z" fill="#6266EC"/>
<path d="M278.888 184.64L243.227 184.653C243.2 188.665 243.268 192.684 243.248 196.703C243.248 197.267 242.766 197.866 242.759 198.539C242.759 203.455 243.743 208.521 243.227 213.478V213.655C255.193 213.648 267.18 213.662 279.146 213.655V185.177C279.03 185.027 279.458 184.701 278.888 184.64ZM264.222 188.346H269.818V191.331H264.222V188.346ZM270.286 192.738V195.73H264.683V192.738H270.286ZM264.222 196.784C265.274 196.825 270.286 196.614 270.286 197.043V199.77H264.222V196.784ZM270.286 201.177V203.992H264.683V201.177H270.286ZM251.625 188.346H257.221V191.331H251.625V188.346ZM257.69 213.132H252.093V210.14H257.69V213.132ZM257.69 208.474C257.69 208.902 252.677 208.691 251.625 208.739V205.747H257.69V208.474ZM257.69 203.992H252.093V201.177H257.69V203.992ZM257.69 199.77H251.625V196.784C252.677 196.825 257.69 196.614 257.69 197.043V199.77ZM257.69 195.73H252.093V192.738H257.69V195.73ZM270.286 213.132H264.683V210.14H270.286V213.132ZM264.222 208.739V205.747C266.508 205.896 269.954 205.278 270.307 206.352C271.073 208.698 270.443 208.95 264.222 208.739Z" fill="#6266EC"/>
<path d="M512.38 226.487H504.918V219.456H513.316C513.106 219.891 513.608 220.673 513.316 221.041C511.878 222.836 512.434 224.495 512.38 226.487Z" fill="#FFEA92"/>
<path d="M512.38 230.532C512.346 232.871 512.394 235.224 512.38 237.563H504.918V230.532H512.38Z" fill="#FFEA92"/>
<path d="M570.223 213.302H561.825V207.855H570.691C570.63 208.733 570.772 209.617 570.691 210.494C570.609 211.371 570.264 212.357 570.223 213.309V213.302Z" fill="#FFEA92"/>
<path d="M588.884 198.539V199.593C589.501 199.593 590.125 199.593 590.749 199.593V200.47C588.076 200.593 588.945 201.021 588.884 201.878C589.501 201.878 590.132 201.878 590.749 201.878C590.566 202.116 591.007 203.809 590.749 203.809H581.883V198.532C583.084 198.437 588.348 198.661 588.877 198.532L588.884 198.539Z" fill="#FFEA92"/>
<path d="M570.223 217.171C570.209 218.517 570.229 219.871 570.223 221.217C567.971 221.197 565.691 221.251 563.432 221.217C562.747 221.21 562.082 221.04 561.825 221.04C562.177 220.347 561.262 217.756 562.028 217.334C562.707 216.967 568.683 217.266 570.223 217.171Z" fill="#FFEA92"/>
<path d="M313.199 202.932C313.076 203.918 313.212 204.931 313.199 205.917C311.767 205.829 302.467 206.148 302.467 205.652V202.925H313.199V202.932Z" fill="#FFEA92"/>
<path d="M313.199 207.678C313.199 208.616 313.212 209.555 313.199 210.493H302.467V207.678H313.199Z" fill="#FFEA92"/>
<path d="M581.883 210.494C582.032 210.059 581.388 207.855 582.582 207.855H590.742V210.494C587.805 210.528 584.82 210.494 581.876 210.494H581.883Z" fill="#FFEA92"/>
<path d="M326.264 202.932H332.328V205.917H326.264C326.236 204.945 326.454 203.877 326.264 202.932Z" fill="#FFEA92"/>
<path d="M326.264 207.678H332.328V210.493H326.264C326.25 209.555 326.277 208.616 326.264 207.678Z" fill="#FFEA92"/>
<path d="M313.199 212.247C313.165 212.716 313.219 213.186 313.199 213.655C309.63 213.655 306.035 213.655 302.467 213.655V212.247H313.199Z" fill="#FFEA92"/>
<path d="M524.978 221.041V219.456H533.104L533.375 221.041H524.978Z" fill="#FFEA92"/>
<path d="M590.749 199.593C591.434 199.593 593.951 199.504 594.025 199.695V200.47C592.96 200.504 591.787 200.422 590.749 200.47V199.593Z" fill="#6266EC"/>
<path d="M234.368 213.655C234.056 213.655 233.744 213.655 233.432 213.655V213.479L234.368 213.655Z" fill="#D69CE8"/>
<path d="M207.777 191.854H191.449V194.84H207.777V191.854Z" fill="#FFEA92"/>
<path d="M207.777 213.479V214.179C207.234 213.955 206.698 213.723 206.183 213.479H207.777Z" fill="#FFEA92"/>
<path d="M207.778 208.209V211.194H201.93C200.445 210.276 199.094 209.277 197.867 208.209H207.778Z" fill="#FFEA92"/>
<path d="M207.777 189.57H191.449V186.585H207.078C207.126 186.585 207.777 186.83 207.777 186.85V189.577V189.57Z" fill="#FFEA92"/>
<path d="M207.777 218.578V221.393H200.438C200.695 220.455 200.98 219.517 201.285 218.578H207.777Z" fill="#FFEA92"/>
<path d="M207.778 202.586V205.394H195.018C194.218 204.483 193.499 203.545 192.868 202.586H207.778Z" fill="#FFEA92"/>
<path d="M207.777 180.961H191.449V183.776H207.777V180.961Z" fill="#FFEA92"/>
<path d="M207.777 197.308H191.449V200.123H207.777V197.308Z" fill="#FFEA92"/>
<path d="M207.778 229.655V232.464H198.125C198.247 231.532 198.389 230.594 198.552 229.655H207.778Z" fill="#FFEA92"/>
<path d="M207.777 223.855V226.664H199.128C199.325 225.732 199.542 224.794 199.773 223.855H207.777Z" fill="#FFEA92"/>
<path d="M207.777 175.685V178.5H194.095C194.95 177.514 195.92 176.569 197.012 175.685H207.777Z" fill="#FFEA92"/>
<path d="M590.287 188.516H581.421V193.962H590.287V188.516Z" fill="#FFEA92"/>
<path d="M561.832 193.792C561.065 192.256 561.757 191.283 561.866 189.835C561.886 189.57 560.841 188.516 562.062 188.516H570.223V193.969C569.762 193.976 569.287 193.962 568.826 193.969L568.595 193.799L568.364 193.969C566.356 194.01 564.308 193.942 562.3 193.969L561.832 193.792Z" fill="#FFEA92"/>
<path d="M590.287 179.199H581.421V184.476H590.287V179.199Z" fill="#FFEA92"/>
<path d="M570.697 198.539H561.832V203.816H570.697V198.539Z" fill="#FFEA92"/>
<path d="M570.23 179.199H561.364V184.476H570.23V179.199Z" fill="#FFEA92"/>
<path d="M562.293 193.969C561.954 193.969 561.886 193.908 561.825 193.792L562.293 193.969Z" fill="#D69CE8"/>
<path d="M568.825 193.97C568.669 193.97 568.513 193.97 568.357 193.97L568.587 193.8L568.818 193.97H568.825Z" fill="#D69CE8"/>
<path d="M397.163 231.764H388.766V228.602H407.427C406.959 229.105 407.807 229.69 407.888 230.009C407.976 230.349 407.827 230.716 407.888 231.063H397.156C397.123 231.294 397.197 231.532 397.156 231.764H397.163Z" fill="#FFEA92"/>
<path d="M397.163 236.51C397.143 237.503 397.177 238.502 397.163 239.502C394.369 239.502 391.56 239.495 388.766 239.502V236.51H397.163Z" fill="#FFEA92"/>
<path d="M413.959 221.741C413.858 221.102 413.858 220.932 415.567 220.85C420.906 220.599 427.594 221.054 433.082 220.857C433.109 221.15 433.041 221.442 433.082 221.734C426.712 221.741 420.322 221.721 413.959 221.734V221.741Z" fill="#FFEA92"/>
<path d="M431.678 190.801H412.556V193.963H431.678V190.801Z" fill="#FFEA92"/>
<path d="M406.491 216.994H387.369V213.832H405.792C405.84 213.832 406.491 214.077 406.491 214.097V217.001V216.994Z" fill="#FFEA92"/>
<path d="M431.684 206.094V209.439H413.023V206.271L431.684 206.094Z" fill="#FFEA92"/>
<path d="M431.685 198.362V201.524H413.024L412.556 198.362H431.685Z" fill="#FFEA92"/>
<path d="M406.03 206.271H387.369V209.432H406.03V206.271Z" fill="#FFEA92"/>
<path d="M431.684 213.832H413.023V216.994H431.684V213.832Z" fill="#FFEA92"/>
<path d="M406.03 198.362H387.369V201.524H406.03V198.362Z" fill="#FFEA92"/>
<path d="M406.03 190.801H387.369V193.963H406.03V190.801Z" fill="#FFEA92"/>
<path d="M407.427 221.04H388.766V224.202H407.427V221.04Z" fill="#FFEA92"/>
<path d="M370.111 216.818V219.803H360.085C360.038 219.803 359.387 219.559 359.387 219.538V216.812H370.118L370.111 216.818Z" fill="#FFEA92"/>
<path d="M370.111 166.368V169.353H360.085C360.038 169.353 359.387 169.109 359.387 169.088V166.361H370.118L370.111 166.368Z" fill="#FFEA92"/>
<path d="M313.199 166.368V169.353H303.173C303.126 169.353 302.475 169.109 302.475 169.088V166.361H313.206L313.199 166.368Z" fill="#FFEA92"/>
<path d="M351.45 196.777H340.718V193.792H350.744C350.792 193.792 351.443 194.037 351.443 194.057V196.784L351.45 196.777Z" fill="#FFEA92"/>
<path d="M370.111 225.609V228.594H359.38V225.868C359.38 225.868 360.031 225.603 360.079 225.603H370.105L370.111 225.609Z" fill="#FFEA92"/>
<path d="M370.111 202.932V205.917H360.085C360.038 205.917 359.387 205.672 359.387 205.652V202.925H370.118L370.111 202.932Z" fill="#FFEA92"/>
<path d="M351.45 160.214H340.718V157.229H350.744C350.792 157.229 351.443 157.473 351.443 157.494V160.221L351.45 160.214Z" fill="#FFEA92"/>
<path d="M370.111 180.254V183.239H360.085C360.038 183.239 359.387 182.994 359.387 182.974V180.247H370.118L370.111 180.254Z" fill="#FFEA92"/>
<path d="M313.199 180.254V183.239H303.173C303.126 183.239 302.475 182.994 302.475 182.974V180.247H313.206L313.199 180.254Z" fill="#FFEA92"/>
<path d="M370.111 221.04V224.025H359.38V221.298C359.38 221.298 360.031 221.033 360.079 221.033H370.105L370.111 221.04Z" fill="#FFEA92"/>
<path d="M340.718 192.208V189.223H350.744C351.809 189.223 351.809 192.208 350.744 192.208H340.718Z" fill="#FFEA92"/>
<path d="M332.328 189.223V192.208H322.302C321.237 192.208 321.237 189.223 322.302 189.223H332.328Z" fill="#FFEA92"/>
<path d="M340.718 155.644V152.659H350.744C351.809 152.659 351.809 155.644 350.744 155.644H340.718Z" fill="#FFEA92"/>
<path d="M332.328 157.229V160.214H322.302C321.237 160.214 321.237 157.229 322.302 157.229H332.328Z" fill="#FFEA92"/>
<path d="M332.328 193.792V196.777H322.302C321.237 196.777 321.237 193.792 322.302 193.792H332.328Z" fill="#FFEA92"/>
<path d="M332.328 152.659V155.644H322.302C321.237 155.644 321.237 152.659 322.302 152.659H332.328Z" fill="#FFEA92"/>
<path d="M332.328 180.254V182.981C332.328 183.171 331.188 183.232 330.72 183.253C329.228 183.321 324.133 183.341 322.77 183.246C322.383 183.219 321.603 183.103 321.603 182.981V180.254H332.335H332.328Z" fill="#FFEA92"/>
<path d="M331.859 169.182L321.596 169.359V166.367H332.327V169.006L331.859 169.182Z" fill="#FFEA92"/>
<path d="M370.112 193.792H359.848V196.777H370.112V193.792Z" fill="#FFEA92"/>
<path d="M350.982 202.932H340.719V205.917H350.982V202.932Z" fill="#FFEA92"/>
<path d="M370.112 189.223H359.848V192.208H370.112V189.223Z" fill="#FFEA92"/>
<path d="M313.199 152.659H302.936V155.644H313.199V152.659Z" fill="#FFEA92"/>
<path d="M370.112 152.659H359.848V155.644H370.112V152.659Z" fill="#FFEA92"/>
<path d="M313.199 157.229H302.936V160.214H313.199V157.229Z" fill="#FFEA92"/>
<path d="M370.112 157.229H359.848V160.214H370.112V157.229Z" fill="#FFEA92"/>
<path d="M350.982 166.367H340.718V169.352H350.982V166.367Z" fill="#FFEA92"/>
<path d="M313.199 193.792H302.936V196.777H313.199V193.792Z" fill="#FFEA92"/>
<path d="M313.199 189.223H302.936V192.208H313.199V189.223Z" fill="#FFEA92"/>
<path d="M350.982 221.04H340.719V224.025H350.982V221.04Z" fill="#FFEA92"/>
<path d="M350.982 225.609H340.719V228.595H350.982V225.609Z" fill="#FFEA92"/>
<path d="M350.982 216.818V219.803C347.542 219.803 344.103 219.871 340.718 219.627V216.812H350.982V216.818Z" fill="#FFEA92"/>
<path d="M370.111 207.678H359.379V210.493H370.111V207.678Z" fill="#FFEA92"/>
<path d="M370.111 212.247H359.379V215.062H370.111V212.247Z" fill="#FFEA92"/>
<path d="M370.111 171.115H359.379V173.931H370.111V171.115Z" fill="#FFEA92"/>
<path d="M332.327 171.115H321.596V173.931H332.327V171.115Z" fill="#FFEA92"/>
<path d="M370.111 230.356H359.38V233.172H370.111V230.356Z" fill="#FFEA92"/>
<path d="M370.111 175.685H359.379V178.5H370.111V175.685Z" fill="#FFEA92"/>
<path d="M332.327 175.685H321.596V178.5H332.327V175.685Z" fill="#FFEA92"/>
<path d="M370.111 234.926V237.741H360.085C360.038 237.741 359.387 237.496 359.387 237.476V234.926H370.118H370.111Z" fill="#FFEA92"/>
<path d="M332.328 148.09V150.905H322.302C322.254 150.905 321.603 150.66 321.603 150.64V148.09H332.335H332.328Z" fill="#FFEA92"/>
<path d="M332.328 184.653V187.468H322.302C322.254 187.468 321.603 187.224 321.603 187.203V184.653H332.335H332.328Z" fill="#FFEA92"/>
<path d="M340.719 201.348V198.532H350.745C351.803 198.532 351.803 201.348 350.745 201.348H340.719Z" fill="#FFEA92"/>
<path d="M340.719 187.462V184.646H350.745C351.803 184.646 351.803 187.462 350.745 187.462H340.719Z" fill="#FFEA92"/>
<path d="M340.719 164.784V161.969H350.745C351.803 161.969 351.803 164.784 350.745 164.784H340.719Z" fill="#FFEA92"/>
<path d="M340.719 150.898V148.083H350.745C351.803 148.083 351.803 150.898 350.745 150.898H340.719Z" fill="#FFEA92"/>
<path d="M313.199 171.115V173.931H302.475L302.936 171.115H313.199Z" fill="#FFEA92"/>
<path d="M332.328 161.976V164.791H321.597C322.092 163.791 321.834 162.975 321.597 161.976H332.328Z" fill="#FFEA92"/>
<path d="M332.327 198.539V201.348H322.064L321.596 198.539H332.327Z" fill="#FFEA92"/>
<path d="M370.112 148.09H359.848V150.905H370.112V148.09Z" fill="#FFEA92"/>
<path d="M370.112 184.653H359.848V187.468H370.112V184.653Z" fill="#FFEA92"/>
<path d="M350.982 212.247H340.718V215.062H350.982V212.247Z" fill="#FFEA92"/>
<path d="M313.199 148.09H302.936V150.905H313.199V148.09Z" fill="#FFEA92"/>
<path d="M313.199 198.539H302.936V201.354H313.199V198.539Z" fill="#FFEA92"/>
<path d="M350.982 207.678H340.718V210.493H350.982V207.678Z" fill="#FFEA92"/>
<path d="M350.982 180.254H340.718V183.069H350.982V180.254Z" fill="#FFEA92"/>
<path d="M313.199 161.976H302.936V164.791H313.199V161.976Z" fill="#FFEA92"/>
<path d="M350.982 230.356H340.719V233.172H350.982V230.356Z" fill="#FFEA92"/>
<path d="M350.982 234.926H340.719V237.741H350.982V234.926Z" fill="#FFEA92"/>
<path d="M370.112 198.539H359.848V201.354H370.112V198.539Z" fill="#FFEA92"/>
<path d="M350.982 171.115H340.718V173.931H350.982V171.115Z" fill="#FFEA92"/>
<path d="M350.982 175.685H340.718V178.5H350.982V175.685Z" fill="#FFEA92"/>
<path d="M370.112 161.976H359.848V164.791H370.112V161.976Z" fill="#FFEA92"/>
<path d="M313.199 175.685H302.936V178.5H313.199V175.685Z" fill="#FFEA92"/>
<path d="M313.199 184.653H302.936V187.468H313.199V184.653Z" fill="#FFEA92"/>
<path d="M513.316 164.26H504.918V171.468H513.316V164.26Z" fill="#FFEA92"/>
<path d="M533.375 174.984H524.978V182.192H533.375V174.984Z" fill="#FFEA92"/>
<path d="M513.316 197.484H504.918V204.692H513.316V197.484Z" fill="#FFEA92"/>
<path d="M533.375 197.484H524.978V204.692H533.375V197.484Z" fill="#FFEA92"/>
<path d="M533.375 164.26H524.978V171.468H533.375V164.26Z" fill="#FFEA92"/>
<path d="M513.316 208.555H504.918V215.763H513.316V208.555Z" fill="#FFEA92"/>
<path d="M533.375 208.555H524.978V215.763H533.375V208.555Z" fill="#FFEA92"/>
<path d="M513.316 174.984H504.918V182.192H513.316V174.984Z" fill="#FFEA92"/>
<path d="M513.316 153.183V160.125C513.316 160.125 512.665 160.391 512.618 160.391H505.624C505.577 160.391 504.925 160.146 504.925 160.125V153.183H513.323H513.316Z" fill="#FFEA92"/>
<path d="M533.375 153.183V160.125C533.375 160.125 532.724 160.391 532.677 160.391H525.683C525.635 160.391 524.984 160.146 524.984 160.125V153.183H533.382H533.375Z" fill="#FFEA92"/>
<path d="M513.316 186.23H504.918V193.262H513.316V186.23Z" fill="#FFEA92"/>
<path d="M533.375 186.23H524.978V193.262H533.375V186.23Z" fill="#FFEA92"/>
<path d="M270.287 199.769H264.222V196.784C265.274 196.825 270.287 196.621 270.287 197.049V199.776V199.769Z" fill="#FFEA92"/>
<path d="M257.69 205.747V208.474C257.69 208.902 252.676 208.691 251.625 208.739V205.754H257.69V205.747Z" fill="#FFEA92"/>
<path d="M257.69 199.769H251.625V196.784C252.676 196.825 257.69 196.621 257.69 197.049V199.776V199.769Z" fill="#FFEA92"/>
<path d="M264.222 208.733V205.747C266.515 205.897 269.961 205.278 270.307 206.353C271.073 208.692 270.443 208.95 264.222 208.733Z" fill="#FFEA92"/>
<path d="M270.286 192.738H264.69V195.724H270.286V192.738Z" fill="#FFEA92"/>
<path d="M257.69 210.14H252.094V213.125H257.69V210.14Z" fill="#FFEA92"/>
<path d="M270.286 210.14H264.69V213.125H270.286V210.14Z" fill="#FFEA92"/>
<path d="M269.818 188.339H264.222V191.324H269.818V188.339Z" fill="#FFEA92"/>
<path d="M257.69 192.738H252.094V195.724H257.69V192.738Z" fill="#FFEA92"/>
<path d="M257.221 188.339H251.625V191.324H257.221V188.339Z" fill="#FFEA92"/>
<path d="M270.286 201.178H264.69V203.993H270.286V201.178Z" fill="#FFEA92"/>
<path d="M257.69 201.178H252.094V203.993H257.69V201.178Z" fill="#FFEA92"/>
<path d="M402.205 317.722C404.375 322.604 407.251 326.439 410.609 329.329H411.857C411.905 329.329 412.556 329.084 412.556 329.064V317.722H402.205ZM600.077 210.493V201.877H602.709C602.668 201.408 602.614 200.945 602.553 200.476H600.077V199.694L602.451 199.647C602.383 199.164 602.309 198.681 602.227 198.198C601.142 198.212 600.165 198.225 600.077 198.198C599.88 198.123 600.281 196.858 600.084 196.784C599.867 196.709 594.23 196.709 594.013 196.784C593.816 196.858 594.216 198.123 594.019 198.198C593.768 198.286 590.085 198.103 589.19 198.191C588.695 198.239 588.925 198.538 588.884 198.545V199.599C589.502 199.606 590.126 199.599 590.75 199.599C591.435 199.606 593.951 199.51 594.019 199.701V200.483C592.961 200.517 591.781 200.435 590.75 200.476C588.077 200.599 588.945 201.027 588.884 201.884C589.502 201.89 590.126 201.884 590.75 201.884C591.435 201.89 593.945 201.795 594.019 201.986V210.499C592.934 210.506 591.835 210.486 590.75 210.499C587.813 210.533 584.828 210.499 581.884 210.499H570.691C570.603 211.397 570.264 212.362 570.223 213.314C570.176 214.6 570.237 215.892 570.223 217.177C570.21 218.523 570.237 219.877 570.223 221.223C567.964 221.203 565.685 221.257 563.426 221.223C562.741 221.216 562.076 221.053 561.819 221.046C559.037 221.012 556.215 221.06 553.427 221.046C550.477 221.033 547.512 221.053 544.562 221.046C540.837 221.039 537.093 221.046 533.369 221.046H513.31C511.872 222.841 512.428 224.501 512.374 226.5C512.34 227.839 512.394 229.193 512.374 230.539C512.34 232.878 512.388 235.231 512.374 237.57C512.36 239.923 513.12 243.275 512.374 245.479C512.333 245.608 512.605 245.859 512.096 245.839H491.38C491.359 245.717 491.4 245.601 491.386 245.479C490.776 240.787 491.82 235.904 491.407 231.185C491.129 230.75 483.958 231.233 482.52 231.069V226.847H486.258V225.793L482.513 225.69V224.915H486.258V223.861C485.566 223.814 482.69 223.922 482.52 223.861C482.256 223.759 482.934 222.664 482.256 222.624C481.543 222.678 478.491 222.562 478.321 222.63C478.132 222.698 478.518 223.786 478.328 223.861C478.158 223.922 475.282 223.814 474.591 223.861V224.915C475.486 225.031 478.349 224.63 478.335 225.18C478.301 226.071 476.3 225.752 474.591 225.793V226.847H478.321V230.804C478.321 230.994 477.182 231.056 476.714 231.076C469.7 231.389 459.158 231.076 451.737 231.069C447.857 231.063 443.95 231.076 440.07 231.069C437.743 231.063 435.403 231.069 433.076 231.069C432.805 227.975 433.449 224.841 433.076 221.753C426.706 221.76 420.316 221.74 413.953 221.753C411.932 221.753 409.904 221.747 407.889 221.753V230.015C407.977 230.355 407.828 230.723 407.889 231.069H397.157C397.124 231.301 397.198 231.539 397.157 231.77C396.913 233.3 397.185 234.966 397.157 236.516C397.137 237.509 397.171 238.508 397.157 239.508C394.369 239.508 391.554 239.501 388.76 239.508C371.665 239.542 354.544 239.474 337.45 239.508V213.661C335.747 213.654 334.024 213.675 332.322 213.661C330.3 213.654 328.265 213.675 326.25 213.661C326.23 213.199 326.284 212.723 326.257 212.26C326.216 211.676 326.264 211.084 326.257 210.499C326.237 209.561 326.271 208.622 326.257 207.684C326.244 207.099 326.271 206.515 326.257 205.93C326.223 204.957 326.447 203.89 326.257 202.938C326.21 202.727 326.413 202.414 326.054 202.23C325.274 201.829 315.193 202.183 313.192 202.06C313.165 202.353 313.226 202.645 313.192 202.938C313.077 203.93 313.206 204.937 313.192 205.93C313.186 206.515 313.199 207.099 313.192 207.684C313.186 208.622 313.206 209.561 313.192 210.499C313.186 211.084 313.233 211.676 313.192 212.26C313.165 212.723 313.219 213.199 313.199 213.661C309.624 213.668 306.036 213.661 302.468 213.661C298.588 213.668 294.68 213.661 290.8 213.661C286.92 213.668 283.02 213.661 279.139 213.661C267.173 213.668 255.187 213.654 243.221 213.661H242.292C239.653 213.668 236.994 213.648 234.362 213.661C234.05 213.668 233.738 213.661 233.426 213.661C232.341 213.675 231.242 213.654 230.156 213.661V233.177H219.432V223.331H223.17V222.277H219.432V221.325C219.493 221.141 225.639 221.508 223.21 220.271C222.749 220.04 220.985 220.223 220.151 220.162C218.882 220.067 218.17 219.795 216.318 219.877C215.558 219.911 215.185 220.101 214.507 220.155C212.397 220.339 211.136 219.856 211.502 221.223H215.24V222.175L211.502 222.277V223.331H215.233V233.177H198.03C197.447 237.781 197.311 242.317 197.623 246.709H207.771C208.002 246.709 207.608 248.246 207.771 248.47H213.835C214.005 248.246 213.605 246.709 213.835 246.709H224.567C224.486 247.294 224.893 247.94 224.099 248.47C230.469 248.464 236.859 248.477 243.221 248.47V241.351C243.221 240.718 238.568 241.507 237.835 241.093C237.32 240.807 237.591 239.712 237.842 239.318C238.351 239.005 244.463 239.828 243.228 238.454C238.263 238.508 237.048 238.746 237.598 236.625C238.425 236.21 243.025 236.421 243.228 236.339C244.659 235.802 239.572 234.422 248.356 234.585C248.553 234.313 247.712 233.912 249.042 233.878C258.206 233.646 268.042 234.054 277.274 233.878V237.57H255.35C255.465 239.032 252.121 238.284 249.286 238.454C248.35 239.991 254.129 238.944 255.147 239.494C255.635 240.134 255.384 240.821 254.882 241.439C261.109 241.412 270.253 241.167 276.135 241.433C276.603 241.453 277.742 241.507 277.742 241.704V245.043C277.742 245.186 276.609 245.356 276.135 245.315H249.286C249.306 246.356 249.272 247.416 249.286 248.47H266.081C265.294 249.239 267.018 249.375 267.018 249.436C267.031 249.579 266.197 249.558 266.081 249.701H277.274V253.394H266.081C266.115 254.563 265.749 255.774 266.549 256.909H321.36L321.59 288.903H347.476C347.991 288.903 348.147 289.332 348.202 289.509C348.622 290.848 348.154 292.752 348.181 294.173H382.695V299.627H348.181C348.208 300.089 348.154 300.565 348.174 301.034L368.158 301.055L368.497 301.742C367.921 302.014 366.442 301.796 366.341 302.007C366.218 302.272 366.205 304.802 366.341 304.972C366.469 305.142 367.209 305.026 367.616 305.128C367.88 305.189 367.738 305.42 367.772 305.427C368.688 305.645 380.531 305.257 382.695 305.427V310.874L348.181 311.051C348.154 312.921 348.168 314.804 348.181 316.674H382.234V322.128C380.131 321.999 371.157 322.366 370.105 321.951C370.417 322.488 368.864 322.237 368.444 322.461C368.165 322.618 368.05 324.889 368.206 325.195C368.315 325.406 369.556 325.175 369.671 325.385C370.024 326.072 369.352 327.174 369.637 327.928C373.829 327.928 378.042 327.928 382.234 327.928V333.552H371.252C378.157 337.306 386.63 337.584 393.895 333.661V330.302C393.895 330.247 392.355 329.744 392.959 329.336H399.043C401.221 325.909 399.912 322.203 399.532 317.729H391.561C391.785 316.885 390.503 316.103 393.427 316.328V311.751C393.427 311.704 391.907 311.874 392.491 311.051H412.549V294.704C406.532 294.996 408.208 293.847 408.35 292.242C412.698 292.242 417.067 292.249 421.415 292.242C421.408 291.766 421.965 291.746 423.023 291.705C426.259 291.569 432.798 291.617 436.128 291.712C437.56 291.759 437.329 291.63 437.275 292.242H450.333C450.536 291.97 449.689 291.569 451.018 291.535C455.204 291.433 461.322 291.433 465.507 291.535C466.837 291.569 465.996 291.97 466.192 292.242C488.734 292.242 511.295 292.249 533.83 292.242V282.396H563.29C568.032 270.543 568.12 256.597 561.059 241.977C561.873 240.991 566.488 256.876 565.756 259.555C587.925 253.333 601.454 229.023 602.797 210.499H600.07L600.077 210.493ZM207.778 244.241H197.515V241.786H207.778V244.241ZM224.574 244.241H213.842V241.786H224.574V244.241ZM277.749 230.009H248.824V226.316H277.749V230.009ZM277.749 222.454H248.363V218.578H277.749V222.454ZM320.2 253.387H290.807V249.694H320.2V253.387ZM320.661 245.302H291.275V241.433H320.661V245.302ZM320.661 237.563H291.275V233.871H320.661V237.563ZM320.661 230.009H291.743V226.316H320.661V230.009ZM320.661 222.447H291.743V218.578H320.661V222.447ZM383.17 287.489H339.79V282.042H383.17V287.489ZM383.17 276.235H339.79V270.788H383.17V276.235ZM383.638 264.988H340.258V259.541H383.638V264.988ZM383.638 253.734H340.258V248.103H383.638V253.734ZM437.282 287.489C432.12 287.305 427.052 287.305 421.89 287.489V283.096H437.282V287.489ZM437.282 278.697H421.89V274.48H437.282V278.697ZM437.75 269.38H421.89V265.164H437.75V269.38ZM437.75 260.772H421.89V256.549H437.75V260.772ZM437.75 252.156H422.351V247.763H437.75V252.156ZM437.75 243.364H422.351V239.148H437.75V243.364ZM466.199 287.135H450.808V282.919H466.199V287.135ZM466.199 278.261C466.199 278.261 465.555 278.527 465.5 278.527H451.506C451.459 278.527 450.808 278.275 450.808 278.261V274.127H466.199V278.261ZM466.667 268.945C466.667 268.945 466.016 269.204 465.969 269.204H450.808V265.076C450.808 265.076 451.459 264.811 451.506 264.811H465.969C466.016 264.811 466.667 265.056 466.667 265.076V268.945ZM466.667 260.418H450.808V256.195H466.667V260.418ZM466.667 251.803H450.808V247.587H466.667V251.803ZM466.667 243.187H451.506C451.459 243.187 450.808 242.942 450.808 242.929V239.059C450.808 239.059 451.459 238.794 451.506 238.794H465.969C466.016 238.794 466.667 239.039 466.667 239.059V243.187ZM534.773 229.478H545.036V231.94H534.773V229.478ZM534.773 234.401H545.036V236.686H534.773V234.401ZM534.773 239.148H545.036V241.433H534.773V239.148ZM534.773 243.894H545.036V246.356H534.773V243.894ZM534.746 249.069C535.255 248.933 544.066 248.926 544.595 249.069C545.538 249.314 544.812 250.953 545.036 251.449H534.305C534.529 250.946 533.81 249.314 534.746 249.069ZM545.036 265.865H534.305C534.529 265.362 533.81 263.73 534.746 263.485C535.255 263.349 544.066 263.342 544.595 263.485C545.538 263.73 544.812 265.368 545.036 265.865ZM544.338 261.119H534.305V258.657H545.036C544.894 259.038 545.511 261.119 544.338 261.119ZM534.305 253.91H545.036C544.812 254.42 545.531 256.052 544.595 256.297C544.087 256.433 535.275 256.433 534.746 256.297C533.803 256.052 534.529 254.414 534.305 253.91ZM534.305 268.503H545.036C544.812 269.013 545.531 270.639 544.595 270.89C544.087 271.019 535.275 271.026 534.746 270.89C533.803 270.639 534.529 269 534.305 268.503ZM534.746 273.324C535.255 273.188 544.066 273.188 544.595 273.324C545.538 273.569 544.812 275.208 545.036 275.711H534.305C534.529 275.201 533.81 273.576 534.746 273.324ZM545.504 280.458H535.241V278.173H545.504V280.458ZM551.799 229.478H561.825C561.689 229.859 562.3 231.94 561.127 231.94H551.101C551.237 231.559 550.626 229.478 551.799 229.478ZM561.825 234.401V236.686H551.101V234.401H561.825ZM550.632 258.657H561.364C561.14 259.167 561.859 260.799 560.923 261.044C560.414 261.18 551.603 261.18 551.067 261.044C550.131 260.799 550.856 259.16 550.632 258.657ZM561.364 253.91V256.195H551.101V253.91H561.364ZM551.101 251.449V248.987H561.364V251.449H551.101ZM551.067 263.485C551.582 263.349 560.394 263.342 560.923 263.485C561.859 263.73 561.14 265.368 561.364 265.865H550.632C550.856 265.362 550.131 263.73 551.067 263.485ZM561.364 268.503V270.788H551.101V268.503H561.364ZM551.094 273.427C553.509 273.399 555.937 273.454 558.352 273.433C559.085 273.427 560.299 273.243 560.624 273.27C561.995 273.393 561.127 275.256 561.364 275.711H551.101V273.427H551.094ZM562.293 280.458H551.569V278.173H562.293V280.458ZM561.825 243.894V246.356H551.101V243.894H561.825ZM561.391 241.528C560.882 241.664 552.071 241.67 551.535 241.528C550.599 241.283 551.318 239.644 551.101 239.148H561.825C561.608 239.651 562.327 241.283 561.391 241.528Z" fill="#8AACF6"/>
<path d="M392.965 329.329C392.361 329.737 393.901 330.24 393.901 330.295V333.654C394.159 333.518 394.41 333.375 394.661 333.225C394.885 333.096 395.095 332.967 395.299 332.831V330.295C395.299 330.104 396.621 329.962 397.164 330.03V331.464C397.51 331.158 397.822 330.859 398.1 330.553V330.03H398.548C398.731 329.798 398.9 329.56 399.05 329.329H392.965ZM533.837 282.389V292.235C511.302 292.242 488.74 292.235 466.199 292.235H437.281C432.004 292.235 426.699 292.235 421.421 292.235C417.073 292.242 412.705 292.235 408.357 292.235C408.214 293.84 406.539 294.989 412.556 294.697V311.044H392.497C391.914 311.867 393.433 311.697 393.433 311.744V316.321C390.51 316.096 391.792 316.878 391.568 317.721H399.538C399.498 317.266 399.47 316.803 399.45 316.327C399.26 316.348 398.541 316.348 398.066 316.341C397.965 316.341 397.876 316.341 397.802 316.334C397.7 316.334 397.632 316.327 397.632 316.321V312.186C397.632 311.86 398.616 311.629 399.498 311.744V314.185C399.565 313.267 399.708 312.309 399.952 311.323C400.101 311.88 400.264 312.424 400.427 312.961V312.01C400.427 311.71 402.292 311.71 402.292 312.01C402.292 312.608 402.706 316.171 402.292 316.321C402.286 316.321 402.265 316.327 402.224 316.327C402.116 316.334 401.885 316.334 401.628 316.334C401.811 316.81 402.008 317.273 402.204 317.721H412.556V329.064C412.556 329.064 411.905 329.329 411.857 329.329H410.609C428.476 344.731 460.019 333.491 471.388 311.221H466.199V302.959H474.502C475.356 299.565 475.75 295.996 475.594 292.29L477.534 300.198L477.609 302.959H484.392V311.221H482.405C513.032 327.452 551.813 311.071 563.297 282.389H533.837ZM405.094 316.321C405.026 316.341 403.228 316.355 403.228 316.321V312.186C403.228 311.595 405.094 311.717 405.094 312.01C405.094 312.608 405.508 316.171 405.094 316.321ZM427.018 298.566H420.485V295.132C420.485 295.077 419.475 294.683 420.75 294.52C421.632 294.411 422.236 294.697 422.351 294.697C423.721 294.717 425.227 294.642 426.55 294.697L426.787 294.527L427.018 294.697C427.038 295.166 426.984 295.635 427.018 296.104C427.079 296.92 426.977 297.743 427.018 298.566ZM437.281 294.52C438.523 294.54 439.73 294.765 441.012 294.697V298.301C441.012 298.641 436.189 298.709 435.619 298.396C435.124 298.131 435.463 296.594 435.416 296.104C435.409 296.077 434.968 295.9 434.927 295.676C434.758 294.771 434.744 294.486 437.281 294.52ZM430.281 302.959H448.013V311.221H430.281V302.959ZM448.474 330.206H430.281V321.944H448.474V330.206ZM455.244 298.566C454.518 298.62 450.794 298.613 450.176 298.539C448.474 298.328 449.987 295.819 449.396 295.166C449.491 294.975 450.312 295.064 450.339 295.05C450.475 294.969 450.034 294.568 450.59 294.506C451.065 294.459 455.624 294.486 456.105 294.547C457.828 294.758 456.411 295.587 456.404 295.751C456.383 296.444 457.754 298.382 455.244 298.566ZM471.802 298.566C470.418 298.477 465.67 298.756 465.005 298.396C464.496 298.124 464.863 296.288 464.802 295.751C464.734 295.166 462.963 294.649 466.199 294.52C468.173 294.445 469.875 294.703 471.802 294.697V298.566ZM508.182 294.785C508.182 294.391 514.714 294.391 514.714 294.785V298.566H508.182V294.785ZM485.796 298.389C485.796 298.525 480.858 298.627 480.193 298.566V294.697C482.208 294.71 483.822 294.35 485.796 294.697V298.389ZM500.259 298.566H494.187V294.697L500.259 294.52C500.028 295.9 499.865 297.179 500.259 298.566ZM519.381 310.867H501.188V302.428H519.381V310.867ZM528.24 298.301C528.24 298.688 522.644 298.688 522.644 298.301C522.644 297.573 522.25 295.261 522.644 294.785C523.098 294.234 528.24 294.567 528.24 294.962V298.301Z" fill="#CDB4F6"/>
<path d="M383.638 248.104H340.258V253.741H383.638V248.104Z" fill="#FFEA92"/>
<path d="M383.17 270.787H339.79V276.234H383.17V270.787Z" fill="#FFEA92"/>
<path d="M383.638 259.534H340.258V264.981H383.638V259.534Z" fill="#FFEA92"/>
<path d="M383.17 282.036H339.79V287.483H383.17V282.036Z" fill="#FFEA92"/>
<path d="M382.24 327.922V333.545H371.258C368.694 332.158 366.347 330.282 364.352 327.97C364.339 327.956 364.325 327.935 364.312 327.922H369.644C373.836 327.922 378.048 327.922 382.24 327.922Z" fill="#FFEA92"/>
<path d="M348.188 294.167H382.709V299.614H348.188C348.072 297.805 348.221 295.976 348.188 294.167Z" fill="#FFEA92"/>
<path d="M382.24 316.668V322.122C380.137 321.992 371.162 322.36 370.111 321.945C370.03 321.911 370.355 321.625 369.819 321.584H353.783L348.18 321.591C348.18 319.952 348.194 318.307 348.187 316.668H382.24Z" fill="#FFEA92"/>
<path d="M367.778 305.415C368.694 305.632 380.537 305.245 382.708 305.415V310.861L348.187 311.038C348.201 309.807 348.173 308.577 348.187 307.346H367.778C368.036 307.346 367.595 305.646 367.778 305.415Z" fill="#FFEA92"/>
<path d="M450.807 269.203V265.069C450.807 265.069 451.458 264.804 451.506 264.804H465.968C466.016 264.804 466.667 265.049 466.667 265.069V268.938C466.667 268.938 466.016 269.203 465.968 269.203H450.807Z" fill="#FFEA92"/>
<path d="M466.667 243.187H451.506C451.458 243.187 450.807 242.942 450.807 242.922V239.052C450.807 239.052 451.458 238.787 451.506 238.787H465.968C466.016 238.787 466.667 239.032 466.667 239.052V243.187Z" fill="#FFEA92"/>
<path d="M437.749 247.757H422.357V252.15H437.749V247.757Z" fill="#FFEA92"/>
<path d="M466.206 274.127V278.261C466.206 278.261 465.554 278.527 465.507 278.527H451.513C451.465 278.527 450.814 278.282 450.814 278.261V274.127H466.206Z" fill="#FFEA92"/>
<path d="M466.667 256.195H450.808V260.411H466.667V256.195Z" fill="#FFEA92"/>
<path d="M466.667 247.58H450.807V251.796H466.667V247.58Z" fill="#FFEA92"/>
<path d="M437.749 265.164H421.889V269.38H437.749V265.164Z" fill="#FFEA92"/>
<path d="M437.749 256.549H421.889V260.765H437.749V256.549Z" fill="#FFEA92"/>
<path d="M437.281 283.09V287.483C432.119 287.299 427.051 287.299 421.889 287.483V283.09H437.281Z" fill="#FFEA92"/>
<path d="M437.749 239.147H422.357V243.363H437.749V239.147Z" fill="#FFEA92"/>
<path d="M466.199 282.92H450.807V287.136H466.199V282.92Z" fill="#FFEA92"/>
<path d="M437.281 274.481H421.889V278.698H437.281V274.481Z" fill="#FFEA92"/>
<path d="M561.831 243.895H551.1V246.356H561.831V243.895Z" fill="#FFEA92"/>
<path d="M545.035 258.656C544.9 259.037 545.51 261.118 544.337 261.118H534.311V258.656H545.042H545.035Z" fill="#FFEA92"/>
<path d="M545.035 268.503C544.818 269.013 545.538 270.638 544.602 270.89C544.093 271.026 535.281 271.033 534.745 270.89C533.809 270.645 534.528 269.006 534.311 268.503H545.042H545.035Z" fill="#FFEA92"/>
<path d="M561.832 239.147C561.615 239.657 562.334 241.283 561.398 241.534C560.889 241.67 552.077 241.677 551.542 241.534C550.605 241.289 551.324 239.651 551.107 239.147H561.839H561.832Z" fill="#FFEA92"/>
<path d="M545.035 275.711H534.304C534.521 275.201 533.802 273.576 534.738 273.324C535.247 273.188 544.059 273.181 544.594 273.324C545.531 273.569 544.812 275.208 545.029 275.711H545.035Z" fill="#FFEA92"/>
<path d="M545.035 251.448H534.304C534.521 250.938 533.802 249.313 534.738 249.062C535.247 248.926 544.059 248.919 544.594 249.062C545.531 249.306 544.812 250.945 545.029 251.448H545.035Z" fill="#FFEA92"/>
<path d="M561.364 258.656C561.147 259.166 561.866 260.791 560.929 261.043C560.421 261.179 551.609 261.186 551.073 261.043C550.137 260.798 550.856 259.159 550.639 258.656H561.37H561.364Z" fill="#FFEA92"/>
<path d="M545.035 253.91C544.818 254.42 545.538 256.045 544.602 256.297C544.093 256.433 535.281 256.44 534.745 256.297C533.809 256.052 534.528 254.413 534.311 253.91H545.042H545.035Z" fill="#FFEA92"/>
<path d="M561.831 229.478C561.695 229.858 562.305 231.939 561.132 231.939H551.106C551.242 231.558 550.631 229.478 551.805 229.478H561.831Z" fill="#FFEA92"/>
<path d="M545.035 265.864H534.304C534.521 265.354 533.802 263.729 534.738 263.478C535.247 263.342 544.059 263.335 544.594 263.478C545.531 263.722 544.812 265.361 545.029 265.864H545.035Z" fill="#FFEA92"/>
<path d="M561.363 265.864H550.632C550.849 265.354 550.13 263.729 551.066 263.478C551.575 263.342 560.387 263.335 560.922 263.478C561.859 263.722 561.139 265.361 561.356 265.864H561.363Z" fill="#FFEA92"/>
<path d="M545.035 243.895H534.772V246.356H545.035V243.895Z" fill="#FFEA92"/>
<path d="M561.363 248.987H551.1V251.449H561.363V248.987Z" fill="#FFEA92"/>
<path d="M545.035 229.478H534.772V231.939H545.035V229.478Z" fill="#FFEA92"/>
<path d="M562.299 278.173H551.568V280.458H562.299V278.173Z" fill="#FFEA92"/>
<path d="M561.831 234.401H551.1V236.686H561.831V234.401Z" fill="#FFEA92"/>
<path d="M561.363 275.711H551.1V273.427C553.508 273.406 555.937 273.454 558.352 273.433C559.084 273.433 560.305 273.243 560.624 273.27C561.994 273.393 561.126 275.256 561.363 275.711Z" fill="#FFEA92"/>
<path d="M545.035 239.147H534.772V241.432H545.035V239.147Z" fill="#FFEA92"/>
<path d="M545.035 234.401H534.772V236.686H545.035V234.401Z" fill="#FFEA92"/>
<path d="M545.503 278.173H535.24V280.458H545.503V278.173Z" fill="#FFEA92"/>
<path d="M561.363 268.503H551.1V270.788H561.363V268.503Z" fill="#FFEA92"/>
<path d="M561.363 253.91H551.1V256.195H561.363V253.91Z" fill="#FFEA92"/>
<path d="M450.339 292.236C450.536 291.964 449.695 291.563 451.024 291.529C455.209 291.42 461.328 291.42 465.513 291.529C466.843 291.563 466.002 291.964 466.199 292.236C460.921 292.236 455.617 292.236 450.339 292.236Z" fill="#FFEA92"/>
<path d="M421.213 292.176C421.206 291.7 421.762 291.687 422.821 291.639C426.056 291.503 432.596 291.551 435.926 291.646C437.357 291.687 437.127 291.558 437.073 292.176C431.795 292.176 426.49 292.176 421.213 292.176Z" fill="#FFEA92"/>
<path d="M512.38 245.472C512.339 245.601 512.611 245.846 512.102 245.825H491.385C491.365 245.703 491.406 245.587 491.385 245.472H512.373H512.38Z" fill="#EDCEC4"/>
<path d="M320.66 241.433H291.274V245.302H320.66V241.433Z" fill="#FFEA92"/>
<path d="M277.748 218.579H248.362V222.455H277.748V218.579Z" fill="#FFEA92"/>
<path d="M320.66 218.579H291.743V222.448H320.66V218.579Z" fill="#FFEA92"/>
<path d="M254.894 241.433C261.121 241.406 270.259 241.161 276.14 241.426C276.608 241.446 277.748 241.507 277.748 241.698V245.037C277.748 245.18 276.615 245.35 276.14 245.309H249.291C249.271 244.01 249.311 242.718 249.291 241.433C251.15 241.433 253.029 241.44 254.894 241.433Z" fill="#FFEA92"/>
<path d="M320.66 233.871H291.274V237.564H320.66V233.871Z" fill="#FFEA92"/>
<path d="M320.199 249.695H290.812V253.388H320.199V249.695Z" fill="#FFEA92"/>
<path d="M277.748 226.31H248.831V230.002H277.748V226.31Z" fill="#FFEA92"/>
<path d="M320.66 226.31H291.743V230.002H320.66V226.31Z" fill="#FFEA92"/>
<path d="M248.363 234.571C248.559 234.299 247.718 233.898 249.048 233.864C258.219 233.633 268.048 234.041 277.287 233.864V237.557H255.363C255.227 235.85 252.894 236.666 249.299 236.502V234.564C248.993 234.558 248.681 234.564 248.369 234.564L248.363 234.571Z" fill="#FFEA92"/>
<path d="M266.087 249.695H277.279V253.388H266.087C266.066 252.64 265.687 250.192 266.087 249.695Z" fill="#FFEA92"/>
<path d="M326.263 212.247H332.327V213.655C330.313 213.641 328.278 213.662 326.263 213.655C326.243 213.186 326.297 212.716 326.263 212.247Z" fill="#FFEA92"/>
<path d="M243.227 213.478V213.654C242.915 213.654 242.603 213.654 242.291 213.654L243.227 213.478Z" fill="#D69CE8"/>
<path d="M367.778 305.42C367.744 305.413 367.886 305.182 367.621 305.121C367.214 305.019 366.475 305.135 366.346 304.965C366.211 304.795 366.224 302.265 366.346 302C366.448 301.789 367.927 302.007 368.504 301.735L368.164 301.048L348.18 301.027C348.16 300.558 348.214 300.082 348.187 299.62C348.072 297.804 348.214 295.982 348.187 294.166C348.16 292.745 348.628 290.841 348.208 289.501C348.153 289.325 347.997 288.896 347.482 288.896H321.596L321.365 256.902H266.555C265.755 255.767 266.121 254.556 266.087 253.386C266.067 252.638 265.687 250.191 266.087 249.694C266.203 249.551 267.037 249.572 267.023 249.429C267.023 249.368 265.3 249.232 266.087 248.463H249.291C249.278 247.409 249.312 246.349 249.291 245.301C249.271 244.009 249.312 242.717 249.291 241.432C251.15 241.425 253.029 241.439 254.888 241.432C255.39 240.813 255.641 240.127 255.152 239.487C254.135 238.937 248.355 239.984 249.291 238.447C252.127 238.277 255.471 239.025 255.356 237.563C255.22 235.856 252.893 236.672 249.291 236.509V234.571C248.986 234.564 248.668 234.571 248.362 234.571C239.578 234.408 244.665 235.788 243.234 236.325C243.031 236.407 238.431 236.196 237.604 236.611C237.054 238.733 238.269 238.494 243.234 238.44C244.469 239.814 238.357 238.991 237.848 239.304C237.597 239.698 237.326 240.793 237.841 241.079C238.574 241.493 243.227 240.705 243.227 241.337V248.456C236.864 248.463 230.474 248.45 224.105 248.456C220.693 248.463 217.253 248.456 213.841 248.456H207.777C204.453 248.456 201.095 248.45 197.771 248.456C199.128 262.43 205.003 274.909 215.368 283.789H229.701V292.486C233.5 294.057 237.645 295.288 242.115 296.145C245.961 296.879 249.895 297.192 253.769 297.723L254.142 296.274H244.163V283.789H257.391L257.832 282.083C257.866 282.654 257.9 283.225 257.947 283.789H258.158V286.135C259.623 300.456 264.507 313.981 274.363 323.515H287.075V332.151C287.347 332.273 287.631 332.396 287.91 332.518C310.519 342.331 334.505 334.837 353.783 321.584H348.18C348.18 319.945 348.194 318.299 348.187 316.661C348.173 314.791 348.16 312.907 348.187 311.037C348.201 309.806 348.173 308.575 348.187 307.345H367.778C368.036 307.345 367.595 305.644 367.778 305.413V305.42ZM229.701 275.711H215.239V263.226H229.701V275.711ZM258.158 275.718H244.163V263.063H258.158V275.718ZM272.62 263.117H287.075V275.711H272.62V263.117ZM272.62 283.796H287.075V296.281H272.62V283.796ZM287.543 315.79H273.081V303.312H287.543V315.79ZM370.111 321.944C370.03 321.91 370.355 321.625 369.819 321.584H360.486C361.591 323.773 362.656 325.983 364.311 327.921H369.643C369.358 327.167 370.03 326.065 369.677 325.378C369.562 325.167 368.32 325.399 368.212 325.188C368.056 324.882 368.171 322.611 368.449 322.454C368.87 322.23 370.423 322.481 370.111 321.944Z" fill="#CDB4F6"/>
<path d="M224.573 241.779H213.842V244.241H224.573V241.779Z" fill="#FFEA92"/>
<path d="M207.777 241.779H197.514V244.241H207.777V241.779Z" fill="#FFEA92"/>
<path d="M213.841 248.463C214.011 248.239 213.611 246.702 213.841 246.702H224.573C224.498 247.287 224.905 247.926 224.104 248.463C220.692 248.463 217.253 248.463 213.841 248.463Z" fill="#FFEA92"/>
<path d="M207.777 248.463C204.453 248.463 201.096 248.456 197.772 248.463H197.514C197.684 248.239 197.283 246.702 197.514 246.702H207.777C208.008 246.702 207.615 248.239 207.777 248.463Z" fill="#FFEA92"/>
<path d="M287.082 263.117H272.62V275.711H287.082V263.117Z" fill="#8AACF6"/>
<path d="M287.082 283.797H272.62V296.275H287.082V283.797Z" fill="#8AACF6"/>
<path d="M229.701 283.797V292.494C224.227 290.243 219.452 287.306 215.368 283.797H229.701Z" fill="#FFEA92"/>
<path d="M287.544 303.305H273.082V315.783H287.544V303.305Z" fill="#FFEA92"/>
<path d="M287.075 323.522V332.158C282.137 329.901 277.924 326.977 274.363 323.522H287.075Z" fill="#8AACF6"/>
<path d="M229.701 263.227H215.239V275.704H229.701V263.227Z" fill="#8AACF6"/>
<path d="M258.158 263.062H244.163V275.717H258.158V263.062Z" fill="#8AACF6"/>
<path d="M244.163 283.797H257.391L254.142 296.282H244.163V283.797Z" fill="#8AACF6"/>
<path d="M258.158 283.797V286.143C258.076 285.361 258.008 284.579 257.947 283.797H258.158Z" fill="#292835"/>
<path d="M519.381 302.428H501.188V310.866H519.381V302.428Z" fill="#8AACF6"/>
<path d="M465.99 302.9H474.293C473.574 305.79 472.516 308.551 471.179 311.162H465.99V302.9Z" fill="#FFEA92"/>
<path d="M484.184 302.9V311.162H482.196C480.623 310.34 479.076 309.421 477.556 308.415L477.4 302.9H484.184Z" fill="#FFEA92"/>
<path d="M448.481 321.944H430.288V330.206H448.481V321.944Z" fill="#FFEA92"/>
<path d="M448.013 302.959H430.288V311.221H448.013V302.959Z" fill="#8AACF6"/>
<path d="M514.714 298.559H508.182V294.778C508.182 294.384 514.714 294.384 514.714 294.778V298.559Z" fill="#8AACF6"/>
<path d="M466.198 294.52C466.002 295.18 467.073 295.942 464.801 295.751C464.862 296.288 464.496 298.124 465.004 298.396C465.669 298.757 470.418 298.478 471.801 298.566V294.697C469.875 294.704 468.172 294.446 466.198 294.52ZM466.198 296.628C466.036 296.751 465.405 296.526 465.737 296.282C465.9 296.159 466.531 296.384 466.198 296.628Z" fill="#8AACF6"/>
<path d="M494.187 294.697L500.251 294.521C500.027 295.901 499.857 297.179 500.251 298.566H494.187V294.697Z" fill="#8AACF6"/>
<path d="M522.644 294.779C523.098 294.228 528.24 294.568 528.24 294.955V298.294C528.24 298.682 522.644 298.682 522.644 298.294C522.644 297.566 522.25 295.255 522.644 294.779Z" fill="#8AACF6"/>
<path d="M485.797 294.696V298.389C485.797 298.525 480.858 298.627 480.2 298.566V294.696C482.215 294.717 483.823 294.356 485.797 294.696Z" fill="#8AACF6"/>
<path d="M450.339 295.044V295.751H456.404C456.383 296.445 457.754 298.383 455.244 298.567C454.518 298.621 450.794 298.614 450.17 298.54C448.467 298.329 449.986 295.82 449.389 295.167C449.484 294.976 450.305 295.065 450.332 295.044H450.339Z" fill="#8AACF6"/>
<path d="M437.281 294.521C438.522 294.541 439.73 294.765 441.012 294.697V298.301C441.012 298.641 436.189 298.709 435.619 298.403C435.124 298.138 435.47 296.601 435.416 296.105H437.281V294.521Z" fill="#8AACF6"/>
<path d="M422.357 294.697L421.889 296.105H427.024C427.079 296.921 426.984 297.75 427.024 298.566H420.492V295.139C420.492 295.078 419.481 294.684 420.756 294.527C421.638 294.418 422.242 294.697 422.357 294.697Z" fill="#8AACF6"/>
<path d="M398.547 330.03C398.412 330.207 398.262 330.377 398.1 330.554V330.03H398.547Z" fill="#8AACF6"/>
<path d="M397.164 330.03V331.465C396.628 331.92 396.011 332.376 395.298 332.831V330.295C395.298 330.105 396.621 329.962 397.164 330.03Z" fill="#8AACF6"/>
<path d="M399.497 311.744V316.32C399.497 316.32 399.477 316.327 399.449 316.327C399.259 316.348 398.54 316.348 398.066 316.341C397.964 316.341 397.876 316.341 397.801 316.334C397.699 316.334 397.631 316.327 397.631 316.32V312.186C397.631 311.86 398.615 311.628 399.497 311.744Z" fill="#8AACF6"/>
<path d="M402.292 316.322C402.292 316.322 402.265 316.328 402.224 316.328C402.116 316.335 401.885 316.335 401.627 316.335C401.193 315.261 400.793 314.132 400.427 312.962V312.011C400.427 311.711 402.292 311.711 402.292 312.011C402.292 312.609 402.706 316.172 402.292 316.322Z" fill="#8AACF6"/>
<path d="M405.093 316.314C405.026 316.341 403.228 316.348 403.228 316.314V312.18C403.228 311.588 405.093 311.711 405.093 312.003C405.093 312.602 405.507 316.158 405.093 316.307V316.314Z" fill="#8AACF6"/>
<path d="M456.403 295.751H450.338V295.051C450.467 294.976 450.026 294.568 450.589 294.514C451.064 294.466 455.623 294.493 456.104 294.548C457.827 294.765 456.409 295.588 456.403 295.751Z" fill="#FFEA92"/>
<path d="M426.341 294.637C426.497 294.637 426.653 294.637 426.809 294.637C426.83 295.107 426.775 295.576 426.809 296.045H421.674L422.142 294.637C423.513 294.658 425.018 294.583 426.341 294.637Z" fill="#FFEA92"/>
<path d="M437.281 294.52V296.105H435.415C435.415 296.084 434.968 295.901 434.927 295.676C434.757 294.772 434.744 294.486 437.281 294.52Z" fill="#FFEA92"/>
<path d="M466.206 294.521C466.002 295.18 467.074 295.942 464.808 295.751C464.74 295.166 462.963 294.65 466.206 294.521Z" fill="#FFEA92"/>
<path d="M427.017 294.697C426.861 294.697 426.705 294.697 426.549 294.697L426.78 294.527L427.011 294.697H427.017Z" fill="#292835"/>
<path d="M466.199 296.628C466.036 296.751 465.405 296.526 465.744 296.282C465.907 296.159 466.538 296.384 466.199 296.628Z" fill="#0C1822"/>
<path d="M184.695 299.748C173.163 311.41 137.326 308.594 138.357 290.105C139.388 271.616 172.152 270.542 183.189 278.409C190.854 283.876 191.153 293.226 184.701 299.748H184.695Z" fill="#2E2929"/>
<path d="M229.694 109.765C218.163 121.427 182.326 118.612 183.357 100.123C184.388 81.6336 217.152 80.5592 228.188 88.4268C235.854 93.894 236.152 103.244 229.701 109.765H229.694Z" fill="#2E2929"/>
<path d="M89.1904 290.947C99.1416 282.917 120.448 284.691 121.547 299.611C122.748 315.91 89.2783 319.521 85.2693 302.324C84.5503 299.23 86.7144 292.947 89.1904 290.947Z" fill="#2E2929"/>
<path d="M43.0658 297.899C50.8131 291.65 67.4007 293.031 68.2562 304.64C69.191 317.323 43.1343 320.132 40.0133 306.751C39.4535 304.344 41.1383 299.455 43.0658 297.899Z" fill="#2E2929"/>
<path d="M142.636 65.9132C152.587 57.8824 173.894 59.6572 174.993 74.5764C176.194 90.876 142.724 94.4868 138.715 77.2896C137.996 74.1956 140.16 67.9124 142.636 65.9132Z" fill="#2E2929"/>
<path d="M22 71.5C22.3333 70 23.1 67 23.5 67" stroke="black" stroke-linecap="round"/>
<path d="M2.12507 73.4852C2.09447 72.4719 2.24489 70.373 3.09144 70.0843" stroke="black" stroke-width="0.5" stroke-linecap="round"/>
</svg>
