<svg width="665" height="387" viewBox="0 0 665 387" fill="none" xmlns="http://www.w3.org/2000/svg">
<path d="M532.091 89.6631C534.528 92.0494 573.41 85.2805 595.808 108.515C619.599 133.193 609.942 173.948 613.043 177.518C614.372 179.049 636.791 181.633 648.806 194.951C696.157 247.434 629.452 317.578 572.353 276.947C562.75 361.022 459.079 396.678 398.016 339.433C348.332 405.534 253.911 402.967 213.253 329.545C210.693 324.924 209.267 314.564 208.66 314.029C207.126 312.69 180.959 312.694 168.746 308.062C157.063 303.632 139.514 285.21 137.561 285.156C136.222 285.12 119.846 295.138 113.528 297.015C2.81 329.892 -50.7655 167.431 64.2954 130.378C71.6024 128.024 90.6173 127.453 91.5849 126.471C92.4585 125.587 91.7331 109.872 94.4336 101.782C101.282 81.277 126.958 63.8367 148.489 63.8258C160.684 63.8186 181.894 75.5297 184.818 74.8365C186.465 74.4467 201.195 55.4397 207.841 50.0823C245.557 19.6927 301.768 17.6205 339.314 49.3819C382.333 -21.5849 492.466 -14.7944 525.297 61.5912C528.709 69.5262 531.055 88.6487 532.088 89.6559L532.091 89.6631Z" fill="white"/>
<path d="M1.83152 194.734C1.83152 194.734 32.9226 306.878 137.561 249.398C137.561 249.398 161.836 282.878 208.66 278.271C208.66 278.271 274.344 425.649 398.019 303.672C398.019 303.672 519.293 397.751 572.356 241.185C572.356 241.185 630.534 280.694 661.698 215.868C661.698 215.868 677.77 254.81 635.867 281.752C635.867 281.752 607.743 301.755 572.356 276.95C572.356 276.95 572.555 331.238 509.004 359.476C509.004 359.476 451.649 387.895 398.023 339.437C398.023 339.437 357.761 398.101 287.38 385.072C287.38 385.072 224.404 376.83 208.667 314.036C208.667 314.036 162.597 320.899 137.568 285.163C137.568 285.163 86.2813 324.257 32.8719 282.979C32.8719 282.979 -9.17256 253.358 1.83857 194.734H1.83152Z" fill="#C6C6C6"/>
</svg>
