<svg width="301" height="257" viewBox="0 0 301 257" fill="none" xmlns="http://www.w3.org/2000/svg">
<path d="M115.389 135.172L116.711 11.1572C119.237 9.20168 144.661 9.11964 149.925 8.78065C191.899 6.06855 235.621 1.76595 277.517 0.613795C285.996 0.385617 296.666 -1.63716 299.946 8.08132L300.191 182.944C300.77 186.162 297.92 188.827 297.238 191.172C296.664 193.151 298.214 196.563 295.137 199.4L183.018 256.115L172.447 256.363L3.76124 175.761C-0.615981 173.637 -0.0393918 168.71 0.353095 164.558L5.00498 161.765L115.378 135.162L115.389 135.172ZM290.211 184.559L290.391 6.03843C290.391 5.8125 287.859 3.08798 286.856 3.34518L118.855 13.7199L118.733 134.8C118.733 135.165 119.627 136.619 120.198 136.867L288.83 185.708C289.294 185.569 290.082 184.957 290.201 184.569L290.211 184.559ZM275.288 189.923L118.025 142.276C97.5897 147.484 74.2874 150.785 54.3904 157.339C53.3546 157.682 52.2975 157.595 51.606 158.692L209.469 222.058L215.899 220.3L275.288 189.912L275.288 189.923ZM72.3259 149.223C51.6544 153.549 30.8528 158.542 10.3099 163.761C9.14463 164.061 6.21052 164.262 6.02573 165.671L61.5078 191.354L62.0073 187.944L93.8359 179.8L45.3387 159.116L45.7507 156.975L72.3259 149.213L72.3259 149.223ZM290.206 189.938L273.642 185.79C274.439 187.459 277.848 187.096 279.227 188.486C280.251 189.52 280.13 191.607 278.845 192.455L216.726 223.636L210.199 225.394L146.022 200.531L145.501 203.93L118.241 216.663L76.4409 197.534L73.9271 197.973L172.707 244.55L179.545 245.213L290.195 189.938L290.206 189.938Z" fill="#4C4C4C"/>
<path d="M275.289 189.923L215.9 220.31L209.469 222.068L51.6065 158.702C52.2979 157.605 53.355 157.693 54.3908 157.349C74.2879 150.785 97.5902 147.495 118.025 142.286L275.289 189.933L275.289 189.923Z" fill="black"/>
<path d="M290.212 184.559C290.093 184.946 289.294 185.558 288.841 185.698L120.209 136.856C119.638 136.618 118.744 135.165 118.744 134.788L118.866 13.709L286.867 3.33434C287.87 3.07714 290.402 5.81241 290.402 6.02759L290.222 184.548L290.212 184.559ZM270.333 11.6343C226.323 12.9242 182.202 16.839 138.319 19.5169C131.307 19.9402 122.962 16.6396 122.122 25.6654C119.2 57.1535 124.331 92.9749 122.023 124.915C121.759 129.369 124.616 130.9 128.509 131.678L280.497 169.95C283 169.156 284.814 167.651 284.472 164.757L284.588 16.759C284.121 9.35649 275.662 11.4782 270.322 11.6343L270.333 11.6343Z" fill="black"/>
<path d="M290.207 189.939L179.557 245.214L172.719 244.551L73.9387 197.974L76.4525 197.535L118.253 216.664L145.512 203.931L146.034 200.532L210.21 225.395L216.738 223.637L278.857 192.456C280.141 191.618 280.262 189.521 279.238 188.487C277.859 187.097 274.45 187.46 273.654 185.791L290.218 189.939L290.207 189.939Z" fill="#AAAAAA"/>
<path d="M72.325 149.225L45.7499 156.988L45.3378 159.128L93.835 179.812L62.0065 187.957L61.5069 191.367L6.02487 165.684C6.20966 164.275 9.14378 164.073 10.309 163.773C30.8519 158.554 51.6428 153.572 72.325 149.236L72.325 149.225Z" fill="#AAAAAA"/>
<path d="M270.334 11.6337C275.673 11.4776 284.132 9.35589 284.599 16.7584L284.483 164.756C284.814 167.651 283.011 169.145 280.508 169.949L128.521 131.678C124.627 130.899 121.781 129.369 122.034 124.915C124.342 92.9636 119.211 57.1421 122.133 25.6648C122.973 16.6283 131.308 19.9396 138.33 19.5163C182.213 16.8384 226.323 12.9343 270.344 11.6337L270.334 11.6337ZM281.117 165.538L281.267 15.9482C277.203 13.0284 270.513 15.2917 265.929 15.513C246.836 16.4083 227.731 17.7125 208.757 18.7586C181.26 20.2803 153.732 21.2316 126.257 23.1729L125.434 25.6682L125.753 126.984L278.44 166.622C279.389 167.043 280.868 166.367 281.117 165.538Z" fill="black"/>
<path d="M281.117 165.539C280.868 166.368 279.389 167.044 278.441 166.623L125.753 126.985L125.434 25.6693L126.257 23.174C153.732 21.2327 181.25 20.2814 208.757 18.7597C227.742 17.7029 246.836 16.4094 265.929 15.5141C270.513 15.3035 277.203 13.0403 281.267 15.9493L281.117 165.539Z" fill="#AADBE8"/>
</svg>
