<svg width="119" height="121" viewBox="0 0 119 121" fill="none" xmlns="http://www.w3.org/2000/svg">
<path d="M65.8126 79.0183C56.2307 77.3467 41.5726 71.9947 34.3471 64.8763C28.6732 59.2882 26.4108 50.7916 32.1755 44.9803C33.5388 43.6027 35.6593 41.8292 37.7321 42.5308C39.8048 43.2324 43.8471 47.7335 45.478 49.4564C46.199 50.2084 47.2183 51.2058 47.8098 52.0422C49.1816 53.934 47.3372 55.9186 46.4442 57.3806C45.9453 58.2435 45.3469 59.0247 46.0602 59.9772C47.621 62.088 53.0867 64.879 55.5574 65.9077C59.4114 67.501 64.6303 68.4978 68.7102 68.5263C70.6519 68.5313 71.4762 68.2382 71.541 66.143C71.5826 64.6495 71.0558 61.718 72.5355 60.8021C73.2157 60.3587 75.5438 59.9651 76.4576 59.8093C78.7956 59.3604 81.5045 58.914 83.8695 58.7897C85.9183 58.6759 87.1358 58.4199 88.3581 60.5069C90.9367 64.8869 90.471 71.2517 87.2332 74.7802C81.9589 80.5651 73.0649 80.3024 65.7578 79.0052L65.8126 79.0183Z" fill="#6266EC"/>
<path opacity="0.39" d="M59.9797 6.71442L10.2989 39.1042C4.61094 42.8125 3.18385 50.7022 7.11134 56.7263L41.4157 109.344C45.3432 115.368 53.138 117.245 58.8259 113.537L108.507 81.1472C114.195 77.4389 115.622 69.5492 111.694 63.5251L77.3899 10.9077C73.4624 4.88353 65.6676 3.00614 59.9797 6.71442Z" fill="#6266EC"/>
</svg>
