<svg width="566" height="457" viewBox="0 0 566 457" fill="none" xmlns="http://www.w3.org/2000/svg">
<g clip-path="url(#clip0_280_8)">
<path d="M453.663 80.2404C449.018 80.1809 445.441 79.1686 441.009 79.511C434.792 79.9923 428.798 84.071 422.079 83.55C414.165 82.9397 409.501 75.9285 402.956 73.7353C390.065 69.4184 378.473 73.636 371.07 84.5822C368.018 89.0926 357.311 108.931 363.195 112.692C374.266 119.758 382.349 96.4364 390.819 96.5108C398.436 96.5753 395.126 106.871 392.407 111.02C382.567 126.04 353.927 125.28 338.405 133.929C323.529 142.221 314.811 161.027 340.45 158.407C349.932 157.439 379.332 146.637 384.353 158.556C388.248 167.805 377.749 174.489 370.237 176.478C358.169 173.943 345.749 169.581 333.399 172.707C302.48 180.542 277.045 245.063 310.226 264.732C320.488 270.816 323.361 269.456 334.158 270.712C348.721 272.404 345.134 278.795 352.8 285.186C355.107 287.111 360.392 287.885 361.489 289.577C363.523 292.713 361.29 295.1 361.617 297.705C361.905 300.002 366.059 306.582 367.071 310.437C371.76 328.291 364.342 337.619 365.647 353.522C366.505 363.977 373.204 383.299 381.808 389.7C389.97 395.774 402.068 391.725 410.419 387.532C426.362 379.528 456.178 346.357 461.076 329.233C465.353 314.293 462.798 302.523 472.503 288.322C478.393 279.703 501.521 263.844 497.929 252.213C497.055 249.38 492.798 249.251 493.889 243.689C494.053 242.865 505.416 233.854 508.289 234.39C506.165 318.079 458.451 393.913 383.922 432.046C309.393 470.179 219.977 464.517 150.862 417.279C81.746 370.041 43.9801 288.793 52.4353 205.506C60.3448 216.115 68.7754 225.28 80.1234 232.053C97.1084 242.19 118.018 243.237 134.383 256.843C152.514 271.922 132.041 278.075 129.892 292.872C126.062 319.2 145.165 323.438 160.607 337.441C172.893 348.58 168.695 349.647 170.342 364.022C172.858 385.969 182.087 402.716 197.966 417.587C202.65 421.973 227.678 443.176 232.71 433.068C235.781 426.9 222.349 419.224 220.707 411.94C215.432 388.594 234.288 384.634 241.81 367.396C244.291 361.71 244.772 355.8 247.988 350.069C253.381 340.453 264.844 334.642 266.228 322.381C268.545 301.838 244.738 296.742 231.221 288.198C209.14 274.235 203.36 242.999 173.999 243.976C160.582 244.423 149.309 256.302 137.196 248.7C128.126 243.009 129.907 229.358 124.687 225.935C119.755 222.699 113.686 228.644 108.794 229.085C95.9372 230.247 84.0681 218.095 92.2256 206.062C98.8995 196.217 118.534 190.6 129.297 195.711C136.06 198.921 139.102 207.208 142.431 209.287C151.536 214.979 147.239 191.136 151.313 186.576C151.482 186.387 155.412 184.075 155.65 183.996C163.143 181.574 165.217 183.108 172.402 177.262C181.487 169.874 183.769 164.758 196.189 158.347C203.647 154.502 209.076 156.442 211.616 146.007C212.395 142.816 210.813 137.383 215.318 135.78C223.907 132.728 224.369 139.665 229.653 140.097C231.072 140.211 235.642 138.683 236.516 137.517C246.712 123.856 216.712 86.572 198.264 96.2776C191.277 99.9545 189.912 108.246 185.923 112.305C185.69 112.543 180.956 116.007 180.648 116.136C171.757 119.951 156.503 115.034 158.652 103.795C159.942 97.0417 165.395 93.9554 171.801 93.3698C178.832 92.7248 182.866 96.2627 189.808 92.1492C196.14 88.3979 201.032 72.3906 206.223 71.0855C207.374 70.7978 213.303 72.9612 214.082 73.8146C219.104 79.3373 211.82 85.7136 218.3 92.8291C223.545 98.585 237.2 101.914 242.187 94.3722C249.66 83.0687 237.984 77.2285 232.169 69.3488C228.725 64.6796 224.711 57.5789 222.637 52.1753C220.563 46.7717 218.692 31.2655 213.06 29.7471C192.964 24.3237 161.619 37.3837 147.76 52.23C136.169 64.6449 134.383 78.856 110.878 74.683C155.055 26.1894 217.938 -0.982553 283.53 0.079315C349.123 1.14118 411.093 30.3376 453.677 80.2354L453.663 80.2404ZM313.972 22.2942C298.719 9.44758 245.189 13.5263 227.693 22.1552C221.456 25.2317 216.802 30.7048 223.922 35.9297C229.286 39.8646 232.759 37.994 237.93 39.0112C248.082 41.0109 260.745 47.0099 262.075 58.6657C263.147 68.0587 260.07 85.9468 262.298 93.6924C263.464 97.7414 268.769 98.1731 272.272 97.7265C274.956 97.3841 287.341 79.4416 290.889 75.9682C293.767 73.1448 298.481 70.7481 302.148 66.6941C310.663 57.2911 326.804 33.0915 313.977 22.2892L313.972 22.2942ZM334.421 99.9842C324.07 102.133 322.864 122.924 333.076 123.182C344.901 123.479 347.019 97.3742 334.421 99.9842Z" fill="#6266EC"/>
<path d="M508.289 234.405C505.416 233.869 494.048 242.88 493.889 243.704C492.798 249.266 497.055 249.395 497.928 252.229C501.521 263.859 478.393 279.713 472.503 288.337C462.798 302.538 465.353 314.313 461.076 329.249C456.173 346.372 426.357 379.543 410.419 387.547C402.068 391.74 389.975 395.784 381.808 389.715C373.204 383.315 366.5 363.988 365.647 353.538C364.342 337.634 371.76 328.311 367.071 310.453C366.059 306.597 361.905 300.017 361.617 297.72C361.29 295.115 363.523 292.723 361.489 289.592C360.392 287.9 355.107 287.126 352.8 285.201C345.134 278.81 348.721 272.419 334.158 270.727C323.36 269.471 320.488 270.831 310.226 264.748C277.04 245.078 302.48 180.557 333.398 172.722C345.749 169.591 358.169 173.958 370.236 176.493C377.749 174.499 388.248 167.815 384.353 158.571C379.332 146.652 349.932 157.449 340.449 158.422C314.811 161.042 323.529 142.236 338.405 133.944C353.921 125.296 382.562 126.055 392.407 111.035C395.126 106.887 398.435 96.5905 390.819 96.526C382.354 96.4515 374.266 119.773 363.195 112.707C357.31 108.951 368.018 89.1078 371.07 84.5973C378.473 73.6511 390.07 69.4284 402.956 73.7503C409.501 75.9435 414.16 82.9499 422.079 83.5652C428.798 84.0862 434.792 80.0075 441.009 79.5262C445.44 79.1838 449.018 80.191 453.662 80.2556C490.267 123.147 509.718 178.052 508.289 234.415V234.405Z" fill="#52D241"/>
<path d="M110.868 74.6931C134.373 78.8612 136.159 64.655 147.75 52.24C161.609 37.3937 192.954 24.3337 213.05 29.7572C218.682 31.2756 220.523 46.7024 222.627 52.1854C224.731 57.6684 228.715 64.6897 232.159 69.3589C237.974 77.2386 249.645 83.0788 242.177 94.3823C237.19 101.929 223.535 98.5951 218.29 92.8391C211.81 85.7236 219.099 79.3474 214.072 73.8247C213.298 72.9713 207.369 70.8078 206.213 71.0956C201.027 72.4006 196.135 88.408 189.798 92.1593C182.856 96.2728 178.822 92.7349 171.791 93.3799C165.39 93.9654 159.932 97.0518 158.642 103.805C156.493 115.044 171.751 119.961 180.638 116.146C180.946 116.012 185.675 112.553 185.913 112.315C189.902 108.256 191.267 99.9645 198.254 96.2877C216.702 86.587 246.702 123.866 236.505 137.527C235.632 138.693 231.062 140.226 229.643 140.107C224.358 139.675 223.902 132.738 215.308 135.79C210.802 137.393 212.385 142.826 211.606 146.017C209.066 156.452 203.632 154.512 196.179 158.357C183.759 164.768 181.472 169.884 172.392 177.272C165.207 183.118 163.133 181.584 155.64 184.006C155.402 184.085 151.472 186.398 151.303 186.586C147.229 191.146 151.526 214.989 142.421 209.297C139.092 207.218 136.05 198.932 129.287 195.721C118.524 190.61 98.8894 196.227 92.2155 206.072C84.053 218.11 95.9272 230.262 108.784 229.096C113.676 228.654 119.745 222.705 124.677 225.945C129.897 229.368 128.121 243.014 137.186 248.71C149.299 256.312 160.572 244.433 173.989 243.986C203.354 243.009 209.135 274.245 231.211 288.208C244.728 296.757 268.535 301.848 266.218 322.391C264.834 334.657 253.371 340.468 247.978 350.079C244.762 355.81 244.286 361.72 241.8 367.406C234.273 384.644 215.417 388.604 220.697 411.95C222.344 419.234 235.771 426.911 232.7 433.078C227.668 443.186 202.64 421.983 197.956 417.597C182.082 402.731 172.853 385.984 170.332 364.032C168.685 349.652 172.883 348.59 160.597 337.451C145.155 323.448 126.051 319.21 129.882 292.882C132.036 278.085 152.504 271.932 134.373 256.853C118.013 243.247 97.0983 242.2 80.1134 232.063C68.7653 225.29 60.3347 216.125 52.4253 205.516C57.3724 156.769 77.8555 110.906 110.853 74.6831L110.868 74.6931Z" fill="#52D241"/>
<path d="M313.973 22.2943C326.799 33.0966 310.658 57.2962 302.143 66.6992C298.471 70.7532 293.762 73.1499 290.884 75.9733C287.342 79.4467 274.951 97.3941 272.267 97.7316C268.769 98.1732 263.459 97.7465 262.293 93.6975C260.065 85.9518 263.137 68.0638 262.07 58.6707C260.745 47.015 248.077 41.0209 237.925 39.0162C232.755 37.994 229.281 39.8647 223.917 35.9348C216.797 30.7098 221.451 25.2368 227.688 22.1603C245.179 13.5314 298.714 9.45266 313.968 22.2993L313.973 22.2943Z" fill="#52D241"/>
<path d="M334.421 99.9844C347.019 97.3694 344.9 123.479 333.076 123.182C322.864 122.924 324.07 102.133 334.421 99.9844Z" fill="#52D241"/>
<path d="M232.015 200.013C231.613 196.57 231.925 192.793 232.774 189.121C240.261 156.65 284.364 132.932 314.582 122.993C316.056 122.507 322.849 120.294 323.717 120.606C325.628 121.291 324.303 125.583 323.648 127.434C325.523 128.218 329.25 128.431 327.042 132.227C324.734 136.197 320.829 141.169 318.105 144.717C313.158 151.157 307.839 157.573 302.5 163.23C285.138 181.634 261.682 199.715 232.019 200.013H232.015ZM322.125 129.141C321.698 128.873 322.576 126.769 322.705 126.124C322.958 124.839 323.186 122.829 322.125 122.323C321.355 121.956 313.873 124.397 312.429 124.878C288.77 132.798 258.065 149.009 242.653 171.333C236.689 179.972 233.225 189.638 234.178 198.306C265.324 198.108 290.02 176.94 307.571 156.576C312.751 150.567 320.958 140.722 325.156 133.473C326.794 130.644 325.34 129.806 323.454 129.225C323.092 129.116 322.189 129.171 322.134 129.136L322.125 129.141Z" fill="black"/>
<path d="M322.125 129.141C322.179 129.176 323.087 129.116 323.445 129.23C325.335 129.811 326.784 130.649 325.147 133.478C320.949 140.727 312.742 150.572 307.561 156.581C290.011 176.945 265.32 198.113 234.168 198.311C233.216 189.642 236.679 179.976 242.643 171.338C258.055 149.014 288.76 132.803 312.419 124.883C313.863 124.402 321.346 121.961 322.115 122.328C323.177 122.834 322.949 124.844 322.695 126.129C322.566 126.774 321.688 128.878 322.115 129.146L322.125 129.141Z" fill="#FCF1DB"/>
<path d="M292.258 139.239L297.091 129.727L290.611 131.513L296.778 122.165L294.218 122.333C286.616 123.251 267.076 132.178 267.15 132.287C267.17 132.317 271.983 132.297 271.983 132.297C270.39 133.141 268.862 134.609 267.612 135.964C261.141 142.96 260.59 153.902 270.078 158.333C270.887 158.71 272.033 159.017 272.901 159.295C272.901 159.31 272.901 159.325 272.901 159.345C273.67 159.513 274.434 159.816 275.204 159.886C275.218 159.861 275.228 159.841 275.243 159.816L278.369 159.747C278.369 159.786 278.369 159.821 278.369 159.861C279.064 159.687 279.828 159.652 280.543 159.647C280.543 159.623 280.553 159.603 280.558 159.593C286.1 158.888 290.67 155.812 293.345 150.934C295.528 146.955 296.173 142.717 296.466 138.227C295.895 138.321 293.245 139.328 292.64 139.467C292.417 139.517 292.193 139.556 292.253 139.239H292.258Z" fill="#FCCA59"/>
<path d="M262.854 146.88C262.854 146.88 262.764 138.326 271.989 132.297L267.156 132.287C267.156 132.287 289.867 121.48 296.784 122.165L290.616 131.513L297.096 129.727L292.288 139.452L296.476 138.227C296.476 138.227 295.955 146.478 293.429 150.8C290.904 155.122 288.115 156.899 286.175 157.916C284.235 158.933 281.446 159.816 275.899 159.801C270.351 159.786 266.124 155.653 265.652 155.068C265.181 154.482 263.573 152.15 263.265 150.582C262.958 149.014 262.854 146.88 262.854 146.88Z" stroke="#EAEBA1" stroke-miterlimit="10"/>
<path d="M272.619 158.586C272.564 159.241 272.261 161.459 272.112 162.004C271.964 162.56 270.435 162.635 271.056 164.624C271.403 165.736 272.668 165.776 273.442 165.642C274.961 165.384 274.425 163.682 274.584 162.302C274.628 161.895 274.772 159.072 275.219 158C274.355 157.896 273.492 157.449 272.633 157.201C272.678 157.653 272.663 158.124 272.623 158.581L272.619 158.586Z" fill="#FCCA59"/>
<path d="M278.93 161.86C278.94 162.466 278.613 162.694 278.534 163.141C278.454 163.572 278.831 164.818 279.05 164.882C279.888 165.12 281.56 165.294 281.883 163.91C282.131 162.833 281.183 161.314 280.92 160.119C280.841 159.746 280.518 157.653 280.548 157.211C279.834 157.221 279.074 157.27 278.375 157.523C278.35 158.928 278.906 160.501 278.926 161.86H278.93Z" fill="#FCCA59"/>
<path d="M264.024 151.346C264.024 151.346 258.492 147.996 258.561 144.032C258.631 140.067 260.6 135.438 261.801 135.854C263.002 136.271 262.928 137.303 262.789 137.993C262.65 138.683 261.141 142.826 261.295 143.585C261.449 144.344 262.982 147.173 263.588 147.45C264.193 147.728 265.394 151.346 265.394 151.346H264.029H264.024Z" fill="#FCCA59"/>
<path d="M289.718 153.857C289.753 153.857 297.875 153.102 298.962 150.279L299.21 149.51C299.21 149.51 300.227 146.046 299.438 142.37L299.309 141.943C299.309 141.943 297.468 139.477 297.602 143.843C297.731 148.215 295.434 149.723 295.434 149.723C295.434 149.723 292.675 151.495 291.365 151.296C290.055 151.098 289.728 153.837 289.723 153.857H289.718Z" fill="#FCCA59"/>
<path d="M270.848 146.786C270.848 146.786 267.488 146.439 268.843 143.124C270.197 139.809 272.812 140.201 272.812 140.201C272.812 140.201 275.78 141.03 273.989 144.821C273.989 144.821 273.507 146.389 270.848 146.781V146.786Z" fill="#2E2929" stroke="#2E2929" stroke-linecap="round" stroke-linejoin="round"/>
<path d="M284.498 147.133C284.498 147.133 282.057 146.771 282.101 143.486C282.146 140.201 285.634 140.593 285.634 140.593C285.634 140.593 288.294 141.204 288.12 144.081C287.946 146.959 285.897 147.049 284.503 147.133H284.498Z" fill="#2E2929" stroke="#2E2929" stroke-linecap="round" stroke-linejoin="round"/>
<path d="M276.212 153.455C276.212 153.455 273.726 151.753 275.646 147.352C277.566 142.95 280.657 147.525 280.573 148.528C280.573 148.528 281.883 155.504 276.212 153.455Z" fill="#2E2929" stroke="#2E2929" stroke-linecap="round" stroke-linejoin="round"/>
<path d="M274.073 144.712L272.679 144.439C271.448 144.394 270.927 145.516 270.198 146.553C270.505 145.56 271.036 144.394 270.5 143.541C270.188 143.04 269.667 142.732 269.23 142.394C269.845 142.464 270.421 142.762 271.076 142.633C271.994 142.454 272.564 141.323 273.12 140.534C272.937 141.164 272.669 141.804 272.599 142.449C272.465 143.685 273.368 144.136 274.078 144.717L274.073 144.712Z" fill="white"/>
<path d="M287.922 143.218L286.547 143.853C285.461 144.553 285.724 145.654 285.748 146.825C285.386 145.937 285.108 144.796 284.111 144.508C283.525 144.339 282.885 144.429 282.295 144.449C282.866 144.131 283.55 144.002 284.032 143.521C284.706 142.846 284.483 141.71 284.463 140.816C284.702 141.372 284.875 141.987 285.222 142.489C285.887 143.441 286.949 143.228 287.922 143.218Z" fill="white"/>
</g>
<path d="M53.7307 208C2.15648 224.826 -56.1434 257.978 129.195 259.281C314.532 260.583 408.052 259.824 431.644 259.281C510.377 255.753 637.682 242.916 507.649 219.143" stroke="#FF5CDB" stroke-width="5"/>
<defs>
<clipPath id="clip0_280_8">
<rect width="457" height="457" fill="white" transform="translate(51.5024)"/>
</clipPath>
</defs>
</svg>
