<svg width="451" height="260" viewBox="0 0 451 260" fill="none" xmlns="http://www.w3.org/2000/svg">
<path d="M451 0H0V260H451V0Z" fill="white"/>
<path d="M308.599 35.3987C309.345 36.9174 310.006 37.299 310.831 38.7476C310.996 39.0435 310.902 39.4407 311.444 39.3239C310.98 40.2663 311.664 40.7726 311.664 41.3956V44.6668C311.664 44.8459 311.365 45.0873 311.483 45.7026C311.641 46.5359 312.859 48.1559 313.204 49.2463C314.548 53.4676 313.487 57.2916 313.417 61.3727C312.866 61.4583 312.356 61.5752 311.782 61.5986C307.342 61.7855 301.974 61.6842 297.777 60.4848C289.156 61.139 279.317 59.6437 270.845 60.4848C269.745 60.5938 269.101 61.2481 268.008 61.3727C265.776 61.6219 262.892 61.3104 260.558 61.3649C259.67 61.3882 255.497 61.988 255.081 61.3883C254.861 61.0689 255.136 60.5159 254.876 60.2823C254.68 60.2823 254.774 61.7231 254.766 62.0347L254.311 55.8118C254.311 51.832 254.986 50.9441 256.118 47.5562C256.66 45.9518 256.872 42.1355 256.959 40.2975C256.974 40.0171 256.935 39.5108 256.731 39.3317L259.23 36.4735C259.568 36.1853 259.623 35.718 259.796 35.3987C261.391 32.4936 263.537 23.9343 266.279 22.548C266.861 22.252 269.784 21.8081 270.657 21.6757C277.447 20.632 284.59 20.6087 291.428 20.9825C294.54 21.1539 299.797 21.2551 302.399 22.914C304.685 24.3782 306.902 31.9328 308.112 34.6821C308.253 35.0014 308.497 35.204 308.591 35.3987H308.599ZM278.791 22.143C276.071 22.2754 269.179 22.6959 266.963 23.8797C265.273 24.7754 263.395 29.1291 263.136 30.9827C262.704 34.1525 264.15 35.1728 266.295 37.1121C278.131 36.6837 290.052 37.0576 301.919 36.9252C302.359 36.8395 305.361 34.1447 305.487 33.7242C305.872 32.4235 304.654 29.1057 304.104 27.7661C302.281 23.3501 300.285 23.171 295.766 22.548C290.547 21.8314 284.08 21.8937 278.791 22.1508V22.143ZM264.613 40.8505C264.275 38.0233 262.735 37.5248 260.118 37.7819C257.501 38.0389 257.242 40.8505 257.941 40.8505H264.613ZM310.564 40.8505C310.406 39.2773 309.746 37.961 308.065 37.7819C306.627 37.6261 304.371 37.6183 303.837 39.2694C303.758 39.5187 303.499 40.8505 303.892 40.8505H310.564ZM296.78 47.1824C297.023 47.4472 297.714 46.5749 297.84 46.3802C298.72 45.0484 299.601 41.1465 297.502 40.6792L271.938 40.6246C269.509 40.8271 269.124 41.5903 269.446 43.9969C269.501 44.4175 270.727 47.8678 271.395 47.1824C271.545 47.0266 270.822 46.201 270.751 45.7493C270.358 43.296 270.767 41.5047 273.47 41.2788C279.616 40.757 287.082 41.3489 293.4 41.2944C294.634 41.2866 295.153 40.7804 296.457 41.7228C298.029 42.8521 297.534 45.6715 296.787 47.1824H296.78ZM274.46 41.9487V45.8817H293.935V41.9487H274.46ZM310.564 42.1667H303.562C303.444 43.7165 303.601 44.9316 305.298 45.3522C307.923 45.9908 311.098 45.6013 310.564 42.1667ZM304.882 47.8366C304.905 49.8771 304.174 51.5594 301.935 51.7775C290.736 51.17 278.916 52.7665 267.788 51.9799C264.637 51.7618 263.34 51.2634 263.081 47.8366C262.711 47.7899 262.837 48.5999 262.853 48.8257C263.104 51.6061 264.692 52.2292 267.144 52.8367C277.894 52.2682 289.534 53.6544 300.174 52.86C302.611 52.6809 304.355 52.198 305.062 49.659C305.172 49.2696 305.683 47.5951 304.866 47.8288L304.882 47.8366Z" fill="#F296BD"/>
<path d="M313.408 61.373C313.345 64.9011 313.754 68.5227 313.384 72.1521C313.337 72.6194 312.999 74.2236 312.771 74.5429C312.315 75.166 307.702 74.9012 306.626 74.909C305.211 74.0211 306.492 71.8561 305.754 70.5398C305.738 70.1738 305.769 69.8078 305.754 69.4495C303.585 70.0181 302.594 67.6894 300.834 67.4791H268.008C265.634 67.7205 265.839 69.1302 264.895 69.4028C264.149 69.6208 263.009 69.3405 262.208 69.4495C262.059 69.5975 262.341 72.9464 262.208 73.6006C262.106 74.1146 261.587 74.5119 261.115 74.6911C260.95 74.7534 260.589 74.5974 260.455 74.909C259.001 74.9012 257.532 74.9635 256.078 74.909C256.188 74.3949 255.496 74.1692 255.418 74.0368C255.371 73.9511 255.465 73.7096 255.418 73.6006L255.198 73.1644C254.514 70.2126 254.718 65.1659 254.758 62.035C254.758 61.7312 254.671 60.2826 254.868 60.2826C255.127 60.524 254.852 61.077 255.072 61.3886C255.489 61.9883 259.662 61.3886 260.55 61.3652C262.884 61.3107 265.768 61.63 268 61.373C269.084 61.2484 269.737 60.5941 270.837 60.4851C279.309 59.6518 289.156 61.1393 297.769 60.4851C301.973 61.6845 307.333 61.7858 311.773 61.5989C312.339 61.5755 312.85 61.4587 313.408 61.373Z" fill="#1D1F1D"/>
<path d="M259.796 35.3989C259.623 35.7105 259.568 36.1855 259.23 36.4737L256.73 39.332C256.66 39.2697 256.188 39.3398 256.086 38.9815C256.007 38.6856 256.4 37.0734 256.628 36.7229C257.155 35.8973 258.861 35.6092 259.796 35.4067V35.3989Z" fill="#1D1F1D"/>
<path d="M311.445 39.3242C310.903 39.441 310.997 39.0438 310.832 38.7478C310.007 37.2992 309.346 36.9099 308.6 35.3989C310.368 36.0142 311.917 35.9752 311.901 38.3506C311.901 39.2385 311.547 39.1061 311.445 39.332V39.3242Z" fill="#1D1F1D"/>
<path d="M278.791 22.143C284.08 21.886 290.548 21.8237 295.766 22.5402C300.285 23.1633 302.281 23.3346 304.104 27.7583C304.654 29.0902 305.872 32.4158 305.487 33.7164C305.361 34.1448 302.359 36.8395 301.919 36.9174C290.052 37.0498 278.131 36.676 266.295 37.1043C264.15 35.165 262.704 34.137 263.136 30.9749C263.388 29.1213 265.273 24.7754 266.963 23.872C269.179 22.696 276.072 22.2676 278.791 22.1352V22.143Z" fill="#2E3233"/>
<path d="M293.935 41.9487H274.46V45.8818H293.935V41.9487Z" fill="#A53C68"/>
<path d="M304.881 47.8367C305.691 47.6031 305.188 49.2775 305.078 49.6669C304.37 52.2059 302.618 52.681 300.19 52.8679C289.549 53.6623 277.902 52.2683 267.159 52.8446C264.707 52.2371 263.112 51.6141 262.868 48.8336C262.844 48.6078 262.719 47.7978 263.096 47.8445C263.355 51.2714 264.652 51.7698 267.804 51.9878C278.932 52.7745 290.751 51.1778 301.95 51.7853C304.182 51.5673 304.921 49.885 304.897 47.8445L304.881 47.8367Z" fill="#FF579E"/>
<path d="M296.779 47.1823C297.534 45.6714 298.02 42.8598 296.449 41.7227C295.144 40.7803 294.626 41.2865 293.392 41.2943C287.073 41.3488 279.607 40.7569 273.462 41.2787C270.766 41.5046 270.357 43.2959 270.743 45.7492C270.813 46.1931 271.537 47.0265 271.387 47.1823C270.719 47.8677 269.493 44.4174 269.438 43.9968C269.116 41.5902 269.501 40.827 271.929 40.6245L297.494 40.6791C299.592 41.1464 298.72 45.0483 297.832 46.3801C297.706 46.567 297.015 47.4393 296.771 47.1823H296.779Z" fill="#FF579E"/>
<path d="M310.563 42.167C311.097 45.5938 307.923 45.9911 305.298 45.3525C303.6 44.9397 303.443 43.7247 303.561 42.167H310.563Z" fill="#5C5C5D"/>
<path d="M264.598 42.229C265.132 45.6559 261.957 46.053 259.332 45.4144C257.634 45.0016 257.477 43.7867 257.595 42.229H264.598Z" fill="#5C5C5D"/>
<path d="M264.613 40.8502H257.941C257.241 40.8502 257.54 38.0386 260.118 37.7815C262.695 37.5245 264.275 38.023 264.613 40.8502Z" fill="#5C5C5D"/>
<path d="M310.563 40.8506H303.891C303.498 40.8506 303.758 39.511 303.837 39.2696C304.371 37.6185 306.618 37.6262 308.065 37.782C309.754 37.9611 310.406 39.2774 310.563 40.8506Z" fill="#5C5C5D"/>
<path d="M86.0702 177.099C86.6989 176.671 87.021 176.375 87.3196 175.643C89.9052 169.178 92.9937 153.711 97.9762 149.63C100.185 147.823 102.361 147.574 105.112 147.169C119.47 145.074 134.472 145.128 148.901 145.86C155.22 146.18 162.591 146.242 168.635 148.243C179.063 151.702 180.997 168.392 184.588 177.091C184.832 177.683 185.484 178.844 185.837 179.591C187.881 183.836 190.679 186.757 191.213 191.928C191.402 193.766 190.977 196.025 191.284 197.684C191.48 198.735 192.517 199.428 192.895 200.659C194.576 206.22 193.091 214.397 192.934 219.982C191.559 223.712 192.486 233.432 188.344 235.184C183.291 237.326 174.049 236.999 168.564 236.594C150.056 235.223 126.991 234.803 108.381 235.792C100.554 236.212 92.522 238.526 84.6239 235.792C79.162 233.899 80.6947 223.603 78.9658 219.156C78.7536 214.242 77.2211 207.809 77.7555 203.167C78.0306 200.807 79.4059 198.408 79.7517 195.994C80.789 188.727 79.8379 187.31 83.8852 180.542C84.3175 179.825 84.8676 179.459 83.5552 179.584C83.8538 179.467 86.7537 177.637 86.8952 177.496C86.9502 177.434 86.8716 177.224 86.8952 177.091C86.6201 177.068 86.3372 177.107 86.0621 177.091L86.0702 177.099ZM174.34 155.269C173.515 153.688 172.313 151.919 170.426 151.46C165.782 150.315 156.037 149.832 150.976 149.622C137.49 149.053 120.947 149.116 107.572 150.455C103.627 150.852 99.5795 150.751 97.6776 154.747C94.4398 161.538 93.0094 170.565 90.2667 177.683L91.3119 178.337C118.904 178.189 147.204 180.035 174.804 178.797C176.926 178.704 179.04 178.057 181.256 178.361C182.073 177.527 176.022 160.401 175.181 157.979C174.757 156.764 175.055 156.647 174.348 155.284L174.34 155.269ZM87.8618 202.793C89.0249 204.055 93.3002 204.787 95.0449 204.997C96.2551 205.145 100.192 205.472 101.253 205.402C102.629 205.316 104.428 204.467 104.758 203.034C105.324 200.628 104.334 193.509 102.699 191.523C100.216 188.509 90.8638 186.577 87.7517 189.405C85.2997 191.632 85.6694 200.417 87.8541 202.793H87.8618ZM178.23 188.042C175.354 188.345 170.623 189.662 169.051 192.208C167.754 194.311 166.293 203.494 168.729 204.771C170.418 205.651 178.411 204.973 180.509 204.467C184.761 203.447 186.16 200.698 186.278 196.453C186.435 190.627 184.384 187.38 178.222 188.034L178.23 188.042ZM108.491 195.924C104.648 198.618 108.923 204.872 111.753 207.069C116.601 210.838 121.089 210.106 126.771 210.418C136.209 210.932 158.568 213.073 163.904 203.307C165.413 200.55 166.371 195.518 161.837 195.846L108.499 195.931L108.491 195.924ZM98.0706 208.019C97.4419 207.411 88.695 206.773 88.2156 207.559C87.0604 209.46 89.5358 210.215 90.9033 210.379C91.8856 210.495 95.9094 210.799 96.6638 210.714C97.9055 210.573 99.2023 209.109 98.0706 208.019ZM173.79 207.964C173.334 208.704 173.641 210.2 174.773 210.41C175.904 210.62 180.564 210.558 181.775 210.316C184.659 209.74 185.201 207.326 181.869 207.061C180.949 206.983 174.002 207.622 173.79 207.964ZM155.385 212.474H117.772V221.267H155.385V212.474ZM115.289 216.664C110.008 215.028 103.509 215.091 97.9681 215.41C96.1606 215.519 92.5616 215.776 91.0763 216.446C86.9347 218.299 85.8973 224.257 86.0702 228.315C88.0349 225.901 88.1133 222.225 90.4317 219.974C94.0624 216.453 108.57 217.271 113.827 217.076C114.33 217.061 115.383 217.388 115.281 216.664H115.289ZM186.254 228.315C186.097 224.172 185.091 217.848 180.651 216.212C177.295 214.974 162.23 215.02 158.685 216.017C158.072 216.189 157.444 216.321 157.035 216.866C163.424 217.738 175.283 216.095 180.949 219.242C183.064 220.418 184.447 225.223 185.319 227.396C185.571 228.027 185.075 228.525 186.254 228.307V228.315ZM94.5341 228.627C97.2533 231.462 121.403 231.524 126.378 231.633C140.547 231.937 157.365 232.497 171.385 230.34C173.374 230.036 177.9 229.585 177.885 226.859C177.885 225.519 175.771 222.17 173.955 222.474C152.383 222.715 130.763 222.373 109.254 222.046C106.33 221.999 99.4142 221.602 97.033 222.388C95.2176 222.988 93.1272 227.17 94.5261 228.619L94.5341 228.627Z" fill="#CFF23C"/>
<path d="M192.942 219.989C192.918 220.822 192.958 221.656 192.942 222.489C192.879 225.262 192.636 228.603 193.359 231.235C193.359 234.873 193.979 244.094 193.036 246.952C192.856 247.497 191.598 249.055 191.685 249.149C191.409 249.149 191.127 249.133 190.852 249.149L189.602 249.561C187.661 249.624 185.696 249.546 183.755 249.561L183.543 249.156L183.331 249.561C182.498 249.561 181.657 249.561 180.824 249.561C180.847 248.704 179.692 247.622 179.574 247.061C179.284 245.69 179.787 243.549 179.574 242.061H172.265C171.99 242.061 169.688 240.169 167.267 239.966C147.133 238.245 124.586 241.306 104.193 239.966C102.857 239.398 100.13 242.069 99.6187 242.069H92.7346L92.3178 247.902L89.8109 249.569C87.5162 249.538 84.9544 249.756 82.7146 249.569L81.0484 249.156C80.404 248.899 80.1446 249.04 79.5945 248.323C77.8734 246.057 78.5808 237.793 78.5415 234.584L78.9502 234.374L78.5415 234.164C78.5415 233.611 78.5415 233.05 78.5415 232.497C79.2331 232.061 78.9581 230.916 78.9659 230.215C79.0131 226.718 79.0917 223.065 78.9659 219.592C78.9659 219.452 78.9659 219.312 78.9659 219.179C80.6949 223.626 79.1622 233.922 84.624 235.815C92.5221 238.549 100.554 236.235 108.381 235.815C126.991 234.826 150.056 235.246 168.564 236.617C174.049 237.022 183.291 237.349 188.345 235.207C192.486 233.455 191.559 223.735 192.934 220.005L192.942 219.989Z" fill="#1D1F1D"/>
<path d="M83.5631 179.599C80.7575 180.682 71.5784 180.806 71.9556 176.18C72.2464 172.636 75.0046 170.471 78.3839 170.066C84.6316 169.319 84.9698 171.492 83.9718 177.099C84.6633 177.138 85.3704 177.06 86.062 177.099C86.337 177.115 86.62 177.084 86.895 177.099C86.8715 177.232 86.95 177.45 86.895 177.504C86.7536 177.644 83.8537 179.475 83.555 179.591L83.5631 179.599Z" fill="#2E3233"/>
<path d="M185.846 179.599C185.484 178.851 184.84 177.691 184.596 177.099C185.241 176.92 186.184 177.675 186.27 176.484C186.616 171.515 185.256 169.412 191.897 170.019C195.755 170.378 200.471 174.825 197.917 178.516C196.486 180.588 188.305 180.09 185.846 179.591V179.599Z" fill="#2E3233"/>
<path d="M78.5566 232.481C78.5566 228.946 78.5095 225.394 78.5566 221.858C78.5566 221.157 78.2894 220.005 78.9811 219.576C79.1148 223.058 79.0283 226.71 78.9811 230.2C78.9733 230.9 79.2484 232.053 78.5566 232.481Z" fill="#CFF23C"/>
<path d="M193.358 231.236C192.635 228.603 192.878 225.262 192.941 222.489C193.712 225.145 193.358 228.424 193.358 231.236Z" fill="#CFF23C"/>
<path d="M82.7305 249.554C81.7872 249.476 81.85 249.453 81.064 249.141L82.7305 249.554Z" fill="#CFF23C"/>
<path d="M190.852 249.141C190.789 249.141 190.529 249.531 189.602 249.554L190.852 249.141Z" fill="#CFF23C"/>
<path d="M183.755 249.554C183.613 249.554 183.48 249.554 183.338 249.554L183.551 249.149L183.763 249.554H183.755Z" fill="#CFF23C"/>
<path d="M78.5566 234.569C78.5566 234.429 78.5566 234.289 78.5566 234.157L78.9654 234.367L78.5566 234.577V234.569Z" fill="#CFF23C"/>
<path opacity="0.32" d="M174.339 155.269C175.047 156.632 174.748 156.748 175.173 157.963C176.013 160.385 182.073 177.52 181.247 178.345C179.031 178.042 176.917 178.688 174.795 178.781C147.195 180.02 118.895 178.174 91.3032 178.322L90.2583 177.668C93.001 170.549 94.4311 161.523 97.6689 154.731C99.5707 150.744 103.618 150.837 107.563 150.44C120.947 149.1 137.482 149.038 150.968 149.606C156.021 149.825 165.766 150.3 170.418 151.444C172.304 151.904 173.507 153.672 174.332 155.253L174.339 155.269Z" fill="#757575"/>
<path d="M108.491 195.924L161.829 195.838C166.364 195.511 165.405 200.542 163.896 203.299C158.56 213.066 136.201 210.924 126.763 210.41C121.081 210.099 116.594 210.831 111.745 207.061C108.916 204.865 104.641 198.611 108.484 195.916L108.491 195.924ZM133.969 198.86C128.955 200.145 130.779 209.802 137.443 207.731C142.449 206.173 141.435 196.952 133.969 198.86Z" fill="#1D1F1D"/>
<path d="M94.5339 228.627C93.1351 227.17 95.2255 222.996 97.0409 222.396C99.4142 221.609 106.338 222.014 109.261 222.053C130.771 222.373 152.39 222.723 173.963 222.482C175.778 222.17 177.884 225.519 177.892 226.866C177.908 229.592 173.381 230.044 171.393 230.348C157.373 232.497 140.555 231.944 126.386 231.641C121.411 231.532 97.2686 231.469 94.5416 228.634L94.5339 228.627ZM102.825 225.979C102.825 224.444 101.575 223.198 100.035 223.198C98.4948 223.198 97.245 224.444 97.245 225.979C97.245 227.513 98.4948 228.759 100.035 228.759C101.575 228.759 102.825 227.513 102.825 225.979ZM175.039 225.971C175.039 224.436 173.79 223.19 172.257 223.19C170.725 223.19 169.475 224.436 169.475 225.971C169.475 227.505 170.725 228.751 172.257 228.751C173.79 228.751 175.039 227.505 175.039 225.971Z" fill="#1D1F1D"/>
<path d="M155.384 212.474H117.772V221.267H155.384V212.474Z" fill="#76935B"/>
<path d="M87.8617 202.793C85.6769 200.418 85.3076 191.632 87.7596 189.405C90.8717 186.578 100.224 188.509 102.707 191.523C104.342 193.509 105.332 200.628 104.766 203.034C104.428 204.467 102.629 205.309 101.261 205.402C100.2 205.472 96.2705 205.137 95.0524 204.997C93.3077 204.787 89.0328 204.055 87.8697 202.793H87.8617Z" fill="#F3F3F4"/>
<path d="M178.23 188.042C184.384 187.395 186.443 190.635 186.286 196.461C186.168 200.706 184.769 203.455 180.517 204.475C178.419 204.974 170.427 205.659 168.737 204.779C166.293 203.502 167.755 194.319 169.059 192.216C170.631 189.67 175.354 188.353 178.238 188.05L178.23 188.042Z" fill="#F3F3F4"/>
<path d="M186.254 228.315C185.076 228.526 185.571 228.035 185.319 227.404C184.455 225.231 183.072 220.426 180.95 219.25C175.291 216.103 163.432 217.747 157.035 216.874C157.444 216.329 158.073 216.197 158.686 216.025C162.222 215.029 177.295 214.982 180.651 216.22C185.091 217.856 186.097 224.18 186.254 228.323V228.315Z" fill="#76935B"/>
<path d="M115.289 216.664C115.391 217.388 114.338 217.053 113.835 217.076C108.578 217.271 94.0623 216.453 90.4394 219.974C88.1211 222.224 88.0344 225.908 86.0776 228.315C85.9047 224.257 86.9343 218.291 91.0837 216.446C92.569 215.784 96.1762 215.519 97.9759 215.41C103.516 215.083 110.016 215.02 115.297 216.664H115.289Z" fill="#76935B"/>
<path d="M173.79 207.964C174.002 207.621 180.95 206.983 181.869 207.061C185.201 207.333 184.659 209.748 181.775 210.316C180.564 210.558 175.951 210.636 174.773 210.41C173.594 210.184 173.334 208.704 173.79 207.964Z" fill="#5C5C5D"/>
<path d="M98.0705 208.019C99.2022 209.109 97.9055 210.573 96.6638 210.714C95.9093 210.799 91.8856 210.503 90.9032 210.379C89.5358 210.215 87.0603 209.452 88.2156 207.559C88.6949 206.773 97.434 207.411 98.0705 208.019Z" fill="#5C5C5D"/>
<path d="M133.969 198.86C141.427 196.952 142.441 206.173 137.443 207.731C130.779 209.81 128.955 200.145 133.969 198.86Z" fill="#5C5C5D"/>
<path d="M100.036 228.759C101.577 228.759 102.825 227.514 102.825 225.979C102.825 224.443 101.577 223.198 100.036 223.198C98.4949 223.198 97.2456 224.443 97.2456 225.979C97.2456 227.514 98.4949 228.759 100.036 228.759Z" fill="#F3F3F4"/>
<path d="M172.25 228.751C173.786 228.751 175.032 227.506 175.032 225.971C175.032 224.435 173.786 223.19 172.25 223.19C170.713 223.19 169.468 224.435 169.468 225.971C169.468 227.506 170.713 228.751 172.25 228.751Z" fill="#F3F3F4"/>
<path d="M152.367 12.3848C152.194 13.3272 152.846 12.9845 153.451 13.0079C167.157 13.5453 181.216 12.6029 194.954 13.0079L196.832 13.6309C197.17 14.3863 197.688 15.3755 198.081 16.131C198.883 17.6653 199.276 17.2525 199.645 17.6964C204.848 23.8181 202.506 27.7433 202.467 34.8774C201.555 35.9522 202.254 38.2341 200.683 38.5457C195.181 39.636 188.384 39.1142 182.741 39.2466C182.741 38.8339 182.741 38.4133 182.741 38.0005C185.421 37.8525 188.588 38.3899 191.142 37.4787C192.973 36.8167 192.501 36.2871 191.503 35.0487C190.584 33.9116 188.439 32.2372 186.977 32.0658C183.165 31.6063 177.837 32.1437 173.805 32.0892C171.558 32.0581 168.862 31.7465 166.63 31.7543C164.116 31.7543 160.194 31.474 158.025 32.8759C157.216 33.3977 154.308 36.1235 155.015 37.1049C155.762 38.1329 162.222 38.0706 163.652 38.0161C163.675 38.2186 164.21 38.7716 163.967 39.2622C160.406 39.1766 156.681 39.457 153.153 39.2778C151.447 39.1844 148.202 38.9274 146.598 38.6314C144.862 38.3121 145.592 36.1236 144.555 35.1968C144.453 31.1624 143.297 25.2121 144.924 21.6607C145.207 21.0454 147.062 17.821 147.369 17.3849C147.447 17.2836 148.28 18.2027 149.247 16.1388C149.647 15.2899 149.671 14.1761 150.496 13.6387C151.102 13.2415 151.715 13.4907 152.375 12.3926L152.367 12.3848ZM197.139 17.6964C197.139 17.6964 197.185 17.4394 196.981 17.3927C196.683 17.4394 193.861 20.7027 192.753 21.1388C192.541 21.2245 192.069 21.0687 191.81 21.1388C190.953 21.1155 189.948 21.1233 189.303 21.7619C189.099 21.7775 188.887 21.7619 188.675 21.7619C188.234 21.1389 187.912 21.7386 187.731 21.7619C183.7 22.3538 178.481 22.9535 174.442 23.0236C167.786 23.1482 161.161 21.6685 154.544 21.7619C154.119 21.3803 153.467 21.0999 152.972 20.6715C152.233 20.0329 150.598 17.8288 149.75 18.0469C149.514 18.1092 146.103 20.9909 146.001 21.209C145.585 22.1046 145.435 23.7791 146.394 24.2619C144.932 23.9893 147.376 26.0844 147.478 26.1467C148.673 26.8711 151.707 26.9645 153.051 26.6919C154.19 26.4582 154.992 25.2199 156.257 25.181C158.198 25.1109 166.466 26.2947 168.21 27.019C170.536 27.977 170.34 29.9863 173.475 29.9085C176.43 29.8384 176.258 27.868 178.034 26.9412C179.558 26.1468 189.594 24.924 191.173 25.3445C192.061 25.586 192.784 26.4816 193.893 26.6841C195.661 27.0112 200.698 26.357 201.178 24.2541C201.303 23.6934 201.248 21.6606 201.013 21.1388C200.903 20.9052 197.476 17.8989 197.107 17.6964H197.139ZM154.559 31.1313C150.654 30.8353 147.321 29.4801 147.384 34.8462C151.078 36.0223 153.797 35.0176 154.559 31.1313ZM198.946 31.2091C198.003 30.3992 194.073 30.9522 192.761 31.1391C193.028 34.9476 196.706 36.2248 199.983 34.6905C200.03 34.3712 199.166 31.4039 198.946 31.2091Z" fill="#FE6E2F"/>
<path d="M202.152 47.3773C201.885 47.3539 200.486 48.3118 200.274 48.6234C199.449 48.6779 198.6 48.5689 197.767 48.6234C197.956 47.6966 196.966 47.642 197.139 48.6234C196.934 48.6312 196.722 48.6156 196.51 48.6234C196.573 47.9769 195.81 47.4707 195.26 47.3773C194.632 45.0563 195.072 42.5719 194.946 40.1887C189.366 40.8429 183.802 40.726 178.183 40.8039C172.061 40.8895 165.876 41.0843 159.707 40.8273C158.701 40.7883 152.674 39.8771 152.359 40.1887C152.288 42.5875 152.595 45.0252 152.045 47.3773C151.675 47.5097 151.267 47.9302 150.74 48.1093C150.017 48.3508 149.121 48.1171 148.595 48.6312C147.77 48.5844 146.913 48.7091 146.088 48.6312C146.088 47.8679 145.797 47.79 145.145 47.6965C145.003 46.9644 144.594 46.4504 144.508 45.6716C144.17 42.5173 144.603 38.4986 144.516 35.1963C145.553 36.1154 144.814 38.3117 146.559 38.631C148.17 38.927 151.408 39.1839 153.114 39.2774C156.642 39.4643 160.367 39.1761 163.927 39.2618C170.261 39.4176 176.368 39.4176 182.718 39.2618C188.36 39.1216 195.158 39.6512 200.659 38.5608C202.231 38.2493 201.532 35.9596 202.443 34.8926C202.443 34.9315 202.773 35.2508 202.765 35.648C202.687 39.5578 202.632 43.5065 202.129 47.3851L202.152 47.3773Z" fill="#3D3B36"/>
<path d="M196.832 13.6384L194.954 13.0154C194.356 9.64302 192.352 6.80025 190.505 4.01983L175.087 2.99961L156.964 3.99644C156.611 4.11326 154.835 6.91713 154.512 7.48568C153.648 8.99661 153.114 11.1539 152.375 12.3845C151.715 13.4826 151.102 13.2412 150.497 13.6306C151.023 11.2162 152.398 8.2333 153.813 6.16161C157.719 0.421627 161.522 2.82818 167.55 1.74561C174.442 2.08829 182.388 1.34847 189.154 2.39989C193.162 3.02296 195.457 10.5386 196.84 13.6306L196.832 13.6384Z" fill="#3D3B36"/>
<path d="M149.231 16.1384C148.265 18.2023 147.431 17.2832 147.353 17.3845C146.787 15.5231 144.791 16.3019 143.777 14.5495C141.938 11.3485 146.174 11.0292 148.437 11.4576C150.889 11.9249 148.17 14.7754 149.231 16.1384Z" fill="#18140F"/>
<path d="M198.081 16.1382C198.772 14.8687 196.988 12.688 198.207 11.73C198.953 11.1459 203.252 11.4652 203.668 12.1194C204.21 12.9683 203.417 15.1257 202.443 15.6475C201.154 16.3329 200.116 15.5853 199.645 17.7037C199.268 17.2675 198.882 17.6803 198.081 16.1382Z" fill="#18140F"/>
<path opacity="0.49" d="M152.367 12.3849C153.105 11.1621 153.64 8.99701 154.504 7.48607C154.826 6.91753 156.602 4.11366 156.956 3.99683L175.078 3L190.497 4.02022C192.344 6.79286 194.348 9.63563 194.946 13.0158C181.208 12.6108 167.149 13.5609 153.443 13.0158C152.838 12.9924 152.186 13.335 152.359 12.3927L152.367 12.3849Z" fill="#757575"/>
<path d="M192.76 21.1305V21.4421C192.187 21.9405 191.59 22.9842 190.89 23.4748C193.9 26.8394 197.539 25.196 201.217 24.2537C200.737 26.3487 195.7 27.0107 193.932 26.6836C192.824 26.4811 192.101 25.5777 191.212 25.344C189.633 24.9157 179.597 26.1463 178.072 26.9407C176.296 27.8675 176.477 29.8301 173.514 29.908C170.371 29.9859 170.567 27.9765 168.249 27.0185C166.504 26.2942 158.229 25.1182 156.296 25.1805C155.023 25.2272 154.229 26.4578 153.089 26.6914C151.745 26.964 148.704 26.8706 147.517 26.1463C147.415 26.084 144.971 23.9889 146.433 24.2615C147.981 25.0403 151.738 25.8191 153.412 25.4453C153.616 25.3986 156.029 24.0512 156.115 23.9188C156.476 23.397 154.96 22.1119 154.567 21.7614C161.184 21.6758 167.809 23.1478 174.465 23.0231C178.513 22.9453 183.723 22.3533 187.754 21.7614C188.069 21.7614 188.383 21.7614 188.698 21.7614C188.902 21.7614 189.122 21.777 189.326 21.7614C190.513 21.6602 190.843 21.4265 191.833 21.1383C192.085 21.0682 192.564 21.224 192.776 21.1383L192.76 21.1305Z" fill="#18140F"/>
<path d="M182.741 38.0079C182.733 36.9487 182.992 35.7727 181.633 35.5156C176.422 35.8973 170.458 34.986 165.342 35.4923C163.644 35.6558 163.416 36.2944 163.636 38.0079C162.206 38.0624 155.746 38.1247 154.999 37.0966C154.292 36.1231 157.208 33.3894 158.009 32.8676C160.178 31.4657 164.1 31.7538 166.614 31.746C168.854 31.746 171.542 32.0498 173.79 32.081C177.821 32.1355 183.149 31.6059 186.961 32.0576C188.423 32.2289 190.568 33.9034 191.487 35.0405C192.486 36.2788 192.957 36.8163 191.126 37.4705C188.572 38.3895 185.405 37.8443 182.725 37.9923L182.741 38.0079Z" fill="#3D3B36"/>
<path d="M182.741 38.0079C182.741 38.4207 182.741 38.8412 182.741 39.254C176.391 39.4098 170.285 39.4098 163.951 39.254C164.194 38.7556 163.66 38.2026 163.636 38.0079C163.416 36.2945 163.644 35.6558 165.342 35.4923C170.458 34.9861 176.423 35.8973 181.633 35.5157C182.993 35.7727 182.733 36.9487 182.741 38.0079Z" fill="#DAE1EF"/>
<path d="M201.209 24.2618C197.524 25.1964 193.893 26.8475 190.883 23.4829C191.591 22.9923 192.188 21.9487 192.754 21.4502C193.131 21.1231 194.262 20.6013 194.836 20.0873C195.559 19.4408 196.329 18.3349 197.139 17.6963C197.508 17.8988 200.942 20.905 201.044 21.1387C201.28 21.6605 201.335 23.701 201.209 24.254V24.2618Z" fill="#F7E0BB"/>
<path d="M154.559 21.7614C154.944 22.1119 156.469 23.397 156.108 23.9188C156.021 24.0434 153.608 25.3985 153.404 25.4453C151.73 25.8191 147.973 25.0402 146.425 24.2614C145.467 23.7785 145.616 22.1119 146.032 21.2085C146.135 20.9826 149.545 18.1087 149.781 18.0464C150.63 17.8283 152.264 20.0324 153.003 20.671C153.498 21.0994 154.151 21.3798 154.575 21.7614H154.559Z" fill="#F7E0BB"/>
<path d="M198.945 31.209C199.165 31.3959 200.03 34.3632 199.982 34.6903C196.705 36.2246 193.027 34.9474 192.76 31.1389C194.073 30.9598 198.002 30.4068 198.945 31.209Z" fill="#3D3B36"/>
<path d="M154.559 31.1313C153.797 35.0176 151.078 36.0222 147.384 34.8462C147.321 29.4801 150.653 30.8353 154.559 31.1313Z" fill="#3D3B36"/>
<path d="M191.819 21.1309C190.828 21.4191 190.506 21.6528 189.311 21.754C189.956 21.1154 190.962 21.1075 191.819 21.1309Z" fill="#72604A"/>
<path d="M197.138 17.6958C196.329 18.3345 195.558 19.4404 194.835 20.0868C194.262 20.5931 193.13 21.1227 192.753 21.4498V21.1382C193.861 20.7099 196.682 17.4388 196.981 17.3921C197.185 17.4388 197.122 17.6881 197.138 17.6958Z" fill="#72604A"/>
<path d="M188.69 21.7617C188.376 21.7617 188.061 21.7617 187.747 21.7617C187.928 21.7383 188.242 21.1386 188.69 21.7617Z" fill="#72604A"/>
<path d="M367.965 184.397C367.242 187.652 368.57 187.349 368.57 187.738V208.369C368.57 209.234 367.627 212.373 367.352 213.525C366.755 213.471 366.126 213.556 365.529 213.525C361.937 213.33 357.937 213.642 354.581 213.525C354.173 213.51 353.772 213.541 353.363 213.525V200.783H276.111C275.71 204.374 276.921 209.662 275.506 212.918C275.168 213.704 273.973 214.623 273.07 214.74C273.408 212.91 272.142 213.564 270.971 213.525C268.669 213.447 265.392 213.073 263.341 214.133C262.657 214.062 261.887 213.549 261.517 213.525L260.276 198.688C258.955 194.335 261.863 187.411 261.517 184.397C263.757 184.319 266.028 184.646 268.252 184.132C273.156 183.003 273.479 178.875 281.872 178.298C303.751 176.795 327.351 179.475 349.41 178.33C356.711 179.062 359.658 186.328 367.973 184.389L367.965 184.397ZM265.769 189.257C265.73 189.412 265.313 189.537 265.282 189.794C264.944 192.699 272.402 192.832 274.28 189.257C274.586 188.68 274.995 188.159 274.885 187.442C272.551 186.57 268.551 185.542 266.351 187.13C265.518 187.73 265.926 188.61 265.761 189.257H265.769ZM355.799 189.864C357.214 192.52 364.311 193.112 364.319 189.257C364.319 188.525 364.452 187.59 363.737 187.115C361.678 185.744 353.379 185.316 355.807 189.864H355.799Z" fill="#3D3B36"/>
<path d="M364.31 189.257C361.623 189.584 358.118 188.509 355.792 189.864C353.363 185.316 361.662 185.744 363.721 187.115C364.436 187.59 364.303 188.524 364.303 189.257H364.31Z" fill="#72604A"/>
<path d="M265.769 189.257C265.934 188.61 265.525 187.738 266.358 187.131C268.558 185.542 272.559 186.57 274.893 187.442C274.995 188.151 274.586 188.68 274.288 189.257H265.769Z" fill="#72604A"/>
<path d="M274.287 189.257C272.409 192.832 264.943 192.699 265.289 189.794C265.32 189.545 265.729 189.413 265.776 189.257H274.295H274.287Z" fill="#DAE1EF"/>
<path d="M364.311 189.257C364.311 193.112 357.207 192.52 355.792 189.864C358.118 188.509 361.615 189.584 364.311 189.257Z" fill="#DAE1EF"/>
<path d="M365.528 213.525C365.866 215.355 364.6 214.701 363.429 214.74C360.789 214.833 356.561 215.426 354.581 213.525C357.944 213.642 361.944 213.33 365.528 213.525Z" fill="#18140F"/>
<path d="M263.34 214.132C265.391 213.073 268.669 213.447 270.971 213.525C272.142 213.564 273.415 212.902 273.069 214.74C271.183 214.989 266.704 214.981 264.802 214.771C263.961 214.678 263.419 214.14 263.34 214.132Z" fill="#18140F"/>
<path d="M279.152 134.038C274.256 141.359 273.046 147.106 283.694 148.018C304.174 149.77 327.287 146.795 348.034 147.838C356.239 146.655 354.243 141.117 352.144 135.253C353.473 135.65 355.532 135.611 357.009 136.467C358.612 139.879 359.744 143.672 361.874 146.779C361.874 147.651 362.157 149.007 362.479 149.817C357.528 149.303 350.722 147.768 347.366 152.636C344.435 156.881 346.022 158.882 350.329 160.424C355.681 162.332 362.778 163.329 366.133 157.706C366.841 159.56 368.279 160.985 368.585 163.454C369.159 168.119 368.931 180.051 367.964 184.405C359.65 186.344 356.711 179.077 349.402 178.345C327.342 179.482 303.742 176.811 281.863 178.314C273.478 178.89 273.148 183.018 268.244 184.147C266.02 184.661 263.749 184.334 261.509 184.412C260.526 175.767 259.356 164.155 263.945 156.499C264.157 165.814 283.985 161.445 283.969 156.195C283.954 149.575 273.093 147.909 268.197 149.825C268.488 148.454 267.961 147.418 267.592 146.187C269.195 146.546 268.747 145.346 269.132 144.419C269.981 142.363 271.513 137.815 273.061 136.475C274.61 135.136 277.47 134.723 279.144 134.045L279.152 134.038ZM293.141 164.373V166.196C291.726 167.239 292.685 168.703 293.141 169.833C293.266 170.136 292.779 170.923 293.526 171.071H335.995C336.671 170.9 336.262 169.809 336.332 169.225C336.442 168.259 336.348 168.563 336.332 168.01C336.301 166.795 336.356 165.58 336.332 164.373C337.441 164.326 339.083 164.653 340.003 164.085C341.535 160.401 336.286 159.287 333.519 158.984C324.757 158.033 309.77 158.407 300.717 158.882C299.145 158.96 292.795 159.443 291.938 159.832C291.365 160.089 288.748 162.792 288.889 163.454C289.919 164.856 291.71 164.319 293.141 164.373Z" fill="#8AACF6"/>
<path d="M357.018 136.467C355.54 135.611 353.481 135.65 352.153 135.253C330.871 128.905 300.072 125.618 279.16 134.038C277.486 134.707 274.665 135.097 273.078 136.467C274.414 129.808 279.27 124.185 286.21 123.165C298.98 121.296 321.567 121.81 334.848 122.48C348.129 123.149 351.273 124.232 357.025 136.46L357.018 136.467Z" fill="#18140F"/>
<path d="M263.945 156.491C263.922 155.564 264.118 153.578 264.55 152.854C264.668 152.652 267.977 149.91 268.197 149.817C273.093 147.901 283.946 149.575 283.969 156.187C283.985 161.437 264.15 165.806 263.945 156.491ZM280.897 157.621C283.773 153.025 271.38 150.393 270.618 155.611C269.777 161.336 279.851 159.295 280.897 157.621Z" fill="#72604A"/>
<path d="M362.487 149.817C362.864 150.744 364.711 152.426 364.924 152.854C365.686 154.42 365.474 155.962 366.142 157.706C362.786 163.329 355.689 162.34 350.338 160.424C346.031 158.89 344.443 156.881 347.375 152.636C350.738 147.768 357.536 149.303 362.487 149.817ZM358.079 153.61C354.338 150.058 343.257 155.713 351.399 158.75C356.507 160.658 362.212 157.535 358.079 153.61Z" fill="#72604A"/>
<path d="M267.599 146.172C267.969 147.402 268.503 148.446 268.204 149.809C267.984 149.894 264.676 152.636 264.558 152.846C254.97 152.566 252.031 142.519 263.662 143.095C266.994 143.259 266.829 143.586 267.599 146.172Z" fill="#18140F"/>
<path d="M361.882 146.779C361.882 144.053 362.668 143.446 365.293 143.204C377.679 142.067 375.164 152.511 364.924 152.846C364.72 152.425 362.873 150.743 362.488 149.809C362.158 148.999 361.875 147.651 361.882 146.771V146.779Z" fill="#18140F"/>
<path d="M352.145 135.252C354.235 141.117 356.239 146.647 348.035 147.838C327.287 146.795 304.175 149.77 283.695 148.017C273.046 147.106 274.256 141.358 279.152 134.037C300.072 125.618 330.863 128.905 352.145 135.252Z" fill="#2E3233"/>
<path d="M336.333 164.373C336.356 165.588 336.301 166.803 336.333 168.01V169.225C336.262 169.809 336.679 170.9 335.995 171.079H293.526C292.779 170.923 293.267 170.136 293.141 169.833V164.373C306.744 164.926 322.721 164.918 336.325 164.373H336.333Z" fill="#DAE1EF"/>
<path d="M336.333 164.373C322.722 164.918 306.753 164.926 293.149 164.373C291.711 164.311 289.919 164.856 288.898 163.454C288.756 162.792 291.373 160.089 291.947 159.832C292.811 159.443 299.161 158.968 300.725 158.882C309.77 158.415 324.757 158.041 333.528 158.984C336.286 159.279 341.544 160.401 340.011 164.085C339.092 164.653 337.449 164.326 336.341 164.373H336.333Z" fill="#72604A"/>
<path d="M293.14 169.841C292.684 168.704 291.725 167.239 293.14 166.204V169.841Z" fill="#72604A"/>
<path d="M336.333 169.233V168.018C336.348 168.571 336.441 168.267 336.333 169.233Z" fill="#72604A"/>
<path d="M280.897 157.62C279.851 159.287 269.777 161.327 270.618 155.611C271.38 150.4 283.781 153.033 280.897 157.62Z" fill="#F7E0BB"/>
<path d="M358.078 153.61C362.212 157.535 356.506 160.658 351.398 158.75C343.257 155.713 354.337 150.058 358.078 153.61Z" fill="#F7E0BB"/>
<path d="M194.905 80.4701C194.905 80.4701 194.866 80.4389 194.842 80.4233C196.178 78.5619 196.941 76.3424 197.468 74.1227C197.334 73.9202 195.448 74.4185 195.086 74.4108C194.89 74.4108 194.992 74.3095 195.008 74.1771L199.008 69.0757C198.929 68.9199 198.929 68.9278 198.764 68.9278C198.261 68.9433 195.204 69.4417 195.07 69.2626C195.173 69.0523 195.393 68.8498 195.558 68.6863C196.053 68.18 196.611 67.7206 197.106 67.2222C197.774 66.5602 199.126 65.3919 199.621 64.7221C199.699 64.6209 199.723 64.5119 199.738 64.3873C198.599 64.3873 197.46 64.2392 196.312 64.2158C192.752 64.1457 188.697 64.6599 185.31 65.7191C184.94 65.8359 182.536 66.7159 182.363 66.8639C182.331 66.8951 182.229 67.0275 182.237 67.0352C183.015 67.0976 183.762 67.3078 184.532 67.4169C184.634 67.4324 184.736 67.2766 184.666 67.5102C182.347 68.7174 179.99 70.4464 178.685 72.7751C178.316 73.4371 177.695 74.9248 177.569 75.6414C177.537 75.8283 177.687 76.0931 177.569 76.2333C177.537 76.2722 177.491 76.2955 177.443 76.3111L177.302 77.6118C177.388 77.6352 177.475 77.6507 177.553 77.6896C177.514 79.7379 178.669 81.6305 180.17 82.9545C180.17 82.9779 180.154 83.0401 180.123 83.1024C180.445 83.3672 180.752 83.7645 181.082 83.9358C181.121 83.8813 181.145 83.8268 181.184 83.7723C181.813 83.8424 182.198 84.3643 182.842 84.411C184.06 85.1275 185.546 84.9639 186.897 85.1041C186.905 85.1119 186.913 85.1663 186.913 85.2364C187.314 85.1897 187.746 85.1431 188.147 85.1898C188.17 85.073 188.202 84.9873 188.257 84.9328C190.591 84.5589 192.611 83.1959 194.104 81.3968C194.112 81.3968 194.135 81.4124 194.143 81.4124C194.198 81.319 194.269 81.2254 194.347 81.1398C194.45 80.8672 194.638 80.618 194.874 80.4311L194.905 80.4701Z" fill="#FCCA59"/>
<path d="M177.593 76.2567C177.593 76.2567 177.664 70.61 184.682 67.5259L182.254 67.0509C182.254 67.0509 187.605 63.6239 199.755 64.4027L195.087 69.2704L199.016 69.0757L195.016 74.1771L197.476 74.1149C197.476 74.1149 196.227 83.2895 188.297 84.964C188.297 84.964 183.983 85.9531 180.202 82.9779C176.422 80.0028 177.601 76.2567 177.601 76.2567H177.593Z" stroke="#EAECA2" stroke-miterlimit="10"/>
<path d="M201.594 77.3156C199.928 77.9854 197.617 78.6241 195.118 79.1148C194.67 78.9746 194.065 78.8344 193.586 78.6942C193.389 78.6319 193.208 78.5774 193.083 78.5151C194.026 78.4216 197.027 77.5649 197.625 77.3546C198.678 76.9808 201.161 75.3374 203.33 75.9449C204.446 76.2564 202.529 76.9418 201.601 77.3156H201.594Z" fill="#FCCA59"/>
<path d="M177.389 76.397C176.462 76.4749 175.424 76.6461 174.638 77.0823C174.025 77.4172 171.959 78.9282 172.98 79.5591C173.876 80.1043 174.426 78.8969 175.031 78.453C175.723 77.939 177.035 77.4951 177.994 77.7209L178.136 76.4204C177.923 76.4827 177.609 76.3892 177.389 76.4126V76.397Z" fill="#FCCA59"/>
<path d="M187.047 84.341C187.047 84.8395 186.874 86.3581 186.835 86.6152C186.756 87.1759 186.387 88.3832 186.418 88.8271C186.45 89.3178 187.307 89.528 187.645 89.5202C187.715 89.5202 188.266 89.0685 188.281 88.9594C188.368 88.4065 188.085 88.2509 187.967 87.9471C187.825 87.5966 188.163 86.0233 188.226 85.5015C188.258 85.2133 188.226 84.6371 188.281 84.2477C187.888 84.2009 187.448 84.2631 187.047 84.3332V84.341Z" fill="#FCCA59"/>
<path d="M179.362 83.8891C179.174 84.333 178.922 85.4857 178.694 85.8128C178.576 85.9919 178.285 85.9219 178.191 86.0933C178.128 86.2179 178.002 86.6851 178.01 86.8409C178.034 87.5341 178.781 87.7367 179.252 87.7211C179.37 87.7211 179.771 87.2459 179.818 87.02C179.928 86.4437 179.944 86.3813 180.117 85.8206C180.423 84.8159 180.722 83.9048 181.21 83.0169C180.879 82.8066 180.581 82.3237 180.266 82.0044C180.093 82.4717 179.488 83.5932 179.362 83.8969V83.8891Z" fill="#FCCA59"/>
<path d="M192.66 76.0151C192.786 77.1912 191.481 77.9388 190.585 77.1132C190.302 76.8562 190.129 76.389 190.247 76.0151H192.668H192.66Z" fill="black"/>
<path d="M182.474 73.313L184.612 74.0762L184.691 74.1852C184.361 75.478 182.474 75.4002 182.278 74.0762C182.254 73.9049 182.27 73.313 182.474 73.3208V73.313Z" fill="black"/>
<path d="M187.008 80.1848C187.415 79.16 187.099 78.0778 186.303 77.7676C185.508 77.4573 184.533 78.0367 184.126 79.0614C183.719 80.0862 184.035 81.1685 184.831 81.4787C185.627 81.7889 186.601 81.2096 187.008 80.1848Z" fill="black"/>
<path d="M121.693 68.3122C122.409 68.2343 122.188 67.9384 122.416 67.5879C123.202 66.4041 123.815 65.2203 124.955 64.2935C125.631 64.5193 124.821 64.9633 124.711 65.158C124.373 65.7344 123.493 67.323 123.359 67.8994C123.343 67.9772 123.375 68.0864 123.359 68.1798C122.95 68.1331 123.132 68.2344 123.084 68.4603C123.077 68.507 123.092 68.5537 123.084 68.6004L122.943 68.8807C122.927 68.9196 122.958 68.9743 122.943 69.021C122.432 69.0522 122.369 69.7453 122.251 70.1269C122.228 70.2048 122.275 70.3295 122.251 70.4074C121.827 70.3762 121.921 70.6565 121.819 70.8745C121.489 71.5833 120.962 72.549 120.86 73.1799C120.703 74.1378 120.483 74.247 120.161 75.0492C119.587 76.49 119.005 77.9541 118.495 79.4183C118.259 79.4027 118.172 79.3716 118.219 79.6286L118.361 79.6988C118.267 79.9791 118.172 80.2518 118.086 80.5322C117.669 80.4465 117.842 80.7423 117.772 80.976C117.677 81.2797 117.143 82.4402 117.277 82.5882C117.332 82.6505 117.512 82.5882 117.528 82.6116C117.552 82.6349 117.45 82.9464 117.732 82.9074L120.444 82.6116C120.538 82.6116 120.632 82.6116 120.719 82.6116C122.715 82.6272 124.695 82.3936 126.691 82.4714C126.566 82.9465 125.355 82.8297 125.3 82.8842C125.277 82.9076 125.277 83.4838 125.324 83.5539C125.402 83.6785 125.96 83.7019 126.141 83.7097C126.235 83.7097 126.33 83.7097 126.416 83.7097C126.864 83.9433 127.807 83.9433 128.224 83.7097C128.813 83.6941 129.371 83.5929 129.89 83.5695C130.306 83.811 131.014 83.7252 131.493 83.7097C131.76 83.7019 132.051 83.85 131.972 83.4294C132.711 83.3904 133.458 83.4605 134.196 83.4294C134.503 83.6552 135.014 83.6552 135.305 83.4294C136.153 83.445 137.214 83.3436 138.087 83.2891C139.116 83.5305 140.861 83.5774 141.796 83.04C142.346 82.7207 142.385 82.5415 141.977 82.043C142.165 81.9106 143.187 82.3311 143.085 81.7626C143.776 81.7548 144.476 81.7704 145.167 81.7626H163.093C163.651 81.7626 164.209 81.7548 164.759 81.7626L165.317 82.043C165.365 82.0898 164.539 82.635 165.593 83.079C166.528 83.4762 168.217 83.5539 169.208 83.2891C170.041 83.3436 170.873 83.3982 171.707 83.4294C172.076 83.663 172.728 83.663 173.098 83.4294C173.836 83.4605 174.583 83.3982 175.322 83.4294C175.243 83.8811 175.55 83.6629 175.809 83.7019C177.239 83.8888 178.67 83.8656 180.116 83.85C180.351 83.85 180.736 83.9355 180.878 83.7097C180.972 83.7097 181.066 83.7097 181.153 83.7097C181.169 83.7097 181.255 83.8655 181.459 83.8344C182.072 83.7176 182.442 83.2191 182.261 82.6038C184.752 82.8374 187.267 82.7051 189.766 82.8842C189.79 82.7986 189.742 82.6661 189.766 82.6038C189.782 82.5648 189.758 82.5104 189.766 82.4636C190.128 80.758 188.689 79.4261 188.54 78.0631C188.509 77.7905 188.705 77.2766 188.65 77.2065C188.611 77.1598 188.179 77.1443 188.116 77.043C187.982 76.8249 188.257 76.1082 187.542 76.0927C187.534 76.0459 187.542 75.9993 187.542 75.9525C187.314 74.4961 186.568 73.5772 186.112 72.3155C186.01 72.0273 185.813 71.3185 185.876 71.0537C185.892 70.9914 186.363 70.8591 186.159 70.4074C186.898 70.4151 186.434 71.1861 186.481 71.4587C186.513 71.6378 187.196 71.6535 187 72.5336C186.968 72.6815 186.591 72.5335 186.717 72.8996L187.55 72.7594C187.621 72.9464 187.558 73.7796 187.589 73.8419C188.053 74.8155 188.76 75.9603 189.153 77.0506C189.224 77.2531 189.617 78.3047 189.632 78.3748C189.68 78.6006 189.57 79.1925 189.648 79.2626C189.695 79.3093 189.986 79.2314 190.033 79.2782C190.065 79.3093 190.065 79.9635 190.143 80.2205C190.481 81.3031 191.424 82.7907 191.809 83.9589C192.045 84.691 192.037 85.8827 192.304 86.5057C192.359 86.6303 193.043 87.565 193.153 87.6818C193.68 88.227 194.474 88.3594 194.356 89.2472C194.615 89.2472 194.371 88.7643 194.772 89.0369C194.953 89.6211 195.582 90.0805 195.833 90.54C196.014 90.8749 195.668 91.0697 196.438 91.1865C196.454 91.2255 196.423 91.2799 196.438 91.3267C196.58 91.7316 196.438 92.6585 197.13 92.713C197.146 92.7519 197.122 92.8064 197.13 92.8531C197.295 93.5385 197.743 94.2629 198.096 94.8938C198.882 96.2801 199.825 97.8299 200.179 99.3253C200.368 100.127 200.894 101.833 200.894 102.487C200.894 103.671 200.761 105.447 200.596 106.631C200.321 108.562 200.289 110.821 200.179 112.869C200.155 113.337 200.092 114.061 200.328 114.466C200.328 114.559 200.328 114.653 200.328 114.746C199.912 114.668 200.061 114.956 200.053 115.221C200.022 116.234 199.975 117.106 200.053 118.072C200.077 118.344 200.038 118.633 200.053 118.905C199.543 119.793 199.794 121.249 199.778 122.309C199.763 123.5 199.621 123.999 199.833 125.292C199.935 125.907 200.313 126.07 200.038 126.841C199.998 126.958 199.833 126.958 199.786 127.06C199.354 128.002 198.741 129.154 197.601 129.287C197.106 129.349 196.423 129.334 195.951 129.162C195.173 128.874 194.615 128.228 193.452 128.197C191.031 128.119 188.525 128.508 186.088 128.477C185.609 128.477 184.124 128.516 183.88 128.477C183.786 128.461 183.809 128.22 183.699 128.197C183.408 128.126 181.821 128.072 181.357 128.049C177.396 127.87 173.239 128.446 169.412 128.337C169.066 128.329 168.83 127.979 168.453 128.041L168.657 128.321H167.549L167.62 128.049C167.384 128.189 167.038 128.282 166.763 128.306C165.749 128.399 164.712 128.306 163.73 128.313C154.126 128.461 144.468 128.352 134.959 128.189C131.265 128.126 127.65 127.869 123.949 128.282C122.031 128.5 118.416 128.461 116.224 128.321C116.137 128.321 116.153 128.049 116.058 128.033C115.681 127.979 113.394 128.352 112.868 128.446C112.601 128.493 112.247 128.399 112.066 128.446C111.925 128.485 111.995 128.796 111.846 128.944C111.61 129.186 111.068 128.975 111.147 129.427C110.958 129.427 110.777 129.427 110.589 129.427C110.227 129.419 110.282 129.357 109.755 129.427C109.653 129.443 109.221 129.443 109.198 129.427C109.088 129.341 109.441 129.318 108.923 129.147C108.876 129.131 108.82 129.162 108.781 129.147C108.86 128.524 108.38 128.524 108.09 128.313C107.956 128.22 107.736 128.08 107.673 128.033C107.791 127.48 107.304 127.207 107.249 126.724C107.17 126.047 107.492 125.276 107.532 124.575C107.555 124.256 107.532 123.928 107.532 123.601C107.532 123.508 107.39 123.469 107.39 123.461C107.39 123.228 107.39 123.002 107.39 122.768C107.39 122.215 107.555 121.467 107.532 120.751C107.524 120.486 107.673 120.198 107.257 120.276C107.249 120.042 107.264 119.816 107.257 119.583C107.485 119.435 107.398 119.053 107.398 118.819C107.445 114.785 106.793 110.797 106.84 106.755C106.848 105.867 106.73 106.265 106.691 105.93C106.588 105.128 106.416 102.16 106.565 101.514C106.589 101.413 106.793 101.436 106.832 101.311C107.147 100.283 107.437 99.0605 107.665 98.0013C107.72 97.7443 107.618 97.4249 107.673 97.2147C107.712 97.0511 108.373 96.8097 108.467 96.6695C108.498 96.6306 108.435 96.0153 108.585 95.735C108.655 95.587 109.056 94.8158 109.095 94.7768C109.15 94.7223 109.386 94.7925 109.449 94.738C109.544 94.6446 109.756 93.4918 109.85 93.2659C110.038 92.822 111.17 91.4358 111.453 90.8361C112.003 89.7068 111.539 90.0805 112.522 89.1225C112.97 88.6786 113.056 88.1569 113.095 88.1102C113.158 88.0479 113.552 88.1802 113.756 88.0712C115.053 87.3625 115.076 85.2907 115.414 84.1147C115.799 82.7829 116.514 81.42 116.994 80.1505C117.167 79.7066 117.292 78.7409 117.473 78.406C117.591 78.1879 117.889 78.1722 117.937 78.1099C118.023 77.9775 118.542 75.4698 118.66 75.0803C118.675 75.0414 118.644 74.9867 118.66 74.94C119.045 74.683 119.406 74.0132 119.595 73.5849C120.349 71.8948 121.08 70.0958 121.717 68.4213C121.732 68.3824 121.701 68.3201 121.717 68.2812L121.693 68.3122ZM190.89 83.2813H190.615V83.6941H190.89V83.2813ZM152.398 90.3531C151.58 91.7628 154.26 91.8017 154.842 91.3344C155.242 91.0151 154.92 90.3531 154.692 90.3531H152.398ZM111.689 92.9857C111.257 93.305 111.17 93.0946 110.66 93.8345C109.614 95.3454 109.52 97.8532 110.573 99.442C111.304 100.556 117.795 103.087 119.336 103.593C121.324 104.24 123.847 104.458 125.937 104.216C126.574 104.146 127.273 103.866 127.061 103.103C126.833 102.3 125.969 101.124 125.591 100.268C125.159 99.2707 124.601 97.7209 124.483 96.6617C124.444 96.2645 124.609 95.0261 124.35 94.8548C123.446 94.7457 122.44 94.4888 121.591 94.1461C120.216 93.5854 118.369 93.0401 116.695 92.5105C116.498 92.4482 116.334 92.2224 116.192 92.199C115.972 92.1679 115.689 92.3625 115.398 92.3002C115.296 92.2768 115.32 92.0433 115.21 92.0199C114.07 91.7551 112.789 92.0198 111.838 92.6506C111.697 92.7441 111.705 92.9701 111.689 92.9857ZM194.466 92.0509C193.428 91.6226 189.853 92.643 188.634 92.9935C188.383 93.0636 187.817 93.3049 187.385 93.4373C185.923 93.889 184.461 94.3641 183 94.808C182.685 95.4155 182.898 96.1243 182.819 96.7785C182.67 97.9234 182.072 99.3486 181.609 100.423C181.326 101.07 179.943 103.274 180.265 103.796C180.391 103.998 181.121 104.177 181.381 104.209C183.063 104.395 185.601 104.271 187.22 103.796C189.122 103.235 195.071 101.015 196.352 99.777C196.383 99.7459 196.855 99.1539 196.878 99.115C197.759 97.5729 197.437 94.808 196.368 93.4061C195.88 92.7674 195.479 92.7207 194.843 92.4325C194.607 92.3313 194.505 92.0587 194.481 92.0431L194.466 92.0509ZM134.754 107.814C136.287 108.453 138.849 108.858 140.539 109.045C148.46 109.925 156.5 109.964 164.421 109.201C169.451 108.71 173.915 108.617 176.768 104.053C177.247 103.282 177.341 102.744 177.664 102.036C178.449 100.307 179.628 98.523 179.345 96.537C179.173 95.3298 178.45 94.9638 177.326 94.808C174.292 94.3796 171.212 94.4575 168.029 94.3796C156.909 94.1304 145.82 94.1851 134.684 94.372L128.884 94.9405C128.342 95.4312 128.028 95.7426 127.949 96.5292C127.682 99.0214 130.228 104.037 131.98 105.813C132.381 106.226 133.057 106.568 133.505 106.989C133.701 107.176 133.458 107.386 134.196 107.542C134.283 107.558 134.385 107.526 134.472 107.542C134.393 107.955 134.613 107.768 134.747 107.822L134.754 107.814ZM110.856 125.284C112.954 126.086 115.43 126.179 117.724 126.257C120.279 126.343 122.699 126.639 124.884 125.284L127.87 125.556C144.633 126.257 161.411 126.234 178.174 125.556C179.298 125.51 181.42 125.159 182.41 125.408C183.118 125.587 183.707 126.125 184.438 126.226C185.782 126.413 188.273 126.296 189.711 126.242C191.982 126.156 194.356 126.063 196.446 125.268C196.666 125.182 196.933 125.401 197.287 125.066C197.342 125.019 198.002 123.952 198.033 123.874C198.772 121.958 197.067 115.229 195.786 113.516C193.648 110.673 187.786 111.272 184.564 111.545C182.151 111.748 178.276 111.888 176.571 113.555H130.581C129.772 112.285 128.004 112.176 126.605 111.981C123.54 111.553 116.349 110.836 113.677 111.942C112.64 112.371 111.681 113.126 111.107 114.092C110.054 115.86 108.679 121.974 109.292 123.851C109.331 123.975 109.936 125.003 110.007 125.073C110.361 125.408 110.628 125.19 110.848 125.276L110.856 125.284Z" fill="#9E1B22"/>
<path d="M107.241 119.599C107.249 119.832 107.233 120.058 107.241 120.292C107.273 121.094 107.1 122.044 107.383 122.784C107.383 123.018 107.383 123.244 107.383 123.477L107.524 123.617C107.524 123.937 107.547 124.272 107.524 124.591C107.155 124.513 107.249 124.778 107.178 125.004C106.817 126.227 106.51 127.146 107.657 128.057C107.72 128.104 107.941 128.244 108.074 128.337C108.106 128.672 108.475 129.023 108.766 129.171C108.797 129.186 108.86 129.155 108.907 129.171C108.876 129.467 108.891 129.482 109.182 129.451C109.206 129.466 109.638 129.466 109.74 129.451C109.882 129.677 110.439 129.677 110.573 129.451C110.762 129.451 110.942 129.451 111.131 129.451C112.168 129.466 113.34 129.319 114.33 129.591C113.583 129.669 112.727 129.529 111.972 129.591C111.901 130.012 112.074 129.809 112.31 129.871C114.188 130.339 114.911 129.505 116.499 129.326C117.465 129.217 118.746 129.295 119.752 129.311C119.917 129.311 120.153 129.311 120.31 129.311C120.404 129.311 120.499 129.311 120.585 129.311C120.593 130.666 120.467 135.674 119.273 136.39C119.139 136.468 119.021 136.538 118.856 136.523C115.367 136.266 111.437 136.842 108.003 136.523C107.571 136.484 107.123 136.328 106.824 135.993C105.936 134.988 106.156 131.383 106.133 130.004C106.046 124.108 106.502 118.275 106.691 112.402C106.974 112.979 106.793 113.773 106.824 114.42C106.832 114.599 106.966 114.778 106.966 114.832V116.912C106.966 117.652 107.21 118.867 107.241 119.614V119.599Z" fill="#252222"/>
<path d="M201.17 129.996C201.146 131.367 201.351 134.685 200.612 135.752C200.282 136.235 199.873 136.468 199.3 136.523C195.857 136.842 191.944 136.266 188.446 136.523C188.329 136.523 188.218 136.491 188.108 136.445C186.882 135.892 186.67 130.861 186.717 129.583C186.733 129.583 186.851 129.451 186.993 129.443C187.181 129.443 187.362 129.443 187.55 129.443C188.541 129.427 189.491 129.217 190.537 129.303C192.226 129.451 192.934 130.237 194.875 129.871C195.134 129.825 195.417 129.988 195.339 129.576C196.195 129.552 197.704 129.724 198.427 129.396C199.236 129.038 200.541 127.254 200.494 126.312C200.47 125.899 200.266 125.751 200.219 125.471C199.818 123.322 200.195 121.016 200.07 118.898C200.054 118.625 200.093 118.337 200.07 118.064C200.455 116.997 200.289 115.837 200.344 114.739C200.344 114.645 200.344 114.552 200.344 114.458C200.344 114.443 200.478 114.303 200.486 114.123C200.517 113.516 200.329 112.737 200.62 112.239C200.753 118.15 201.264 124.038 201.178 129.981L201.17 129.996Z" fill="#252222"/>
<path d="M193.39 86.7472C192.282 86.7238 192.604 85.353 192.415 84.6676L193.664 84.5275C193.492 83.3436 192.384 79.2782 193.932 78.7642C195.126 78.367 199.873 79.3561 200.934 80.1115C201.995 80.867 202.239 83.6629 202.136 84.8701C202.081 85.5009 202.066 86.0774 201.366 86.1787C199.119 86.5214 196.816 86.2954 194.569 86.4667C194.152 86.4979 193.806 86.755 193.39 86.7472Z" fill="#252222"/>
<path d="M114.188 86.8878L112.593 86.475C110.22 86.5451 107.862 86.3971 105.52 86.0466C104.719 85.4703 105.3 81.0778 106.133 80.2989C107.139 79.3565 111.941 78.4531 113.261 78.7491C115.022 79.1463 113.701 83.4453 113.646 84.6681H114.896C114.597 85.6105 114.848 85.8675 114.204 86.8878H114.188Z" fill="#252222"/>
<path d="M192.415 84.6678C192.596 85.3532 192.274 86.724 193.39 86.7474C193.335 87.0667 193.421 87.199 193.586 87.4483C194.419 88.6399 195.912 89.6134 196.439 91.1789C195.669 91.0621 196.022 90.8673 195.834 90.5324C195.582 90.0729 194.953 89.6134 194.773 89.0293C194.372 88.7567 194.616 89.2396 194.356 89.2396C194.474 88.344 193.672 88.2115 193.154 87.6742C193.044 87.5651 192.36 86.6227 192.305 86.4981C192.038 85.875 192.046 84.6834 191.81 83.9513C191.425 82.7831 190.482 81.2877 190.144 80.2129C190.065 79.9559 190.065 79.3095 190.034 79.2705C189.987 79.216 189.696 79.3017 189.649 79.2549C189.57 79.1771 189.672 78.5852 189.633 78.3672C189.617 78.2971 189.232 77.2457 189.154 77.0432C188.761 75.9528 188.053 74.8078 187.59 73.8343C187.558 73.772 187.621 72.9387 187.55 72.7518L186.717 72.892C186.584 72.5181 186.961 72.6739 187 72.5259C187.197 71.6381 186.513 71.6302 186.482 71.451C186.435 71.1785 186.898 70.4153 186.159 70.3997C186.364 70.8515 185.892 70.9837 185.877 71.046C185.814 71.3108 186.01 72.0197 186.112 72.3078C186.568 73.5695 187.315 74.4807 187.543 75.9449C187.236 75.6801 187.032 75.1271 186.867 74.7455C185.578 71.8327 183.212 65.7034 181.012 63.7485C180.784 63.546 180.525 62.9385 180.941 63.0553C183.204 63.7251 185.68 68.0553 186.67 70.0959C188.564 73.9822 191.307 80.5633 192.407 84.6756L192.415 84.6678Z" fill="#7C262A"/>
<path d="M118.637 75.104C118.519 75.4934 118.008 78.0014 117.914 78.1338C117.866 78.1961 117.568 78.2116 117.45 78.4296C117.277 78.7567 117.143 79.7225 116.97 80.1742C116.491 81.4437 115.768 82.8067 115.391 84.1385C115.053 85.3146 115.029 87.3863 113.732 88.095C113.528 88.2041 113.135 88.0717 113.072 88.134C113.025 88.1808 112.947 88.7024 112.499 89.1463C111.516 90.1043 111.98 89.7306 111.43 90.8599C111.139 91.4596 110.015 92.8458 109.827 93.2898C109.733 93.5156 109.52 94.6684 109.426 94.7619C109.363 94.8242 109.127 94.7462 109.072 94.8007C109.033 94.8396 108.632 95.6106 108.562 95.7586C108.42 96.0468 108.475 96.6544 108.444 96.6934C108.341 96.8336 107.689 97.075 107.65 97.2385C107.595 97.4488 107.689 97.7681 107.642 98.0251C107.422 99.0843 107.131 100.299 106.809 101.335C106.77 101.452 106.565 101.436 106.542 101.538C106.385 102.184 106.558 105.159 106.668 105.954C106.707 106.281 106.825 105.891 106.817 106.779C106.77 110.821 107.422 114.809 107.375 118.843C107.375 119.077 107.461 119.459 107.233 119.607C107.202 118.859 106.958 117.644 106.958 116.904V114.824C106.958 114.778 106.825 114.599 106.817 114.412C106.785 113.765 106.966 112.971 106.683 112.395C106.817 108.181 105.669 103.898 106.754 99.7853C107.469 97.0672 110.448 91.0778 112.255 88.9516C112.884 88.2118 113.646 87.7523 114.188 86.8956C114.841 85.8753 114.589 85.626 114.88 84.6759C115.736 81.95 117.018 78.7102 118.11 76.0465C118.244 75.7272 118.377 75.3532 118.637 75.1118V75.104Z" fill="#7C262A"/>
<path d="M200.613 112.254C200.322 112.753 200.518 113.532 200.479 114.139C200.471 114.318 200.337 114.458 200.337 114.474C200.109 114.061 200.164 113.337 200.188 112.877C200.298 110.829 200.329 108.563 200.604 106.639C200.777 105.455 200.903 103.679 200.903 102.496C200.903 101.841 200.385 100.143 200.188 99.3335C199.834 97.8381 198.891 96.2883 198.105 94.902C197.751 94.2789 197.303 93.5467 197.138 92.8613C197.421 93.1339 197.743 93.5935 197.948 93.9284C199.889 97.0515 201.123 100.284 201.037 104.03C200.974 106.779 200.55 109.505 200.613 112.27V112.254Z" fill="#7C262A"/>
<path d="M176.438 62.9074C176.548 61.4977 177.718 61.0382 178.732 62.074L178.591 61.3887L179.345 62.4713C179.471 62.6971 179.723 63.9587 179.786 64.021C179.856 64.0911 180.673 63.9821 180.893 64.021C181.043 64.6752 179.833 63.9199 179.919 64.5742C179.416 64.4573 179.581 63.9744 179.502 63.7408C179.447 63.5772 179.448 63.5928 179.361 63.4604C179.298 63.3591 179.015 63.2111 178.944 63.0476L178.457 62.3544L177.837 63.0476C177.373 63.0086 176.925 62.9385 176.446 62.9074H176.438ZM178.866 62.2142V62.3544C178.953 62.3077 178.953 62.2609 178.866 62.2142Z" fill="#909195"/>
<path d="M121.693 68.3123C122.236 66.9104 124.405 63.9042 125.803 63.3357C126.456 63.0709 126.911 63.1176 126.275 63.7407C125.088 64.8934 124.562 66.007 123.752 67.5335C123.65 67.7282 123.697 67.9696 123.359 67.8995C123.493 67.3232 124.373 65.7345 124.711 65.1582C124.821 64.9635 125.631 64.5195 124.955 64.2936C123.815 65.2204 123.202 66.3965 122.416 67.5881C122.181 67.9385 122.401 68.2344 121.693 68.3123Z" fill="#7C262A"/>
<path d="M118.637 74.964C119.1 73.4843 119.839 71.7943 120.516 70.3924C120.83 69.7382 121.152 68.936 121.695 68.4531C121.058 70.1276 120.327 71.9266 119.572 73.6167C119.383 74.045 119.022 74.7148 118.637 74.9718V74.964Z" fill="#7C262A"/>
<path d="M128.225 63.0474C128.225 63.5147 127.785 64.4883 127.25 64.574L126.834 64.0209L127.368 63.9977L127.942 62.3543C128.06 62.3387 128.217 63.0085 128.217 63.0474H128.225Z" fill="#909195"/>
<path d="M197.138 92.7052C196.447 92.6507 196.58 91.7238 196.446 91.3188C196.776 91.7083 196.997 92.2223 197.138 92.7052Z" fill="#7C262A"/>
<path d="M175.605 62.9074C175.425 62.8918 175.22 62.7828 175.047 62.7672C175.338 62.4401 175.558 62.4089 175.605 62.9074Z" fill="#909195"/>
<path d="M126.559 64.2935C126.511 64.387 126.323 64.2156 126.425 64.0209C126.472 63.9274 126.661 64.0988 126.559 64.2935Z" fill="#909195"/>
<path d="M176.164 62.9074C176.116 62.9074 176.069 62.9074 176.022 62.9074L175.952 62.4946L176.164 62.9074Z" fill="#909195"/>
<path d="M181.161 64.021C181.161 64.021 181.027 63.951 181.02 63.8809L181.161 64.021Z" fill="#909195"/>
<path d="M110.857 125.284C110.637 125.198 110.37 125.416 110.016 125.082C109.945 125.011 109.34 123.983 109.301 123.859C108.688 121.982 110.056 115.86 111.117 114.1C111.69 113.142 112.656 112.379 113.686 111.95C116.358 110.844 123.557 111.561 126.614 111.989C128.013 112.184 129.781 112.293 130.59 113.57H176.58C178.286 111.904 182.16 111.763 184.573 111.561C187.787 111.288 193.658 110.689 195.795 113.531C197.084 115.245 198.781 121.974 198.043 123.89C198.011 123.976 197.343 125.035 197.296 125.082C196.934 125.416 196.675 125.198 196.455 125.284C196.479 125.035 196.455 124.739 196.117 124.739C195.606 124.731 194.711 124.972 194.16 125.011C191.764 125.175 187.26 125.627 185.052 125.229C181.673 124.614 178.073 118.695 173.869 118.921H133.711C129.318 118.516 125.757 124.567 122.26 125.229C120.122 125.634 115.502 125.175 113.152 125.011C112.602 124.972 111.698 124.731 111.195 124.739C110.865 124.739 110.841 125.043 110.857 125.284Z" fill="#252222"/>
<path d="M182.412 125.416C181.422 125.167 179.3 125.518 178.176 125.564C161.413 126.234 144.643 126.265 127.872 125.564L124.885 125.292C127.989 123.368 130.033 120.214 133.986 119.887H173.036C174.254 119.965 175.441 120.284 176.526 120.829C178.553 122.262 180.487 123.843 182.404 125.432L182.412 125.416Z" fill="#252222"/>
<path d="M196.447 125.284C194.357 126.086 191.984 126.18 189.712 126.257C188.274 126.312 185.783 126.421 184.439 126.242C183.708 126.141 183.119 125.603 182.412 125.424C180.494 123.843 178.561 122.254 176.533 120.821C175.441 120.276 174.262 119.957 173.044 119.871H133.994C130.041 120.198 127.989 123.36 124.893 125.284C122.708 126.639 120.288 126.351 117.734 126.257C115.431 126.18 112.963 126.086 110.865 125.284C110.841 125.035 110.865 124.739 111.203 124.739C111.714 124.731 112.61 124.972 113.16 125.011C115.51 125.175 120.123 125.634 122.268 125.229C125.766 124.567 129.325 118.508 133.718 118.913H173.877C178.074 118.695 181.673 124.614 185.06 125.229C187.261 125.627 191.771 125.183 194.168 125.011C194.718 124.972 195.622 124.731 196.125 124.739C196.455 124.739 196.479 125.043 196.463 125.284H196.447Z" fill="#D2D2D4"/>
<path d="M188.384 82.4481C188.8 82.4948 189.272 82.6973 189.775 82.5883C189.751 82.6506 189.798 82.783 189.775 82.8687C187.276 82.6896 184.761 82.8219 182.27 82.5883C182.45 83.2035 182.081 83.702 181.468 83.8189C181.264 83.8578 181.177 83.6941 181.162 83.6941C181.232 82.7595 179.401 83.2035 178.725 83.1412C175.975 82.8998 173.177 82.6505 170.403 82.5727C169.9 82.5571 166.576 82.4403 166.434 82.5727C166.214 82.8063 166.544 83.0399 166.811 83.0866C167.534 83.2112 168.493 83.2192 169.208 83.2659C168.218 83.5307 166.536 83.4528 165.593 83.0556C164.54 82.6117 165.365 82.0665 165.318 82.0197L164.76 81.7393C172.258 81.8561 181.059 81.5524 188.384 82.4325V82.4481Z" fill="#7C262A"/>
<path d="M143.094 81.7632C143.196 82.3317 142.166 81.9112 141.985 82.0436C142.394 82.5421 142.355 82.7213 141.805 83.0406C140.869 83.578 139.125 83.5311 138.095 83.2897C138.119 83.2897 138.252 83.1573 138.433 83.1417C138.818 83.1184 140.791 83.2352 140.877 83.1417C140.893 83.1184 140.893 82.6122 140.877 82.5888C140.744 82.4486 137.419 82.5654 136.909 82.5888C134.095 82.6667 131.219 82.9548 128.437 83.1495C127.792 83.1963 126.056 82.799 126.15 83.7025C125.969 83.6869 125.411 83.6713 125.333 83.5467C125.285 83.4689 125.285 82.9004 125.309 82.877C125.364 82.8225 126.574 82.9315 126.7 82.4642C124.704 82.3786 122.724 82.62 120.727 82.6044C120.649 82.1838 120.939 82.3395 121.207 82.3239C128.515 82.0358 135.777 81.8722 143.094 81.771V81.7632Z" fill="#7C262A"/>
<path d="M181.161 83.702C181.067 83.702 180.973 83.702 180.886 83.702C178.992 83.7176 177.201 83.4996 175.33 83.4217C174.592 83.3906 173.845 83.4529 173.106 83.4217C172.603 83.3984 172.077 83.4373 171.715 83.4217C170.882 83.3906 170.049 83.3359 169.216 83.2814C168.501 83.2347 167.542 83.2269 166.819 83.1023C166.544 83.0556 166.214 82.822 166.442 82.5883C166.583 82.4481 169.9 82.565 170.41 82.5883C173.185 82.6584 175.99 82.9154 178.733 83.1569C179.409 83.2114 181.24 82.7752 181.169 83.7098L181.161 83.702Z" fill="#252222"/>
<path d="M126.142 83.7021C126.055 82.7986 127.784 83.1881 128.429 83.1491C131.211 82.9544 134.087 82.6663 136.9 82.5884C137.403 82.5728 140.728 82.4482 140.869 82.5884C140.885 82.6117 140.885 83.118 140.869 83.1413C140.783 83.227 138.81 83.1102 138.425 83.1413C138.245 83.1491 138.111 83.2815 138.087 83.2892C137.215 83.3438 136.154 83.4452 135.305 83.4296C134.873 83.4296 134.676 83.4062 134.197 83.4296C133.458 83.4607 132.712 83.3906 131.973 83.4296C131.234 83.4685 130.59 83.5386 129.89 83.5697C129.364 83.5931 128.814 83.6943 128.224 83.7098C127.635 83.7254 127.014 83.7332 126.417 83.7098C126.323 83.7098 126.228 83.7098 126.142 83.7098V83.7021Z" fill="#252222"/>
<path d="M175.047 62.7669C175.22 62.7747 175.424 62.8915 175.605 62.907C175.746 62.9148 175.888 62.8993 176.022 62.907C176.069 62.907 176.116 62.907 176.163 62.907C176.257 62.907 176.352 62.907 176.438 62.907C176.917 62.9382 177.365 63.0083 177.829 63.0473C178.191 63.0784 178.576 63.0239 178.937 63.0473C179.008 63.2108 179.291 63.3666 179.354 63.4601L179.495 63.7404C179.574 63.9741 179.409 64.457 179.912 64.5738C180.249 64.6517 180.792 64.5193 181.161 64.5738C181.146 64.3947 181.177 64.1998 181.161 64.0207L181.02 63.8806V63.7404C183.22 65.7031 185.586 71.8246 186.875 74.7374C187.04 75.1191 187.236 75.6721 187.55 75.9369C187.55 75.9836 187.543 76.0303 187.55 76.077L189.775 82.4558C189.767 82.5025 189.79 82.557 189.775 82.5959C189.279 82.7049 188.808 82.5103 188.384 82.4558C188.234 81.4589 187.857 80.4697 187.503 79.5196C186.796 77.6036 186.034 75.6177 185.24 73.7329C184.8 72.6893 181.892 66.295 181.295 66.0302L170.395 65.2591C161.64 65.0644 152.87 64.5037 144.131 65.1346C138.032 65.0411 131.973 65.703 125.882 65.9912C124.476 68.4601 123.179 71.0069 122.071 73.6238C121.977 73.8574 122 74.1145 121.922 74.3092C120.814 76.9806 119.572 79.6364 118.904 82.4558C118.542 82.4713 117.984 82.7283 117.513 82.5959C117.709 81.9417 117.866 81.1551 118.071 80.5165C118.157 80.2361 118.251 79.9635 118.346 79.6831C118.369 79.613 118.448 79.5195 118.487 79.4026C118.998 77.9384 119.572 76.4743 120.154 75.0335C120.468 74.2391 120.696 74.1299 120.853 73.1642C121.222 73.2421 121.128 72.9773 121.23 72.7826C121.615 72.0037 121.969 71.2173 122.244 70.3917C122.267 70.3216 122.22 70.1891 122.244 70.1112C122.629 70.1735 122.817 69.3558 122.935 69.0053C122.951 68.9664 122.919 68.9119 122.935 68.8652C122.935 68.8496 123.022 68.7795 123.077 68.5847C123.085 68.538 123.069 68.4913 123.077 68.4446C123.462 68.4836 123.32 68.4212 123.352 68.1641C123.368 68.0785 123.336 67.9618 123.352 67.8839C123.69 67.954 123.643 67.7124 123.745 67.5177C124.554 65.9912 125.089 64.8775 126.268 63.7249L125.992 64.5583C126.385 64.5193 126.865 64.6206 127.242 64.5583C127.776 64.4726 128.209 63.499 128.216 63.0317C129.34 62.9616 130.503 62.9693 131.619 62.8914C145.797 61.8556 160.862 61.8245 175.039 62.7513L175.047 62.7669Z" fill="#252222"/>
<path opacity="0.58" d="M188.384 82.4481C181.06 81.568 172.266 81.8717 164.76 81.7548C164.21 81.747 163.644 81.7548 163.094 81.7548C157.137 81.677 151.125 81.6847 145.168 81.7548C144.477 81.7626 143.777 81.747 143.086 81.7548C135.761 81.8561 128.508 82.0274 121.199 82.3078C120.932 82.3156 120.641 82.1677 120.72 82.5882C120.625 82.5882 120.531 82.5882 120.444 82.5882C120.099 82.5882 119.478 82.4169 118.92 82.4481C119.588 79.6209 120.822 76.973 121.938 74.3016C122.016 74.1146 121.993 73.8497 122.087 73.6161C123.195 70.9992 124.492 68.4524 125.898 65.9835C131.989 65.6953 138.048 65.0412 144.147 65.1269C152.878 64.4961 161.656 65.0567 170.411 65.2515L181.311 66.0225C181.908 66.2873 184.816 72.6894 185.256 73.7252C186.05 75.61 186.804 77.596 187.519 79.5119C187.873 80.4543 188.25 81.4512 188.4 82.4481H188.384Z" fill="#757575"/>
<path d="M163.102 81.7626H145.176C151.125 81.6925 157.145 81.6847 163.102 81.7626Z" fill="#7C262A"/>
<path d="M187.551 76.0774C188.266 76.0852 187.999 76.8097 188.125 77.0278C188.187 77.129 188.62 77.1446 188.659 77.1913C188.714 77.2692 188.518 77.7831 188.549 78.0479C188.698 79.4108 190.137 80.7428 189.775 82.4484L187.551 76.0698V76.0774Z" fill="#7C262A"/>
<path d="M152.398 90.3535H154.693C154.921 90.3535 155.243 91.0077 154.843 91.3349C154.269 91.8021 151.581 91.7632 152.398 90.3535ZM154.481 90.634C154.222 90.3536 152.421 90.4781 152.815 90.9065C153.074 91.1868 154.874 91.0623 154.481 90.634Z" fill="#3B3A3C"/>
<path d="M107.524 124.591C107.477 125.299 107.155 126.063 107.241 126.74C107.296 127.223 107.783 127.496 107.665 128.049C106.51 127.137 106.817 126.218 107.186 124.996C107.257 124.77 107.155 124.505 107.532 124.583L107.524 124.591Z" fill="#7C262A"/>
<path d="M180.886 83.7021C180.745 83.9358 180.359 83.8425 180.123 83.8425C178.677 83.8581 177.247 83.8891 175.817 83.6944C175.558 83.6632 175.251 83.8736 175.33 83.4219C177.208 83.4998 178.992 83.7177 180.886 83.7021Z" fill="#7C262A"/>
<path d="M200.337 114.746C200.274 115.852 200.447 117.005 200.062 118.072C199.983 117.106 200.03 116.234 200.062 115.221C200.069 114.957 199.92 114.668 200.337 114.746Z" fill="#7C262A"/>
<path d="M118.079 80.5088C117.874 81.1474 117.717 81.9262 117.521 82.5882C117.984 82.7206 118.55 82.4714 118.912 82.4481C119.478 82.4169 120.091 82.5882 120.437 82.5882L117.725 82.8843C117.45 82.9232 117.544 82.6116 117.521 82.5882C117.497 82.5648 117.324 82.6271 117.269 82.5648C117.135 82.4168 117.67 81.2485 117.764 80.9526C117.835 80.7189 117.662 80.4231 118.079 80.5088Z" fill="#7C262A"/>
<path d="M107.242 120.292C107.666 120.214 107.509 120.502 107.517 120.767C107.549 121.483 107.383 122.223 107.375 122.784C107.092 122.036 107.265 121.094 107.234 120.292H107.242Z" fill="#7C262A"/>
<path d="M122.252 70.3915C121.977 71.2171 121.623 72.0036 121.238 72.7824C121.143 72.9771 121.23 73.2419 120.86 73.164C120.963 72.5332 121.481 71.5675 121.819 70.8587C121.921 70.6407 121.827 70.3604 122.252 70.3915Z" fill="#7C262A"/>
<path d="M131.973 83.4219C132.051 83.8424 131.761 83.6866 131.493 83.7021C131.014 83.7255 130.306 83.8034 129.89 83.562C130.589 83.5309 131.273 83.4608 131.973 83.4219Z" fill="#7C262A"/>
<path d="M173.107 83.4217C172.745 83.6554 172.085 83.6554 171.715 83.4217C172.069 83.4373 172.604 83.3984 173.107 83.4217Z" fill="#7C262A"/>
<path d="M122.944 69.0059C122.826 69.3563 122.637 70.174 122.252 70.1117C122.378 69.7223 122.433 69.037 122.944 69.0059Z" fill="#7C262A"/>
<path d="M135.313 83.4215C135.014 83.6474 134.503 83.6474 134.205 83.4215C134.684 83.3982 134.88 83.4215 135.313 83.4215Z" fill="#7C262A"/>
<path d="M108.773 129.163C108.482 129.022 108.113 128.664 108.082 128.329C108.372 128.539 108.86 128.539 108.773 129.163Z" fill="#7C262A"/>
<path d="M128.224 83.7021C127.808 83.9358 126.865 83.9358 126.417 83.7021C127.006 83.7255 127.627 83.7177 128.224 83.7021Z" fill="#7C262A"/>
<path d="M110.582 129.435C110.448 129.661 109.89 129.661 109.749 129.435C110.275 129.365 110.22 129.428 110.582 129.435Z" fill="#7C262A"/>
<path d="M190.883 83.2817H190.607V83.6945H190.883V83.2817Z" fill="#7C262A"/>
<path d="M118.495 79.4027C118.456 79.5195 118.378 79.6131 118.354 79.6831L118.213 79.613C118.165 79.356 118.252 79.3949 118.488 79.4027H118.495Z" fill="#7C262A"/>
<path d="M123.36 68.1718C123.328 68.4288 123.47 68.4912 123.085 68.4523C123.132 68.2264 122.951 68.1251 123.36 68.1718Z" fill="#7C262A"/>
<path d="M108.908 129.163C109.434 129.326 109.073 129.349 109.183 129.443C108.884 129.474 108.868 129.459 108.908 129.163Z" fill="#7C262A"/>
<path d="M122.942 68.8659L123.084 68.5854C123.037 68.7724 122.95 68.8425 122.942 68.8659Z" fill="#7C262A"/>
<path d="M195.331 129.575C193.484 129.622 193.469 129.575 191.724 129.225C189.382 128.75 186.364 129.256 183.865 129.163C170.191 128.672 156.461 129.279 142.74 129.163C136.241 129.108 129.962 128.913 123.439 129.163C121.23 129.248 118.716 128.828 116.625 129.022C115.831 129.093 115.061 129.498 114.331 129.575C113.34 129.311 112.169 129.451 111.132 129.435C111.053 128.983 111.596 129.186 111.831 128.952C111.973 128.804 111.91 128.493 112.052 128.454C112.232 128.407 112.594 128.493 112.853 128.454C113.388 128.36 115.666 127.987 116.043 128.041C116.138 128.057 116.122 128.329 116.209 128.329C118.409 128.469 122.024 128.508 123.934 128.29C127.635 127.87 131.251 128.127 134.944 128.197C144.453 128.36 154.12 128.469 163.715 128.321C164.705 128.306 165.735 128.407 166.749 128.314C167.016 128.29 167.37 128.197 167.605 128.057L167.534 128.329H168.643L168.438 128.049C168.816 127.979 169.051 128.329 169.397 128.345C173.224 128.454 177.382 127.878 181.343 128.057C181.806 128.08 183.402 128.127 183.684 128.205C183.794 128.228 183.771 128.477 183.865 128.485C184.109 128.516 185.594 128.469 186.074 128.485C188.51 128.516 191.017 128.135 193.437 128.205C194.6 128.244 195.166 128.882 195.936 129.17C196.4 129.342 197.092 129.357 197.587 129.295C198.718 129.163 199.331 128.01 199.771 127.068C199.818 126.966 199.984 126.966 200.023 126.85C200.298 126.078 199.921 125.915 199.818 125.3C199.606 124.007 199.74 123.508 199.764 122.317C199.779 121.257 199.528 119.809 200.039 118.913C200.172 121.024 199.795 123.329 200.188 125.487C200.243 125.767 200.447 125.915 200.463 126.328C200.51 127.278 199.205 129.054 198.396 129.412C197.673 129.739 196.164 129.568 195.308 129.591L195.331 129.575Z" fill="#7C262A"/>
<path d="M107.525 123.617L107.383 123.477C107.383 123.477 107.525 123.524 107.525 123.617Z" fill="#7C262A"/>
<path d="M195.33 129.575C195.409 129.988 195.126 129.825 194.867 129.871C192.926 130.23 192.219 129.451 190.529 129.303C189.492 129.209 188.533 129.42 187.543 129.443C187.464 129.217 187.11 129.256 186.984 129.443C186.843 129.443 186.725 129.583 186.71 129.583C184.446 129.622 181.751 129.093 179.424 129.022C176.297 128.929 173.098 129.264 169.978 129.311C157.074 129.497 144.233 129.256 131.336 129.17C127.745 129.147 124.137 129.318 120.577 129.303C120.483 129.303 120.389 129.303 120.303 129.303H119.745C118.739 129.287 117.466 129.209 116.491 129.318C114.904 129.497 114.181 130.331 112.302 129.863C112.067 129.801 111.894 130.004 111.964 129.583C112.727 129.521 113.583 129.661 114.322 129.583C115.061 129.505 115.823 129.108 116.617 129.03C118.7 128.836 121.222 129.256 123.43 129.17C129.953 128.921 136.233 129.116 142.732 129.17C156.461 129.287 170.182 128.68 183.857 129.17C186.364 129.264 189.373 128.75 191.715 129.233C193.46 129.583 193.476 129.63 195.323 129.583L195.33 129.575Z" fill="#D2D2D4"/>
<path d="M177.829 63.0477L178.45 62.3545L178.937 63.0477C178.568 63.0243 178.19 63.0788 177.829 63.0477Z" fill="#D2D2D4"/>
<path d="M179.495 63.7408L179.354 63.4604C179.432 63.5851 179.44 63.5773 179.495 63.7408Z" fill="#D2D2D4"/>
<path d="M187.55 129.435C187.362 129.435 187.181 129.435 186.992 129.435C187.118 129.248 187.472 129.21 187.55 129.435Z" fill="#909195"/>
<path d="M178.866 62.2144C178.952 62.2611 178.952 62.3079 178.866 62.3546V62.2144Z" fill="#D2D2D4"/>
<path d="M154.481 90.634C154.874 91.0624 153.074 91.1869 152.815 90.9065C152.422 90.4781 154.222 90.3536 154.481 90.634Z" fill="#D2D2D4"/>
<path d="M111.69 92.9855C111.69 92.9855 111.69 92.7439 111.84 92.6504C112.791 92.0118 114.072 91.7549 115.211 92.0197C115.321 92.0431 115.297 92.2766 115.399 92.3C115.682 92.3623 115.973 92.1599 116.193 92.1988C116.343 92.2222 116.507 92.448 116.696 92.5103C118.362 93.0399 120.209 93.5852 121.592 94.1459C122.441 94.4886 123.447 94.7456 124.351 94.8546C124.602 95.0259 124.437 96.2643 124.484 96.6615C124.594 97.7207 125.16 99.2783 125.592 100.267C125.97 101.124 126.834 102.3 127.062 103.102C127.29 103.905 126.575 104.138 125.938 104.216C123.848 104.45 121.325 104.232 119.337 103.593C117.797 103.095 111.305 100.556 110.574 99.4418C109.529 97.853 109.623 95.3452 110.661 93.8343C111.172 93.0944 111.258 93.3048 111.69 92.9855C111.415 93.2191 111.627 93.6084 111.832 93.8187C111.674 93.7875 111.635 93.8811 111.556 93.959C111.509 93.998 111.29 94.3329 111.282 94.3718C111.148 95.0572 111.447 97.5027 111.659 98.227C111.95 99.2473 112.327 99.5354 113.136 100.151C113.922 100.221 114.244 100.61 114.763 101.031C117.113 102.939 122.37 103.975 125.372 103.648C125.726 103.609 126.41 103.57 126.441 103.18C126.473 102.791 124.39 99.1848 123.989 98.6864C122.158 96.3888 119.046 95.9215 116.429 95.0025C115.258 94.5897 114.142 94.0368 112.947 93.6863L114.197 93.476C117.38 95.0649 121.137 95.501 123.989 97.7128C124.319 97.8375 124.052 97.1677 124.036 97.1365C123.463 95.9683 117.034 94.0992 115.502 93.5618C114.802 93.3126 113.38 92.526 112.759 92.6194C112.649 92.635 111.722 92.9699 111.682 93.0089L111.69 92.9855Z" fill="#252222"/>
<path d="M111.69 92.9857C111.737 92.9468 112.664 92.6119 112.767 92.5963C113.38 92.5107 114.81 93.2973 115.51 93.5387C117.042 94.0761 123.47 95.9529 124.044 97.1134C124.06 97.1446 124.327 97.8143 123.997 97.6897C121.144 95.4778 117.388 95.0495 114.205 93.4529L112.955 93.6632C114.15 94.0137 115.266 94.5588 116.437 94.9794C119.046 95.9062 122.166 96.3735 123.997 98.6633C124.39 99.1617 126.473 102.776 126.449 103.157C126.425 103.539 125.734 103.586 125.38 103.625C122.378 103.952 117.121 102.916 114.771 101.008C114.849 100.735 115.187 101.008 115.336 101.07C116.059 101.358 116.814 101.607 117.553 101.841C118.755 102.223 121.089 103.079 122.221 103.212C123.219 103.336 124.453 102.947 125.474 102.947L123.525 99.2086C123.439 99.2164 123.274 99.1852 123.251 99.2086C123.109 99.3254 124.39 102.332 123.643 102.791C123.117 103.118 119.321 101.911 118.841 101.382C118.252 100.727 117.82 97.6432 117.828 96.7086L121.718 97.8145C121.231 97.4017 120.382 97.0278 119.769 96.7786C119.156 96.5293 118.425 96.3735 117.828 96.1555C117.474 96.0231 117.152 95.992 116.853 95.8752C115.172 95.2365 113.521 94.4732 111.855 93.7956C111.659 93.5853 111.439 93.196 111.714 92.9624L111.69 92.9857ZM121.137 101.997C121.86 102.207 122.598 102.464 123.36 102.409C123.51 102.254 122.889 98.9906 122.606 98.6557C122.103 98.0715 119.36 97.5574 118.496 97.4173C118.252 97.6587 119.023 100.797 119.321 101.202C119.447 101.374 119.604 101.35 119.746 101.436C120.256 101.747 120.563 101.825 121.137 101.989V101.997Z" fill="#D2D2D4"/>
<path d="M111.832 93.8187C113.498 94.4885 115.156 95.2597 116.83 95.8984C118.032 97.1678 117.687 99.4731 118.229 101.101C118.268 101.599 117.844 101.623 117.529 101.856C116.791 101.623 116.036 101.373 115.313 101.085C115.164 101.023 114.834 100.75 114.747 101.023C114.229 100.602 113.915 100.213 113.121 100.143C112.311 99.5355 111.942 99.2395 111.643 98.2193C111.439 97.4949 111.14 95.0495 111.266 94.3641C112.186 94.9638 111.942 96.5447 112.138 97.5806C112.579 99.956 112.956 99.5199 114.881 100.182C114.936 100.198 115.062 100.369 115.251 100.431C115.659 100.556 117.372 101.218 117.592 100.883C117.836 100.525 117.152 97.0042 116.885 96.5836C116.516 96.0073 113.906 95.431 113.113 95.0805C112.633 94.8703 111.737 94.403 111.541 93.9435C111.627 93.8734 111.659 93.772 111.816 93.8032L111.832 93.8187Z" fill="#909195"/>
<path d="M111.548 93.959C111.744 94.4185 112.648 94.878 113.12 95.096C113.906 95.4465 116.522 96.0306 116.892 96.5991C117.159 97.0197 117.843 100.54 117.599 100.898C117.371 101.225 115.666 100.571 115.257 100.447C115.068 100.384 114.943 100.221 114.888 100.197C115.045 100.244 115.352 100.283 115.579 100.338C115.689 100.361 115.886 100.314 116.051 100.338C116.287 100.384 117.364 100.976 117.505 100.392C117.544 100.229 116.9 97.4402 116.79 97.1131C116.247 95.5554 113.945 95.9994 112.695 95.2284C112.546 95.1739 112.397 95.1973 112.302 95.3375C111.941 95.8905 112.625 98.9045 113.151 99.364C113.356 99.5432 113.465 99.4574 113.63 99.5042C113.67 99.5509 113.717 99.6054 113.772 99.6443C113.945 99.7767 114.683 100.135 114.88 100.197C112.954 99.5354 112.585 99.9715 112.137 97.5961C111.941 96.5602 112.185 94.9791 111.265 94.3794C111.273 94.3405 111.501 94.0057 111.54 93.9668L111.548 93.959Z" fill="#D2D2D4"/>
<path d="M113.631 99.4962C112.892 98.694 112.657 96.9418 112.657 95.8903C112.782 95.7579 115.934 96.6848 116.177 96.8795C116.751 97.3312 116.885 99.543 117.097 100.322C116.877 100.298 116.602 100.361 116.405 100.322V100.135C116.971 99.9091 116.594 99.5197 116.547 99.2082C116.46 98.663 116.39 97.5881 115.997 97.1909C115.682 96.8716 114.645 96.7002 114.181 96.5756C113.828 96.4822 113.45 96.1396 112.931 96.2953C112.829 96.6614 113.026 96.9729 113.073 97.2689C113.16 97.7751 113.301 98.8031 113.671 99.1692C113.93 99.434 115.384 99.7221 115.855 99.9012C116.327 100.08 116.036 100.08 116.13 100.182C116.005 100.158 115.824 100.213 115.714 100.182C115.187 100.034 114.48 99.6676 113.906 99.4884C113.828 99.4651 113.71 99.5118 113.631 99.4884V99.4962Z" fill="#D2D2D4"/>
<path d="M119.745 101.444C119.604 101.358 119.447 101.373 119.321 101.21C119.014 100.805 118.244 97.6662 118.495 97.4248C119.352 97.565 122.103 98.0789 122.606 98.663C122.888 98.9979 123.517 102.261 123.36 102.417C122.598 102.472 121.859 102.207 121.136 102.004L121.277 101.864C121.513 101.95 122.991 102.238 123.085 102.145C122.967 101.405 122.81 99.4342 122.307 98.9747C122.071 98.7566 119.046 97.8609 118.92 97.9855C118.936 99.0759 119.156 100.197 119.619 101.171C119.863 101.202 119.761 100.859 119.721 100.719C119.541 100.042 118.998 99.2161 120.036 98.7488C120.515 98.5307 121.954 98.9824 122.236 99.4574C122.975 100.696 122.449 102.113 120.861 101.591C120.421 101.358 120.146 100.805 119.753 101.451L119.745 101.444Z" fill="#252222"/>
<path d="M117.804 96.1704C117.804 96.3573 117.804 96.5364 117.804 96.7234C117.804 97.658 118.228 100.742 118.818 101.396C119.297 101.918 123.093 103.133 123.619 102.806C124.366 102.347 123.085 99.3404 123.226 99.2236C123.25 99.2002 123.415 99.2236 123.501 99.2236L125.45 102.962C124.429 102.962 123.195 103.351 122.197 103.227C121.073 103.086 118.739 102.23 117.529 101.856C117.843 101.622 118.267 101.599 118.228 101.1C117.686 99.4727 118.031 97.1597 116.829 95.8979C117.128 96.0148 117.45 96.0458 117.804 96.1782V96.1704Z" fill="#252222"/>
<path d="M117.804 96.1709C118.402 96.3968 119.125 96.537 119.746 96.794C120.367 97.051 121.208 97.4171 121.695 97.8299L117.804 96.7238C117.804 96.5369 117.804 96.3578 117.804 96.1709Z" fill="#909195"/>
<path d="M119.745 101.444C120.138 100.797 120.421 101.35 120.853 101.584C120.987 101.654 121.152 101.818 121.27 101.864L121.129 102.005C120.555 101.841 120.248 101.763 119.737 101.452L119.745 101.444Z" fill="#3B3A3C"/>
<path d="M113.914 99.4965L113.772 99.6366C113.725 99.5977 113.678 99.5432 113.631 99.4965C113.709 99.5199 113.835 99.4731 113.906 99.4965H113.914Z" fill="#252222"/>
<path d="M113.631 99.4962C113.466 99.4495 113.356 99.5352 113.152 99.3561C112.626 98.8966 111.95 95.8826 112.303 95.3296C112.398 95.1894 112.539 95.166 112.696 95.2205C113.946 95.9915 116.248 95.5475 116.791 97.1052C116.901 97.4323 117.545 100.221 117.506 100.384C117.364 100.976 116.28 100.384 116.052 100.33C115.887 100.298 115.69 100.353 115.58 100.33L115.722 100.19C115.832 100.221 116.013 100.166 116.138 100.19C116.17 100.221 116.366 100.322 116.413 100.33C116.618 100.369 116.893 100.306 117.105 100.33C116.893 99.5508 116.759 97.339 116.185 96.8873C115.934 96.6926 112.79 95.7657 112.665 95.8981C112.665 96.9496 112.901 98.7018 113.639 99.504L113.631 99.4962Z" fill="#252222"/>
<path d="M115.722 100.19L115.58 100.33C115.352 100.275 115.038 100.237 114.889 100.19C114.684 100.128 113.953 99.7691 113.78 99.6367L113.922 99.4966C114.496 99.6757 115.203 100.042 115.73 100.19H115.722Z" fill="#3B3A3C"/>
<path d="M120.862 101.576C122.442 102.098 122.976 100.68 122.237 99.4417C121.954 98.9667 120.516 98.515 120.036 98.7331C118.998 99.2004 119.541 100.026 119.722 100.704C119.761 100.844 119.863 101.186 119.62 101.155C119.156 100.174 118.936 99.0602 118.92 97.9698C119.046 97.8452 122.072 98.7409 122.308 98.959C122.811 99.4185 122.976 101.389 123.086 102.129C122.992 102.222 121.514 101.934 121.278 101.848C121.16 101.802 120.995 101.646 120.862 101.568V101.576Z" fill="#D2D2D4"/>
<path d="M116.554 99.2241C116.601 99.5357 116.987 99.9172 116.421 100.151V100.338C116.366 100.33 116.169 100.229 116.138 100.198C116.043 100.104 116.35 100.104 115.862 99.9172C115.902 99.5589 116.201 99.2631 116.554 99.2241Z" fill="#909195"/>
<path d="M114.189 96.5914C114.653 96.716 115.691 96.8874 116.005 97.2067C116.398 97.6039 116.469 98.6788 116.555 99.2239C116.202 99.2629 115.895 99.5588 115.863 99.917C115.392 99.7457 113.938 99.4498 113.678 99.185C113.309 98.8111 113.168 97.7909 113.081 97.2847C113.521 97.2613 113.568 96.5524 114.189 96.5914Z" fill="#252222"/>
<path d="M114.189 96.5914C113.561 96.5525 113.514 97.2613 113.081 97.2847C113.034 96.9887 112.837 96.6772 112.94 96.3111C113.458 96.1476 113.844 96.4901 114.189 96.5914Z" fill="#909195"/>
<path d="M194.466 92.0513C194.466 92.0513 194.6 92.3317 194.828 92.4407C195.472 92.7211 195.865 92.7756 196.353 93.4143C197.421 94.8162 197.744 97.5811 196.863 99.1232C196.84 99.1621 196.368 99.7541 196.337 99.7853C195.056 101.024 189.107 103.243 187.205 103.804C185.586 104.279 183.047 104.404 181.366 104.217C181.106 104.186 180.376 104.006 180.25 103.804C179.928 103.282 181.319 101.078 181.594 100.432C182.057 99.3646 182.655 97.9316 182.804 96.7867C182.89 96.1325 182.67 95.4237 182.985 94.8162C184.446 94.3723 185.908 93.8894 187.37 93.4455C187.802 93.3131 188.368 93.0718 188.619 93.0017C189.837 92.6512 193.413 91.623 194.451 92.0591L194.466 92.0513ZM195.472 93.6792C195.708 93.4533 195.952 93.5001 195.543 93.1262C194.341 92.0047 193.138 93.0639 191.896 93.5078C190.505 94.0063 183.794 96.0079 183.315 97.0048C183.236 97.1683 183.165 97.5655 183.315 97.6979C186.167 95.486 189.924 95.0499 193.107 93.4611L194.223 93.6714C193.39 93.9284 192.612 94.3412 191.794 94.6449C189.036 95.6652 185.649 96.1481 183.59 98.3833C182.906 99.1232 181.201 101.911 180.949 102.815C180.886 103.048 180.863 103.267 180.886 103.508C182.49 103.57 184.352 103.82 185.947 103.633C187.173 103.492 191.669 101.771 192.564 101.016C192.737 100.868 192.934 100.572 193.091 100.478C193.861 100.019 194.859 99.9722 195.37 99.0376C195.92 98.0329 196.117 95.7353 195.897 94.6449C195.85 94.4268 195.842 94.1621 195.755 93.9518C195.716 93.8661 195.543 93.7648 195.48 93.6714L195.472 93.6792Z" fill="#252222"/>
<path d="M187 101.577C186.065 101.764 185.177 102.13 184.218 102.13C184.116 102.028 184.595 99.6063 184.698 99.3571C185.036 98.5159 187.527 98.2044 188.384 97.9785C188.345 99.0767 188.141 100.167 187.693 101.164C187.504 101.281 187.181 101.483 187 101.577ZM187.519 100.985C187.944 100.479 188.038 99.0844 187.276 98.734C186.82 98.5237 185.342 98.9598 185.075 99.4426C184.737 100.035 184.572 101.312 185.342 101.647C185.656 101.787 187.331 101.211 187.519 100.985Z" fill="#D2D2D4"/>
<path d="M195.472 93.6793C194.349 94.7541 191.63 95.019 190.474 95.8991C190.231 95.9146 189.798 95.9224 189.602 96.0392C189.452 96.1249 189.515 96.3041 189.5 96.3119C189.413 96.3586 188.989 96.265 188.769 96.3429C187.716 96.7089 186.49 97.1763 185.609 97.8305L189.5 96.7245C189.5 97.2463 189.429 97.6124 189.358 98.1108C189.24 98.9208 188.989 100.899 188.423 101.444C187.92 101.935 184.965 102.831 184.218 102.901C182.71 103.049 183.975 100.112 183.865 99.357C183.181 100.167 182.804 101.172 182.301 102.091C182.175 102.317 181.767 102.496 181.845 102.955C182.859 102.955 184.109 103.352 185.099 103.22C186.466 103.041 188.407 102.137 189.767 101.709L192.549 101.016C191.653 101.771 187.158 103.493 185.932 103.633C184.344 103.82 182.474 103.571 180.871 103.508C180.847 103.267 180.871 103.049 180.934 102.815C181.185 101.912 182.89 99.1234 183.574 98.3835C185.625 96.1482 189.02 95.6731 191.779 94.6451C192.596 94.3413 193.374 93.9285 194.207 93.6715L193.091 93.4612C189.908 95.05 186.152 95.4783 183.299 97.698C183.15 97.5656 183.22 97.1685 183.299 97.0049C183.778 96.0002 190.482 94.0064 191.881 93.508C193.13 93.0641 194.333 92.0049 195.527 93.1264C195.936 93.508 195.693 93.4535 195.457 93.6793H195.472ZM187 101.577C187.158 101.546 187.393 101.639 187.558 101.507C187.692 101.421 187.653 101.25 187.692 101.156C187.795 101.094 187.936 101.156 188.093 100.938C188.36 100.564 188.981 97.5969 188.8 97.4099C187.936 97.5423 185.083 98.0875 184.627 98.7261C184.439 99.1233 183.747 102.122 183.857 102.27C184.258 102.823 186.498 101.826 186.993 101.569L187 101.577Z" fill="#D2D2D4"/>
<path d="M195.748 93.9596C195.496 94.497 194.537 94.9252 193.971 95.1667C193.185 95.5016 190.757 96.0235 190.411 96.5998C190.121 97.0905 189.421 100.478 189.696 100.891C190.01 101.351 191.983 100.338 192.415 100.19C193.067 99.9722 194.231 99.9411 194.624 99.2401C195.37 97.9006 195.056 96.3896 195.449 95.1045C195.527 94.8397 195.519 94.6293 195.889 94.6449C196.109 95.7431 195.912 98.0329 195.362 99.0376C194.851 99.9722 193.853 100.019 193.083 100.478C192.918 100.572 192.73 100.868 192.557 101.016L189.775 101.709C188.525 101.717 189.35 99.7775 189.484 98.9909C189.531 98.6949 189.452 98.3521 189.5 98.1107C189.57 97.768 189.845 96.7322 189.979 96.4441C190.097 96.1871 190.254 96.0547 190.466 95.8911C191.629 95.0188 194.348 94.7462 195.464 93.6714C195.535 93.7571 195.708 93.8662 195.739 93.9518L195.748 93.9596Z" fill="#909195"/>
<path d="M195.888 94.6525C195.519 94.637 195.527 94.8473 195.448 95.1121C195.055 96.3972 195.369 97.908 194.623 99.2476C194.23 99.9485 193.067 99.9721 192.415 100.198C192.745 100.097 193.688 99.6994 193.939 99.5047C194.607 98.9906 194.992 97.1993 195.047 96.3815C195.079 95.9532 195.205 95.1121 194.599 95.2289C193.452 95.9298 191.11 95.6495 190.536 97.0046C190.426 97.2772 189.743 100.221 189.79 100.393C189.908 100.891 191.354 100.424 191.723 100.33C191.943 100.276 192.273 100.237 192.415 100.19C191.982 100.338 190.01 101.351 189.695 100.891C189.413 100.478 190.112 97.0825 190.411 96.5996C190.764 96.0155 193.185 95.4936 193.971 95.1665C194.536 94.9251 195.495 94.4969 195.747 93.9595C195.833 94.1698 195.841 94.4345 195.888 94.6525Z" fill="#D2D2D4"/>
<path d="M189.774 101.716C188.422 102.145 186.473 103.048 185.106 103.227C184.116 103.36 182.866 102.962 181.852 102.962C181.774 102.495 182.182 102.324 182.308 102.098C182.803 101.179 183.18 100.174 183.872 99.3644C183.982 100.112 182.717 103.056 184.226 102.908C184.972 102.838 187.919 101.942 188.43 101.452C188.996 100.906 189.247 98.9281 189.365 98.1182H189.507C189.46 98.3596 189.538 98.7102 189.491 98.9983C189.358 99.785 188.54 101.732 189.782 101.716H189.774Z" fill="#252222"/>
<path d="M187 101.576C187.181 101.483 187.503 101.28 187.692 101.164C187.653 101.257 187.692 101.421 187.558 101.514C187.385 101.646 187.157 101.553 187 101.584V101.576Z" fill="#252222"/>
<path d="M187 101.577C186.505 101.834 184.266 102.83 183.865 102.277C183.755 102.129 184.446 99.1309 184.635 98.7337C185.083 98.095 187.944 97.5577 188.808 97.4175C188.989 97.5966 188.368 100.572 188.101 100.946C187.944 101.156 187.802 101.094 187.7 101.164C188.148 100.167 188.36 99.0764 188.391 97.9782C187.535 98.2041 185.043 98.5156 184.706 99.3568C184.603 99.6138 184.124 102.036 184.226 102.129C185.185 102.129 186.065 101.756 187.008 101.577H187Z" fill="#252222"/>
<path d="M189.5 96.3119C189.5 96.452 189.5 96.5921 189.5 96.7245L185.609 97.8305C186.489 97.1763 187.716 96.7011 188.769 96.3428C188.989 96.265 189.414 96.3586 189.5 96.3119Z" fill="#909195"/>
<path d="M190.474 95.8989C190.261 96.0625 190.104 96.1949 189.986 96.4519C189.853 96.74 189.578 97.7758 189.507 98.1185H189.365C189.436 97.62 189.507 97.254 189.507 96.7321C189.507 96.5919 189.507 96.4519 189.507 96.3195C189.523 96.3195 189.46 96.1325 189.609 96.0469C189.805 95.93 190.238 95.9223 190.481 95.9067L190.474 95.8989Z" fill="#3B3A3C"/>
<path d="M193.947 99.4968C193.853 99.4968 193.759 99.489 193.672 99.4968C194.403 98.4921 194.631 97.1058 194.646 95.8909C194.521 95.7585 191.409 96.6463 191.126 96.88C190.552 97.3395 190.418 99.5435 190.206 100.322C190.253 100.369 191.275 100.229 191.456 100.182L191.731 100.322C191.361 100.408 189.923 100.875 189.798 100.385C189.758 100.213 190.434 97.2693 190.544 96.9967C191.118 95.6416 193.46 95.9141 194.607 95.221C195.212 95.1042 195.086 95.9453 195.055 96.3736C195 97.1914 194.615 98.9749 193.947 99.4968Z" fill="#252222"/>
<path d="M193.664 99.4971C193.759 99.4893 193.853 99.4971 193.94 99.4971C193.68 99.6918 192.737 100.089 192.415 100.19C192.265 100.237 191.943 100.276 191.723 100.331L191.448 100.19C192.163 100.027 192.886 99.5672 193.672 99.4971H193.664Z" fill="#3B3A3C"/>
<path d="M191.44 100.19C191.259 100.229 190.238 100.369 190.19 100.33C190.403 99.5512 190.536 97.3472 191.11 96.8877C191.401 96.6618 194.505 95.7661 194.631 95.8985C194.615 97.1135 194.387 98.4997 193.656 99.5044C192.878 99.5745 192.147 100.034 191.432 100.198L191.44 100.19ZM193.106 96.5916C192.603 96.724 191.534 96.9032 191.22 97.2693C190.906 97.6353 190.827 98.7023 190.748 99.2242C190.725 99.3721 190.395 99.746 190.748 99.9952C191.102 100.244 191.346 99.8005 191.448 99.7771C191.927 99.6603 193.279 99.5201 193.641 99.1852C194.002 98.8503 194.151 97.7522 194.23 97.2771C194.277 96.9811 194.474 96.6696 194.372 96.3035C193.892 96.1945 193.499 96.4826 193.122 96.5838L193.106 96.5916Z" fill="#D2D2D4"/>
<path d="M187.52 100.985C187.331 101.211 185.657 101.787 185.343 101.647C184.572 101.312 184.737 100.035 185.075 99.4426C185.351 98.9597 186.82 98.5236 187.276 98.7339C188.039 99.0766 187.944 100.479 187.52 100.985Z" fill="#252222"/>
<path d="M193.107 96.5919C193.736 96.5529 193.783 97.2618 194.216 97.2851C194.137 97.7602 193.972 98.8661 193.626 99.1932C193.28 99.5204 191.912 99.6683 191.433 99.7852C191.284 99.5204 191.071 99.2478 190.741 99.2322C190.82 98.7104 190.891 97.659 191.213 97.2773C191.535 96.8957 192.604 96.7321 193.099 96.5997L193.107 96.5919Z" fill="#252222"/>
<path d="M193.106 96.5916C193.484 96.4904 193.877 96.2023 194.357 96.3114C194.459 96.6774 194.262 96.9889 194.215 97.2849C193.775 97.2615 193.727 96.5527 193.106 96.5916Z" fill="#909195"/>
<path d="M191.44 99.7771C191.33 99.8004 191.079 100.237 190.741 99.9952C190.403 99.7537 190.725 99.3721 190.741 99.2241C191.071 99.2475 191.283 99.5123 191.432 99.7771H191.44Z" fill="#909195"/>
<path d="M133.505 106.981C133.057 106.561 132.381 106.21 131.98 105.805C130.228 104.022 127.681 99.0139 127.949 96.5216C128.035 95.735 128.342 95.4314 128.884 94.9329L134.683 94.3644C145.819 94.1853 156.908 94.123 168.029 94.3722C171.219 94.4423 174.292 94.3721 177.326 94.8004C178.449 94.9562 179.172 95.3222 179.345 96.5294C179.628 98.5232 178.441 100.299 177.663 102.028C177.341 102.737 177.254 103.282 176.767 104.045C173.914 108.609 169.451 108.71 164.421 109.193C156.499 109.964 148.46 109.918 140.538 109.037C138.857 108.851 136.294 108.438 134.754 107.807C134.801 107.41 134.723 107.573 134.479 107.527C134.393 107.511 134.283 107.542 134.204 107.527C134.275 107.184 133.796 107.067 133.513 106.974L133.505 106.981ZM176.437 100.883C176.689 100.883 177.742 100.93 177.813 100.868C177.868 100.821 178.323 99.6371 177.758 99.7772C174.143 99.7149 170.528 99.8551 166.913 99.7772C164.932 99.7383 161.034 99.8628 159.392 99.1074C157.529 98.2429 156.767 96.6775 154.409 96.4516C150.118 96.0466 149.529 99.2321 146.197 99.6215C144.586 99.8084 142.094 99.7461 140.381 99.7772C136.656 99.8551 132.915 99.7072 129.19 99.7772C129.088 99.8863 129.395 100.852 129.56 100.891L148.366 101.576C148.35 101.833 148.342 102.153 148.366 102.41L138.008 102.137C135.713 102.005 133.371 101.833 131.068 101.709C130.84 101.693 129.921 101.584 130.023 101.919C130.212 102.55 130.911 102.628 131.485 102.682C136.821 103.196 142.346 103.087 147.705 103.554C148.413 103.578 148.491 104.466 148.861 105.027C149.175 105.509 149.285 105.611 149.749 105.868C149.977 106.296 150.181 106.467 150.621 106.732C153.222 108.329 156.751 107.558 158.425 105.027C158.669 104.661 158.951 103.749 159.258 103.625C160.13 103.531 161.042 103.43 161.914 103.375C166.48 103.064 171.25 103.126 175.801 102.682C176.673 102.597 176.925 102.573 177.263 101.717C177.035 101.724 176.799 101.693 176.571 101.717C176.28 101.74 176.178 101.857 176.154 101.857C175.282 101.903 174.386 101.818 173.514 101.857C173.207 101.872 173.121 101.997 173.097 101.997C172.775 102.012 172.445 101.981 172.123 101.997C172.092 101.997 172.044 101.997 171.981 101.997C167.628 102.184 163.274 102.386 158.92 102.41C158.943 102.153 158.936 101.833 158.92 101.576L162.456 101.296C165.262 101.265 168.068 101.226 170.865 101.164C171.18 101.164 171.392 101.023 171.423 101.023C171.565 101.023 171.698 101.023 171.84 101.023C171.871 101.023 171.926 101.023 171.981 101.023C172.414 101.015 173.522 100.852 173.372 101.304C172.461 101.374 171.51 101.35 170.59 101.444V101.857C171.023 101.607 171.408 101.864 171.753 101.841C172.186 101.81 172.752 101.607 173.176 101.592C173.695 101.568 174.528 102.153 174.339 101.164C174.59 101.14 174.921 101.047 175.314 101.023C175.667 101 176.186 101.148 176.421 100.883H176.437Z" fill="#252222"/>
<path d="M133.505 106.981C133.788 107.075 134.268 107.192 134.197 107.534C133.458 107.379 133.702 107.161 133.505 106.981Z" fill="#7C262A"/>
<path d="M134.472 107.542C134.715 107.581 134.794 107.425 134.747 107.822C134.613 107.768 134.393 107.955 134.472 107.542Z" fill="#7C262A"/>
<path d="M148.374 101.576L129.568 100.891C129.395 100.852 129.089 99.8862 129.199 99.7771C132.924 99.7148 136.665 99.855 140.39 99.7771C142.103 99.7382 144.594 99.8083 146.205 99.6214C149.537 99.232 150.126 96.0465 154.417 96.4515C156.775 96.6774 157.538 98.2428 159.4 99.1073C161.043 99.8705 164.94 99.7382 166.921 99.7771C170.528 99.8472 174.151 99.707 177.766 99.7771C178.332 99.6447 177.876 100.821 177.821 100.867C177.75 100.93 176.697 100.883 176.446 100.883C176.1 100.883 175.565 100.774 175.338 101.023C174.945 101.047 174.615 101.14 174.363 101.163C174.08 101.187 173.758 101.272 173.389 101.304C173.538 100.86 172.43 101.015 171.998 101.023H171.856C171.715 101.023 171.581 101.023 171.44 101.023L170.882 101.163C168.084 101.226 165.27 101.265 162.473 101.296L158.936 101.576C158.535 95.0263 148.775 95.0263 148.374 101.576Z" fill="#D2D2D4"/>
<path d="M149.481 105.042C149.246 104.458 148.735 103.453 148.656 102.885C147.878 97.4876 154.786 94.7461 157.796 99.1777C160.806 103.609 155.926 108.742 151.25 106.397C150.605 106.078 150.157 105.432 149.481 105.042C149.576 105.268 149.615 105.611 149.757 105.876C150.786 106.444 151.823 107.153 153.026 107.262C156.083 107.527 158.684 105.494 158.928 102.41C163.281 102.379 167.635 102.176 171.989 101.997H172.13C172.453 101.981 172.783 102.013 173.105 101.997L173.521 101.857C174.394 101.818 175.289 101.904 176.162 101.857L176.579 101.717C176.806 101.693 177.042 101.732 177.27 101.717C176.932 102.573 176.681 102.597 175.808 102.682C171.25 103.134 166.488 103.072 161.922 103.375C161.05 103.438 160.138 103.531 159.265 103.625C158.959 103.749 158.684 104.653 158.433 105.027C156.759 107.566 153.23 108.337 150.629 106.732C150.189 106.46 149.992 106.296 149.757 105.868C149.293 105.611 149.183 105.502 148.868 105.027C148.499 104.466 148.42 103.578 147.713 103.555C142.353 103.087 136.829 103.196 131.492 102.682C130.927 102.628 130.219 102.55 130.031 101.919C129.929 101.584 130.848 101.693 131.076 101.709C133.371 101.826 135.713 101.997 138.016 102.137L148.373 102.41C148.42 102.986 148.821 104.684 149.238 105.019C149.324 105.089 149.45 105.019 149.489 105.042H149.481ZM153.371 97.5577C150.055 97.9159 148.232 100.891 149.757 103.936C149.804 104.03 149.835 104.115 149.898 104.217C151.147 106.265 153.458 107.013 155.69 105.907C156.224 105.642 157.293 104.832 157.403 104.217C157.411 104.154 157.419 103.991 157.403 103.936C157.851 103.952 158.063 102.932 158.095 102.62C158.401 99.9565 156.672 97.9003 154.063 97.5577C154.024 97.5577 153.914 97.4019 153.717 97.4019C153.521 97.4019 153.403 97.5499 153.371 97.5577Z" fill="#D2D2D4"/>
<path d="M148.374 101.576C148.775 95.0261 158.536 95.0261 158.936 101.576C158.952 101.833 158.96 102.152 158.936 102.409C158.693 105.493 156.092 107.518 153.035 107.261C151.832 107.16 150.795 106.444 149.765 105.875C149.624 105.61 149.577 105.268 149.49 105.042C150.174 105.431 150.614 106.07 151.258 106.397C155.927 108.741 160.736 103.5 157.805 99.1772C154.873 94.8547 147.887 97.4949 148.665 102.884C148.744 103.453 149.254 104.458 149.49 105.042C149.459 105.018 149.325 105.089 149.239 105.018C148.83 104.684 148.421 102.978 148.374 102.409C148.351 102.152 148.359 101.833 148.374 101.576Z" fill="#909195"/>
<path d="M174.356 101.164C174.545 102.16 173.711 101.576 173.193 101.592C172.768 101.607 172.202 101.81 171.77 101.841C171.416 101.864 171.039 101.607 170.606 101.857V101.444C171.518 101.35 172.47 101.374 173.381 101.304C173.751 101.273 174.065 101.195 174.356 101.164Z" fill="#909195"/>
<path d="M176.438 100.883C176.202 101.14 175.675 101 175.33 101.023C175.558 100.774 176.092 100.883 176.438 100.883Z" fill="#3B3A3C"/>
<path d="M173.522 101.857L173.105 101.997C173.105 101.997 173.215 101.873 173.522 101.857Z" fill="#3B3A3C"/>
<path d="M176.58 101.717L176.163 101.857C176.163 101.857 176.289 101.74 176.58 101.717Z" fill="#3B3A3C"/>
<path d="M171.432 101.023C171.432 101.023 171.188 101.156 170.874 101.164L171.432 101.023Z" fill="#3B3A3C"/>
<path d="M157.404 104.217C157.294 104.824 156.233 105.642 155.691 105.907C153.459 107.013 151.148 106.265 149.899 104.217C150.952 104.131 152.665 102.877 153.593 102.838C154.52 102.799 156.351 104.17 157.404 104.217Z" fill="#252222"/>
<path d="M154.064 97.5571C156.673 97.892 158.395 99.9559 158.096 102.62C158.064 102.931 157.844 103.951 157.404 103.936C157.373 103.819 157.278 103.819 157.263 103.796C156.712 102.954 155.14 102.199 154.409 101.443L153.922 97.6973C153.922 97.6973 154.008 97.5883 154.064 97.5571Z" fill="#252222"/>
<path d="M153.373 97.5571L152.956 101.576C152.524 101.522 150.464 103.375 150.04 103.796C149.938 103.827 149.812 103.796 149.765 103.936C148.232 100.89 150.063 97.9154 153.381 97.5571H153.373Z" fill="#252222"/>
<path d="M154.064 97.5576C154.009 97.5887 153.962 97.6821 153.923 97.6977C153.829 97.7289 153.648 97.6121 153.632 97.7757C153.616 97.986 153.797 98.2353 153.789 98.4611C153.758 99.2633 153.726 99.6994 153.758 100.533C153.774 100.961 153.31 101.623 154.064 101.717L153.789 101.989L157.263 103.796C157.263 103.796 157.373 103.819 157.404 103.936C157.42 103.991 157.412 104.147 157.404 104.217C156.351 104.17 154.52 102.799 153.593 102.838C152.665 102.877 150.952 104.131 149.899 104.217C149.836 104.115 149.805 104.037 149.758 103.936C149.805 103.796 149.93 103.827 150.033 103.796C151.235 103.438 152.304 102.402 153.506 101.989C153.53 101.849 152.988 101.576 152.949 101.576L153.365 97.5576C153.365 97.5576 153.514 97.4019 153.711 97.4019C153.907 97.4019 154.017 97.5498 154.056 97.5576H154.064Z" fill="#909195"/>
<path d="M153.93 97.6978L154.417 101.444C155.148 102.199 156.712 102.955 157.271 103.796L153.796 101.989L154.071 101.717C153.316 101.623 153.78 100.961 153.764 100.533C153.733 99.6995 153.764 99.2634 153.796 98.4612C153.804 98.2353 153.631 97.9782 153.639 97.7757C153.647 97.6122 153.835 97.7211 153.93 97.6978Z" fill="#D2D2D4"/>
<path d="M152.956 101.577C152.956 101.577 153.538 101.857 153.514 101.989C152.32 102.394 151.243 103.43 150.04 103.796C150.465 103.376 152.532 101.522 152.956 101.577Z" fill="#D2D2D4"/>
</svg>
