<svg width="548" height="635" viewBox="0 0 548 635" fill="none" xmlns="http://www.w3.org/2000/svg">
<path d="M28.8666 133.388L205.275 18.377C205.275 18.377 238.961 5.55592 264.145 47.7938C289.328 90.0316 507.563 421.158 507.563 421.158C507.563 421.158 545.226 466.893 519.413 500.781L343.005 615.792C343.005 615.792 312.14 635.915 283.116 585.378L34.7557 204.433C34.7557 204.433 -3.0694 160.857 28.899 133.367L28.8666 133.388Z" fill="#1B1B1B"/>
<path d="M253.299 61.9525L49.6211 194.742L289.796 563.133L493.475 430.343L253.299 61.9525Z" fill="#7698CD"/>
<path d="M155.455 100.178L128.218 117.935C126.949 118.763 126.63 120.525 127.507 121.87L127.619 122.041C128.495 123.386 130.236 123.805 131.506 122.977L158.743 105.22C160.013 104.392 160.331 102.631 159.454 101.285L159.343 101.114C158.466 99.769 156.725 99.3499 155.455 100.178Z" fill="#3A3636"/>
<path d="M429.811 518.871C424.241 510.328 413.186 507.665 405.119 512.924C397.053 518.184 395.029 529.373 400.599 537.917C406.169 546.46 417.224 549.123 425.291 543.864C433.357 538.605 435.381 527.415 429.811 518.871Z" fill="#3A3636"/>
<path d="M493.475 430.343L317.659 160.67L239.592 486.127L289.796 563.133L493.475 430.343Z" fill="#7DA0C9"/>
</svg>
