<svg width="258" height="503" viewBox="0 0 258 503" fill="none" xmlns="http://www.w3.org/2000/svg">
<path d="M31.8658 0H226.61C226.61 0 259.18 6.68614 257.357 49.5948C255.534 92.5034 257.357 438.812 257.357 438.812C257.357 438.812 263.434 490.231 226.323 502.71H31.5813C31.5813 502.71 -2.49136 502.71 0.54759 451.899V54.7794C0.54759 54.7794 -6.74582 4.86298 31.9025 0H31.8658Z" fill="#2E2929"/>
<path d="M241.805 54.7812H16.958V438.814H241.805V54.7812Z" fill="#7698CD"/>
<path d="M146.703 36.0435H116.637C115.235 36.0435 114.097 37.18 114.097 38.5821V38.761C114.097 40.1632 115.235 41.2997 116.637 41.2997H146.703C148.105 41.2997 149.242 40.1632 149.242 38.761V38.5821C149.242 37.18 148.105 36.0435 146.703 36.0435Z" fill="#3A3636"/>
<path d="M147.777 473.211C147.777 464.305 140.557 457.084 131.652 457.084C122.747 457.084 115.528 464.305 115.528 473.211C115.528 482.117 122.747 489.338 131.652 489.338C140.557 489.338 147.777 482.117 147.777 473.211Z" fill="#3A3636"/>
<path d="M241.805 438.812V157.653L16.958 358.502V438.812H241.805Z" fill="#7DA0C9"/>
<path d="M44.9175 72.8389C52.7473 72.3741 61.0775 73.0535 68.9788 72.9105C74.6991 73.5184 77.4868 77.273 77.737 82.8153C78.0946 90.2886 77.4868 98.0483 77.737 105.557C77.308 112.53 73.2328 115.069 66.6901 115.283C59.2894 115.533 51.8172 115.14 44.4165 115.176C38.2671 114.604 35.1922 110.456 35.2637 104.413C35.4782 97.5117 34.9777 90.4314 35.2637 83.5303C35.5139 77.1297 38.1961 73.1965 44.9175 72.8031V72.8389ZM52.8535 100.372C53.7831 101.194 54.6412 102.089 55.6066 102.875C58.4667 105.128 65.4389 109.597 68.5493 106.057C69.3359 105.164 70.7297 103.34 69.8359 102.231C69.2996 101.552 67.4059 100.48 66.5836 99.979C65.9758 99.6214 64.366 98.5489 63.794 98.4058C62.4711 98.084 61.0416 99.4783 59.8975 99.979C59.1467 100.301 58.825 100.086 58.1815 99.6568C56.6084 98.6556 51.9954 94.0787 50.9944 92.5412C50.7441 92.1836 50.3877 91.5045 50.3519 91.0754C50.3519 90.4676 51.4241 89.0373 51.7101 88.3937C51.9961 87.75 52.3888 86.9273 52.0313 86.2837L48.2064 80.4199C47.5629 79.8835 46.0961 80.491 45.4168 80.8843C40.5187 83.9237 44.5244 90.61 46.9198 94.0069C48.6717 96.5099 50.602 98.3337 52.8186 100.408L52.8535 100.372Z" fill="#7DBB45"/>
<path d="M52.8539 100.373C50.6372 98.3352 48.7069 96.4766 46.9551 93.9736C44.5597 90.5409 40.5557 83.8894 45.4538 80.8501C46.0973 80.4567 47.5624 79.8493 48.2417 80.3856L52.0683 86.2494C52.4616 86.9288 52.0671 87.7158 51.7453 88.3594C51.4236 89.0031 50.3514 90.4333 50.3872 91.0412C50.3872 91.4703 50.7811 92.1136 51.0313 92.507C52.0324 94.0445 56.6794 98.6214 58.2167 99.6226C58.8603 100.016 59.1462 100.267 59.9328 99.9447C61.0768 99.4799 62.5081 98.0498 63.831 98.3716C64.403 98.5147 66.0111 99.5872 66.6189 99.9447C67.4412 100.445 69.3366 101.518 69.8729 102.197C70.7667 103.341 69.3711 105.129 68.5846 106.023C65.4741 109.563 58.5037 105.13 55.6435 102.841C54.6782 102.055 53.7843 101.196 52.8905 100.338L52.8539 100.373Z" fill="#FFFFFE"/>
<path d="M117.602 72.6603L120.353 73.8048C122.32 74.8417 124.323 77.2376 124.931 79.3115C125.038 79.7406 124.788 80.456 125.432 80.456V107.524L124.18 110.456C123.322 111.993 122.141 113.173 120.64 114.032L117.602 115.355H90.5366L87.4973 114.032C85.9957 113.138 84.8168 111.993 83.9587 110.456L82.707 107.524V80.456L83.7073 77.9881C85.0659 75.3778 87.1404 73.8048 89.9291 72.9466C90.1793 72.8751 90.4649 73.0536 90.3934 72.6245H117.602V72.6603ZM90.465 101.124H108.198C108.484 100.087 108.485 98.7275 107.627 97.9409C107.484 97.8336 106.483 97.2975 106.447 97.2975H100.119L107.84 83.8528C108.877 82.2437 107.841 80.527 105.874 80.7773C104.73 80.9203 104.301 82.4578 104.158 82.4935C103.872 82.565 103.587 81.493 103.301 81.3499C101.263 79.7766 99.1529 81.4213 100.368 83.8528C100.619 84.3534 101.727 85.8548 101.798 86.1408C101.834 86.3911 101.549 86.8918 101.442 87.1421C100.262 89.7524 98.0085 93.0067 96.507 95.5812C96.2209 96.0818 95.935 96.7254 95.6847 97.2617C95.3987 97.4405 91.5745 97.1902 90.788 97.2617C88.3568 97.5478 88.7141 100.802 90.5017 101.124H90.465ZM114.884 101.124H117.815C117.815 101.124 118.567 100.658 118.674 100.551C119.711 99.4426 118.997 97.512 117.531 97.2975C116.708 97.1545 112.81 97.4405 112.524 97.2975L107.161 87.9287C105.624 88.5723 105.052 90.3606 105.267 91.9697C105.41 93.1139 107.447 96.0459 108.126 97.2259C109.664 99.9792 111.488 103.734 113.311 106.273C114.777 108.311 117.493 107.167 116.85 104.699C116.743 104.27 114.778 101.266 114.921 101.159L114.884 101.124ZM91.7167 106.773C92.4317 107.488 93.6822 107.452 94.433 106.809C94.7191 106.558 96.7941 102.983 96.7583 102.768C96.5796 101.767 93.6109 101.302 92.7886 102.053C92.5383 102.267 91.3238 104.448 91.2523 104.77C91.1093 105.45 91.217 106.272 91.6818 106.773H91.7167Z" fill="#449AD5"/>
<path d="M114.884 101.126C114.884 101.126 116.707 104.237 116.815 104.666C117.458 107.133 114.704 108.277 113.274 106.239C111.451 103.664 109.628 99.9098 108.091 97.1922C107.412 96.0123 105.373 93.0803 105.23 91.936C105.015 90.327 105.588 88.5386 107.126 87.895L112.489 97.2638C112.81 97.4426 116.671 97.1566 117.494 97.2638C118.924 97.4784 119.674 99.3732 118.637 100.517C118.53 100.625 117.851 101.09 117.78 101.09H114.849L114.884 101.126Z" fill="#F7F7F7"/>
<path d="M90.4654 101.125C88.6778 100.803 88.3205 97.585 90.7517 97.2632C91.5382 97.1559 95.3641 97.4062 95.6502 97.2632C95.9004 96.7268 96.1864 96.0833 96.4724 95.5827C97.974 93.0082 100.262 89.7539 101.406 87.1436C101.513 86.8933 101.799 86.3926 101.764 86.1423C101.692 85.8563 100.584 84.3549 100.334 83.8543C99.1183 81.4228 101.227 79.7781 103.265 81.3514C103.551 81.4945 103.838 82.5665 104.124 82.495C104.267 82.4593 104.66 80.9218 105.84 80.7788C107.771 80.5642 108.807 82.2452 107.806 83.8543L100.083 97.299H106.411C106.411 97.299 107.484 97.8351 107.591 97.9424C108.449 98.729 108.45 100.088 108.163 101.125H90.4305H90.4654Z" fill="#F7F7F7"/>
<path d="M91.7171 106.773C91.2166 106.273 91.1446 105.45 91.2876 104.771C91.3591 104.449 92.5753 102.232 92.8256 102.053C93.6479 101.338 96.5791 101.768 96.7936 102.769C96.8294 102.984 94.7561 106.559 94.4701 106.809C93.6835 107.453 92.467 107.489 91.752 106.773H91.7171Z" fill="#F7F7F7"/>
<path d="M44.8099 123.434C52.8541 122.826 61.65 123.648 69.73 123.576C74.9856 124.291 77.8453 127.975 78.1671 133.16C78.4531 137.773 77.989 142.492 77.989 147.105C77.989 155.472 80.0263 165.519 68.4068 166.413C60.6842 166.02 52.4617 166.95 44.7749 166.413C38.8043 166.02 35.551 162.374 35.1578 156.509C35.551 148.929 34.693 140.883 35.1578 133.338C35.551 127.366 38.8392 123.899 44.8099 123.47V123.434ZM70.2659 135.519H43.1654C43.0939 135.77 43.2729 135.806 43.3801 135.985C46.3118 139.775 50.9595 143.207 54.0342 146.962C55.7146 148.392 57.2874 148.499 59.0392 147.105C62.6502 143.1 66.7273 139.56 70.231 135.519H70.2659ZM42.2716 136.413V153.219L50.5672 144.817L42.2716 136.413ZM71.0166 136.413L62.5429 144.817L71.0166 153.362V136.413ZM43.0222 154.149H70.2659C69.3006 153.183 62.4716 145.675 61.8638 145.675C61.3275 145.675 59.6113 148.821 57.3232 149C54.0697 149.286 53.4979 147.391 51.2812 145.675L43.0222 154.149Z" fill="#4496D2"/>
<path d="M70.2659 135.521C66.7621 139.562 62.651 143.101 59.0758 147.106C57.3239 148.501 55.7512 148.393 54.0708 146.963C50.9604 143.209 46.3126 139.777 43.4167 135.986C43.3094 135.843 43.1304 135.807 43.202 135.521H70.3008H70.2659Z" fill="#FDFEFF"/>
<path d="M43.0215 154.15L51.2805 145.676C53.4971 147.392 54.069 149.287 57.3224 149.001C59.6106 148.786 61.3268 145.64 61.863 145.676C62.4708 145.676 69.2999 153.184 70.2652 154.15H43.0215Z" fill="#FDFEFF"/>
<path d="M71.0162 136.415V153.4L62.5425 144.818L71.0162 136.415Z" fill="#FDFEFF"/>
<path d="M42.271 136.415L50.53 144.818L42.271 153.221V136.415Z" fill="#FDFEFF"/>
<path d="M211.737 72.8379C212.058 72.9094 212.417 72.9453 212.739 72.9811C212.81 72.9811 212.953 73.0883 213.025 72.9811C213.025 72.9811 213.061 72.9811 213.097 72.9811C213.168 73.1241 213.561 73.1242 213.704 73.1242C213.811 73.1242 213.776 73.0884 213.776 73.0884C213.811 73.0884 213.846 73.0884 213.882 73.0884C213.882 73.2315 213.955 73.1958 214.062 73.2316C214.419 73.3031 214.74 73.3382 215.097 73.4455C215.562 73.5885 216.422 73.9468 216.815 74.1971C217.923 74.8765 219.137 76.0917 219.852 77.236C219.995 77.4505 220.068 77.7014 220.247 77.8802C220.247 77.9875 220.283 77.9868 220.319 78.0583C220.426 78.3444 220.567 78.6304 220.675 78.9164C220.853 79.4528 221.104 80.0964 221.176 80.6327C221.211 80.8473 221.284 81.2763 221.284 81.4909C221.284 81.7769 221.284 82.0638 221.284 82.3499C221.284 82.6359 221.284 82.9219 221.284 83.208C221.284 83.4941 221.284 83.7801 221.284 84.0661C221.284 84.3522 221.284 84.6382 221.284 84.9243C221.284 85.2103 221.284 85.4964 221.284 85.7824C221.284 86.0685 221.284 86.3545 221.284 86.6406C221.284 86.9266 221.284 87.2126 221.284 87.4987C221.284 87.7848 221.284 88.0708 221.284 88.3568C221.284 88.6429 221.284 88.9289 221.284 89.215C221.284 89.501 221.284 89.7871 221.284 90.0731C221.284 90.3592 221.284 90.6452 221.284 90.9312C221.284 91.2173 221.284 91.5033 221.284 91.7894C221.284 92.0754 221.284 92.3615 221.284 92.6475C221.284 92.9336 221.284 93.2196 221.284 93.5057C221.284 93.7917 221.284 94.0777 221.284 94.3638C221.284 94.6499 221.284 94.9359 221.284 95.2219C221.284 95.508 221.284 95.794 221.284 96.0801C221.284 96.3661 221.284 96.6522 221.284 96.9382C221.284 97.2243 221.284 97.5103 221.284 97.7964C221.284 98.0824 221.284 98.3684 221.284 98.6545C221.284 98.9405 221.284 99.2266 221.284 99.5126C221.284 99.7987 221.284 100.085 221.284 100.371C221.284 100.657 221.284 100.943 221.284 101.229C221.284 101.515 221.284 101.801 221.284 102.087C221.284 102.373 221.284 102.659 221.284 102.945C221.284 103.231 221.284 103.518 221.284 103.804C221.284 104.09 221.284 104.376 221.284 104.662C221.284 104.948 221.284 105.234 221.284 105.52C221.284 105.807 221.284 106.093 221.284 106.379C221.284 106.665 221.284 106.951 221.284 107.237C221.284 107.666 221.176 108.059 221.176 108.488C221.068 108.881 221.032 109.346 220.889 109.74C220.818 109.954 220.639 110.455 220.532 110.669C220.317 111.206 219.888 111.921 219.566 112.386C219.495 112.493 219.425 112.565 219.353 112.672C219.21 112.851 219.03 113.101 218.887 113.244C218.78 113.351 218.602 113.53 218.494 113.637C218.351 113.78 218.173 113.923 218.03 114.03C217.815 114.209 217.6 114.388 217.386 114.531C216.957 114.71 216.457 115.103 216.028 115.318C215.205 115.711 214.311 115.89 213.453 116.104H185.745C185.53 115.961 185.244 115.997 184.994 115.925C184.529 115.818 183.707 115.532 183.278 115.354C182.742 115.103 182.062 114.603 181.562 114.281C181.455 114.209 181.347 114.066 181.204 114.066L180.705 113.566C180.705 113.566 180.454 113.351 180.347 113.208C180.204 113.065 179.99 112.815 179.882 112.708C179.811 112.6 179.739 112.457 179.668 112.35C179.346 111.885 178.917 111.134 178.702 110.634C178.595 110.347 178.488 110.061 178.416 109.775C178.309 109.418 178.166 108.953 178.095 108.595C178.059 108.345 178.095 108.023 177.952 107.773C177.952 107.594 177.952 107.38 177.952 107.201C177.952 106.915 177.952 106.629 177.952 106.343C177.952 106.057 177.952 105.771 177.952 105.485C177.952 105.199 177.952 104.913 177.952 104.627C177.952 104.34 177.952 104.054 177.952 103.768C177.952 103.482 177.952 103.196 177.952 102.91C177.952 102.624 177.952 102.337 177.952 102.051C177.952 101.765 177.952 101.479 177.952 101.193C177.952 100.907 177.952 100.621 177.952 100.335C177.952 100.049 177.952 99.7629 177.952 99.4768C177.952 99.1908 177.952 98.9048 177.952 98.6187C177.952 98.3326 177.952 98.0466 177.952 97.7606C177.952 97.4745 177.952 97.1885 177.952 96.9024C177.952 96.6164 177.952 96.3303 177.952 96.0443C177.952 95.7582 177.952 95.4722 177.952 95.1861C177.952 94.9001 177.952 94.6141 177.952 94.328C177.952 94.0419 177.952 93.7559 177.952 93.4699C177.952 93.1838 177.952 92.8978 177.952 92.6117C177.952 92.3257 177.952 92.0396 177.952 91.7536C177.952 91.4675 177.952 91.1815 177.952 90.8955C177.952 90.6094 177.952 90.3234 177.952 90.0373C177.952 89.7513 177.952 89.4652 177.952 89.1792C177.952 88.8931 177.952 88.6071 177.952 88.321C177.952 88.035 177.952 87.749 177.952 87.4629C177.952 87.1768 177.952 86.8908 177.952 86.6048C177.952 86.3187 177.952 86.0327 177.952 85.7466C177.952 85.4606 177.952 85.1745 177.952 84.8885C177.952 84.6024 177.952 84.3164 177.952 84.0303C177.952 83.7443 177.952 83.4583 177.952 83.1722C177.952 82.8862 177.952 82.6001 177.952 82.3141C177.952 82.028 177.952 81.742 177.952 81.4559C177.952 81.2056 178.022 80.8831 178.058 80.6685C178.165 80.1679 178.344 79.3812 178.523 78.8806C178.63 78.6303 178.846 78.3086 178.917 78.0225C178.917 77.951 178.953 77.9159 178.989 77.8444C179.167 77.7014 179.274 77.4147 179.381 77.2002C180.096 76.0202 181.205 74.9123 182.421 74.2329C183.1 73.8396 183.492 73.6958 184.243 73.4455C184.35 73.4455 184.459 73.4462 184.423 73.3032C184.459 73.3032 184.494 73.3032 184.53 73.3032C185.388 73.2317 186.281 72.9095 187.211 72.9095L187.354 72.8379H211.773H211.737ZM203.193 87.2839C203.98 87.0336 206.089 86.5689 206.911 86.5332C207.448 86.5332 207.698 86.676 207.734 87.2481V98.1543C207.591 98.9767 207.09 99.2272 206.339 99.263C204.229 99.3702 201.512 98.8692 200.618 101.479C199.832 103.839 201.476 105.591 203.764 105.842C206.946 106.164 209.199 105.127 209.413 101.658V80.6327C209.342 80.0606 209.021 79.668 208.413 79.5965C208.27 79.5965 207.661 79.703 207.482 79.7388C203.979 80.3467 200.403 81.1694 196.9 81.8846C195.863 82.0991 194.648 82.2061 193.682 82.528C192.932 82.7425 192.61 83.2437 192.539 83.9946V101.336C192.36 101.73 192.003 102.123 191.574 102.194C190.751 102.373 189.535 102.159 188.677 102.23C187.069 102.409 186.068 102.91 185.388 104.448C185.138 105.055 185.101 105.449 185.28 106.056C185.888 108.488 187.712 108.881 189.964 108.81C192.395 108.738 194.075 107.487 194.218 104.948C194.504 100.085 193.968 94.9361 194.218 90.0731C194.218 89.8228 194.29 89.3938 194.433 89.215C194.648 88.9289 195.505 88.7854 195.863 88.6781C197.15 88.392 198.437 88.2134 199.724 87.9631C200.69 87.7843 201.655 87.4986 202.62 87.3913C202.906 87.3913 202.907 87.3912 203.193 87.2839Z" fill="#EA4F59"/>
<path d="M185.352 104.446C186.031 102.908 187.068 102.407 188.641 102.228C189.499 102.121 190.715 102.371 191.537 102.193C191.966 102.085 192.324 101.692 192.467 101.335V83.9928C192.539 83.2061 192.859 82.7407 193.646 82.5262C194.647 82.2401 195.828 82.0973 196.865 81.8828C200.369 81.1677 203.944 80.3449 207.447 79.737C207.626 79.737 208.233 79.5947 208.376 79.5947C208.984 79.6662 209.307 80.0588 209.378 80.631V101.657C209.164 105.125 206.911 106.162 203.729 105.84C201.405 105.59 199.761 103.838 200.583 101.478C201.477 98.8674 204.193 99.4042 206.302 99.2612C207.089 99.2254 207.554 98.9392 207.697 98.1525V87.2464C207.661 86.6743 207.411 86.5314 206.875 86.5314C206.053 86.5314 203.943 87.0319 203.156 87.2822C203.013 87.2464 202.727 87.2823 202.584 87.3896C201.619 87.4611 200.655 87.7468 199.689 87.9614C198.402 88.2117 197.115 88.3903 195.828 88.6763C195.435 88.7478 194.613 88.8914 194.398 89.2132C194.255 89.4277 194.183 89.821 194.183 90.0713C193.933 94.9343 194.469 100.083 194.183 104.946C194.04 107.485 192.36 108.737 189.929 108.808C187.713 108.88 185.889 108.486 185.245 106.055C185.245 105.733 185.21 105.304 185.245 104.982C185.245 104.803 185.423 104.66 185.352 104.446Z" fill="white"/>
<path d="M185.244 106.056C185.101 105.448 185.101 105.055 185.351 104.447C185.387 104.661 185.244 104.804 185.244 104.983C185.209 105.305 185.244 105.698 185.244 106.056Z" fill="#E8E6E6"/>
<path d="M203.194 87.2834C202.908 87.3909 202.907 87.3552 202.621 87.391C202.764 87.2835 203.051 87.2476 203.194 87.2834Z" fill="#E8E6E6"/>
<path d="M129.864 83.4917C129.792 84.6717 129.864 86.0664 129.864 87.2822C129.864 91.3585 129.507 96.5789 130.044 100.548C130.079 100.834 130.008 101.263 130.044 101.478C130.115 101.728 130.579 101.585 130.471 101.979C130.936 101.907 130.615 101.692 130.579 101.478C130.508 100.941 130.437 99.7976 130.794 99.3328C130.901 99.154 131.187 99.1536 131.187 98.9391C131.187 98.7603 130.973 98.76 130.866 98.6527C130.687 98.4382 130.615 97.9019 130.972 97.8662C131.115 97.8662 131.652 97.8662 131.76 97.9377C131.903 98.045 131.759 98.5096 131.795 98.5453C131.795 98.5453 132.331 98.6169 132.367 98.6169C132.725 98.6169 132.51 98.1524 132.582 98.0093C132.761 97.7233 133.225 98.1168 133.404 98.2599C133.619 98.4387 133.976 98.8676 134.226 99.0464C134.763 99.4398 134.977 99.0817 134.834 98.5095C134.798 98.3665 134.476 98.2955 134.619 98.0809C134.619 98.0809 135.156 97.902 135.263 97.902C135.871 97.8304 136.407 98.045 136.979 97.902C136.729 99.225 138.016 98.6886 138.767 98.7959C138.874 98.7959 139.767 99.0823 139.839 99.118C139.982 99.2253 139.768 99.6899 140.125 99.7972C140.197 99.7972 140.733 99.9045 140.804 99.8688C141.019 99.8688 141.161 99.5824 141.269 99.5466C141.376 99.5109 141.52 99.7256 141.663 99.7256C142.235 99.8686 142.806 99.9045 143.414 99.8688C143.593 99.7257 143.056 99.5466 142.985 99.5466C142.52 99.4036 142.091 99.475 141.876 99.4035C141.769 99.4035 141.735 99.1895 141.663 99.118C141.592 99.0823 141.483 99.118 141.412 99.118C139.41 98.3314 137.23 97.1867 135.406 96.0067C134.977 95.7207 134.19 94.9346 133.868 94.7915C133.69 94.6843 133.44 94.7913 133.189 94.5768C132.796 94.3265 132.616 93.7899 132.259 93.5039C132.116 92.6815 133.01 92.6818 133.582 92.9321C133.94 93.0751 134.154 93.504 134.548 93.6471C134.655 93.6471 134.798 93.6113 134.905 93.6471C135.048 93.7186 135.298 94.04 135.548 94.1473C135.762 94.2188 136.407 94.2547 136.478 94.3262C136.514 94.362 136.478 94.5411 136.656 94.6484C136.799 94.7556 137.122 94.72 137.301 94.7915C137.479 94.863 137.587 95.0412 137.73 95.077C138.302 95.2915 138.945 95.3993 139.409 95.6139C140.16 95.9715 140.482 95.8638 141.125 96.0783C141.233 96.0783 141.233 96.2573 141.34 96.3288C141.733 96.5791 142.056 96.329 142.485 96.4362C143.522 96.615 144.773 97.0798 145.846 97.2944C147.169 97.5447 148.277 97.5083 149.564 97.5798C150.494 97.6156 151.388 97.7588 152.389 97.7588C155.177 97.7588 158.823 97.2586 161.362 96.4004C161.612 96.3289 161.898 96.0782 162.112 96.0067C162.506 95.8994 163.221 95.8285 163.579 95.6855C163.722 95.6497 163.686 95.4707 163.794 95.4349C164.008 95.3634 164.437 95.3633 164.687 95.2917C164.83 95.256 165.331 94.898 165.366 94.898C165.795 94.7908 166.367 94.8987 166.796 94.7199C166.689 95.0418 166.974 95.292 166.974 95.5423C166.974 95.5423 166.797 96.1499 166.761 96.1857C166.761 96.1857 166.403 96.2931 166.26 96.3646C166.117 96.4362 166.08 96.6152 166.009 96.651C165.759 96.794 165.437 96.8293 165.187 97.0438C165.187 97.1868 165.724 96.9365 165.902 97.0438C166.153 97.1868 165.974 97.7945 166.403 97.723C166.403 97.723 166.582 97.3661 166.796 97.5449C166.975 97.6879 165.938 98.9748 166.868 98.9391C166.689 98.6172 166.939 98.546 167.011 98.3315C167.082 98.1527 167.01 97.9018 167.117 97.723C167.189 97.58 167.368 97.5806 167.404 97.4733C167.404 97.3661 167.332 97.2227 167.332 97.1512C167.332 97.1154 167.476 97.1153 167.512 97.0438C167.762 96.2214 168.048 95.4349 167.976 94.5052C167.941 94.0046 167.834 93.8976 167.297 93.8618C166.117 93.7545 165.009 94.0041 163.865 94.0399C163.686 94.0399 163.006 94.2194 162.935 93.8976C162.827 93.4685 163.149 93.2181 163.399 92.9321C163.435 92.8963 163.579 92.932 163.65 92.8605C163.686 92.789 163.685 92.6099 163.757 92.5742C163.828 92.5384 164.222 92.5742 164.401 92.5742C164.687 92.5027 164.793 92.3236 165.044 92.252C165.294 92.1805 165.866 92.1097 166.152 92.074C167.082 92.0024 168.047 92.1097 168.977 92.074C169.477 92.217 170.442 92.5023 170.478 93.1102C170.549 94.0399 170.193 95.2202 169.907 96.1141C169.836 96.3286 169.299 97.4734 169.334 97.5449C169.764 97.4376 170.299 97.6514 170.693 97.6514C170.979 97.6514 171.158 97.4375 171.408 97.4017C171.766 97.3302 172.374 97.2939 172.517 97.6872C172.624 97.9733 172.445 98.5104 172.767 98.4388C172.624 97.974 172.982 97.5804 173.018 97.2586C173.089 96.8652 172.982 96.3284 173.018 95.8636C173.054 95.6133 173.017 95.4708 173.339 95.5423C173.339 95.6496 173.339 95.7921 173.339 95.8993C173.089 95.8636 173.159 96.0427 173.159 96.1857C173.088 97.616 173.124 99.2608 173.159 100.691C173.159 100.87 173.053 101.049 173.339 100.977C173.339 102.551 173.411 104.159 173.339 105.733L172.981 106.591C173.16 107.556 172.659 108.486 172.552 109.308C172.552 109.487 172.695 109.559 172.695 109.595C172.695 109.63 172.695 109.702 172.695 109.774C172.445 109.774 172.553 109.774 172.517 109.953C172.374 111.061 171.016 112.955 170.193 113.742C168.406 115.387 166.045 116.245 163.614 116.388C155.712 116.817 147.419 116.031 139.518 116.388C137.658 116.209 136.227 115.924 134.654 115.066C134.547 114.637 133.976 114.529 133.69 114.351C133.583 114.279 133.51 114.207 133.439 114.172C133.296 113.993 133.153 113.921 133.01 113.814C132.652 113.563 132.724 113.564 132.474 113.278C132.474 113.099 132.403 112.991 132.224 113.027C132.152 112.92 132.116 112.848 132.044 112.777C131.937 112.419 131.759 111.919 131.33 111.812V111.74C131.33 111.562 131.329 111.526 131.15 111.561C131.007 111.275 131.044 111.239 130.972 111.025C130.901 110.81 130.9 110.596 130.614 110.596C130.543 110.381 130.436 110.131 130.365 109.881H130.436C130.436 109.666 130.435 109.702 130.257 109.702C130.257 109.63 130.257 109.523 130.257 109.451C130.257 109.451 130.328 109.38 130.328 109.273C130.292 108.879 130.186 108.308 129.9 108.057C129.865 107.7 129.829 107.163 129.829 106.734C130.008 106.591 129.972 106.305 129.757 106.377C129.722 105.447 129.864 104.482 129.864 103.623C129.792 96.9369 129.613 90.1426 129.864 83.5275H129.935L130.007 83.5991L129.864 83.4917ZM168.119 94.0041C168.513 94.469 168.012 96.1138 167.833 96.7217C167.69 97.1508 167.047 98.5457 167.083 98.8675C167.154 99.4396 168.047 98.546 168.226 98.3315C169.227 97.1872 170.192 94.5771 170.014 93.0753C169.906 92.3601 168.44 92.252 167.868 92.252C166.617 92.2163 165.33 92.3957 164.186 92.8963C163.829 93.0393 162.327 93.9692 163.471 93.9334C164.186 93.9334 165.116 93.6828 165.831 93.6471C166.331 93.6471 167.833 93.6466 168.119 94.0399V94.0041ZM149.564 100.655C155.142 100.62 161.255 99.7258 165.902 96.3646C166.26 96.1143 166.761 95.8639 166.618 95.3633C166.368 94.5767 164.83 95.5067 164.33 95.6855C154.498 99.1897 144.415 98.6884 135.012 94.1473C134.619 93.9685 133.083 93.0037 132.797 93.0037C132.01 93.0394 132.975 93.8969 133.189 94.1115C136.443 97.0793 142.019 99.5823 146.345 100.297L149.384 100.655C149.384 100.655 149.277 100.763 149.17 100.763C147.99 100.763 146.811 100.584 145.703 100.333C145.631 100.655 145.989 100.441 146.061 100.512C145.846 100.905 146.31 101.12 146.453 101.478C146.632 101.513 146.668 101.191 146.811 101.156C147.133 101.048 149.17 101.049 149.671 101.085C150.529 101.085 151.029 101.585 152.066 101.406C152.316 101.37 152.567 101.12 152.853 101.156C153.175 101.156 153.712 101.478 154.105 101.478C154.748 101.478 154.926 100.942 155.355 100.977C155.784 100.977 155.891 101.442 155.426 101.478C155.212 101.478 154.497 101.228 154.89 101.871C154.998 102.086 155.57 102.05 155.784 101.979C156.106 101.871 156.107 101.549 156.357 101.478C156.822 101.37 157.25 101.657 157.715 101.657C157.894 100.763 156.929 101.085 156.643 100.906C156.536 100.834 156.536 100.655 156.572 100.584C156.572 100.584 157.107 100.405 157.142 100.405C157.75 100.405 158.43 100.405 159.038 100.191C159.181 100.155 159.252 99.9761 159.431 99.9404C159.681 99.9046 160.004 100.012 160.218 99.9404C160.397 99.8688 160.361 99.5466 160.54 99.4751C160.718 99.4035 161.326 99.3685 161.648 99.2612C161.934 99.1539 162.326 98.7601 162.362 98.7601C162.505 98.7243 162.685 98.76 162.828 98.6885C163.043 98.617 163.472 98.2243 163.722 98.403C163.865 98.5103 163.722 98.8315 164.008 98.6885C164.473 98.5097 164.008 98.1522 163.937 97.8304C163.686 97.8304 163.685 98.0452 163.542 98.0809C159.645 99.9403 154.283 101.156 149.885 100.87C149.707 100.87 149.636 100.906 149.636 100.655H149.564ZM164.08 97.8304C164.366 97.7231 165.079 97.8661 165.258 97.8304C165.544 97.7231 165.438 97.1513 164.902 97.2944C164.902 97.2944 164.365 97.5799 164.258 97.6514C164.115 97.7229 164.044 97.6516 164.08 97.8662V97.8304ZM169.191 97.5798H168.942C168.906 97.5798 168.762 98.4023 168.69 98.5453C169.262 98.4738 169.264 98.0447 169.228 97.5798H169.191ZM144.737 100.119C144.737 100.119 143.843 99.8688 143.772 99.9404C143.7 100.334 144.63 100.476 144.737 100.369C144.737 100.369 144.737 100.155 144.737 100.119ZM144.915 100.297V100.476H145.273V100.297H144.915Z" fill="#D3AF76"/>
<path d="M172.981 81.2032C173.66 85.3868 173.266 91.0721 173.23 95.4703C172.944 95.3988 172.945 95.577 172.909 95.7915C172.838 96.2564 172.945 96.7575 172.909 97.1866C172.838 97.5084 172.481 97.902 172.66 98.3668C172.338 98.4026 172.551 97.9013 172.408 97.6152C172.265 97.2219 171.657 97.294 171.3 97.3297C171.049 97.3655 170.872 97.5794 170.586 97.5794C170.192 97.5794 169.657 97.4014 169.228 97.4729C169.156 97.4014 169.727 96.2566 169.798 96.0421C170.12 95.1482 170.443 93.9687 170.371 93.039C170.371 92.4669 169.37 92.1807 168.87 92.0019C168.155 91.7516 167.153 91.7872 166.366 91.823C166.188 91.823 166.009 91.7159 166.08 92.0019C165.794 92.0019 165.224 92.1094 164.973 92.1809C164.723 92.2524 164.615 92.4664 164.329 92.5022C164.15 92.5022 163.756 92.5022 163.685 92.5022C163.649 92.5022 163.65 92.717 163.578 92.7885C163.507 92.86 163.399 92.8243 163.327 92.8601C163.041 93.1461 162.755 93.3965 162.863 93.8256C162.934 94.1832 163.614 93.9688 163.793 93.9688C164.937 93.9688 166.045 93.6825 167.225 93.7898C167.726 93.8256 167.833 93.9326 167.904 94.4332C167.976 95.3629 167.726 96.1494 167.44 96.9718C167.44 97.0433 167.26 97.0434 167.26 97.0792C167.26 97.1865 167.367 97.294 167.332 97.4013C167.332 97.5086 167.117 97.508 167.045 97.651C166.974 97.8298 167.01 98.0449 166.939 98.2595C166.867 98.474 166.617 98.5452 166.796 98.867C165.866 98.9028 166.867 97.6159 166.724 97.4729C166.51 97.2584 166.367 97.651 166.331 97.651C165.902 97.7225 166.081 97.1148 165.83 96.9718C165.652 96.8645 165.115 97.1148 165.115 96.9718C165.329 96.7573 165.687 96.722 165.937 96.579C166.008 96.5432 166.045 96.3641 166.188 96.2926C166.331 96.2211 166.654 96.1494 166.689 96.1137C166.689 96.1137 166.902 95.506 166.902 95.4703C166.902 95.22 166.617 94.934 166.724 94.6479C166.295 94.791 165.723 94.7196 165.294 94.8269C165.259 94.8269 164.758 95.184 164.615 95.2197C164.365 95.2913 163.936 95.2556 163.722 95.3629C163.614 95.3987 163.65 95.5419 163.507 95.6135C163.185 95.7565 162.434 95.7917 162.04 95.9347C161.826 96.0062 161.54 96.2569 161.29 96.3284C158.751 97.1508 155.07 97.651 152.317 97.6868C152.317 97.365 152.388 97.4371 152.102 97.4371C151.709 97.4371 151.244 97.5086 150.85 97.4371C150.636 97.4371 150.529 97.2581 150.314 97.2581C150.064 97.2581 149.671 97.3299 149.492 97.5445C148.205 97.473 147.097 97.5442 145.774 97.2581C144.701 97.0436 143.486 96.5788 142.413 96.4C142.02 96.3285 141.661 96.5429 141.268 96.2926C141.161 96.2211 141.161 96.0778 141.053 96.0421C140.41 95.8633 140.088 95.971 139.337 95.5777C138.873 95.3631 138.23 95.2553 137.658 95.0408C137.515 94.9693 137.407 94.8268 137.229 94.7553C137.05 94.6838 136.727 94.7194 136.584 94.6121C136.406 94.5049 136.478 94.3258 136.406 94.29C136.335 94.2185 135.692 94.1826 135.478 94.1111C135.227 94.0038 134.976 93.6824 134.833 93.6108C134.726 93.5751 134.583 93.6466 134.476 93.6108C134.046 93.4678 133.868 93.0747 133.51 92.8959C132.938 92.6456 132.08 92.6453 132.187 93.4677C132.544 93.7537 132.724 94.2903 133.117 94.5406C133.368 94.7193 133.618 94.648 133.796 94.7553C134.118 94.9341 134.905 95.7202 135.334 95.9705C137.158 97.1505 139.338 98.2951 141.34 99.0818C141.411 99.0818 141.52 99.0818 141.591 99.0818C141.698 99.1533 141.697 99.3315 141.804 99.3673C142.019 99.4388 142.484 99.3674 142.913 99.5104C142.948 99.5104 143.521 99.6895 143.342 99.8326C142.77 99.8326 142.163 99.8324 141.591 99.6894C141.448 99.6894 141.304 99.4747 141.197 99.5104C141.089 99.5462 140.947 99.7968 140.732 99.8326C140.661 99.8326 140.125 99.761 140.053 99.761C139.66 99.6537 139.91 99.1533 139.767 99.0818C139.695 99.046 138.838 98.7597 138.695 98.7597C137.944 98.6882 136.657 99.1888 136.907 97.8657C136.335 98.0088 135.799 97.7942 135.191 97.8657C135.084 97.8657 134.547 98.0089 134.547 98.0447C134.404 98.2592 134.726 98.2945 134.762 98.4733C134.905 99.0454 134.691 99.4035 134.154 99.0102C133.94 98.8314 133.582 98.4024 133.332 98.2237C133.153 98.0806 132.689 97.6871 132.51 97.9731C132.438 98.1161 132.617 98.5807 132.295 98.5807C132.259 98.5807 131.723 98.5091 131.723 98.5091C131.651 98.4734 131.795 97.973 131.688 97.9015C131.58 97.83 131.043 97.7942 130.9 97.8299C130.579 97.9015 130.615 98.402 130.794 98.6165C130.901 98.7595 131.151 98.7241 131.115 98.9028C131.115 99.1174 130.829 99.1178 130.722 99.2965C130.4 99.7614 130.436 100.869 130.507 101.441C130.507 101.656 130.864 101.871 130.399 101.943C130.507 101.549 130.043 101.692 129.972 101.441C129.9 101.227 129.972 100.798 129.972 100.512C129.471 96.5784 129.756 91.358 129.792 87.246C130.507 87.7466 131.008 86.2804 131.33 86.2804C131.687 86.2804 131.472 86.8523 131.579 86.888C131.83 86.9595 131.651 86.6025 131.794 86.4952C131.866 86.4237 133.153 86.4236 133.332 86.4594C133.582 86.4594 133.725 86.6026 134.011 86.6384C134.69 86.7099 135.333 86.3521 136.12 86.4594C136.549 86.4952 136.729 86.7099 137.265 86.6384C138.338 86.5311 138.337 86.4596 139.446 86.6384C140.196 86.7456 140.84 86.3879 141.663 86.4594C142.628 86.5667 142.521 86.5667 143.522 86.4594C144.38 86.3879 145.022 86.7099 145.737 86.6384C146.81 86.5311 146.811 86.4596 147.919 86.6384C148.67 86.7456 149.312 86.3879 150.135 86.4594C151.1 86.5667 150.993 86.5667 151.994 86.4594C152.852 86.3879 153.496 86.7099 154.211 86.6384C155.283 86.5311 155.283 86.4596 156.391 86.6384C157.142 86.7456 157.786 86.3879 158.608 86.4594C159.073 86.4952 159.287 86.7099 159.823 86.6384C160.896 86.5311 160.897 86.4596 162.006 86.6384C162.756 86.7456 163.399 86.3879 164.221 86.4594C164.686 86.4952 164.901 86.7099 165.438 86.6384C166.51 86.5311 166.51 86.4596 167.618 86.6384C168.369 86.7456 169.013 86.3879 169.835 86.4594C170.443 86.5309 170.836 86.9953 170.979 86.0299C171.3 86.1014 171.801 85.9584 172.087 86.0299C172.266 86.0657 172.123 86.4236 172.373 86.3878C172.445 86.3878 172.766 86.2088 172.766 86.1373C172.838 85.8512 172.766 84.6353 172.766 84.2062C172.766 83.5269 172.73 83.5631 172.838 82.8837C172.945 82.3116 172.695 82.2402 172.66 82.0971C172.66 81.9541 172.66 81.6674 172.66 81.4887C172.66 81.3099 172.552 81.1317 172.838 81.2032H172.981Z" fill="#DAB77E"/>
<path d="M172.981 81.2032C172.731 81.1675 172.803 81.3457 172.803 81.4887C172.803 81.6317 172.803 81.9541 172.803 82.0972C172.839 82.276 173.053 82.3474 172.981 82.8837C172.874 83.5631 172.874 83.5269 172.91 84.2063C172.91 84.5996 172.981 85.8513 172.91 86.1373C172.91 86.2088 172.589 86.3521 172.517 86.3879C172.267 86.4236 172.409 86.0657 172.231 86.0299C171.945 85.9584 171.444 86.1015 171.122 86.0299C170.979 86.9954 170.587 86.531 169.979 86.4594C169.156 86.3879 168.512 86.7457 167.762 86.6384C166.618 86.4954 166.654 86.5311 165.581 86.6384C165.045 86.6742 164.794 86.4952 164.364 86.4594C163.542 86.3879 162.9 86.7457 162.149 86.6384C161.005 86.4954 161.04 86.5311 159.967 86.6384C159.431 86.6742 159.181 86.4952 158.752 86.4594C157.93 86.3879 157.286 86.7457 156.535 86.6384C155.391 86.4954 155.427 86.5311 154.355 86.6384C153.675 86.7099 152.996 86.3879 152.137 86.4594C151.172 86.5667 151.244 86.5667 150.278 86.4594C149.456 86.3879 148.812 86.7457 148.061 86.6384C146.917 86.4954 146.953 86.5311 145.881 86.6384C145.202 86.7099 144.522 86.3879 143.664 86.4594C142.698 86.5667 142.77 86.5667 141.805 86.4594C140.982 86.3879 140.34 86.7457 139.589 86.6384C138.445 86.4954 138.48 86.5311 137.407 86.6384C136.871 86.6742 136.657 86.4952 136.264 86.4594C135.441 86.3522 134.834 86.7099 134.155 86.6384C133.869 86.6384 133.69 86.4952 133.476 86.4594C133.261 86.4594 132.009 86.4595 131.938 86.4952C131.795 86.6025 131.938 86.9596 131.723 86.8881C131.616 86.8881 131.831 86.2805 131.473 86.2805C131.152 86.2805 130.65 87.7466 129.935 87.246C129.935 86.0303 129.864 84.6713 129.935 83.4555C129.935 83.4555 130.007 83.3839 130.007 83.3124C130.043 82.7402 130.114 82.1682 130.185 81.5961C129.971 81.5246 129.971 81.7752 129.935 81.9182C129.864 82.3831 129.793 82.8833 129.829 83.3482H129.757C129.9 79.8082 130.58 76.9122 133.619 74.731C135.335 73.4795 137.766 72.9073 139.876 72.8715C140.555 72.8715 141.233 72.8715 141.913 72.8715C141.984 72.8715 142.019 72.8715 142.091 72.8715C142.091 72.8715 142.163 72.9074 142.271 72.9431C142.271 73.4795 142.341 74.0157 142.377 74.5878C142.377 76.912 142.199 79.2719 142.271 81.6319C142.271 81.8107 142.163 81.9897 142.449 81.9182C142.449 82.097 142.341 82.8838 142.377 82.9553C142.377 82.9553 142.842 83.1343 142.913 83.1343C142.985 83.1343 143.771 82.6331 143.878 82.5258C144.057 82.4185 144.237 82.2044 144.451 82.0256C144.773 81.7753 144.845 81.3818 145.238 81.8108C145.31 81.8824 145.344 81.9899 145.451 82.0972C145.559 82.1687 145.63 82.1688 145.666 82.1688C145.881 82.276 146.131 82.347 146.345 82.5258C146.488 82.6331 146.525 82.848 146.668 82.9195C147.026 83.1698 147.49 83.2056 147.883 82.9911C147.99 82.9196 148.276 82.7405 148.419 82.6332C148.848 82.3829 149.243 81.8467 149.779 81.8824C150.208 81.9182 150.815 82.5976 151.209 82.8479C151.316 82.9194 151.709 83.2059 151.816 83.2059C152.46 83.2059 153.103 81.8822 153.747 81.6319C154.033 81.8822 154.425 82.0259 154.676 82.3119C154.783 82.4192 154.82 82.5616 154.856 82.5974C154.999 82.7762 155.284 83.027 155.391 83.1701C155.606 83.4919 155.499 83.9207 156.214 83.8134C156.929 83.7062 156.428 83.2415 156.463 83.0627C156.499 82.8481 157.429 82.7767 157.179 82.2045C157.358 82.0615 157.322 82.0613 157.537 81.954C157.68 81.8825 157.857 81.8822 157.965 81.7035C158.286 81.8107 158.251 81.9184 158.394 82.0614C158.394 82.2402 158.395 82.2761 158.574 82.2403C158.753 82.4191 158.787 82.3115 159.002 82.7764C159.002 82.7764 159.002 82.8838 159.002 82.9553C159.002 82.9553 159.574 83.1343 159.646 83.1343C159.968 83.17 159.825 83.0268 159.861 82.9553C159.896 82.8838 160.039 82.8121 160.039 82.7764C160.253 82.7764 160.289 82.7762 160.11 82.5974C160.217 79.4865 159.967 76.3046 160.11 73.2295C160.11 73.0507 160.147 72.9072 160.218 72.7642C161.792 72.8714 163.329 72.6928 164.902 72.9431C169.264 73.6225 172.374 76.7693 173.053 81.1317L172.981 81.2032ZM130.15 80.9527V80.5948H130.079V80.9527H130.15ZM145.024 82.4542C145.024 82.4542 144.987 82.3477 144.915 82.3477C144.844 82.3477 144.809 82.3827 144.809 82.4542C144.809 82.5257 144.844 82.5616 144.915 82.5616C144.987 82.5616 145.024 82.5257 145.024 82.4542Z" fill="#E1BE84"/>
<path d="M159.789 72.8735V82.3846C158.967 82.7065 158.323 81.241 157.715 81.241C156.821 81.241 156.535 82.7426 155.784 82.7426C155.427 82.7426 154.283 81.2768 153.747 81.241C153.211 81.2053 152.459 82.5637 151.994 82.6352C150.957 82.814 150.278 80.9193 149.241 81.3484C148.741 81.706 147.775 82.814 147.167 82.7068C146.81 82.671 146.632 82.2063 146.382 81.9918C146.167 81.8488 145.595 81.4199 145.416 81.3126C145.309 81.2411 145.13 81.1337 144.987 81.1337C144.308 81.0979 143.449 82.7073 142.913 82.3139C142.734 82.1709 142.914 80.7047 142.735 80.3829V72.9451C142.735 72.9451 142.735 72.8019 142.806 72.7662C142.949 72.7304 143.377 72.6945 143.592 72.6588C148.705 72.3727 154.105 72.9091 159.253 72.6588C159.467 72.5873 159.716 72.8377 159.824 72.8377L159.789 72.8735Z" fill="#1FABE2"/>
<path d="M142.699 72.9446V80.3824C142.877 80.7399 142.7 82.1704 142.878 82.3134C143.415 82.671 144.273 81.0974 144.952 81.1331C145.095 81.1331 145.273 81.2406 145.38 81.3121C145.595 81.4194 146.167 81.8482 146.345 81.9913C146.631 82.2058 146.775 82.6347 147.133 82.7062C147.741 82.8135 148.706 81.7055 149.207 81.3479C150.279 80.883 150.959 82.8134 151.96 82.6347C152.424 82.5274 153.174 81.2048 153.711 81.2405C154.247 81.2763 155.392 82.742 155.75 82.742C156.5 82.742 156.787 81.2048 157.68 81.2405C158.288 81.2405 158.895 82.7059 159.753 82.3841V72.873C159.753 72.873 160.003 72.873 160.11 72.873C160.075 73.016 160.04 73.1953 160.004 73.3383C159.861 76.4134 160.111 79.6311 160.004 82.7062C159.897 82.7062 159.932 82.8137 159.932 82.8852C159.932 82.8852 159.788 82.9926 159.753 83.0642L158.859 82.8852C158.644 82.4561 158.574 82.5637 158.431 82.3492C158.431 82.3492 158.431 82.206 158.431 82.1702C158.431 82.1345 158.287 82.1702 158.251 82.1702C158.072 82.0272 158.145 81.9196 157.824 81.8123C157.573 81.7408 157.43 81.7768 157.394 82.0629C157.18 82.1701 157.215 82.2061 157.036 82.3134C156.786 82.5279 156.464 82.8854 156.142 83.0642C155.463 83.4575 155.32 82.7777 154.748 82.6704C154.676 82.5989 154.677 82.4914 154.57 82.3841C154.319 82.1338 153.925 81.991 153.639 81.7049C153.031 81.9195 152.352 83.2423 151.708 83.278C151.601 83.278 151.208 82.9925 151.101 82.921C150.707 82.6707 150.1 81.9912 149.671 81.9555C149.135 81.9197 148.742 82.4202 148.313 82.7062C148.17 82.7778 147.884 82.9926 147.777 83.0642C147.384 83.2787 146.953 83.2429 146.56 82.9926C146.453 82.9211 146.382 82.7061 146.239 82.5989C146.024 82.4558 145.774 82.3491 145.56 82.2418C145.56 81.9915 145.345 81.8839 145.13 81.8839C144.737 81.4548 144.667 81.8841 144.345 82.0986C144.13 82.2774 143.915 82.4558 143.772 82.5989C143.665 82.6704 142.878 83.1716 142.807 83.2073C142.735 83.2073 142.271 83.0641 142.271 83.0284C142.235 82.9569 142.342 82.1701 142.342 81.9913C142.414 81.1331 142.413 80.3109 142.449 79.4884C142.449 77.343 142.449 75.1974 142.449 73.0878C142.449 72.9805 142.271 73.0877 142.199 73.052C142.092 73.052 142.02 72.9804 142.02 72.9804C142.198 72.7301 142.7 72.9804 142.735 72.9804L142.699 72.9446Z" fill="#D3AF76"/>
<path d="M173.231 95.8286C173.231 97.545 173.231 99.2262 173.231 100.943C172.98 100.978 173.053 100.799 173.053 100.656C173.017 99.2259 172.981 97.581 173.053 96.1507C173.053 95.972 172.945 95.7929 173.231 95.8644V95.8286Z" fill="#DAB77E"/>
<path d="M173.23 105.662C173.159 106.913 173.016 108.344 172.623 109.524C172.623 109.524 172.444 109.416 172.48 109.237C172.587 108.379 173.088 107.485 172.909 106.52L173.267 105.662H173.23Z" fill="#DAB77E"/>
<path d="M141.841 72.9452C141.198 72.9452 140.483 72.9452 139.804 72.9452C140.412 72.8021 141.234 72.8021 141.841 72.9452Z" fill="#D3AF76"/>
<path d="M130.15 109.346C129.972 108.953 129.864 108.381 129.792 107.952C130.078 108.202 130.15 108.811 130.222 109.168C130.222 109.311 130.15 109.346 130.15 109.346Z" fill="#E1BE84"/>
<path d="M131.903 112.707C131.581 112.313 131.437 112.242 131.187 111.741C131.58 111.848 131.795 112.349 131.903 112.707Z" fill="#E1BE84"/>
<path d="M133.583 114.28C133.869 114.459 134.441 114.566 134.548 114.995C134.262 114.852 133.69 114.602 133.583 114.28Z" fill="#E1BE84"/>
<path d="M130.83 110.956C130.543 110.956 130.543 110.705 130.471 110.526C130.758 110.526 130.758 110.777 130.83 110.956Z" fill="#E1BE84"/>
<path d="M129.614 106.27C129.865 106.198 129.865 106.484 129.686 106.628C129.686 106.592 129.614 106.449 129.614 106.27Z" fill="#E1BE84"/>
<path d="M132.331 113.242C132.331 113.242 132.188 113.134 132.081 112.991C132.26 112.991 132.331 113.063 132.331 113.242Z" fill="#E1BE84"/>
<path d="M132.866 113.746C132.866 113.746 133.189 113.925 133.296 114.104C133.153 114.032 132.83 114.068 132.866 113.746Z" fill="#E1BE84"/>
<path d="M130.15 109.632C130.15 109.632 130.363 109.632 130.328 109.774H130.256C130.256 109.774 130.185 109.774 130.185 109.632H130.15Z" fill="#E1BE84"/>
<path d="M172.623 109.704C172.623 109.883 172.659 109.919 172.445 109.883C172.445 109.704 172.373 109.668 172.623 109.704Z" fill="#DAB77E"/>
<path d="M131.009 111.49C131.187 111.49 131.221 111.49 131.186 111.667C131.079 111.561 131.187 111.773 131.009 111.49Z" fill="#E1BE84"/>
<path d="M149.565 100.655C149.565 100.655 149.456 100.655 149.385 100.655L146.345 100.297C142.019 99.582 136.443 97.0791 133.19 94.1112C132.975 93.9324 132.01 93.0392 132.797 93.0034C133.083 93.0034 134.619 93.9325 135.012 94.147C144.415 98.6882 154.498 99.1894 164.33 95.6852C164.83 95.5064 166.368 94.5764 166.618 95.3631C166.761 95.8994 166.26 96.1141 165.903 96.3644C161.255 99.7256 155.178 100.619 149.565 100.655Z" fill="#16120A"/>
<path d="M168.12 94.0066C167.798 93.6133 166.296 93.6138 165.831 93.6138C165.08 93.6138 164.186 93.8644 163.471 93.9001C162.327 93.9001 163.829 93.006 164.187 92.863C165.331 92.3624 166.617 92.183 167.868 92.2188C168.476 92.2188 169.942 92.3268 170.014 93.042C170.228 94.5438 169.227 97.1539 168.226 98.2982C168.048 98.5127 167.19 99.4063 167.083 98.8342C167.047 98.5124 167.69 97.1175 167.833 96.6884C168.012 96.1163 168.513 94.4723 168.12 93.9717V94.0066Z" fill="#16120A"/>
<path d="M149.565 100.658C149.565 100.944 149.636 100.873 149.815 100.873C154.212 101.159 159.574 99.9429 163.471 98.0836C163.579 98.012 163.616 97.833 163.866 97.833C163.902 98.1548 164.402 98.5124 163.938 98.6911C163.616 98.7984 163.794 98.4772 163.651 98.4057C163.401 98.2269 162.972 98.5839 162.757 98.6911C162.614 98.7627 162.436 98.6912 162.293 98.7627C162.257 98.7627 161.863 99.1923 161.577 99.2638C161.256 99.3711 160.648 99.3704 160.469 99.4777C160.29 99.585 160.326 99.9072 160.148 99.943C159.933 100.015 159.611 99.943 159.36 99.943C159.182 99.943 159.111 100.122 158.968 100.194C158.36 100.408 157.679 100.372 157.072 100.407C157.072 100.407 156.501 100.551 156.501 100.586C156.501 100.622 156.501 100.837 156.572 100.909C156.858 101.087 157.823 100.765 157.644 101.659C157.179 101.659 156.751 101.409 156.286 101.48C156.036 101.516 156.035 101.874 155.713 101.981C155.499 102.053 154.963 102.089 154.82 101.874C154.462 101.23 155.177 101.516 155.356 101.48C155.82 101.409 155.713 100.98 155.284 100.98C154.855 100.98 154.678 101.516 154.034 101.48C153.641 101.48 153.14 101.158 152.782 101.158C152.496 101.158 152.245 101.373 151.995 101.409C150.958 101.588 150.458 101.123 149.6 101.087C149.099 101.087 147.062 101.051 146.74 101.158C146.562 101.23 146.561 101.552 146.383 101.48C146.24 101.123 145.775 100.908 145.99 100.515C145.918 100.443 145.56 100.658 145.632 100.336C146.776 100.586 147.955 100.801 149.099 100.765C149.206 100.765 149.314 100.658 149.314 100.658C149.385 100.658 149.422 100.658 149.493 100.658H149.565Z" fill="#DAB77E"/>
<path d="M149.493 97.5804C149.671 97.4016 150.065 97.2949 150.315 97.2949C150.529 97.2949 150.636 97.4381 150.851 97.4739C151.208 97.5096 151.709 97.4739 152.103 97.4739C152.389 97.4739 152.317 97.4375 152.317 97.7236C151.352 97.7236 150.422 97.617 149.493 97.5455V97.5804Z" fill="#E1BE84"/>
<path d="M164.08 97.8313C164.045 97.6167 164.116 97.688 164.259 97.6165C164.366 97.5807 164.867 97.2952 164.903 97.2595C165.439 97.1522 165.581 97.7239 165.259 97.7955C165.08 97.867 164.366 97.6882 164.08 97.7955V97.8313Z" fill="#DAB77E"/>
<path d="M168.833 92.0394C167.904 92.0752 166.938 91.9679 166.009 92.0394C165.973 91.7891 166.152 91.8605 166.295 91.8605C167.081 91.8605 168.083 91.7891 168.798 92.0394H168.833Z" fill="#E1BE84"/>
<path d="M129.793 83.4228C129.757 82.958 129.83 82.4577 129.901 81.9929C129.901 81.8499 129.901 81.5993 130.151 81.6708C130.079 82.2429 130.009 82.8149 129.973 83.3871C129.973 83.4586 129.901 83.4945 129.901 83.5302L129.83 83.4586L129.793 83.4228Z" fill="#DAB77E"/>
<path d="M144.738 100.12V100.37C144.631 100.477 143.701 100.334 143.772 99.9409C143.844 99.8694 144.702 100.048 144.738 100.12Z" fill="#DAB77E"/>
<path d="M169.192 97.5815C169.227 98.0464 169.228 98.4755 168.656 98.5471C168.763 98.404 168.87 97.6173 168.905 97.5815C168.905 97.5815 169.085 97.5815 169.157 97.5815H169.192Z" fill="#DAB77E"/>
<path d="M145.008 100.356L145.008 100.536L145.365 100.536L145.366 100.356L145.008 100.356Z" fill="#DAB77E"/>
<path d="M142.198 73.0167C142.198 73.0167 142.448 72.9453 142.448 73.0525C142.448 75.198 142.448 77.3435 142.448 79.4532C142.448 80.2756 142.449 81.1336 142.342 81.956C142.091 81.9918 142.162 81.8127 142.162 81.6697C142.09 79.3097 142.27 76.9499 142.27 74.6256C142.27 74.0535 142.162 73.5531 142.162 72.981L142.198 73.0167Z" fill="#DAB77E"/>
<path d="M157.036 82.3496C157.286 82.9217 156.392 82.9574 156.32 83.2077C156.32 83.3508 156.821 83.8512 156.071 83.9585C155.32 84.0658 155.463 83.6361 155.248 83.3143C155.141 83.1712 154.855 82.9212 154.712 82.7424C155.32 82.8497 155.426 83.5295 156.105 83.1362C156.427 82.9574 156.749 82.5991 156.999 82.3845L157.036 82.3496Z" fill="#DAB77E"/>
<path d="M159.789 83.0627C159.789 83.0627 159.896 83.2775 159.575 83.2417C159.503 83.2417 158.93 83.0627 158.93 83.0627C158.895 83.027 158.93 82.9195 158.93 82.8838L159.824 83.0627H159.789Z" fill="#DAB77E"/>
<path d="M157.859 81.8119C157.751 81.991 157.536 81.9913 157.429 82.0629C157.465 81.7405 157.644 81.7403 157.859 81.8119Z" fill="#DAB77E"/>
<path d="M145.632 82.2784C145.632 82.2784 145.488 82.2784 145.417 82.2067C145.309 82.1351 145.273 82.0274 145.202 81.9199C145.452 81.9199 145.632 82.0277 145.632 82.2784Z" fill="#DAB77E"/>
<path d="M130.115 80.5967H130.043V80.9552H130.115V80.5967Z" fill="#DAB77E"/>
<path d="M160.039 82.7056C160.039 82.7056 160.146 82.92 159.967 82.8843C159.967 82.8128 159.967 82.7413 160.039 82.7056Z" fill="#DAB77E"/>
<path d="M144.916 82.5635C144.975 82.5635 145.024 82.5154 145.024 82.4561C145.024 82.3969 144.975 82.3496 144.916 82.3496C144.856 82.3496 144.809 82.3969 144.809 82.4561C144.809 82.5154 144.856 82.5635 144.916 82.5635Z" fill="#DAB77E"/>
<path d="M158.288 82.1714C158.288 82.1714 158.429 82.1714 158.464 82.1714C158.5 82.1714 158.464 82.3132 158.464 82.3486C158.287 82.3486 158.252 82.3484 158.288 82.1714Z" fill="#DAB77E"/>
<rect x="67.8315" y="121.094" width="12.1225" height="12.1197" rx="6.05984" fill="#FF5B5B"/>
<path d="M68.228 127.663C68.244 127.533 68.2531 127.396 68.2554 127.253C68.866 127.262 69.3366 127.267 69.667 127.267L69.708 125.824C69.7513 125.829 69.8242 125.831 69.9268 125.831C70.0339 125.831 70.1068 125.829 70.1455 125.824C70.1387 125.94 70.1318 126.081 70.125 126.245L70.0737 127.267L70.6514 127.263C70.7585 127.263 71.0456 127.26 71.5127 127.253C71.499 127.369 71.4899 127.506 71.4854 127.663C70.8929 127.652 70.4167 127.646 70.0566 127.646L70.0156 129.092C69.9678 129.087 69.8949 129.085 69.7969 129.085C69.6966 129.085 69.6226 129.087 69.5747 129.092C69.5815 128.98 69.5918 128.786 69.6055 128.511L69.6465 127.646L69.1099 127.649C68.98 127.649 68.686 127.654 68.228 127.663ZM73.1807 129.861C73.7139 129.168 74.1309 128.549 74.4316 128.005C74.7347 127.458 74.8862 126.983 74.8862 126.58C74.8862 126.381 74.8464 126.202 74.7666 126.043C74.6891 125.881 74.5763 125.759 74.4282 125.677C74.2824 125.595 74.1126 125.554 73.9189 125.554C73.7207 125.554 73.5384 125.599 73.3721 125.688C73.2057 125.774 73.077 125.895 72.9858 126.05C72.897 126.205 72.8525 126.376 72.8525 126.562C72.8525 126.747 72.8856 126.908 72.9517 127.044C73.02 127.179 73.1294 127.283 73.2798 127.355C73.4325 127.426 73.6113 127.461 73.8164 127.461C73.903 127.461 73.9873 127.456 74.0693 127.444C74.1536 127.433 74.2801 127.404 74.4487 127.359C74.369 127.493 74.2824 127.648 74.189 127.824C73.9862 127.867 73.8027 127.889 73.6387 127.889C73.3561 127.889 73.1021 127.837 72.8765 127.735C72.6509 127.63 72.4857 127.483 72.3809 127.294C72.2783 127.103 72.2271 126.885 72.2271 126.641C72.2271 126.34 72.3011 126.073 72.4492 125.838C72.5996 125.603 72.8058 125.424 73.0679 125.301C73.3299 125.178 73.6227 125.117 73.9463 125.117C74.1787 125.117 74.3986 125.152 74.606 125.223C74.8156 125.291 74.9876 125.394 75.1221 125.53C75.2588 125.667 75.3568 125.826 75.416 126.009C75.4775 126.189 75.5083 126.364 75.5083 126.535C75.5083 126.672 75.4935 126.823 75.4639 126.99C75.4342 127.156 75.3841 127.334 75.3135 127.523C75.2451 127.71 75.1528 127.919 75.0366 128.152C74.9204 128.382 74.778 128.63 74.6094 128.897C74.443 129.161 74.2323 129.483 73.9771 129.861C73.8494 129.859 73.723 129.857 73.5977 129.857C73.5133 129.857 73.3743 129.859 73.1807 129.861ZM77.1797 129.861C77.7129 129.168 78.1299 128.549 78.4307 128.005C78.7337 127.458 78.8853 126.983 78.8853 126.58C78.8853 126.381 78.8454 126.202 78.7656 126.043C78.6882 125.881 78.5754 125.759 78.4272 125.677C78.2814 125.595 78.1117 125.554 77.918 125.554C77.7197 125.554 77.5374 125.599 77.3711 125.688C77.2048 125.774 77.076 125.895 76.9849 126.05C76.896 126.205 76.8516 126.376 76.8516 126.562C76.8516 126.747 76.8846 126.908 76.9507 127.044C77.019 127.179 77.1284 127.283 77.2788 127.355C77.4315 127.426 77.6104 127.461 77.8154 127.461C77.902 127.461 77.9863 127.456 78.0684 127.444C78.1527 127.433 78.2791 127.404 78.4478 127.359C78.368 127.493 78.2814 127.648 78.188 127.824C77.9852 127.867 77.8018 127.889 77.6377 127.889C77.3551 127.889 77.1011 127.837 76.8755 127.735C76.6499 127.63 76.4847 127.483 76.3799 127.294C76.2773 127.103 76.2261 126.885 76.2261 126.641C76.2261 126.34 76.3001 126.073 76.4482 125.838C76.5986 125.603 76.8049 125.424 77.0669 125.301C77.3289 125.178 77.6217 125.117 77.9453 125.117C78.1777 125.117 78.3976 125.152 78.605 125.223C78.8146 125.291 78.9867 125.394 79.1211 125.53C79.2578 125.667 79.3558 125.826 79.415 126.009C79.4766 126.189 79.5073 126.364 79.5073 126.535C79.5073 126.672 79.4925 126.823 79.4629 126.99C79.4333 127.156 79.3831 127.334 79.3125 127.523C79.2441 127.71 79.1519 127.919 79.0356 128.152C78.9194 128.382 78.777 128.63 78.6084 128.897C78.4421 129.161 78.2313 129.483 77.9761 129.861C77.8485 129.859 77.722 129.857 77.5967 129.857C77.5124 129.857 77.3734 129.859 77.1797 129.861Z" fill="white"/>
</svg>
