<svg width="302" height="248" viewBox="0 0 302 248" fill="none" xmlns="http://www.w3.org/2000/svg">
<path d="M236.655 33.6531C237.401 35.1718 238.061 35.5534 238.887 37.002C239.052 37.2979 238.957 37.6951 239.499 37.5783C239.036 38.5207 239.72 39.027 239.72 39.65V42.9212C239.72 43.1003 239.421 43.3417 239.539 43.957C239.696 44.7903 240.914 46.4103 241.26 47.5007C242.604 51.722 241.543 55.546 241.472 59.6271C240.922 59.7127 240.411 59.8296 239.838 59.853C235.397 60.0399 230.03 59.9386 225.833 58.7392C217.212 59.3934 207.373 57.898 198.901 58.7392C197.801 58.8482 197.156 59.5024 196.064 59.6271C193.832 59.8763 190.948 59.5648 188.614 59.6193C187.726 59.6426 183.553 60.2424 183.136 59.6427C182.916 59.3233 183.191 58.7703 182.932 58.5367C182.735 58.5367 182.83 59.9775 182.822 60.2891L182.366 54.0662C182.366 50.0864 183.042 49.1985 184.174 45.8106C184.716 44.2062 184.928 40.3899 185.014 38.5519C185.03 38.2715 184.991 37.7652 184.786 37.5861L187.286 34.7279C187.624 34.4397 187.679 33.9724 187.852 33.6531C189.447 30.748 191.592 22.1887 194.335 20.8024C194.917 20.5064 197.84 20.0625 198.712 19.9301C205.502 18.8864 212.646 18.8631 219.483 19.2369C222.595 19.4082 227.853 19.5095 230.454 21.1684C232.741 22.6326 234.957 30.1872 236.168 32.9365C236.309 33.2558 236.553 33.4584 236.647 33.6531H236.655ZM206.846 20.3974C204.127 20.5298 197.235 20.9503 195.019 22.1341C193.329 23.0298 191.451 27.3834 191.192 29.2371C190.759 32.4069 192.205 33.4272 194.351 35.3665C206.186 34.9381 218.108 35.312 229.975 35.1796C230.415 35.0939 233.417 32.3991 233.542 31.9786C233.928 30.6779 232.71 27.3601 232.159 26.0205C230.336 21.6045 228.34 21.4254 223.821 20.8024C218.603 20.0858 212.135 20.1481 206.846 20.4051V20.3974ZM192.669 39.1049C192.331 36.2777 190.791 35.7792 188.174 36.0362C185.557 36.2933 185.297 39.1049 185.997 39.1049H192.669ZM238.619 39.1049C238.462 37.5316 237.802 36.2154 236.12 36.0362C234.682 35.8805 232.427 35.8727 231.892 37.5238C231.814 37.7731 231.554 39.1049 231.947 39.1049H238.619ZM224.835 45.4368C225.079 45.7016 225.77 44.8293 225.896 44.6346C226.776 43.3028 227.656 39.4009 225.558 38.9336L199.993 38.879C197.565 39.0815 197.18 39.8447 197.502 42.2513C197.557 42.6719 198.783 46.1222 199.451 45.4368C199.6 45.281 198.877 44.4554 198.807 44.0037C198.414 41.5504 198.822 39.759 201.526 39.5332C207.671 39.0114 215.137 39.6033 221.456 39.5488C222.69 39.541 223.208 39.0348 224.513 39.9772C226.085 41.1065 225.589 43.9259 224.843 45.4368H224.835ZM202.516 40.2031V44.1361H221.99V40.2031H202.516ZM238.619 40.4211H231.617C231.499 41.9709 231.657 43.186 233.354 43.6066C235.979 44.2452 239.154 43.8557 238.619 40.4211ZM232.937 46.091C232.961 48.1315 232.23 49.8138 229.99 50.0319C218.791 49.4244 206.972 51.0209 195.844 50.2343C192.693 50.0162 191.396 49.5178 191.136 46.091C190.767 46.0442 190.893 46.8542 190.908 47.0801C191.16 49.8605 192.747 50.4836 195.199 51.0911C205.95 50.5226 217.589 51.9088 228.23 51.1144C230.666 50.9353 232.411 50.4524 233.118 47.9134C233.228 47.524 233.739 45.8495 232.922 46.0832L232.937 46.091Z" fill="#F296BD"/>
<path d="M241.464 59.6274C241.401 63.1555 241.809 66.7771 241.44 70.4065C241.393 70.8738 241.055 72.478 240.827 72.7973C240.371 73.4204 235.758 73.1556 234.681 73.1634C233.267 72.2755 234.548 70.1105 233.809 68.7942C233.794 68.4282 233.825 68.0622 233.809 67.7039C231.64 68.2725 230.65 65.9438 228.889 65.7335H196.063C193.69 65.9749 193.894 67.3846 192.951 67.6572C192.205 67.8752 191.065 67.5949 190.264 67.7039C190.114 67.8519 190.397 71.2008 190.264 71.855C190.161 72.369 189.643 72.7663 189.171 72.9455C189.006 73.0078 188.645 72.8518 188.511 73.1634C187.057 73.1556 185.588 73.2179 184.134 73.1634C184.244 72.6493 183.552 72.4236 183.473 72.2912C183.426 72.2055 183.521 71.964 183.473 71.855L183.254 71.4188C182.57 68.467 182.774 63.4203 182.813 60.2894C182.813 59.9856 182.727 58.537 182.924 58.537C183.183 58.7784 182.908 59.3314 183.128 59.643C183.544 60.2427 187.717 59.6429 188.605 59.6196C190.939 59.5651 193.824 59.8844 196.056 59.6274C197.14 59.5028 197.792 58.8485 198.892 58.7395C207.364 57.9061 217.211 59.3937 225.825 58.7395C230.029 59.9389 235.389 60.0402 239.829 59.8533C240.395 59.8299 240.906 59.713 241.464 59.6274Z" fill="#1D1F1D"/>
<path d="M187.852 33.6533C187.679 33.9649 187.624 34.4399 187.286 34.7281L184.786 37.5864C184.715 37.5241 184.244 37.5942 184.142 37.2359C184.063 36.94 184.456 35.3278 184.684 34.9773C185.211 34.1517 186.917 33.8636 187.852 33.6611V33.6533Z" fill="#1D1F1D"/>
<path d="M239.501 37.5786C238.959 37.6954 239.053 37.2982 238.888 37.0022C238.063 35.5536 237.402 35.1643 236.655 33.6533C238.424 34.2686 239.973 34.2296 239.957 36.605C239.957 37.4929 239.603 37.3605 239.501 37.5864V37.5786Z" fill="#1D1F1D"/>
<path d="M206.846 20.3974C212.135 20.1404 218.603 20.0781 223.822 20.7946C228.34 21.4177 230.336 21.589 232.16 26.0127C232.71 27.3445 233.928 30.6702 233.543 31.9708C233.417 32.3992 230.415 35.0939 229.975 35.1718C218.108 35.3042 206.186 34.9304 194.351 35.3587C192.206 33.4194 190.76 32.3914 191.192 29.2293C191.443 27.3757 193.329 23.0298 195.019 22.1264C197.235 20.9504 204.127 20.522 206.846 20.3896V20.3974Z" fill="#2E3233"/>
<path d="M221.99 40.2031H202.516V44.1362H221.99V40.2031Z" fill="#A53C68"/>
<path d="M232.937 46.0911C233.746 45.8575 233.243 47.5319 233.133 47.9213C232.426 50.4603 230.674 50.9354 228.245 51.1223C217.605 51.9167 205.958 50.5227 195.215 51.099C192.763 50.4915 191.167 49.8685 190.924 47.088C190.9 46.8622 190.774 46.0522 191.152 46.0989C191.411 49.5258 192.708 50.0242 195.859 50.2422C206.987 51.0289 218.807 49.4322 230.006 50.0397C232.237 49.8217 232.976 48.1394 232.953 46.0989L232.937 46.0911Z" fill="#FF579E"/>
<path d="M224.835 45.4367C225.589 43.9258 226.076 41.1142 224.504 39.9771C223.2 39.0347 222.681 39.5409 221.448 39.5487C215.129 39.6032 207.663 39.0113 201.517 39.5331C198.822 39.759 198.413 41.5503 198.798 44.0036C198.869 44.4475 199.592 45.2809 199.443 45.4367C198.775 46.1221 197.549 42.6718 197.494 42.2512C197.172 39.8446 197.557 39.0814 199.985 38.8789L225.55 38.9335C227.648 39.4008 226.776 43.3027 225.888 44.6345C225.762 44.8214 225.07 45.6937 224.827 45.4367H224.835Z" fill="#FF579E"/>
<path d="M238.619 40.4214C239.153 43.8482 235.978 44.2455 233.353 43.6069C231.656 43.1941 231.499 41.979 231.617 40.4214H238.619Z" fill="#5C5C5D"/>
<path d="M192.653 40.4834C193.188 43.9103 190.012 44.3074 187.388 43.6688C185.69 43.256 185.533 42.0411 185.651 40.4834H192.653Z" fill="#5C5C5D"/>
<path d="M192.669 39.1046H185.996C185.297 39.1046 185.596 36.2929 188.173 36.0359C190.751 35.7789 192.331 36.2774 192.669 39.1046Z" fill="#5C5C5D"/>
<path d="M238.619 39.105H231.947C231.554 39.105 231.814 37.7654 231.892 37.524C232.427 35.8729 234.674 35.8806 236.12 36.0364C237.81 36.2155 238.462 37.5318 238.619 39.105Z" fill="#5C5C5D"/>
<path d="M14.1258 175.354C14.7545 174.925 15.0766 174.629 15.3753 173.897C17.9608 167.433 21.0494 151.965 26.0319 147.884C28.2402 146.077 30.4171 145.828 33.1677 145.423C47.5257 143.328 62.528 143.383 76.9567 144.115C83.2752 144.434 90.6471 144.496 96.6905 146.498C107.119 149.956 109.052 166.646 112.644 175.346C112.887 175.938 113.539 177.098 113.893 177.846C115.936 182.09 118.734 185.011 119.269 190.182C119.457 192.02 119.033 194.279 119.339 195.938C119.536 196.989 120.573 197.683 120.95 198.913C122.632 204.474 121.147 212.652 120.99 218.236C119.615 221.967 120.542 231.686 116.4 233.439C111.347 235.58 102.105 235.253 96.6195 234.848C78.112 233.478 55.0464 233.057 36.4367 234.046C28.6093 234.467 20.5777 236.78 12.6796 234.046C7.2177 232.154 8.75039 221.858 7.02146 217.41C6.80927 212.496 5.27677 206.063 5.81117 201.421C6.08623 199.061 7.46155 196.662 7.80734 194.248C8.8447 186.982 7.8936 185.564 11.9409 178.796C12.3731 178.079 12.9233 177.713 11.6109 177.838C11.9095 177.721 14.8094 175.891 14.9509 175.751C15.0059 175.689 14.9273 175.478 14.9509 175.346C14.6758 175.322 14.3928 175.361 14.1178 175.346L14.1258 175.354ZM102.396 153.523C101.571 151.942 100.368 150.174 98.4821 149.714C93.8376 148.569 84.0927 148.087 79.0316 147.876C65.5459 147.308 49.0031 147.37 35.6274 148.71C31.6823 149.107 27.6351 149.006 25.7333 153.001C22.4955 159.792 21.065 168.819 18.3223 175.938L19.3676 176.592C46.9599 176.444 75.2592 178.29 102.859 177.051C104.981 176.958 107.096 176.311 109.312 176.615C110.129 175.782 104.077 158.655 103.237 156.233C102.812 155.018 103.111 154.902 102.404 153.539L102.396 153.523ZM15.9175 201.047C17.0806 202.309 21.3559 203.041 23.1005 203.251C24.3108 203.399 28.248 203.726 29.3089 203.656C30.6842 203.571 32.4838 202.722 32.8139 201.289C33.3797 198.882 32.3894 191.764 30.7548 189.778C28.2714 186.764 18.9194 184.832 15.8074 187.659C13.3554 189.886 13.7251 198.672 15.9098 201.047H15.9175ZM106.286 186.296C103.41 186.6 98.6786 187.916 97.1068 190.463C95.8101 192.566 94.3483 201.748 96.7845 203.026C98.4741 203.906 106.467 203.228 108.565 202.722C112.817 201.701 114.215 198.952 114.333 194.707C114.49 188.882 112.439 185.634 106.278 186.288L106.286 186.296ZM36.5468 194.178C32.7039 196.873 36.979 203.127 39.8082 205.323C44.6571 209.093 49.1447 208.36 54.8266 208.672C64.265 209.186 86.6233 211.328 91.9595 201.561C93.4684 198.804 94.4268 193.773 89.8923 194.1L36.5549 194.186L36.5468 194.178ZM26.1263 206.273C25.4975 205.666 16.7507 205.027 16.2713 205.814C15.116 207.714 17.5915 208.469 18.9589 208.633C19.9413 208.75 23.9651 209.054 24.7195 208.968C25.9612 208.828 27.2579 207.364 26.1263 206.273ZM101.846 206.219C101.39 206.958 101.697 208.454 102.828 208.664C103.96 208.875 108.62 208.812 109.83 208.571C112.714 207.994 113.257 205.58 109.925 205.315C109.005 205.237 102.058 205.876 101.846 206.219ZM83.4403 210.728H45.8281V219.521H83.4403V210.728ZM43.3446 214.918C38.0635 213.283 31.5643 213.345 26.0238 213.664C24.2163 213.773 20.6173 214.03 19.132 214.7C14.9904 216.554 13.953 222.512 14.1258 226.57C16.0905 224.155 16.169 220.479 18.4873 218.228C22.1181 214.708 36.6255 215.526 41.883 215.331C42.386 215.315 43.4391 215.642 43.337 214.918H43.3446ZM114.31 226.57C114.153 222.426 113.147 216.102 108.707 214.466C105.351 213.228 90.2854 213.275 86.7411 214.272C86.1281 214.443 85.4993 214.575 85.0907 215.121C91.4799 215.993 103.339 214.35 109.005 217.496C111.119 218.672 112.502 223.477 113.375 225.65C113.626 226.281 113.131 226.78 114.31 226.562V226.57ZM22.5898 226.881C25.3089 229.716 49.4591 229.778 54.4337 229.887C68.6031 230.191 85.421 230.752 99.4411 228.594C101.429 228.291 105.956 227.839 105.94 225.113C105.94 223.773 103.826 220.425 102.011 220.728C80.4385 220.97 58.8189 220.627 37.3093 220.3C34.3858 220.253 27.4699 219.856 25.0886 220.643C23.2733 221.242 21.1829 225.425 22.5817 226.873L22.5898 226.881Z" fill="#CFF23C"/>
<path d="M120.998 218.243C120.974 219.077 121.013 219.91 120.998 220.744C120.935 223.516 120.691 226.857 121.414 229.49C121.414 233.127 122.035 242.348 121.092 245.207C120.911 245.752 119.654 247.31 119.74 247.403C119.465 247.403 119.183 247.387 118.907 247.403L117.658 247.816C115.717 247.878 113.752 247.8 111.811 247.816L111.599 247.411L111.386 247.816C110.553 247.816 109.712 247.816 108.879 247.816C108.903 246.959 107.748 245.876 107.63 245.316C107.339 243.945 107.842 241.803 107.63 240.316H100.321C100.046 240.316 97.7435 238.423 95.323 238.221C75.1888 236.499 52.642 239.56 32.2484 238.221C30.9124 237.652 28.1852 240.323 27.6744 240.323H20.7902L20.3735 246.157L17.8666 247.823C15.5718 247.792 13.01 248.01 10.7703 247.823L9.10411 247.411C8.45969 247.154 8.20027 247.294 7.65015 246.577C5.92907 244.311 6.63649 236.047 6.59719 232.839L7.00587 232.628L6.59719 232.418C6.59719 231.865 6.59719 231.304 6.59719 230.751C7.28877 230.315 7.01374 229.171 7.0216 228.47C7.06875 224.973 7.14734 221.32 7.0216 217.846C7.0216 217.706 7.0216 217.566 7.0216 217.434C8.75054 221.881 7.21784 232.177 12.6797 234.069C20.5778 236.803 28.6095 234.49 36.4369 234.069C55.0465 233.08 78.1122 233.501 96.6196 234.872C102.105 235.277 111.347 235.604 116.4 233.462C120.542 231.709 119.615 221.99 120.99 218.259L120.998 218.243Z" fill="#1D1F1D"/>
<path d="M11.6188 177.854C8.81317 178.936 -0.365929 179.061 0.0112934 174.434C0.302069 170.891 3.06026 168.726 6.43955 168.321C12.6873 167.573 13.0255 169.746 12.0274 175.354C12.719 175.393 13.426 175.315 14.1176 175.354C14.3927 175.369 14.6756 175.338 14.9507 175.354C14.9271 175.486 15.0057 175.704 14.9507 175.759C14.8092 175.899 11.9093 177.729 11.6107 177.846L11.6188 177.854Z" fill="#2E3233"/>
<path d="M113.901 177.853C113.54 177.106 112.895 175.945 112.652 175.353C113.296 175.174 114.239 175.93 114.326 174.738C114.671 169.769 113.312 167.666 119.952 168.274C123.811 168.632 128.526 173.079 125.972 176.771C124.542 178.842 116.361 178.344 113.901 177.846V177.853Z" fill="#2E3233"/>
<path d="M6.61229 230.736C6.61229 227.2 6.56513 223.649 6.61229 220.113C6.61229 219.412 6.34506 218.259 7.0368 217.831C7.17043 221.312 7.08396 224.965 7.0368 228.454C7.02893 229.155 7.30402 230.307 6.61229 230.736Z" fill="#CFF23C"/>
<path d="M121.414 229.49C120.691 226.857 120.934 223.516 120.997 220.744C121.767 223.399 121.414 226.678 121.414 229.49Z" fill="#CFF23C"/>
<path d="M10.7862 247.808C9.8429 247.73 9.90569 247.707 9.11963 247.396L10.7862 247.808Z" fill="#CFF23C"/>
<path d="M118.907 247.396C118.844 247.396 118.585 247.785 117.657 247.808L118.907 247.396Z" fill="#CFF23C"/>
<path d="M111.81 247.808C111.669 247.808 111.536 247.808 111.394 247.808L111.606 247.403L111.819 247.808H111.81Z" fill="#CFF23C"/>
<path d="M6.6123 232.824C6.6123 232.684 6.6123 232.544 6.6123 232.411L7.02107 232.621L6.6123 232.832V232.824Z" fill="#CFF23C"/>
<path opacity="0.32" d="M102.395 153.523C103.102 154.886 102.804 155.003 103.228 156.218C104.069 158.64 110.128 175.774 109.303 176.6C107.087 176.296 104.973 176.942 102.851 177.036C75.2509 178.274 46.9511 176.428 19.3589 176.576L18.314 175.922C21.0567 168.804 22.4867 159.777 25.7246 152.986C27.6264 148.998 31.6739 149.091 35.6191 148.694C49.0026 147.355 65.5375 147.292 79.0232 147.861C84.0764 148.079 93.8214 148.554 98.4738 149.699C100.36 150.158 101.562 151.926 102.387 153.507L102.395 153.523Z" fill="#757575"/>
<path d="M36.5469 194.178L89.8847 194.092C94.4192 193.765 93.4604 198.797 91.9515 201.554C86.6153 211.32 64.257 209.178 54.8186 208.664C49.1367 208.353 44.6494 209.085 39.8005 205.315C36.9714 203.119 32.6963 196.865 36.5392 194.17L36.5469 194.178ZM62.0251 197.114C57.0112 198.399 58.8347 208.057 65.499 205.985C70.505 204.427 69.4909 195.206 62.0251 197.114Z" fill="#1D1F1D"/>
<path d="M22.5896 226.881C21.1907 225.425 23.2811 221.25 25.0965 220.65C27.4699 219.864 34.3933 220.269 37.3168 220.308C58.8264 220.627 80.446 220.977 102.018 220.736C103.834 220.425 105.94 223.773 105.948 225.121C105.964 227.847 101.437 228.298 99.4486 228.602C85.4285 230.752 68.6106 230.199 54.4412 229.895C49.4666 229.786 25.3243 229.724 22.5973 226.889L22.5896 226.881ZM30.8805 224.233C30.8805 222.699 29.6311 221.453 28.0908 221.453C26.5504 221.453 25.3007 222.699 25.3007 224.233C25.3007 225.767 26.5504 227.013 28.0908 227.013C29.6311 227.013 30.8805 225.767 30.8805 224.233ZM103.095 224.225C103.095 222.691 101.846 221.445 100.313 221.445C98.7806 221.445 97.5311 222.691 97.5311 224.225C97.5311 225.759 98.7806 227.005 100.313 227.005C101.846 227.005 103.095 225.759 103.095 224.225Z" fill="#1D1F1D"/>
<path d="M83.4398 210.728H45.8276V219.521H83.4398V210.728Z" fill="#76935B"/>
<path d="M15.9173 201.047C13.7326 198.672 13.3633 189.887 15.8152 187.659C18.9273 184.832 28.2793 186.764 30.7627 189.778C32.3973 191.764 33.3876 198.882 32.8218 201.289C32.4839 202.722 30.6842 203.563 29.3168 203.656C28.2559 203.726 24.3262 203.392 23.108 203.251C21.3634 203.041 17.0885 202.309 15.9254 201.047H15.9173Z" fill="#F3F3F4"/>
<path d="M106.286 186.296C112.439 185.65 114.498 188.89 114.341 194.715C114.223 198.96 112.824 201.709 108.573 202.73C106.474 203.228 98.4822 203.913 96.7925 203.033C94.3484 201.756 95.8103 192.574 97.1149 190.471C98.6866 187.924 103.41 186.608 106.294 186.304L106.286 186.296Z" fill="#F3F3F4"/>
<path d="M114.31 226.57C113.131 226.78 113.626 226.289 113.375 225.658C112.51 223.486 111.127 218.68 109.005 217.504C103.347 214.358 91.4879 216.001 85.0908 215.129C85.4995 214.583 86.1283 214.451 86.7412 214.28C90.2777 213.283 105.351 213.236 108.707 214.475C113.147 216.11 114.153 222.434 114.31 226.578V226.57Z" fill="#76935B"/>
<path d="M43.3443 214.918C43.4465 215.642 42.3937 215.307 41.8908 215.331C36.6332 215.525 22.118 214.708 18.4951 218.228C16.1767 220.479 16.0901 224.163 14.1332 226.569C13.9603 222.512 14.9899 216.546 19.1394 214.7C20.6247 214.038 24.2319 213.773 26.0316 213.664C31.572 213.337 38.0713 213.275 43.3524 214.918H43.3443Z" fill="#76935B"/>
<path d="M101.846 206.218C102.058 205.876 109.005 205.237 109.925 205.315C113.257 205.588 112.714 208.002 109.83 208.571C108.62 208.812 104.007 208.89 102.828 208.664C101.649 208.438 101.39 206.958 101.846 206.218Z" fill="#5C5C5D"/>
<path d="M26.1262 206.273C27.2579 207.364 25.9611 208.828 24.7194 208.968C23.965 209.054 19.9412 208.758 18.9589 208.633C17.5914 208.47 15.116 207.706 16.2712 205.814C16.7506 205.027 25.4896 205.666 26.1262 206.273Z" fill="#5C5C5D"/>
<path d="M62.025 197.114C69.483 195.206 70.4971 204.427 65.4989 205.985C58.8346 208.064 57.0111 198.399 62.025 197.114Z" fill="#5C5C5D"/>
<path d="M28.0914 227.013C29.6322 227.013 30.8811 225.769 30.8811 224.233C30.8811 222.698 29.6322 221.453 28.0914 221.453C26.5506 221.453 25.3013 222.698 25.3013 224.233C25.3013 225.769 26.5506 227.013 28.0914 227.013Z" fill="#F3F3F4"/>
<path d="M100.306 227.006C101.842 227.006 103.088 225.761 103.088 224.225C103.088 222.69 101.842 221.445 100.306 221.445C98.7691 221.445 97.5239 222.69 97.5239 224.225C97.5239 225.761 98.7691 227.006 100.306 227.006Z" fill="#F3F3F4"/>
<path d="M80.4224 10.6392C80.2495 11.5815 80.9017 11.2389 81.5068 11.2623C95.2126 11.7997 109.272 10.8573 123.009 11.2623L124.888 11.8853C125.225 12.6407 125.744 13.6299 126.137 14.3854C126.939 15.9197 127.332 15.5069 127.701 15.9508C132.904 22.0725 130.562 25.9977 130.522 33.1318C129.611 34.2066 130.31 36.4885 128.738 36.8001C123.237 37.8904 116.439 37.3686 110.797 37.501C110.797 37.0883 110.797 36.6677 110.797 36.2549C113.476 36.1069 116.643 36.6443 119.198 35.7331C121.029 35.0711 120.557 34.5415 119.559 33.3031C118.64 32.166 116.494 30.4916 115.033 30.3202C111.221 29.8607 105.893 30.3981 101.861 30.3436C99.6134 30.3125 96.9179 30.0009 94.686 30.0087C92.1712 30.0087 88.2499 29.7284 86.0809 31.1302C85.2714 31.6521 82.3636 34.3779 83.0709 35.3592C83.8175 36.3873 90.2772 36.325 91.7075 36.2705C91.7311 36.473 92.2658 37.026 92.0222 37.5166C88.4621 37.431 84.7369 37.7113 81.2083 37.5322C79.5029 37.4388 76.2573 37.1818 74.6542 36.8858C72.9174 36.5665 73.6481 34.378 72.6108 33.4511C72.5086 29.4168 71.3532 23.4665 72.9799 19.9151C73.2629 19.2998 75.1178 16.0754 75.4243 15.6393C75.5029 15.538 76.3356 16.4571 77.3023 14.3932C77.7031 13.5443 77.7269 12.4305 78.5521 11.8931C79.1572 11.4959 79.7703 11.7451 80.4304 10.647L80.4224 10.6392ZM125.194 15.9508C125.194 15.9508 125.241 15.6938 125.037 15.6471C124.738 15.6938 121.917 18.9571 120.809 19.3932C120.597 19.4789 120.125 19.3231 119.866 19.3932C119.009 19.3698 118.003 19.3777 117.359 20.0163C117.154 20.0319 116.942 20.0163 116.73 20.0163C116.29 19.3933 115.968 19.993 115.787 20.0163C111.755 20.6082 106.537 21.2079 102.498 21.278C95.8412 21.4026 89.2164 19.9229 82.5993 20.0163C82.1749 19.6347 81.5226 19.3543 81.0275 18.9259C80.2888 18.2873 78.6541 16.0832 77.8053 16.3013C77.5696 16.3636 74.1588 19.2453 74.0567 19.4634C73.6402 20.359 73.4908 22.0335 74.4496 22.5163C72.9879 22.2437 75.4319 24.3388 75.534 24.4011C76.7286 25.1255 79.7623 25.2189 81.1062 24.9463C82.2457 24.7126 83.0474 23.4743 84.3127 23.4354C86.2538 23.3653 94.5212 24.5491 96.2659 25.2734C98.5921 26.2314 98.3954 28.2407 101.531 28.1629C104.486 28.0928 104.313 26.1224 106.089 25.1956C107.614 24.4012 117.649 23.1783 119.229 23.5989C120.117 23.8404 120.84 24.736 121.948 24.9385C123.716 25.2656 128.754 24.6114 129.233 22.5085C129.359 21.9478 129.304 19.915 129.068 19.3932C128.958 19.1596 125.532 16.1533 125.163 15.9508H125.194ZM82.615 29.3857C78.7092 29.0897 75.3772 27.7345 75.44 33.1006C79.1337 34.2767 81.8527 33.272 82.615 29.3857ZM127.002 29.4635C126.058 28.6536 122.129 29.2066 120.817 29.3935C121.084 33.202 124.762 34.4792 128.039 32.9449C128.086 32.6256 127.222 29.6582 127.002 29.4635Z" fill="#FE6E2F"/>
<path d="M130.208 45.6317C129.941 45.6083 128.542 46.5662 128.33 46.8778C127.505 46.9323 126.656 46.8232 125.823 46.8778C126.011 45.951 125.021 45.8964 125.194 46.8778C124.99 46.8856 124.778 46.87 124.565 46.8778C124.628 46.2313 123.866 45.7251 123.316 45.6317C122.687 43.3107 123.127 40.8263 123.002 38.4431C117.422 39.0973 111.858 38.9804 106.239 39.0583C100.117 39.1439 93.9317 39.3387 87.7625 39.0817C86.7566 39.0427 80.7292 38.1315 80.4148 38.4431C80.3441 40.8419 80.6503 43.2796 80.1002 45.6317C79.7308 45.7641 79.3224 46.1846 78.7959 46.3637C78.0729 46.6051 77.177 46.3715 76.6504 46.8856C75.8253 46.8388 74.9687 46.9634 74.1435 46.8856C74.1435 46.1223 73.8526 46.0444 73.2003 45.9509C73.0588 45.2188 72.6501 44.7048 72.5637 43.926C72.2258 40.7717 72.6582 36.753 72.5718 33.4507C73.6091 34.3697 72.8701 36.5661 74.6147 36.8854C76.2258 37.1814 79.4639 37.4383 81.1692 37.5318C84.6978 37.7187 88.4227 37.4305 91.9828 37.5162C98.317 37.672 104.423 37.672 110.773 37.5162C116.416 37.376 123.214 37.9056 128.715 36.8152C130.287 36.5037 129.587 34.214 130.499 33.147C130.499 33.1859 130.829 33.5052 130.821 33.9024C130.742 37.8121 130.687 41.7609 130.184 45.6395L130.208 45.6317Z" fill="#3D3B36"/>
<path d="M124.888 11.8928L123.009 11.2698C122.412 7.89742 120.408 5.05465 118.561 2.27422L103.142 1.254L85.02 2.25083C84.6664 2.36766 82.8902 5.17153 82.568 5.74008C81.7035 7.25101 81.1693 9.4083 80.4306 10.6389C79.7705 11.737 79.1574 11.4956 78.5522 11.885C79.0788 9.47059 80.4539 6.4877 81.8684 4.41601C85.7743 -1.32398 89.5779 1.08257 95.6056 0C102.498 0.342686 110.443 -0.397135 117.21 0.654286C121.218 1.27735 123.512 8.79301 124.895 11.885L124.888 11.8928Z" fill="#3D3B36"/>
<path d="M77.2869 14.3928C76.3203 16.4567 75.4871 15.5376 75.4085 15.6389C74.8427 13.7775 72.8463 14.5563 71.8325 12.8039C69.9936 9.60293 74.2296 9.28363 76.493 9.71199C78.9449 10.1793 76.226 13.0298 77.2869 14.3928Z" fill="#18140F"/>
<path d="M126.136 14.3926C126.828 13.1231 125.044 10.9424 126.262 9.9844C127.009 9.40028 131.307 9.7196 131.724 10.3738C132.266 11.2227 131.473 13.3801 130.498 13.9019C129.209 14.5873 128.172 13.8396 127.7 15.9581C127.323 15.5219 126.938 15.9347 126.136 14.3926Z" fill="#18140F"/>
<path opacity="0.49" d="M80.4222 10.6393C81.1609 9.41649 81.6955 7.2514 82.5599 5.74047C82.8821 5.17192 84.6579 2.36805 85.0116 2.25123L103.134 1.25439L118.553 2.27461C120.4 5.04725 122.404 7.89002 123.001 11.2701C109.264 10.8652 95.2047 11.8153 81.4989 11.2701C80.8938 11.2468 80.2416 11.5894 80.4145 10.647L80.4222 10.6393Z" fill="#757575"/>
<path d="M120.816 19.3849V19.6965C120.242 20.1949 119.645 21.2386 118.946 21.7292C121.956 25.0938 125.594 23.4504 129.272 22.5081C128.793 24.6031 123.755 25.2651 121.987 24.938C120.879 24.7355 120.156 23.8321 119.268 23.5984C117.689 23.1701 107.653 24.4007 106.128 25.1951C104.352 26.1219 104.533 28.0845 101.57 28.1624C98.4266 28.2403 98.6229 26.2309 96.3046 25.2729C94.5599 24.5486 86.2846 23.3726 84.3513 23.4349C83.0782 23.4816 82.2844 24.7121 81.1449 24.9458C79.801 25.2184 76.7598 25.125 75.5731 24.4007C75.471 24.3383 73.027 22.2433 74.4887 22.5158C76.0369 23.2947 79.7933 24.0735 81.4672 23.6997C81.6716 23.653 84.0842 22.3056 84.1706 22.1732C84.5321 21.6514 83.0152 20.3663 82.6223 20.0158C89.2394 19.9302 95.8646 21.4021 102.521 21.2775C106.568 21.1997 111.778 20.6077 115.81 20.0158C116.124 20.0158 116.439 20.0158 116.753 20.0158C116.958 20.0158 117.177 20.0314 117.382 20.0158C118.568 19.9146 118.899 19.6809 119.889 19.3927C120.141 19.3226 120.62 19.4784 120.832 19.3927L120.816 19.3849Z" fill="#18140F"/>
<path d="M110.796 36.2623C110.789 35.2031 111.048 34.0271 109.689 33.77C104.478 34.1517 98.5133 33.2404 93.3973 33.7467C91.6998 33.9102 91.4715 34.5488 91.6916 36.2623C90.2613 36.3168 83.8015 36.3791 83.0549 35.351C82.3477 34.3775 85.2633 31.6438 86.0649 31.122C88.234 29.7201 92.1553 30.0082 94.6701 30.0004C96.9098 30.0004 99.5978 30.3042 101.845 30.3354C105.877 30.3899 111.205 29.8603 115.017 30.312C116.478 30.4833 118.624 32.1578 119.543 33.2949C120.541 34.5332 121.013 35.0707 119.182 35.7249C116.628 36.6439 113.46 36.0987 110.781 36.2467L110.796 36.2623Z" fill="#3D3B36"/>
<path d="M110.796 36.2623C110.796 36.6751 110.796 37.0956 110.796 37.5084C104.447 37.6642 98.3405 37.6642 92.0063 37.5084C92.2499 37.01 91.7152 36.457 91.6916 36.2623C91.4716 34.5489 91.6998 33.9102 93.3973 33.7467C98.5134 33.2404 104.478 34.1517 109.689 33.7701C111.048 34.0271 110.789 35.2031 110.796 36.2623Z" fill="#DAE1EF"/>
<path d="M129.265 22.5162C125.579 23.4508 121.949 25.1019 118.939 21.7373C119.646 21.2467 120.243 20.2031 120.809 19.7046C121.186 19.3775 122.318 18.8557 122.892 18.3417C123.615 17.6952 124.385 16.5893 125.195 15.9507C125.564 16.1532 128.998 19.1594 129.1 19.3931C129.336 19.9149 129.391 21.9554 129.265 22.5084V22.5162Z" fill="#F7E0BB"/>
<path d="M82.6149 20.0158C83 20.3663 84.5248 21.6514 84.1633 22.1732C84.0768 22.2978 81.6638 23.6529 81.4595 23.6996C79.7856 24.0735 76.0292 23.2946 74.481 22.5158C73.5222 22.0329 73.6715 20.3663 74.088 19.4629C74.1902 19.237 77.6009 16.3631 77.8367 16.3008C78.6854 16.0827 80.3202 18.2868 81.0589 18.9254C81.554 19.3538 82.2063 19.6342 82.6306 20.0158H82.6149Z" fill="#F7E0BB"/>
<path d="M127.001 29.4634C127.221 29.6503 128.085 32.6176 128.038 32.9447C124.761 34.479 121.083 33.2018 120.816 29.3933C122.128 29.2142 126.058 28.6612 127.001 29.4634Z" fill="#3D3B36"/>
<path d="M82.6148 29.3856C81.8525 33.272 79.1335 34.2766 75.4398 33.1006C75.377 27.7344 78.709 29.0897 82.6148 29.3856Z" fill="#3D3B36"/>
<path d="M119.874 19.3853C118.884 19.6735 118.562 19.9071 117.367 20.0084C118.011 19.3698 119.017 19.3619 119.874 19.3853Z" fill="#72604A"/>
<path d="M125.194 15.9502C124.384 16.5889 123.614 17.6948 122.891 18.3412C122.317 18.8474 121.186 19.3771 120.809 19.7042V19.3926C121.917 18.9643 124.738 15.6932 125.037 15.6465C125.241 15.6932 125.178 15.9425 125.194 15.9502Z" fill="#72604A"/>
<path d="M116.746 20.0161C116.432 20.0161 116.117 20.0161 115.803 20.0161C115.984 19.9927 116.298 19.393 116.746 20.0161Z" fill="#72604A"/>
<path d="M296.02 182.651C295.297 185.907 296.626 185.603 296.626 185.992V206.624C296.626 207.488 295.683 210.627 295.408 211.78C294.81 211.725 294.182 211.811 293.584 211.78C289.993 211.585 285.993 211.896 282.637 211.78C282.228 211.764 281.828 211.795 281.419 211.78V199.038H204.167C203.766 202.628 204.976 207.917 203.562 211.172C203.224 211.959 202.029 212.878 201.125 212.994C201.463 211.164 200.198 211.819 199.027 211.78C196.724 211.702 193.447 211.328 191.396 212.387C190.713 212.317 189.943 211.803 189.573 211.78L188.331 196.943C187.011 192.589 189.919 185.665 189.573 182.651C191.813 182.573 194.084 182.901 196.308 182.387C201.212 181.257 201.534 177.129 209.927 176.553C231.806 175.05 255.406 177.729 277.466 176.584C284.767 177.316 287.714 184.583 296.028 182.643L296.02 182.651ZM193.824 187.511C193.785 187.667 193.369 187.791 193.338 188.048C193 190.953 200.457 191.086 202.336 187.511C202.642 186.935 203.051 186.413 202.941 185.697C200.607 184.824 196.607 183.796 194.406 185.385C193.573 185.985 193.982 186.865 193.817 187.511H193.824ZM283.855 188.119C285.27 190.774 292.366 191.366 292.374 187.511C292.374 186.779 292.508 185.844 291.792 185.369C289.733 183.999 281.435 183.57 283.863 188.119H283.855Z" fill="#3D3B36"/>
<path d="M292.366 187.511C289.678 187.838 286.173 186.763 283.847 188.118C281.419 183.57 289.718 183.998 291.777 185.369C292.492 185.844 292.358 186.779 292.358 187.511H292.366Z" fill="#72604A"/>
<path d="M193.824 187.511C193.989 186.865 193.581 185.992 194.414 185.385C196.614 183.796 200.615 184.824 202.949 185.697C203.051 186.405 202.642 186.935 202.343 187.511H193.824Z" fill="#72604A"/>
<path d="M202.343 187.511C200.465 191.086 192.999 190.954 193.345 188.049C193.376 187.799 193.785 187.667 193.832 187.511H202.351H202.343Z" fill="#DAE1EF"/>
<path d="M292.366 187.511C292.366 191.366 285.262 190.774 283.848 188.119C286.174 186.763 289.671 187.838 292.366 187.511Z" fill="#DAE1EF"/>
<path d="M293.584 211.78C293.922 213.61 292.656 212.955 291.485 212.994C288.845 213.088 284.617 213.68 282.636 211.78C286 211.896 290 211.585 293.584 211.78Z" fill="#18140F"/>
<path d="M191.396 212.387C193.447 211.327 196.724 211.701 199.027 211.779C200.198 211.818 201.471 211.156 201.125 212.994C199.239 213.243 194.759 213.236 192.858 213.025C192.017 212.932 191.475 212.394 191.396 212.387Z" fill="#18140F"/>
<path d="M207.208 132.292C202.312 139.613 201.101 145.361 211.75 146.272C232.23 148.024 255.343 145.049 276.09 146.093C284.295 144.909 282.298 139.372 280.2 133.507C281.528 133.904 283.587 133.865 285.065 134.722C286.668 138.133 287.799 141.926 289.929 145.034C289.929 145.906 290.212 147.261 290.534 148.071C285.583 147.557 278.778 146.023 275.422 150.89C272.491 155.135 274.078 157.137 278.385 158.679C283.737 160.587 290.833 161.584 294.189 155.961C294.896 157.814 296.334 159.24 296.641 161.708C297.214 166.374 296.986 178.305 296.02 182.659C287.705 184.598 284.766 177.332 277.458 176.6C255.398 177.737 231.798 175.065 209.919 176.568C201.533 177.145 201.204 181.273 196.3 182.402C194.076 182.916 191.804 182.589 189.564 182.667C188.582 174.022 187.411 162.409 192.001 154.753C192.213 164.068 212.041 159.699 212.025 154.45C212.009 147.83 201.149 146.163 196.253 148.079C196.543 146.708 196.017 145.672 195.647 144.442C197.251 144.8 196.803 143.6 197.188 142.674C198.036 140.618 199.569 136.069 201.117 134.73C202.665 133.39 205.526 132.977 207.2 132.3L207.208 132.292ZM221.196 162.627V164.45C219.782 165.494 220.74 166.958 221.196 168.087C221.322 168.391 220.835 169.177 221.581 169.325H264.05C264.726 169.154 264.317 168.064 264.388 167.48C264.498 166.514 264.404 166.817 264.388 166.264C264.357 165.05 264.412 163.835 264.388 162.627C265.496 162.581 267.139 162.908 268.059 162.339C269.591 158.655 264.341 157.542 261.575 157.238C252.812 156.288 237.826 156.662 228.772 157.137C227.2 157.215 220.851 157.697 219.994 158.087C219.42 158.344 216.803 161.046 216.945 161.708C217.974 163.11 219.766 162.573 221.196 162.627Z" fill="#8AACF6"/>
<path d="M285.073 134.722C283.596 133.865 281.537 133.904 280.209 133.507C258.927 127.159 228.128 123.873 207.216 132.292C205.542 132.962 202.721 133.351 201.133 134.722C202.469 128.063 207.326 122.44 214.265 121.419C227.036 119.55 249.622 120.064 262.904 120.734C276.185 121.404 279.328 122.486 285.081 134.714L285.073 134.722Z" fill="#18140F"/>
<path d="M192.001 154.746C191.977 153.819 192.174 151.833 192.606 151.108C192.724 150.906 196.033 148.165 196.253 148.071C201.149 146.155 212.002 147.83 212.025 154.442C212.041 159.691 192.205 164.06 192.001 154.746ZM208.952 155.875C211.829 151.28 199.436 148.647 198.673 153.866C197.832 159.59 207.907 157.549 208.952 155.875Z" fill="#72604A"/>
<path d="M290.543 148.071C290.92 148.998 292.767 150.68 292.979 151.109C293.742 152.674 293.529 154.216 294.197 155.961C290.841 161.584 283.745 160.595 278.393 158.679C274.087 157.144 272.499 155.135 275.43 150.89C278.794 146.023 285.592 147.557 290.543 148.071ZM286.134 151.864C282.393 148.313 271.313 153.967 279.454 157.004C284.562 158.913 290.268 155.789 286.134 151.864Z" fill="#72604A"/>
<path d="M195.655 144.426C196.024 145.656 196.559 146.7 196.26 148.063C196.04 148.149 192.732 150.89 192.614 151.101C183.026 150.82 180.087 140.773 191.718 141.35C195.05 141.513 194.885 141.84 195.655 144.426Z" fill="#18140F"/>
<path d="M289.938 145.033C289.938 142.307 290.724 141.7 293.349 141.459C305.734 140.321 303.22 150.766 292.98 151.1C292.775 150.68 290.928 148.998 290.543 148.063C290.213 147.253 289.93 145.906 289.938 145.025V145.033Z" fill="#18140F"/>
<path d="M280.2 133.507C282.291 139.371 284.295 144.901 276.09 146.093C255.343 145.049 232.23 148.024 211.75 146.272C201.102 145.361 202.312 139.613 207.208 132.292C228.128 123.873 258.919 127.159 280.2 133.507Z" fill="#2E3233"/>
<path d="M264.388 162.627C264.412 163.842 264.357 165.057 264.388 166.265V167.48C264.318 168.064 264.734 169.154 264.051 169.333H221.582C220.835 169.177 221.322 168.391 221.196 168.087V162.627C234.8 163.18 250.777 163.173 264.381 162.627H264.388Z" fill="#DAE1EF"/>
<path d="M264.389 162.627C250.777 163.173 234.809 163.18 221.205 162.627C219.767 162.565 217.975 163.11 216.953 161.708C216.812 161.046 219.429 158.344 220.002 158.087C220.867 157.697 227.217 157.222 228.781 157.137C237.826 156.669 252.813 156.296 261.583 157.238C264.342 157.534 269.599 158.655 268.067 162.339C267.147 162.908 265.505 162.581 264.397 162.627H264.389Z" fill="#72604A"/>
<path d="M221.196 168.095C220.74 166.958 219.781 165.494 221.196 164.458V168.095Z" fill="#72604A"/>
<path d="M264.388 167.487V166.272C264.404 166.825 264.497 166.522 264.388 167.487Z" fill="#72604A"/>
<path d="M208.952 155.875C207.907 157.541 197.832 159.582 198.673 153.865C199.436 148.655 211.836 151.287 208.952 155.875Z" fill="#F7E0BB"/>
<path d="M286.134 151.864C290.268 155.79 284.562 158.913 279.454 157.005C271.312 153.967 282.393 148.313 286.134 151.864Z" fill="#F7E0BB"/>
<path d="M122.961 78.7245C122.961 78.7245 122.922 78.6933 122.898 78.6777C124.234 76.8163 124.997 74.5967 125.523 72.3771C125.39 72.1746 123.503 72.6729 123.142 72.6651C122.945 72.6651 123.048 72.5639 123.064 72.4315L127.064 67.3301C126.985 67.1743 126.985 67.1821 126.82 67.1821C126.317 67.1977 123.26 67.6961 123.126 67.517C123.228 67.3067 123.448 67.1042 123.613 66.9407C124.109 66.4344 124.667 65.975 125.162 65.4766C125.83 64.8145 127.181 63.6463 127.676 62.9765C127.755 62.8753 127.778 62.7663 127.794 62.6417C126.655 62.6417 125.515 62.4935 124.368 62.4702C120.808 62.4001 116.753 62.9143 113.365 63.9735C112.996 64.0903 110.591 64.9703 110.418 65.1183C110.387 65.1495 110.285 65.2819 110.293 65.2896C111.071 65.3519 111.818 65.5622 112.588 65.6713C112.69 65.6868 112.792 65.531 112.721 65.7646C110.403 66.9718 108.045 68.7008 106.741 71.0295C106.371 71.6915 105.75 73.1792 105.624 73.8958C105.593 74.0827 105.742 74.3475 105.624 74.4877C105.593 74.5266 105.546 74.5499 105.499 74.5655L105.357 75.8662C105.444 75.8896 105.53 75.9051 105.609 75.944C105.569 77.9923 106.725 79.8849 108.226 81.2089C108.226 81.2323 108.21 81.2945 108.179 81.3568C108.501 81.6216 108.807 82.0189 109.138 82.1902C109.177 82.1357 109.2 82.0812 109.24 82.0267C109.868 82.0968 110.253 82.6187 110.898 82.6654C112.116 83.3819 113.601 83.2183 114.953 83.3585C114.961 83.3663 114.969 83.4207 114.969 83.4908C115.37 83.4441 115.802 83.3975 116.202 83.4442C116.226 83.3274 116.258 83.2417 116.313 83.1872C118.647 82.8133 120.666 81.4503 122.159 79.6512C122.167 79.6512 122.191 79.6668 122.199 79.6668C122.254 79.5734 122.325 79.4798 122.403 79.3942C122.505 79.1216 122.694 78.8724 122.93 78.6855L122.961 78.7245Z" fill="#FCCA59"/>
<path d="M105.649 74.5111C105.649 74.5111 105.72 68.8644 112.738 65.7803L110.309 65.3053C110.309 65.3053 115.661 61.8783 127.811 62.6571L123.143 67.5248L127.072 67.3301L123.072 72.4315L125.532 72.3693C125.532 72.3693 124.282 81.5439 116.353 83.2184C116.353 83.2184 112.038 84.2075 108.258 81.2323C104.478 78.2572 105.657 74.5111 105.657 74.5111H105.649Z" stroke="#EAECA2" stroke-miterlimit="10"/>
<path d="M129.649 75.57C127.983 76.2398 125.673 76.8785 123.173 77.3692C122.726 77.229 122.121 77.0888 121.641 76.9486C121.445 76.8863 121.264 76.8318 121.138 76.7695C122.081 76.676 125.083 75.8193 125.68 75.609C126.733 75.2352 129.217 73.5918 131.386 74.1993C132.502 74.5108 130.584 75.1962 129.657 75.57H129.649Z" fill="#FCCA59"/>
<path d="M105.445 74.6514C104.517 74.7293 103.48 74.9005 102.694 75.3366C102.081 75.6715 100.014 77.1826 101.036 77.8135C101.932 78.3586 102.482 77.1513 103.087 76.7074C103.779 76.1934 105.091 75.7495 106.05 75.9753L106.191 74.6748C105.979 74.7371 105.665 74.6436 105.445 74.667V74.6514Z" fill="#FCCA59"/>
<path d="M115.103 82.5954C115.103 83.0939 114.93 84.6125 114.891 84.8695C114.812 85.4303 114.443 86.6376 114.474 87.0815C114.506 87.5722 115.362 87.7824 115.7 87.7746C115.771 87.7746 116.321 87.3229 116.337 87.2138C116.424 86.6609 116.14 86.5053 116.022 86.2015C115.881 85.851 116.219 84.2777 116.282 83.7559C116.313 83.4677 116.282 82.8915 116.337 82.5021C115.944 82.4553 115.504 82.5175 115.103 82.5876V82.5954Z" fill="#FCCA59"/>
<path d="M107.418 82.1435C107.229 82.5874 106.978 83.7401 106.75 84.0672C106.632 84.2463 106.341 84.1763 106.247 84.3477C106.184 84.4723 106.058 84.9395 106.066 85.0953C106.089 85.7885 106.836 85.9911 107.308 85.9755C107.426 85.9755 107.827 85.5003 107.874 85.2744C107.984 84.6981 108 84.6357 108.173 84.075C108.479 83.0703 108.778 82.1592 109.265 81.2713C108.935 81.061 108.636 80.5781 108.322 80.2588C108.149 80.7261 107.544 81.8476 107.418 82.1513V82.1435Z" fill="#FCCA59"/>
<path d="M120.716 74.2695C120.842 75.4456 119.537 76.1932 118.64 75.3676C118.357 75.1106 118.185 74.6434 118.303 74.2695H120.723H120.716Z" fill="black"/>
<path d="M110.53 71.5674L112.668 72.3306L112.747 72.4396C112.416 73.7324 110.53 73.6546 110.333 72.3306C110.31 72.1593 110.326 71.5674 110.53 71.5752V71.5674Z" fill="black"/>
<path d="M115.064 78.4392C115.47 77.4144 115.155 76.3322 114.359 76.022C113.563 75.7117 112.588 76.2911 112.182 77.3158C111.775 78.3406 112.09 79.4229 112.886 79.7331C113.682 80.0433 114.657 79.464 115.064 78.4392Z" fill="black"/>
<path d="M49.749 66.5666C50.4642 66.4887 50.2441 66.1928 50.472 65.8423C51.2578 64.6585 51.8708 63.4747 53.0103 62.5479C53.6862 62.7737 52.8767 63.2177 52.7667 63.4124C52.4287 63.9888 51.5484 65.5774 51.4148 66.1537C51.3991 66.2316 51.4305 66.3408 51.4148 66.4342C51.0061 66.3875 51.1872 66.4888 51.14 66.7147C51.1322 66.7614 51.1479 66.8081 51.14 66.8548L50.9984 67.1351C50.9827 67.174 51.0142 67.2287 50.9984 67.2754C50.4876 67.3066 50.4248 67.9997 50.307 68.3813C50.2834 68.4592 50.3305 68.5839 50.307 68.6618C49.8826 68.6306 49.9767 68.9109 49.8745 69.1289C49.5444 69.8377 49.0181 70.8034 48.9159 71.4342C48.7588 72.3922 48.5386 72.5014 48.2164 73.3036C47.6427 74.7444 47.0611 76.2085 46.5502 77.6727C46.3145 77.6571 46.2279 77.626 46.2751 77.883L46.4167 77.9532C46.3224 78.2335 46.228 78.5062 46.1416 78.7866C45.725 78.7009 45.898 78.9967 45.8273 79.2304C45.733 79.5341 45.1987 80.6946 45.3323 80.8426C45.3873 80.9049 45.5679 80.8426 45.5836 80.866C45.6072 80.8893 45.5052 81.2008 45.7881 81.1618L48.4992 80.866C48.5935 80.866 48.6879 80.866 48.7743 80.866C50.7705 80.8815 52.751 80.648 54.7471 80.7258C54.6214 81.2009 53.4111 81.0841 53.3561 81.1386C53.3325 81.162 53.3323 81.7382 53.3795 81.8083C53.4581 81.9329 54.0161 81.9563 54.1968 81.9641C54.2911 81.9641 54.3855 81.9641 54.472 81.9641C54.9199 82.1977 55.8628 82.1977 56.2793 81.9641C56.8688 81.9485 57.4268 81.8473 57.9455 81.8239C58.362 82.0654 59.0693 81.9796 59.5487 81.9641C59.8159 81.9563 60.1066 82.1044 60.028 81.6838C60.7667 81.6448 61.5134 81.7149 62.2521 81.6838C62.5586 81.9096 63.0695 81.9096 63.3603 81.6838C64.2091 81.6994 65.27 81.598 66.1424 81.5435C67.1719 81.7849 68.9163 81.8318 69.8515 81.2944C70.4016 80.975 70.4409 80.7959 70.0322 80.2974C70.2209 80.165 71.2426 80.5855 71.1405 80.017C71.832 80.0092 72.5314 80.0248 73.223 80.017H91.1489C91.7069 80.017 92.265 80.0092 92.8151 80.017L93.3731 80.2974C93.4202 80.3442 92.5951 80.8894 93.6482 81.3333C94.5834 81.7306 96.2731 81.8083 97.2633 81.5435C98.0963 81.598 98.9291 81.6526 99.7622 81.6838C100.132 81.9174 100.784 81.9174 101.153 81.6838C101.892 81.7149 102.639 81.6526 103.377 81.6838C103.299 82.1355 103.605 81.9173 103.865 81.9563C105.295 82.1432 106.725 82.12 108.171 82.1044C108.407 82.1044 108.792 82.1899 108.933 81.9641C109.028 81.9641 109.122 81.9641 109.208 81.9641C109.224 81.9641 109.311 82.1199 109.515 82.0888C110.128 81.972 110.497 81.4735 110.317 80.8582C112.808 81.0918 115.323 80.9595 117.822 81.1386C117.845 81.053 117.798 80.9205 117.822 80.8582C117.837 80.8192 117.814 80.7648 117.822 80.718C118.183 79.0124 116.745 77.6805 116.596 76.3175C116.564 76.0449 116.761 75.531 116.706 75.4609C116.666 75.4142 116.235 75.3987 116.172 75.2974C116.038 75.0793 116.313 74.3626 115.598 74.3471C115.59 74.3003 115.598 74.2537 115.598 74.2069C115.37 72.7505 114.623 71.8316 114.167 70.5698C114.065 70.2817 113.869 69.5729 113.932 69.3081C113.948 69.2457 114.419 69.1135 114.215 68.6618C114.953 68.6695 114.49 69.4405 114.537 69.7131C114.568 69.8922 115.252 69.9079 115.055 70.7879C115.024 70.9359 114.647 70.7879 114.773 71.154L115.606 71.0138C115.676 71.2008 115.613 72.034 115.645 72.0963C116.108 73.0699 116.816 74.2146 117.209 75.305C117.28 75.5075 117.672 76.5591 117.688 76.6292C117.735 76.855 117.625 77.4469 117.704 77.517C117.751 77.5637 118.042 77.4858 118.089 77.5326C118.121 77.5637 118.12 78.2179 118.199 78.4749C118.537 79.5575 119.48 81.0451 119.865 82.2133C120.101 82.9454 120.093 84.1371 120.36 84.7601C120.415 84.8847 121.099 85.8193 121.209 85.9362C121.735 86.4814 122.529 86.6138 122.411 87.5016C122.671 87.5016 122.427 87.0187 122.828 87.2913C123.009 87.8755 123.637 88.3349 123.889 88.7944C124.07 89.1293 123.724 89.3241 124.494 89.4409C124.51 89.4799 124.478 89.5343 124.494 89.581C124.635 89.986 124.494 90.9129 125.185 90.9674C125.201 91.0063 125.178 91.0608 125.185 91.1075C125.351 91.7929 125.798 92.5173 126.152 93.1482C126.938 94.5345 127.881 96.0843 128.235 97.5797C128.423 98.3819 128.95 100.088 128.95 100.742C128.95 101.926 128.816 103.701 128.651 104.885C128.376 106.817 128.345 109.075 128.235 111.124C128.211 111.591 128.148 112.315 128.384 112.72C128.384 112.814 128.384 112.907 128.384 113.001C127.967 112.923 128.117 113.211 128.109 113.476C128.078 114.488 128.031 115.36 128.109 116.326C128.133 116.599 128.093 116.887 128.109 117.16C127.598 118.047 127.85 119.504 127.834 120.563C127.818 121.755 127.677 122.253 127.889 123.546C127.991 124.161 128.368 124.325 128.093 125.096C128.054 125.213 127.889 125.213 127.842 125.314C127.409 126.256 126.797 127.409 125.657 127.541C125.162 127.604 124.478 127.588 124.007 127.417C123.229 127.129 122.671 126.482 121.507 126.451C119.087 126.373 116.58 126.762 114.144 126.731C113.665 126.731 112.179 126.77 111.936 126.731C111.841 126.716 111.865 126.474 111.755 126.451C111.464 126.381 109.877 126.326 109.413 126.303C105.452 126.124 101.295 126.7 97.4675 126.591C97.1217 126.583 96.8861 126.233 96.5089 126.295L96.713 126.576H95.6048L95.6758 126.303C95.4401 126.443 95.094 126.537 94.8189 126.56C93.8052 126.653 92.7679 126.56 91.7856 126.568C82.1821 126.716 72.5237 126.607 63.0146 126.443C59.3209 126.381 55.7057 126.124 52.0042 126.537C50.0867 126.755 46.4719 126.716 44.2793 126.576C44.1929 126.576 44.2082 126.303 44.1139 126.287C43.7367 126.233 41.4501 126.607 40.9236 126.7C40.6564 126.747 40.3027 126.654 40.122 126.7C39.9805 126.739 40.051 127.051 39.9017 127.199C39.666 127.44 39.1236 127.23 39.2022 127.681C39.0136 127.681 38.8328 127.681 38.6442 127.681C38.2827 127.674 38.3377 127.611 37.8112 127.681C37.709 127.697 37.2768 127.697 37.2532 127.681C37.1432 127.596 37.4971 127.572 36.9785 127.401C36.9313 127.386 36.8762 127.417 36.8369 127.401C36.9155 126.778 36.4362 126.778 36.1454 126.568C36.0118 126.474 35.7915 126.334 35.7286 126.287C35.8465 125.734 35.3593 125.462 35.3042 124.979C35.2257 124.301 35.5481 123.53 35.5874 122.829C35.611 122.51 35.5874 122.183 35.5874 121.856C35.5874 121.762 35.4458 121.723 35.4458 121.716C35.4458 121.482 35.4458 121.256 35.4458 121.023C35.4458 120.47 35.611 119.722 35.5874 119.005C35.5796 118.741 35.7288 118.452 35.3123 118.53C35.3044 118.296 35.3202 118.071 35.3123 117.837C35.5402 117.689 35.4535 117.307 35.4535 117.074C35.5007 113.039 34.8484 109.052 34.8956 105.01C34.9034 104.122 34.7856 104.519 34.7463 104.184C34.6441 103.382 34.4715 100.415 34.6208 99.7682C34.6444 99.667 34.8486 99.6903 34.8879 99.5657C35.2022 98.5377 35.4931 97.3149 35.721 96.2557C35.776 95.9987 35.6736 95.6793 35.7286 95.4691C35.7679 95.3055 36.4283 95.0641 36.5226 94.9239C36.554 94.885 36.4911 94.2697 36.6404 93.9894C36.7111 93.8414 37.1118 93.0702 37.1511 93.0312C37.2061 92.9767 37.4421 93.0469 37.5049 92.9924C37.5992 92.899 37.8112 91.7462 37.9056 91.5203C38.0942 91.0764 39.2259 89.6902 39.5088 89.0905C40.0589 87.9612 39.5951 88.3349 40.5775 87.3769C41.0254 86.933 41.1119 86.4113 41.1511 86.3646C41.214 86.3023 41.6072 86.4346 41.8115 86.3256C43.1082 85.6168 43.1317 83.5451 43.4696 82.3691C43.8547 81.0373 44.5701 79.6744 45.0495 78.4049C45.2224 77.961 45.348 76.9953 45.5287 76.6604C45.6466 76.4423 45.9451 76.4266 45.9923 76.3643C46.0787 76.2319 46.5974 73.7242 46.7152 73.3347C46.731 73.2958 46.6995 73.2411 46.7152 73.1944C47.1003 72.9374 47.4618 72.2676 47.6504 71.8393C48.4048 70.1492 49.1359 68.3502 49.7724 66.6757C49.7881 66.6368 49.7567 66.5745 49.7724 66.5356L49.749 66.5666ZM118.946 81.5357H118.67V81.9485H118.946V81.5357ZM80.4532 88.6075C79.6359 90.0172 82.3157 90.0561 82.8972 89.5888C83.298 89.2695 82.9758 88.6075 82.7479 88.6075H80.4532ZM39.7448 91.2401C39.3125 91.5594 39.226 91.349 38.7152 92.0889C37.67 93.5998 37.5754 96.1076 38.6285 97.6964C39.3594 98.8101 45.851 101.341 47.3914 101.848C49.3797 102.494 51.9023 102.712 53.9927 102.471C54.6293 102.401 55.3284 102.12 55.1163 101.357C54.8883 100.555 54.0242 99.3787 53.6469 98.522C53.2147 97.5251 52.6566 95.9753 52.5387 94.9161C52.4994 94.5189 52.6645 93.2805 52.4052 93.1092C51.5014 93.0001 50.4953 92.7432 49.6466 92.4005C48.2713 91.8397 46.4245 91.2945 44.7505 90.7649C44.5541 90.7026 44.3893 90.4768 44.2479 90.4534C44.0278 90.4223 43.7447 90.6169 43.4539 90.5546C43.3517 90.5312 43.3755 90.2977 43.2655 90.2743C42.126 90.0095 40.845 90.2742 39.894 90.905C39.7526 90.9985 39.7605 91.2245 39.7448 91.2401ZM122.521 90.3053C121.484 89.8769 117.908 90.8974 116.69 91.2479C116.439 91.3179 115.873 91.5592 115.441 91.6916C113.979 92.1434 112.517 92.6185 111.055 93.0624C110.741 93.6699 110.953 94.3786 110.875 95.0329C110.725 96.1777 110.128 97.603 109.664 98.6777C109.381 99.3242 107.998 101.528 108.321 102.05C108.446 102.253 109.177 102.432 109.436 102.463C111.118 102.65 113.657 102.525 115.276 102.05C117.177 101.489 123.127 99.2698 124.408 98.0314C124.439 98.0003 124.911 97.4083 124.934 97.3694C125.814 95.8273 125.492 93.0624 124.423 91.6605C123.936 91.0218 123.535 90.9751 122.898 90.6869C122.663 90.5857 122.561 90.3131 122.537 90.2975L122.521 90.3053ZM62.8101 106.069C64.3425 106.707 66.9048 107.113 68.5944 107.299C76.5161 108.18 84.5554 108.218 92.477 107.455C97.5067 106.965 101.97 106.871 104.823 102.307C105.303 101.536 105.397 100.999 105.719 100.29C106.505 98.561 107.684 96.7774 107.401 94.7914C107.228 93.5842 106.505 93.2182 105.382 93.0624C102.348 92.634 99.2673 92.7119 96.0845 92.634C84.9643 92.3848 73.8754 92.4395 62.7394 92.6264L56.9397 93.1949C56.3975 93.6856 56.0832 93.997 56.0046 94.7836C55.7374 97.2758 58.2836 102.292 60.0361 104.067C60.4369 104.48 61.1127 104.823 61.5606 105.243C61.7571 105.43 61.5134 105.641 62.2521 105.796C62.3386 105.812 62.4408 105.781 62.5272 105.796C62.4487 106.209 62.6688 106.022 62.8024 106.077L62.8101 106.069ZM38.9117 123.538C41.01 124.34 43.4853 124.434 45.7801 124.512C48.3342 124.597 50.7546 124.893 52.9394 123.538L55.9259 123.811C72.6888 124.512 89.4671 124.488 106.23 123.811C107.354 123.764 109.476 123.413 110.466 123.663C111.173 123.842 111.763 124.379 112.494 124.481C113.837 124.667 116.329 124.551 117.767 124.496C120.038 124.41 122.411 124.317 124.502 123.523C124.722 123.437 124.989 123.655 125.343 123.32C125.398 123.273 126.058 122.206 126.089 122.128C126.828 120.212 125.123 113.483 123.842 111.77C121.704 108.927 115.842 109.527 112.619 109.799C110.207 110.002 106.332 110.142 104.627 111.809H58.637C57.8275 110.539 56.0596 110.43 54.6608 110.236C51.5958 109.807 44.4049 109.091 41.7329 110.197C40.6955 110.625 39.7367 111.381 39.163 112.346C38.11 114.114 36.7346 120.228 37.3476 122.105C37.3869 122.23 37.9922 123.258 38.0629 123.328C38.4165 123.663 38.6836 123.445 38.9036 123.53L38.9117 123.538Z" fill="#9E1B22"/>
<path d="M35.2967 117.853C35.3046 118.087 35.2889 118.313 35.2967 118.546C35.3282 119.348 35.1554 120.299 35.4383 121.039C35.4383 121.272 35.4383 121.498 35.4383 121.732L35.5795 121.872C35.5795 122.191 35.6031 122.526 35.5795 122.845C35.2102 122.767 35.3045 123.032 35.2338 123.258C34.8723 124.481 34.5657 125.4 35.7131 126.311C35.776 126.358 35.9962 126.498 36.1298 126.592C36.1613 126.926 36.5305 127.277 36.8213 127.425C36.8527 127.441 36.9157 127.409 36.9629 127.425C36.9315 127.721 36.9469 127.736 37.2376 127.705C37.2612 127.721 37.6938 127.721 37.796 127.705C37.9374 127.931 38.4951 127.931 38.6287 127.705C38.8173 127.705 38.998 127.705 39.1866 127.705C40.224 127.721 41.3952 127.573 42.3854 127.846C41.6388 127.923 40.7822 127.783 40.0278 127.846C39.957 128.266 40.1297 128.064 40.3654 128.126C42.2437 128.593 42.9668 127.76 44.5542 127.581C45.5209 127.472 46.802 127.55 47.8079 127.565C47.9729 127.565 48.2087 127.565 48.3658 127.565C48.4601 127.565 48.5545 127.565 48.641 127.565C48.6488 128.92 48.5231 133.928 47.3286 134.645C47.195 134.723 47.0769 134.793 46.9119 134.777C43.4226 134.52 39.4931 135.096 36.0588 134.777C35.6266 134.738 35.1786 134.582 34.88 134.248C33.992 133.243 34.2121 129.637 34.1885 128.258C34.1021 122.363 34.5579 116.529 34.7465 110.657C35.0294 111.233 34.8486 112.028 34.88 112.674C34.8879 112.853 35.0216 113.032 35.0216 113.087V115.166C35.0216 115.906 35.2653 117.121 35.2967 117.869V117.853Z" fill="#252222"/>
<path d="M129.225 128.251C129.202 129.621 129.406 132.939 128.668 134.006C128.337 134.489 127.929 134.723 127.355 134.777C123.913 135.096 119.999 134.52 116.502 134.777C116.384 134.777 116.274 134.746 116.164 134.699C114.938 134.146 114.726 129.115 114.773 127.838C114.789 127.838 114.907 127.705 115.048 127.697C115.237 127.697 115.418 127.697 115.606 127.697C116.596 127.682 117.547 127.472 118.592 127.557C120.282 127.705 120.989 128.492 122.93 128.126C123.19 128.079 123.473 128.243 123.394 127.83C124.251 127.807 125.76 127.978 126.483 127.651C127.292 127.293 128.597 125.509 128.55 124.567C128.526 124.154 128.322 124.006 128.275 123.725C127.874 121.576 128.251 119.271 128.125 117.152C128.11 116.88 128.149 116.591 128.125 116.319C128.51 115.252 128.345 114.091 128.4 112.993C128.4 112.9 128.4 112.806 128.4 112.713C128.4 112.697 128.534 112.557 128.542 112.378C128.573 111.77 128.384 110.992 128.675 110.493C128.809 116.404 129.32 122.292 129.233 128.235L129.225 128.251Z" fill="#252222"/>
<path d="M121.445 85.0016C120.337 84.9782 120.659 83.6074 120.471 82.922L121.72 82.7818C121.547 81.598 120.439 77.5326 121.988 77.0186C123.182 76.6214 127.929 77.6105 128.99 78.3659C130.05 79.1214 130.294 81.9173 130.192 83.1245C130.137 83.7553 130.121 84.3318 129.422 84.4331C127.174 84.7757 124.872 84.5498 122.624 84.7211C122.208 84.7523 121.862 85.0094 121.445 85.0016Z" fill="#252222"/>
<path d="M42.244 85.1422L40.6488 84.7294C38.2755 84.7995 35.9178 84.6515 33.5759 84.301C32.7743 83.7247 33.3557 79.3322 34.1887 78.5533C35.1946 77.6109 39.9966 76.7075 41.3169 77.0035C43.0773 77.4007 41.7568 81.6997 41.7018 82.9225H42.9512C42.6526 83.8648 42.9041 84.1219 42.2597 85.1422H42.244Z" fill="#252222"/>
<path d="M120.471 82.9222C120.651 83.6075 120.329 84.9784 121.445 85.0018C121.39 85.3211 121.477 85.4534 121.642 85.7027C122.475 86.8943 123.968 87.8678 124.494 89.4333C123.724 89.3165 124.078 89.1217 123.889 88.7868C123.638 88.3273 123.009 87.8678 122.828 87.2837C122.427 87.0111 122.671 87.494 122.412 87.494C122.53 86.5984 121.728 86.4659 121.209 85.9285C121.099 85.8195 120.416 84.8771 120.36 84.7525C120.093 84.1294 120.101 82.9378 119.865 82.2057C119.48 81.0375 118.537 79.5421 118.199 78.4673C118.121 78.2103 118.121 77.5639 118.09 77.5249C118.042 77.4704 117.751 77.5561 117.704 77.5093C117.626 77.4315 117.728 76.8396 117.689 76.6216C117.673 76.5515 117.288 75.5001 117.209 75.2976C116.816 74.2072 116.109 73.0622 115.645 72.0887C115.614 72.0264 115.677 71.1931 115.606 71.0062L114.773 71.1463C114.639 70.7725 115.017 70.9283 115.056 70.7803C115.252 69.8925 114.569 69.8846 114.537 69.7054C114.49 69.4328 114.954 68.6697 114.215 68.6541C114.419 69.1059 113.948 69.2381 113.932 69.3004C113.869 69.5652 114.066 70.2741 114.168 70.5622C114.624 71.8239 115.37 72.7351 115.598 74.1993C115.292 73.9345 115.087 73.3815 114.922 72.9999C113.633 70.087 111.268 63.9577 109.068 62.0029C108.84 61.8004 108.58 61.1929 108.997 61.3097C111.26 61.9795 113.736 66.3097 114.726 68.3503C116.62 72.2366 119.363 78.8177 120.463 82.93L120.471 82.9222Z" fill="#7C262A"/>
<path d="M46.6922 73.3584C46.5743 73.7478 46.0636 76.2558 45.9693 76.3882C45.9221 76.4505 45.6232 76.4659 45.5053 76.684C45.3324 77.0111 45.199 77.9769 45.0261 78.4286C44.5467 79.6981 43.8238 81.0611 43.4466 82.3929C43.1087 83.5689 43.0848 85.6407 41.7881 86.3494C41.5838 86.4585 41.191 86.3261 41.1281 86.3884C41.081 86.4351 41.0024 86.9568 40.5544 87.4007C39.5721 88.3587 40.0359 87.985 39.4858 89.1143C39.195 89.714 38.0711 91.1002 37.8825 91.5442C37.7882 91.77 37.5758 92.9228 37.4815 93.0163C37.4187 93.0786 37.1831 93.0005 37.1281 93.0551C37.0888 93.094 36.6881 93.865 36.6174 94.013C36.4759 94.3012 36.5306 94.9088 36.4992 94.9478C36.397 95.0879 35.7449 95.3293 35.7056 95.4929C35.6506 95.7032 35.7447 96.0225 35.6976 96.2795C35.4775 97.3387 35.1867 98.5537 34.8645 99.5896C34.8252 99.7064 34.621 99.6908 34.5974 99.7921C34.4402 100.438 34.6132 103.414 34.7233 104.208C34.7626 104.535 34.8804 104.146 34.8725 105.034C34.8254 109.076 35.4776 113.063 35.4305 117.098C35.4305 117.331 35.5168 117.713 35.2889 117.861C35.2575 117.113 35.0141 115.898 35.0141 115.158V113.079C35.0141 113.032 34.8804 112.853 34.8725 112.666C34.8411 112.02 35.0219 111.225 34.739 110.649C34.8726 106.435 33.7251 102.152 34.8096 98.0397C35.5248 95.3216 38.5032 89.3322 40.3108 87.206C40.9395 86.4661 41.7018 86.0067 42.244 85.15C42.8963 84.1297 42.6447 83.8804 42.9355 82.9303C43.7921 80.2044 45.0734 76.9645 46.1657 74.3009C46.2993 73.9816 46.4329 73.6076 46.6922 73.3662V73.3584Z" fill="#7C262A"/>
<path d="M128.668 110.509C128.377 111.007 128.574 111.786 128.535 112.393C128.527 112.573 128.393 112.713 128.393 112.728C128.165 112.316 128.22 111.591 128.244 111.132C128.354 109.083 128.385 106.817 128.66 104.893C128.833 103.71 128.959 101.934 128.959 100.75C128.959 100.096 128.44 98.3978 128.244 97.5879C127.89 96.0925 126.947 94.5427 126.161 93.1564C125.807 92.5333 125.359 91.8011 125.194 91.1157C125.477 91.3883 125.799 91.8479 126.003 92.1828C127.945 95.3059 129.179 98.5381 129.093 102.284C129.03 105.033 128.605 107.759 128.668 110.524V110.509Z" fill="#7C262A"/>
<path d="M104.493 61.1617C104.603 59.7521 105.774 59.2926 106.788 60.3284L106.647 59.6431L107.401 60.7257C107.527 60.9515 107.778 62.2131 107.841 62.2754C107.912 62.3455 108.729 62.2365 108.949 62.2754C109.098 62.9296 107.888 62.1743 107.975 62.8286C107.472 62.7117 107.637 62.2288 107.558 61.9952C107.503 61.8316 107.503 61.8472 107.417 61.7148C107.354 61.6135 107.071 61.4655 107 61.302L106.513 60.6088L105.892 61.302C105.429 61.263 104.981 61.1929 104.501 61.1617H104.493ZM106.922 60.4686V60.6088C107.008 60.5621 107.008 60.5153 106.922 60.4686Z" fill="#909195"/>
<path d="M49.749 66.5667C50.2913 65.1648 52.4603 62.1586 53.8592 61.5901C54.5114 61.3253 54.9669 61.372 54.3304 61.9951C53.1437 63.1478 52.6172 64.2614 51.8077 65.7879C51.7056 65.9826 51.7527 66.224 51.4148 66.1539C51.5484 65.5776 52.4288 63.9889 52.7667 63.4126C52.8767 63.2179 53.6862 62.7739 53.0103 62.548C51.8708 63.4748 51.2579 64.6508 50.472 65.8425C50.2362 66.1929 50.4563 66.4888 49.749 66.5667Z" fill="#7C262A"/>
<path d="M46.6924 73.2184C47.1562 71.7387 47.8952 70.0487 48.5712 68.6468C48.8856 67.9926 49.2079 67.1904 49.7503 66.7075C49.1136 68.382 48.3824 70.181 47.6277 71.8711C47.4391 72.2994 47.0776 72.9692 46.6924 73.2262V73.2184Z" fill="#7C262A"/>
<path d="M56.2806 61.3018C56.2806 61.7691 55.8406 62.7427 55.3061 62.8284L54.8896 62.2753L55.4239 62.2521L55.9977 60.6087C56.1156 60.5931 56.2729 61.2629 56.2729 61.3018H56.2806Z" fill="#909195"/>
<path d="M125.194 90.9596C124.502 90.9051 124.636 89.9782 124.502 89.5732C124.832 89.9627 125.052 90.4767 125.194 90.9596Z" fill="#7C262A"/>
<path d="M103.661 61.1618C103.48 61.1462 103.276 61.0372 103.103 61.0216C103.394 60.6945 103.614 60.6633 103.661 61.1618Z" fill="#909195"/>
<path d="M54.6142 62.5479C54.567 62.6414 54.3784 62.47 54.4806 62.2753C54.5278 62.1818 54.7164 62.3532 54.6142 62.5479Z" fill="#909195"/>
<path d="M104.219 61.1618C104.172 61.1618 104.125 61.1618 104.078 61.1618L104.007 60.749L104.219 61.1618Z" fill="#909195"/>
<path d="M109.217 62.2754C109.217 62.2754 109.083 62.2053 109.075 62.1353L109.217 62.2754Z" fill="#909195"/>
<path d="M38.9128 123.538C38.6927 123.453 38.4253 123.671 38.0716 123.336C38.0009 123.266 37.3961 122.238 37.3568 122.113C36.7438 120.236 38.1112 114.114 39.1722 112.354C39.7459 111.396 40.7121 110.633 41.7416 110.205C44.4136 109.099 51.6125 109.815 54.6695 110.244C56.0684 110.438 57.8367 110.547 58.6461 111.825H104.636C106.341 110.158 110.216 110.018 112.628 109.815C115.842 109.543 121.713 108.943 123.851 111.786C125.14 113.499 126.837 120.228 126.098 122.144C126.067 122.23 125.399 123.289 125.352 123.336C124.99 123.671 124.731 123.453 124.511 123.538C124.534 123.289 124.511 122.993 124.173 122.993C123.662 122.985 122.766 123.227 122.216 123.266C119.819 123.429 115.316 123.881 113.107 123.484C109.728 122.869 106.129 116.949 101.924 117.175H61.7662C57.3732 116.77 53.8129 122.822 50.3157 123.484C48.1781 123.889 43.5573 123.429 41.2075 123.266C40.6574 123.227 39.7534 122.985 39.2505 122.993C38.9204 122.993 38.8971 123.297 38.9128 123.538Z" fill="#252222"/>
<path d="M110.468 123.671C109.477 123.422 107.355 123.772 106.232 123.819C89.4687 124.489 72.6982 124.52 55.9275 123.819L52.9409 123.546C56.0451 121.623 58.0885 118.468 62.0415 118.141H101.092C102.31 118.219 103.497 118.538 104.581 119.084C106.609 120.517 108.542 122.098 110.46 123.686L110.468 123.671Z" fill="#252222"/>
<path d="M124.503 123.538C122.413 124.341 120.039 124.434 117.768 124.512C116.33 124.566 113.839 124.675 112.495 124.496C111.764 124.395 111.175 123.858 110.467 123.678C108.55 122.097 106.616 120.509 104.589 119.076C103.497 118.53 102.318 118.211 101.1 118.125H62.0493C58.0963 118.453 56.0451 121.615 52.9487 123.538C50.764 124.894 48.3436 124.605 45.7895 124.512C43.4868 124.434 41.019 124.341 38.9207 123.538C38.8971 123.289 38.9208 122.993 39.2587 122.993C39.7696 122.985 40.6653 123.227 41.2154 123.266C43.5652 123.429 48.1785 123.889 50.324 123.484C53.8212 122.822 57.3811 116.762 61.7741 117.167H101.933C106.129 116.949 109.729 122.868 113.116 123.484C115.316 123.881 119.827 123.437 122.224 123.266C122.774 123.227 123.678 122.985 124.181 122.993C124.511 122.993 124.534 123.297 124.519 123.538H124.503Z" fill="#D2D2D4"/>
<path d="M116.44 80.7025C116.856 80.7492 117.328 80.9517 117.831 80.8426C117.807 80.905 117.854 81.0374 117.831 81.1231C115.331 80.944 112.816 81.0763 110.325 80.8426C110.506 81.4579 110.137 81.9564 109.524 82.0733C109.319 82.1122 109.233 81.9485 109.217 81.9485C109.288 81.0139 107.457 81.4579 106.781 81.3956C104.03 81.1541 101.233 80.9049 98.4587 80.8271C97.9557 80.8115 94.6312 80.6947 94.4898 80.8271C94.2697 81.0607 94.5998 81.2943 94.867 81.341C95.59 81.4656 96.549 81.4736 97.2641 81.5203C96.2739 81.7851 94.5921 81.7072 93.649 81.31C92.5959 80.8661 93.421 80.3208 93.3739 80.2741L92.8159 79.9937C100.313 80.1105 109.115 79.8068 116.44 80.6869V80.7025Z" fill="#7C262A"/>
<path d="M71.1492 80.0176C71.2514 80.5861 70.2217 80.1656 70.041 80.298C70.4497 80.7965 70.4104 80.9756 69.8603 81.295C68.9251 81.8324 67.1802 81.7855 66.1507 81.5441C66.1743 81.5441 66.308 81.4117 66.4888 81.3961C66.8739 81.3728 68.8463 81.4896 68.9328 81.3961C68.9485 81.3728 68.9485 80.8665 68.9328 80.8432C68.7992 80.703 65.4751 80.8198 64.9642 80.8432C62.1508 80.9211 59.2742 81.2092 56.4922 81.4039C55.8478 81.4506 54.1113 81.0534 54.2056 81.9569C54.0248 81.9413 53.4668 81.9257 53.3882 81.8011C53.3411 81.7232 53.3409 81.1548 53.3644 81.1314C53.4195 81.0769 54.6297 81.1859 54.7555 80.7186C52.7593 80.633 50.7792 80.8744 48.7831 80.8588C48.7045 80.4382 48.9952 80.5939 49.2624 80.5783C56.571 80.2901 63.8327 80.1266 71.1492 80.0254V80.0176Z" fill="#7C262A"/>
<path d="M109.217 81.9564C109.123 81.9564 109.028 81.9564 108.942 81.9564C107.048 81.972 105.256 81.754 103.386 81.6761C102.647 81.645 101.901 81.7073 101.162 81.6761C100.659 81.6528 100.132 81.6917 99.7708 81.6761C98.9378 81.645 98.1046 81.5903 97.2716 81.5358C96.5564 81.4891 95.5978 81.4813 94.8748 81.3567C94.5997 81.31 94.2697 81.0764 94.4976 80.8427C94.639 80.7025 97.9553 80.8194 98.4661 80.8427C101.24 80.9128 104.046 81.1698 106.788 81.4113C107.464 81.4658 109.296 81.0296 109.225 81.9642L109.217 81.9564Z" fill="#252222"/>
<path d="M54.1975 81.9564C54.111 81.053 55.8401 81.4424 56.4845 81.4035C59.2665 81.2088 62.1427 80.9207 64.9561 80.8428C65.4591 80.8272 68.7836 80.7026 68.925 80.8428C68.9408 80.8661 68.9408 81.3723 68.925 81.3957C68.8386 81.4814 66.8661 81.3646 66.4811 81.3957C66.3003 81.4035 66.1666 81.5359 66.143 81.5436C65.2707 81.5982 64.2097 81.6995 63.361 81.684C62.9287 81.684 62.7321 81.6606 62.2527 81.684C61.514 81.7151 60.7674 81.645 60.0286 81.684C59.2899 81.7229 58.6456 81.793 57.9461 81.8241C57.4196 81.8475 56.8694 81.9487 56.28 81.9642C55.6906 81.9798 55.0699 81.9876 54.4726 81.9642C54.3783 81.9642 54.2839 81.9642 54.1975 81.9642V81.9564Z" fill="#252222"/>
<path d="M103.103 61.0213C103.276 61.0291 103.48 61.1459 103.661 61.1614C103.802 61.1692 103.944 61.1536 104.077 61.1614C104.124 61.1614 104.171 61.1614 104.219 61.1614C104.313 61.1614 104.407 61.1614 104.494 61.1614C104.973 61.1926 105.421 61.2627 105.885 61.3017C106.246 61.3328 106.631 61.2783 106.993 61.3017C107.064 61.4652 107.346 61.621 107.409 61.7145L107.551 61.9948C107.629 62.2285 107.464 62.7114 107.967 62.8282C108.305 62.9061 108.848 62.7737 109.217 62.8282C109.201 62.6491 109.233 62.4542 109.217 62.2751L109.075 62.135V61.9948C111.276 63.9575 113.642 70.079 114.93 72.9918C115.095 73.3735 115.292 73.9265 115.606 74.1913C115.606 74.238 115.598 74.2847 115.606 74.3314L117.83 80.7102C117.822 80.7569 117.846 80.8114 117.83 80.8503C117.335 80.9593 116.864 80.7647 116.439 80.7102C116.29 79.7133 115.913 78.7241 115.559 77.774C114.852 75.858 114.089 73.8721 113.296 71.9873C112.856 70.9437 109.948 64.5494 109.351 64.2846L98.4503 63.5135C89.6956 63.3188 80.9252 62.7581 72.1862 63.389C66.0878 63.2955 60.0285 63.9574 53.9379 64.2456C52.5312 66.7145 51.2348 69.2613 50.1267 71.8782C50.0324 72.1118 50.056 72.3689 49.9774 72.5636C48.8693 75.235 47.6274 77.8908 46.9594 80.7102C46.5979 80.7257 46.0399 80.9827 45.5684 80.8503C45.7648 80.1961 45.922 79.4095 46.1263 78.7709C46.2128 78.4905 46.3071 78.2179 46.4014 77.9375C46.425 77.8674 46.5037 77.7738 46.543 77.657C47.0539 76.1928 47.6276 74.7287 48.2092 73.2879C48.5235 72.4935 48.7512 72.3843 48.9084 71.4186C49.2777 71.4965 49.1834 71.2317 49.2856 71.037C49.6706 70.2581 50.0243 69.4716 50.2994 68.6461C50.323 68.576 50.2758 68.4435 50.2994 68.3656C50.6845 68.4279 50.873 67.6102 50.9909 67.2597C51.0066 67.2208 50.9751 67.1663 50.9909 67.1196C50.9909 67.104 51.0774 67.0339 51.1325 66.8391C51.1403 66.7924 51.1246 66.7457 51.1325 66.699C51.5175 66.7379 51.3762 66.6756 51.4076 66.4185C51.4233 66.3329 51.3919 66.2162 51.4076 66.1383C51.7455 66.2084 51.6984 65.9668 51.8005 65.7721C52.61 64.2455 53.1444 63.1319 54.3232 61.9792L54.048 62.8126C54.441 62.7737 54.9202 62.875 55.2975 62.8126C55.8319 62.727 56.2643 61.7534 56.2721 61.2861C57.396 61.216 58.5591 61.2237 59.6751 61.1458C73.8523 60.11 88.9177 60.0789 103.095 61.0057L103.103 61.0213Z" fill="#252222"/>
<path opacity="0.58" d="M116.44 80.7025C109.115 79.8224 100.321 80.1261 92.816 80.0092C92.2659 80.0014 91.7 80.0092 91.1499 80.0092C85.1929 79.9313 79.1809 79.9391 73.2239 80.0092C72.5323 80.017 71.833 80.0014 71.1414 80.0092C63.817 80.1105 56.5632 80.2818 49.2546 80.5622C48.9874 80.57 48.6967 80.4221 48.7753 80.8426C48.681 80.8426 48.5866 80.8426 48.5001 80.8426C48.1544 80.8426 47.5336 80.6713 46.9756 80.7025C47.6436 77.8753 48.8773 75.2273 49.9932 72.556C50.0718 72.369 50.0486 72.1041 50.1429 71.8705C51.251 69.2536 52.5474 66.7068 53.9541 64.2379C60.0447 63.9497 66.104 63.2956 72.2024 63.3813C80.9336 62.7505 89.7118 63.3111 98.4665 63.5058L109.367 64.2769C109.964 64.5417 112.872 70.9438 113.312 71.9796C114.106 73.8644 114.86 75.8504 115.575 77.7663C115.929 78.7087 116.306 79.7056 116.455 80.7025H116.44Z" fill="#757575"/>
<path d="M91.1574 80.017H73.2314C79.1806 79.9469 85.2004 79.9391 91.1574 80.017Z" fill="#7C262A"/>
<path d="M115.606 74.3318C116.322 74.3396 116.054 75.0641 116.18 75.2822C116.243 75.3834 116.676 75.399 116.715 75.4457C116.77 75.5236 116.573 76.0375 116.605 76.3023C116.754 77.6652 118.193 78.9972 117.831 80.7028L115.606 74.3242V74.3318Z" fill="#7C262A"/>
<path d="M80.4537 88.6079H82.749C82.9769 88.6079 83.2992 89.2621 82.8983 89.5892C82.3244 90.0565 79.6362 90.0176 80.4537 88.6079ZM82.5367 88.8884C82.2773 88.608 80.4771 88.7325 80.8702 89.1608C81.1296 89.4412 82.9297 89.3167 82.5367 88.8884Z" fill="#3B3A3C"/>
<path d="M35.5795 122.845C35.5323 123.554 35.2102 124.317 35.2966 124.995C35.3517 125.477 35.839 125.75 35.7211 126.303C34.5656 125.392 34.8723 124.473 35.2417 123.25C35.3125 123.024 35.2103 122.759 35.5876 122.837L35.5795 122.845Z" fill="#7C262A"/>
<path d="M108.942 81.9565C108.8 82.1902 108.415 82.0969 108.179 82.0969C106.733 82.1124 105.303 82.1435 103.873 81.9487C103.613 81.9176 103.307 82.128 103.386 81.6763C105.264 81.7542 107.048 81.9721 108.942 81.9565Z" fill="#7C262A"/>
<path d="M128.392 113.001C128.33 114.107 128.502 115.259 128.117 116.326C128.039 115.361 128.086 114.488 128.117 113.476C128.125 113.211 127.976 112.923 128.392 113.001Z" fill="#7C262A"/>
<path d="M46.1344 78.7632C45.93 79.4018 45.7728 80.1806 45.5763 80.8426C46.0401 80.975 46.6061 80.7258 46.9677 80.7025C47.5336 80.6713 48.1467 80.8426 48.4926 80.8426L45.7805 81.1386C45.5054 81.1776 45.5999 80.866 45.5763 80.8426C45.5527 80.8192 45.3796 80.8815 45.3245 80.8192C45.1909 80.6712 45.7257 79.5029 45.82 79.207C45.8908 78.9733 45.7178 78.6775 46.1344 78.7632Z" fill="#7C262A"/>
<path d="M35.2975 118.546C35.722 118.468 35.5649 118.757 35.5727 119.021C35.6042 119.738 35.439 120.478 35.4311 121.039C35.1481 120.291 35.3209 119.348 35.2895 118.546H35.2975Z" fill="#7C262A"/>
<path d="M50.3074 68.6459C50.0322 69.4715 49.6785 70.258 49.2933 71.0368C49.199 71.2315 49.2855 71.4963 48.916 71.4184C49.0182 70.7876 49.5368 69.8219 49.8748 69.1131C49.977 68.8951 49.8829 68.6148 50.3074 68.6459Z" fill="#7C262A"/>
<path d="M60.0283 81.6763C60.1069 82.0968 59.8162 81.941 59.5489 81.9565C59.0694 81.9799 58.3619 82.0578 57.9453 81.8164C58.6449 81.7853 59.3287 81.7152 60.0283 81.6763Z" fill="#7C262A"/>
<path d="M101.162 81.6761C100.801 81.9098 100.14 81.9098 99.771 81.6761C100.125 81.6917 100.659 81.6528 101.162 81.6761Z" fill="#7C262A"/>
<path d="M50.9993 67.2603C50.8813 67.6107 50.6928 68.4284 50.3076 68.3661C50.4334 67.9767 50.4883 67.2914 50.9993 67.2603Z" fill="#7C262A"/>
<path d="M63.3683 81.6759C63.0696 81.9018 62.559 81.9018 62.2603 81.6759C62.7398 81.6525 62.936 81.6759 63.3683 81.6759Z" fill="#7C262A"/>
<path d="M36.8288 127.417C36.538 127.277 36.1686 126.918 36.1372 126.583C36.428 126.794 36.9153 126.794 36.8288 127.417Z" fill="#7C262A"/>
<path d="M56.28 81.9565C55.8633 82.1902 54.9202 82.1902 54.4722 81.9565C55.0617 81.9799 55.6825 81.9721 56.28 81.9565Z" fill="#7C262A"/>
<path d="M38.6375 127.69C38.5038 127.916 37.9457 127.916 37.8042 127.69C38.3309 127.62 38.2759 127.682 38.6375 127.69Z" fill="#7C262A"/>
<path d="M118.938 81.5361H118.663V81.9489H118.938V81.5361Z" fill="#7C262A"/>
<path d="M46.5511 77.6571C46.5118 77.7739 46.4335 77.8674 46.4099 77.9375L46.2683 77.8674C46.2211 77.6104 46.3076 77.6493 46.5435 77.6571H46.5511Z" fill="#7C262A"/>
<path d="M51.4152 66.4262C51.3838 66.6832 51.5256 66.7456 51.1404 66.7067C51.1876 66.4808 51.0065 66.3795 51.4152 66.4262Z" fill="#7C262A"/>
<path d="M36.9634 127.417C37.4901 127.581 37.1282 127.604 37.2383 127.697C36.9395 127.728 36.9241 127.713 36.9634 127.417Z" fill="#7C262A"/>
<path d="M50.998 67.1203L51.1397 66.8398C51.0925 67.0268 51.0059 67.0969 50.998 67.1203Z" fill="#7C262A"/>
<path d="M123.387 127.83C121.54 127.877 121.524 127.83 119.78 127.479C117.438 127.004 114.42 127.51 111.921 127.417C98.2465 126.926 84.5172 127.534 70.7957 127.417C64.2964 127.362 58.0172 127.168 51.4944 127.417C49.2861 127.503 46.7713 127.082 44.6809 127.277C43.8871 127.347 43.117 127.752 42.3862 127.83C41.396 127.565 40.2248 127.705 39.1874 127.689C39.1088 127.238 39.6512 127.44 39.8869 127.207C40.0284 127.059 39.9657 126.747 40.1072 126.708C40.288 126.661 40.6495 126.747 40.9088 126.708C41.4432 126.615 43.7219 126.241 44.0992 126.296C44.1935 126.311 44.1781 126.584 44.2645 126.584C46.465 126.724 50.0797 126.763 51.9894 126.545C55.6909 126.124 59.3062 126.381 62.9998 126.451C72.509 126.615 82.1752 126.724 91.7708 126.576C92.761 126.56 93.7904 126.661 94.8042 126.568C95.0714 126.545 95.4253 126.451 95.661 126.311L95.59 126.584H96.6983L96.4941 126.303C96.8713 126.233 97.1069 126.584 97.4527 126.599C101.28 126.708 105.437 126.132 109.398 126.311C109.862 126.335 111.457 126.381 111.74 126.459C111.85 126.482 111.827 126.732 111.921 126.739C112.164 126.77 113.65 126.724 114.129 126.739C116.565 126.77 119.073 126.389 121.493 126.459C122.656 126.498 123.222 127.137 123.992 127.425C124.456 127.596 125.147 127.612 125.642 127.549C126.774 127.417 127.387 126.264 127.827 125.322C127.874 125.221 128.039 125.221 128.079 125.104C128.354 124.333 127.976 124.169 127.874 123.554C127.662 122.261 127.796 121.763 127.819 120.571C127.835 119.512 127.584 118.063 128.094 117.167C128.228 119.278 127.851 121.584 128.244 123.741C128.299 124.021 128.503 124.169 128.519 124.582C128.566 125.532 127.261 127.308 126.452 127.666C125.729 127.993 124.22 127.822 123.363 127.845L123.387 127.83Z" fill="#7C262A"/>
<path d="M35.5802 121.872L35.439 121.731C35.439 121.731 35.5802 121.778 35.5802 121.872Z" fill="#7C262A"/>
<path d="M123.386 127.83C123.465 128.243 123.182 128.079 122.923 128.126C120.981 128.484 120.274 127.705 118.585 127.557C117.547 127.464 116.589 127.674 115.598 127.697C115.52 127.471 115.166 127.51 115.04 127.697C114.899 127.697 114.781 127.838 114.765 127.838C112.502 127.877 109.806 127.347 107.48 127.277C104.352 127.183 101.154 127.518 98.0338 127.565C85.1297 127.752 72.2885 127.51 59.3922 127.425C55.8007 127.401 52.1932 127.573 48.6331 127.557C48.5388 127.557 48.4448 127.557 48.3584 127.557H47.8004C46.7945 127.542 45.5213 127.464 44.5468 127.573C42.9593 127.752 42.2362 128.585 40.358 128.118C40.1222 128.056 39.9492 128.258 40.0199 127.838C40.7822 127.775 41.6388 127.915 42.3775 127.838C43.1163 127.76 43.8789 127.363 44.6726 127.285C46.7552 127.09 49.2778 127.51 51.4862 127.425C58.009 127.176 64.2882 127.37 70.7874 127.425C84.5168 127.542 98.2379 126.934 111.912 127.425C114.419 127.518 117.429 127.004 119.771 127.487C121.516 127.837 121.532 127.884 123.378 127.838L123.386 127.83Z" fill="#D2D2D4"/>
<path d="M105.884 61.3021L106.505 60.6089L106.993 61.3021C106.623 61.2787 106.246 61.3332 105.884 61.3021Z" fill="#D2D2D4"/>
<path d="M107.551 61.9952L107.409 61.7148C107.488 61.8395 107.496 61.8317 107.551 61.9952Z" fill="#D2D2D4"/>
<path d="M115.606 127.69C115.417 127.69 115.237 127.69 115.048 127.69C115.174 127.503 115.527 127.464 115.606 127.69Z" fill="#909195"/>
<path d="M106.922 60.4688C107.007 60.5155 107.007 60.5623 106.922 60.609V60.4688Z" fill="#D2D2D4"/>
<path d="M82.5369 88.8884C82.9299 89.3168 81.1297 89.4413 80.8703 89.1609C80.4773 88.7325 82.2775 88.608 82.5369 88.8884Z" fill="#D2D2D4"/>
<path d="M39.746 91.2399C39.746 91.2399 39.7459 90.9983 39.8953 90.9048C40.8462 90.2662 42.1272 90.0093 43.2667 90.2741C43.3767 90.2975 43.353 90.531 43.4551 90.5544C43.738 90.6167 44.029 90.4143 44.2491 90.4532C44.3984 90.4766 44.5631 90.7024 44.7517 90.7647C46.4178 91.2943 48.2646 91.8396 49.6478 92.4003C50.4965 92.743 51.5026 92.9999 52.4064 93.109C52.6579 93.2803 52.4928 94.5187 52.5399 94.9159C52.65 95.9751 53.2159 97.5327 53.6482 98.5218C54.0254 99.3785 54.8896 100.555 55.1175 101.357C55.3454 102.159 54.6305 102.393 53.9939 102.471C51.9035 102.704 49.3809 102.486 47.3926 101.847C45.8523 101.349 39.3606 98.8099 38.6297 97.6962C37.5845 96.1074 37.6791 93.5996 38.7164 92.0887C39.2273 91.3488 39.3137 91.5592 39.746 91.2399C39.4709 91.4735 39.6829 91.8628 39.8872 92.0731C39.73 92.0419 39.6906 92.1355 39.6121 92.2134C39.5649 92.2523 39.3452 92.5873 39.3373 92.6262C39.2037 93.3116 39.5023 95.7571 39.7145 96.4814C40.0053 97.5017 40.3824 97.7898 41.1919 98.4051C41.9778 98.4752 42.2998 98.8645 42.8185 99.2851C45.1683 101.193 50.4258 102.229 53.4279 101.902C53.7815 101.863 54.4655 101.824 54.497 101.435C54.5284 101.045 52.4457 97.4392 52.0449 96.9408C50.2138 94.6432 47.1017 94.1759 44.4847 93.2569C43.3137 92.8441 42.1976 92.2912 41.0031 91.9407L42.2529 91.7304C45.4357 93.3193 49.1922 93.7554 52.0449 95.9672C52.375 96.0918 52.1078 95.4221 52.0921 95.3909C51.5184 94.2227 45.0897 92.3536 43.5572 91.8162C42.8578 91.567 41.4355 90.7804 40.8147 90.8738C40.7046 90.8894 39.7772 91.2243 39.7379 91.2633L39.746 91.2399Z" fill="#252222"/>
<path d="M39.7459 91.2401C39.7931 91.2012 40.7201 90.8663 40.8223 90.8507C41.4353 90.7651 42.8658 91.5516 43.5652 91.7931C45.0977 92.3305 51.5261 94.2073 52.0998 95.3678C52.1155 95.3989 52.3826 96.0687 52.0526 95.9441C49.1998 93.7322 45.4433 93.3039 42.2605 91.7073L41.0111 91.9176C42.2056 92.2681 43.3213 92.8132 44.4923 93.2338C47.1014 94.1606 50.2215 94.6279 52.0526 96.9177C52.4455 97.4161 54.5282 101.03 54.5046 101.412C54.481 101.793 53.7896 101.84 53.4359 101.879C50.4339 102.206 45.1763 101.17 42.8265 99.262C42.9051 98.9894 43.2428 99.262 43.3922 99.3243C44.1152 99.6125 44.8699 99.8617 45.6086 100.095C46.811 100.477 49.145 101.334 50.2767 101.466C51.2747 101.591 52.5083 101.201 53.5299 101.201L51.581 97.463C51.4945 97.4708 51.3298 97.4396 51.3062 97.463C51.1648 97.5798 52.4457 100.586 51.6992 101.046C51.1726 101.373 47.3765 100.166 46.8971 99.636C46.3077 98.9817 45.8755 95.8976 45.8833 94.963L49.7736 96.0689C49.2863 95.6561 48.4376 95.2822 47.8246 95.033C47.2116 94.7837 46.4806 94.6279 45.8833 94.4098C45.5297 94.2774 45.2077 94.2464 44.909 94.1296C43.2273 93.4909 41.577 92.7276 39.9109 92.05C39.7145 91.8397 39.4943 91.4504 39.7693 91.2168L39.7459 91.2401ZM49.1922 100.251C49.9152 100.461 50.6537 100.718 51.416 100.664C51.5653 100.508 50.9445 97.245 50.6615 96.9101C50.1586 96.3259 47.4159 95.8118 46.5514 95.6716C46.3078 95.9131 47.0782 99.0517 47.3768 99.4567C47.5026 99.628 47.6598 99.6047 47.8012 99.6903C48.312 100.002 48.6185 100.08 49.1922 100.243V100.251Z" fill="#D2D2D4"/>
<path d="M39.8875 92.0731C41.5536 92.7429 43.2117 93.5141 44.8856 94.1527C46.088 95.4222 45.7424 97.7275 46.2847 99.3553C46.324 99.8537 45.8995 99.8771 45.5852 100.111C44.8464 99.8771 44.0921 99.6279 43.3691 99.3397C43.2198 99.2774 42.8896 99.0047 42.8031 99.2773C42.2844 98.8568 41.9702 98.4674 41.1765 98.3973C40.367 97.7899 39.9977 97.4939 39.6991 96.4737C39.4948 95.7493 39.1962 93.3038 39.3219 92.6185C40.2414 93.2182 39.9977 94.7991 40.1941 95.835C40.6342 98.2104 41.0112 97.7743 42.9366 98.4363C42.9917 98.4519 43.1176 98.6231 43.3062 98.6854C43.7148 98.81 45.428 99.4721 45.6481 99.1372C45.8917 98.7789 45.2081 95.2586 44.9409 94.838C44.5715 94.2617 41.9622 93.6854 41.1684 93.3349C40.689 93.1247 39.7931 92.6574 39.5967 92.1979C39.6831 92.1278 39.7146 92.0264 39.8718 92.0575L39.8875 92.0731Z" fill="#909195"/>
<path d="M39.6036 92.2134C39.8001 92.6729 40.7038 93.1324 41.1754 93.3504C41.9613 93.7009 44.5781 94.285 44.9474 94.8535C45.2146 95.2741 45.8987 98.7944 45.655 99.1527C45.4271 99.4798 43.7214 98.8255 43.3128 98.7009C43.1241 98.6386 42.9986 98.4752 42.9436 98.4518C43.1008 98.4986 43.4072 98.5374 43.6351 98.592C43.7451 98.6153 43.9417 98.5686 44.1067 98.592C44.3425 98.6387 45.4192 99.2307 45.5606 98.6465C45.5999 98.483 44.9554 95.6946 44.8454 95.3675C44.3031 93.8098 42.0005 94.2538 40.751 93.4828C40.6016 93.4283 40.4523 93.4517 40.358 93.5919C39.9965 94.1449 40.6803 97.1589 41.2068 97.6184C41.4112 97.7976 41.5211 97.7118 41.6861 97.7586C41.7254 97.8053 41.7727 97.8598 41.8277 97.8987C42.0006 98.0311 42.7391 98.3895 42.9355 98.4518C41.0101 97.7898 40.641 98.2259 40.193 95.8505C39.9966 94.8146 40.2403 93.2335 39.3208 92.6338C39.3287 92.5948 39.5563 92.2601 39.5956 92.2212L39.6036 92.2134Z" fill="#D2D2D4"/>
<path d="M41.6867 97.7506C40.948 96.9484 40.7124 95.1961 40.7124 94.1447C40.8381 94.0123 43.9895 94.9391 44.2331 95.1339C44.8068 95.5856 44.9404 97.7974 45.1525 98.5762C44.9325 98.5529 44.6575 98.6152 44.4611 98.5762V98.3893C45.0269 98.1635 44.6494 97.7741 44.6023 97.4626C44.5158 96.9174 44.4453 95.8425 44.0524 95.4453C43.738 95.126 42.7006 94.9546 42.237 94.83C41.8833 94.7365 41.5058 94.394 40.9872 94.5497C40.885 94.9158 41.0816 95.2273 41.1288 95.5233C41.2152 96.0295 41.3569 97.0575 41.7262 97.4236C41.9856 97.6884 43.4393 97.9765 43.9108 98.1556C44.3823 98.3348 44.0916 98.3348 44.1859 98.4361C44.0602 98.4127 43.8792 98.4672 43.7692 98.4361C43.2427 98.2881 42.5355 97.922 41.9618 97.7428C41.8832 97.7195 41.7653 97.7662 41.6867 97.7428V97.7506Z" fill="#D2D2D4"/>
<path d="M47.8009 99.6979C47.6595 99.6122 47.5023 99.6278 47.3765 99.4642C47.07 99.0592 46.2996 95.9206 46.5511 95.6792C47.4077 95.8194 50.1583 96.3333 50.6612 96.9174C50.9442 97.2523 51.5728 100.516 51.4157 100.671C50.6534 100.726 49.9149 100.461 49.1919 100.259L49.3332 100.118C49.5689 100.204 51.0466 100.492 51.1409 100.399C51.023 99.6591 50.8657 97.6886 50.3627 97.2291C50.1269 97.011 47.1013 96.1153 46.9755 96.2399C46.9912 97.3303 47.2114 98.4519 47.6751 99.4254C47.9187 99.4566 47.8164 99.1138 47.7771 98.9736C47.5964 98.2961 47.054 97.4705 48.0914 97.0032C48.5708 96.7851 50.0092 97.2368 50.2921 97.7118C51.0308 98.9502 50.5043 100.368 48.9168 99.8458C48.4767 99.6122 48.2015 99.0593 47.8086 99.7057L47.8009 99.6979Z" fill="#252222"/>
<path d="M45.8594 94.4248C45.8594 94.6117 45.8594 94.7908 45.8594 94.9778C45.8594 95.9124 46.2838 98.9965 46.8733 99.6507C47.3526 100.173 51.1483 101.388 51.6749 101.06C52.4215 100.601 51.1405 97.5948 51.2819 97.478C51.3055 97.4546 51.4706 97.478 51.5571 97.478L53.506 101.216C52.4844 101.216 51.2505 101.606 50.2524 101.481C49.1286 101.341 46.7946 100.484 45.5843 100.11C45.8987 99.8767 46.3231 99.8533 46.2838 99.3549C45.7416 97.7271 46.0872 95.414 44.8848 94.1523C45.1834 94.2692 45.5058 94.3002 45.8594 94.4326V94.4248Z" fill="#252222"/>
<path d="M45.8599 94.4253C46.4573 94.6512 47.1806 94.7914 47.8016 95.0484C48.4226 95.3054 49.2637 95.6715 49.751 96.0843L45.8599 94.9782C45.8599 94.7913 45.8599 94.6122 45.8599 94.4253Z" fill="#909195"/>
<path d="M47.801 99.6982C48.1941 99.0517 48.4768 99.6047 48.9091 99.8383C49.0427 99.9084 49.208 100.072 49.3259 100.119L49.1843 100.259C48.6105 100.095 48.3039 100.018 47.793 99.706L47.801 99.6982Z" fill="#3B3A3C"/>
<path d="M41.9694 97.7509L41.8282 97.891C41.781 97.8521 41.7337 97.7976 41.6865 97.7509C41.7651 97.7743 41.891 97.7275 41.9617 97.7509H41.9694Z" fill="#252222"/>
<path d="M41.687 97.7506C41.522 97.7039 41.4121 97.7896 41.2077 97.6105C40.6812 97.151 40.0053 94.137 40.3589 93.584C40.4532 93.4438 40.5947 93.4203 40.7519 93.4749C42.0014 94.2459 44.304 93.8019 44.8463 95.3596C44.9563 95.6867 45.6008 98.4751 45.5615 98.6386C45.4201 99.2305 44.3355 98.6386 44.1076 98.584C43.9426 98.5529 43.746 98.6074 43.636 98.584L43.7776 98.4439C43.8876 98.4751 44.0682 98.4205 44.1939 98.4439C44.2254 98.4751 44.4219 98.5763 44.4691 98.584C44.6734 98.623 44.9484 98.5607 45.1605 98.584C44.9484 97.8052 44.8148 95.5934 44.2411 95.1417C43.9896 94.947 40.8461 94.0201 40.7204 94.1525C40.7204 95.204 40.9564 96.9562 41.6951 97.7584L41.687 97.7506Z" fill="#252222"/>
<path d="M43.7777 98.4442L43.636 98.5844C43.4081 98.5299 43.0938 98.491 42.9444 98.4442C42.74 98.3819 42.0089 98.0235 41.8359 97.8911L41.9776 97.751C42.5514 97.9301 43.2587 98.2963 43.7854 98.4442H43.7777Z" fill="#3B3A3C"/>
<path d="M48.9173 99.8303C50.4973 100.352 51.0318 98.9345 50.2929 97.6961C50.0099 97.2211 48.5712 96.7694 48.0917 96.9875C47.0541 97.4548 47.5966 98.2804 47.7774 98.9579C47.8167 99.0981 47.919 99.4409 47.6753 99.4097C47.2115 98.4284 46.9913 97.3146 46.9756 96.2242C47.1014 96.0996 50.1277 96.9953 50.3635 97.2134C50.8666 97.6729 51.0319 99.6434 51.1419 100.383C51.0476 100.477 49.5696 100.188 49.3338 100.103C49.2159 100.056 49.051 99.9004 48.9173 99.8225V99.8303Z" fill="#D2D2D4"/>
<path d="M44.61 97.4785C44.6572 97.79 45.0424 98.1716 44.4764 98.4053V98.5922C44.4214 98.5844 44.2246 98.4832 44.1932 98.4521C44.0988 98.3586 44.4053 98.3585 43.918 98.1716C43.9573 97.8133 44.2563 97.5175 44.61 97.4785Z" fill="#909195"/>
<path d="M42.2448 94.8458C42.7086 94.9704 43.7462 95.1418 44.0606 95.4611C44.4537 95.8583 44.5246 96.9332 44.611 97.4783C44.2573 97.5173 43.9505 97.8131 43.919 98.1714C43.4474 98.0001 41.9933 97.7042 41.7339 97.4394C41.3645 97.0655 41.2232 96.0453 41.1367 95.5391C41.5769 95.5157 41.6238 94.8068 42.2448 94.8458Z" fill="#252222"/>
<path d="M42.2451 94.8458C41.6162 94.8068 41.5693 95.5157 41.137 95.5391C41.0898 95.2431 40.8932 94.9316 40.9953 94.5655C41.5141 94.402 41.8992 94.7445 42.2451 94.8458Z" fill="#909195"/>
<path d="M122.522 90.3057C122.522 90.3057 122.655 90.5861 122.883 90.6951C123.528 90.9755 123.921 91.03 124.408 91.6687C125.477 93.0706 125.799 95.8355 124.919 97.3776C124.895 97.4165 124.424 98.0085 124.393 98.0397C123.112 99.278 117.162 101.498 115.261 102.058C113.642 102.533 111.103 102.658 109.421 102.471C109.162 102.44 108.431 102.261 108.305 102.058C107.983 101.537 109.374 99.3324 109.649 98.686C110.113 97.619 110.71 96.186 110.86 95.0411C110.946 94.3869 110.726 93.6781 111.04 93.0706C112.502 92.6267 113.964 92.1438 115.426 91.6999C115.858 91.5675 116.424 91.3262 116.675 91.2561C117.893 90.9056 121.469 89.8774 122.506 90.3135L122.522 90.3057ZM123.528 91.9335C123.764 91.7077 124.007 91.7544 123.599 91.3806C122.396 90.2591 121.194 91.3183 119.952 91.7622C118.561 92.2607 111.85 94.2623 111.37 95.2592C111.292 95.4227 111.221 95.8198 111.37 95.9522C114.223 93.7404 117.98 93.3043 121.162 91.7155L122.279 91.9258C121.446 92.1828 120.667 92.5955 119.85 92.8993C117.092 93.9196 113.704 94.4025 111.645 96.6377C110.962 97.3776 109.256 100.166 109.005 101.069C108.942 101.303 108.918 101.521 108.942 101.762C110.545 101.825 112.408 102.074 114.003 101.887C115.229 101.747 119.724 100.026 120.62 99.2701C120.793 99.1221 120.989 98.8262 121.147 98.7327C121.917 98.2732 122.915 98.2266 123.426 97.292C123.976 96.2873 124.173 93.9897 123.952 92.8993C123.905 92.6812 123.897 92.4165 123.811 92.2062C123.772 92.1205 123.599 92.0192 123.536 91.9258L123.528 91.9335Z" fill="#252222"/>
<path d="M115.056 99.8312C114.121 100.018 113.232 100.384 112.273 100.384C112.171 100.283 112.651 97.8607 112.753 97.6115C113.091 96.7703 115.583 96.4588 116.44 96.2329C116.401 97.3311 116.196 98.4215 115.748 99.4184C115.56 99.5352 115.237 99.7377 115.056 99.8312ZM115.575 99.2393C116 98.733 116.094 97.3388 115.331 96.9884C114.875 96.7781 113.398 97.2141 113.131 97.697C112.793 98.2889 112.627 99.5663 113.398 99.9012C113.712 100.041 115.386 99.4651 115.575 99.2393Z" fill="#D2D2D4"/>
<path d="M123.528 91.9337C122.404 93.0085 119.685 93.2734 118.53 94.1535C118.286 94.169 117.854 94.1768 117.657 94.2936C117.508 94.3793 117.571 94.5585 117.555 94.5663C117.469 94.613 117.044 94.5194 116.824 94.5972C115.771 94.9633 114.545 95.4307 113.665 96.0849L117.555 94.9789C117.555 95.5007 117.485 95.8668 117.414 96.3652C117.296 97.1752 117.044 99.1534 116.479 99.6986C115.976 100.189 113.021 101.085 112.274 101.155C110.765 101.303 112.031 98.3669 111.921 97.6114C111.237 98.4214 110.86 99.4261 110.357 100.345C110.231 100.571 109.823 100.75 109.901 101.21C110.915 101.21 112.164 101.607 113.154 101.474C114.522 101.295 116.463 100.392 117.822 99.9635L120.605 99.2702C119.709 100.026 115.213 101.747 113.987 101.887C112.4 102.074 110.53 101.825 108.926 101.763C108.903 101.521 108.926 101.303 108.989 101.069C109.241 100.166 110.946 97.3778 111.63 96.6379C113.681 94.4026 117.076 93.9275 119.834 92.8995C120.652 92.5957 121.43 92.1829 122.263 91.9259L121.147 91.7156C117.964 93.3044 114.207 93.7327 111.355 95.9524C111.205 95.82 111.276 95.4229 111.355 95.2593C111.834 94.2546 118.538 92.2608 119.936 91.7624C121.186 91.3185 122.388 90.2593 123.583 91.3808C123.992 91.7624 123.748 91.7078 123.512 91.9337H123.528ZM115.056 99.8312C115.213 99.8 115.449 99.8934 115.614 99.761C115.748 99.6753 115.709 99.504 115.748 99.4106C115.85 99.3483 115.991 99.4105 116.149 99.1925C116.416 98.8186 117.037 95.8513 116.856 95.6643C115.991 95.7967 113.139 96.3419 112.683 96.9805C112.494 97.3777 111.803 100.376 111.913 100.524C112.313 101.077 114.553 100.08 115.048 99.8234L115.056 99.8312Z" fill="#D2D2D4"/>
<path d="M123.803 92.214C123.552 92.7514 122.593 93.1796 122.027 93.4211C121.241 93.756 118.813 94.2779 118.467 94.8542C118.176 95.3449 117.477 98.7328 117.752 99.1456C118.066 99.6051 120.039 98.5927 120.471 98.4447C121.123 98.2266 122.286 98.1955 122.679 97.4945C123.426 96.1549 123.111 94.644 123.504 93.3589C123.583 93.0941 123.575 92.8837 123.944 92.8993C124.164 93.9975 123.968 96.2873 123.418 97.292C122.907 98.2266 121.909 98.2732 121.139 98.7328C120.974 98.8262 120.785 99.1221 120.612 99.2701L117.83 99.9634C116.581 99.9712 117.406 98.0319 117.54 97.2453C117.587 96.9493 117.508 96.6065 117.555 96.3651C117.626 96.0224 117.901 94.9866 118.035 94.6985C118.152 94.4415 118.31 94.3091 118.522 94.1455C119.685 93.2732 122.404 93.0006 123.52 91.9258C123.591 92.0115 123.764 92.1206 123.795 92.2062L123.803 92.214Z" fill="#909195"/>
<path d="M123.944 92.9069C123.574 92.8914 123.582 93.1017 123.504 93.3665C123.111 94.6516 123.425 96.1624 122.679 97.502C122.286 98.2029 121.122 98.2264 120.47 98.4523C120.8 98.3511 121.743 97.9538 121.995 97.759C122.663 97.245 123.048 95.4537 123.103 94.6359C123.134 94.2076 123.26 93.3664 122.655 93.4833C121.508 94.1842 119.166 93.9039 118.592 95.259C118.482 95.5316 117.798 98.4757 117.845 98.647C117.963 99.1455 119.409 98.6781 119.779 98.5847C119.999 98.5301 120.329 98.4912 120.47 98.4445C120.038 98.5925 118.065 99.6049 117.751 99.1454C117.468 98.7326 118.168 95.3369 118.466 94.854C118.82 94.2699 121.24 93.748 122.026 93.4209C122.592 93.1795 123.551 92.7513 123.803 92.2139C123.889 92.4242 123.897 92.6889 123.944 92.9069Z" fill="#D2D2D4"/>
<path d="M117.83 99.9708C116.478 100.399 114.529 101.303 113.162 101.482C112.171 101.614 110.922 101.217 109.908 101.217C109.829 100.75 110.238 100.578 110.364 100.352C110.859 99.4334 111.236 98.4287 111.927 97.6188C112.038 98.3664 110.772 101.31 112.281 101.162C113.028 101.092 115.975 100.197 116.486 99.706C117.052 99.1608 117.303 97.1825 117.421 96.3726H117.563C117.515 96.614 117.594 96.9646 117.547 97.2527C117.413 98.0394 116.596 99.9864 117.837 99.9708H117.83Z" fill="#252222"/>
<path d="M115.056 99.8308C115.236 99.7373 115.559 99.5348 115.748 99.418C115.708 99.5114 115.747 99.6749 115.614 99.7684C115.441 99.9008 115.213 99.8072 115.056 99.8384V99.8308Z" fill="#252222"/>
<path d="M115.056 99.8309C114.561 100.088 112.321 101.085 111.92 100.532C111.81 100.384 112.502 97.3853 112.691 96.9881C113.139 96.3494 115.999 95.8121 116.864 95.6719C117.044 95.851 116.424 98.8262 116.156 99.2C115.999 99.4103 115.858 99.348 115.755 99.4181C116.203 98.4212 116.416 97.3308 116.447 96.2326C115.59 96.4585 113.099 96.77 112.761 97.6112C112.659 97.8682 112.18 100.29 112.282 100.384C113.241 100.384 114.121 100.01 115.064 99.8309H115.056Z" fill="#252222"/>
<path d="M117.556 94.5662C117.556 94.7064 117.556 94.8465 117.556 94.9789L113.665 96.0849C114.545 95.4307 115.771 94.9555 116.825 94.5972C117.045 94.5194 117.469 94.613 117.556 94.5662Z" fill="#909195"/>
<path d="M118.529 94.1533C118.317 94.3169 118.16 94.4492 118.042 94.7063C117.908 94.9944 117.633 96.0302 117.563 96.3729H117.421C117.492 95.8744 117.563 95.5083 117.563 94.9865C117.563 94.8463 117.563 94.7063 117.563 94.5739C117.578 94.5739 117.515 94.3869 117.665 94.3013C117.861 94.1844 118.293 94.1767 118.537 94.1611L118.529 94.1533Z" fill="#3B3A3C"/>
<path d="M122.003 97.7511C121.909 97.7511 121.814 97.7434 121.728 97.7511C122.459 96.7465 122.686 95.3602 122.702 94.1453C122.576 94.0129 119.464 94.9007 119.181 95.1344C118.608 95.5939 118.474 97.7979 118.262 98.5768C118.309 98.6235 119.331 98.4833 119.512 98.4366L119.786 98.5768C119.417 98.6624 117.979 99.1298 117.853 98.6391C117.814 98.4678 118.49 95.5237 118.6 95.2511C119.174 93.896 121.516 94.1685 122.663 93.4754C123.268 93.3585 123.142 94.1997 123.111 94.628C123.056 95.4458 122.671 97.2293 122.003 97.7511Z" fill="#252222"/>
<path d="M121.72 97.7515C121.814 97.7437 121.909 97.7515 121.995 97.7515C121.736 97.9462 120.793 98.3435 120.47 98.4448C120.321 98.4915 119.999 98.5304 119.779 98.5849L119.503 98.4448C120.219 98.2812 120.942 97.8216 121.728 97.7515H121.72Z" fill="#3B3A3C"/>
<path d="M119.496 98.4443C119.315 98.4832 118.293 98.6234 118.246 98.5844C118.458 97.8056 118.592 95.6016 119.166 95.1421C119.456 94.9162 122.561 94.0205 122.686 94.1529C122.671 95.3679 122.443 96.7541 121.712 97.7588C120.934 97.8289 120.203 98.2885 119.488 98.4521L119.496 98.4443ZM121.162 94.846C120.659 94.9784 119.59 95.1576 119.276 95.5237C118.961 95.8897 118.883 96.9567 118.804 97.4786C118.78 97.6265 118.45 98.0004 118.804 98.2496C119.158 98.4988 119.401 98.0549 119.504 98.0315C119.983 97.9147 121.335 97.7745 121.696 97.4396C122.058 97.1047 122.207 96.0066 122.286 95.5315C122.333 95.2355 122.529 94.924 122.427 94.5579C121.948 94.4489 121.555 94.737 121.177 94.8382L121.162 94.846Z" fill="#D2D2D4"/>
<path d="M115.576 99.2392C115.387 99.4651 113.713 100.041 113.398 99.9011C112.628 99.5662 112.793 98.2889 113.131 97.697C113.406 97.2141 114.876 96.778 115.332 96.9883C116.094 97.331 116 98.733 115.576 99.2392Z" fill="#252222"/>
<path d="M121.163 94.8463C121.792 94.8073 121.839 95.5162 122.271 95.5395C122.193 96.0146 122.028 97.1205 121.682 97.4476C121.336 97.7747 119.968 97.9227 119.489 98.0396C119.339 97.7748 119.127 97.5022 118.797 97.4866C118.875 96.9648 118.946 95.9134 119.269 95.5317C119.591 95.1501 120.66 94.9865 121.155 94.8541L121.163 94.8463Z" fill="#252222"/>
<path d="M121.162 94.846C121.539 94.7448 121.933 94.4567 122.412 94.5658C122.514 94.9318 122.318 95.2433 122.271 95.5393C121.83 95.5159 121.783 94.8071 121.162 94.846Z" fill="#909195"/>
<path d="M119.496 98.0315C119.386 98.0548 119.134 98.491 118.796 98.2496C118.458 98.0081 118.781 97.6265 118.796 97.4785C119.127 97.5019 119.339 97.7667 119.488 98.0315H119.496Z" fill="#909195"/>
<path d="M61.5603 105.236C61.1124 104.815 60.4366 104.465 60.0358 104.06C58.2833 102.276 55.7371 97.2683 56.0043 94.776C56.0907 93.9894 56.3972 93.6858 56.9395 93.1873L62.7392 92.6188C73.8751 92.4397 84.964 92.3774 96.0842 92.6266C99.2749 92.6967 102.348 92.6264 105.381 93.0548C106.505 93.2106 107.228 93.5766 107.401 94.7838C107.684 96.7776 106.497 98.5534 105.719 100.282C105.397 100.991 105.31 101.536 104.823 102.3C101.97 106.864 97.5064 106.965 92.4767 107.448C84.5551 108.219 76.5158 108.172 68.5941 107.292C66.9123 107.105 64.3501 106.692 62.8098 106.061C62.8569 105.664 62.7786 105.828 62.535 105.781C62.4486 105.765 62.3385 105.797 62.2599 105.781C62.3306 105.438 61.8513 105.321 61.5684 105.228L61.5603 105.236ZM104.493 99.1375C104.744 99.1375 105.797 99.1842 105.868 99.1219C105.923 99.0752 106.379 97.8915 105.813 98.0316C102.198 97.9693 98.5834 98.1095 94.9683 98.0316C92.9879 97.9927 89.0897 98.1172 87.4472 97.3618C85.5847 96.4973 84.8225 94.9319 82.4648 94.706C78.1739 94.301 77.5844 97.4865 74.2522 97.8759C72.6412 98.0628 70.15 98.0005 68.4368 98.0316C64.7117 98.1095 60.9711 97.9615 57.2461 98.0316C57.1439 98.1407 57.4502 99.1064 57.6152 99.1453L76.4215 99.8308C76.4057 100.088 76.3979 100.407 76.4215 100.664L66.0634 100.392C63.7686 100.259 61.4267 100.088 59.124 99.9631C58.8961 99.9476 57.9766 99.8385 58.0787 100.173C58.2674 100.804 58.9671 100.882 59.5408 100.937C64.8769 101.451 70.4014 101.342 75.7611 101.809C76.4683 101.832 76.5471 102.72 76.9165 103.281C77.2308 103.764 77.3408 103.865 77.8044 104.122C78.0323 104.55 78.2365 104.722 78.6766 104.987C81.2779 106.583 84.8066 105.812 86.4806 103.281C86.7242 102.915 87.0072 102.004 87.3137 101.879C88.186 101.786 89.0975 101.684 89.9698 101.63C94.5358 101.318 99.306 101.381 103.856 100.937C104.729 100.851 104.98 100.828 105.318 99.9709C105.09 99.9787 104.854 99.9476 104.626 99.9709C104.336 99.9943 104.234 100.111 104.21 100.111C103.338 100.158 102.442 100.072 101.57 100.111C101.263 100.127 101.176 100.251 101.153 100.251C100.831 100.267 100.501 100.236 100.179 100.251C100.147 100.251 100.1 100.251 100.037 100.251C95.6832 100.438 91.3294 100.641 86.9756 100.664C86.9992 100.407 86.9913 100.088 86.9756 99.8308L90.512 99.5503C93.3176 99.5192 96.1234 99.4803 98.9211 99.418C99.2355 99.418 99.4476 99.2777 99.4791 99.2777C99.6205 99.2777 99.754 99.2777 99.8954 99.2777C99.9268 99.2777 99.982 99.2777 100.037 99.2777C100.469 99.2699 101.577 99.1064 101.428 99.5581C100.516 99.6282 99.5655 99.6048 98.646 99.6983V100.111C99.0782 99.8618 99.4633 100.119 99.8091 100.095C100.241 100.064 100.807 99.8618 101.232 99.8462C101.75 99.8228 102.583 100.407 102.395 99.418C102.646 99.3946 102.976 99.301 103.369 99.2777C103.723 99.2543 104.241 99.4023 104.477 99.1375H104.493Z" fill="#252222"/>
<path d="M61.561 105.236C61.844 105.329 62.3234 105.446 62.2527 105.789C61.5138 105.633 61.7576 105.415 61.561 105.236Z" fill="#7C262A"/>
<path d="M62.5273 105.796C62.7709 105.835 62.8496 105.679 62.8025 106.077C62.6688 106.022 62.4487 106.209 62.5273 105.796Z" fill="#7C262A"/>
<path d="M76.4296 99.8307L57.6237 99.1452C57.4509 99.1063 57.1442 98.1406 57.2542 98.0315C60.9793 97.9692 64.7203 98.1094 68.4453 98.0315C70.1586 97.9926 72.6497 98.0627 74.2608 97.8758C77.5929 97.4864 78.1821 94.3009 82.473 94.7059C84.8306 94.9318 85.5932 96.4972 87.4557 97.3617C89.0982 98.1249 92.9961 97.9926 94.9765 98.0315C98.5837 98.1016 102.206 97.9614 105.821 98.0315C106.387 97.8991 105.932 99.0751 105.877 99.1218C105.806 99.1841 104.753 99.1374 104.501 99.1374C104.156 99.1374 103.621 99.0283 103.393 99.2776C103 99.3009 102.67 99.3945 102.419 99.4179C102.136 99.4412 101.814 99.5269 101.444 99.558C101.594 99.1141 100.485 99.2698 100.053 99.2776H99.9116C99.7702 99.2776 99.6367 99.2776 99.4953 99.2776L98.9373 99.4179C96.1396 99.4802 93.326 99.5191 90.5283 99.5502L86.9918 99.8307C86.591 93.2807 76.8304 93.2807 76.4296 99.8307Z" fill="#D2D2D4"/>
<path d="M77.537 103.297C77.3013 102.713 76.7902 101.708 76.7116 101.139C75.9336 95.742 82.8418 93.0005 85.8517 97.4321C88.8616 101.864 83.9813 106.996 79.3053 104.652C78.6609 104.333 78.2129 103.686 77.537 103.297C77.6313 103.523 77.6707 103.865 77.8122 104.13C78.8417 104.698 79.8788 105.407 81.0812 105.516C84.1383 105.781 86.7397 103.748 86.9833 100.664C91.3371 100.633 95.691 100.43 100.045 100.251H100.186C100.508 100.236 100.838 100.267 101.161 100.251L101.577 100.111C102.449 100.072 103.345 100.158 104.217 100.111L104.634 99.9711C104.862 99.9477 105.098 99.9866 105.326 99.9711C104.988 100.828 104.736 100.851 103.864 100.937C99.3059 101.389 94.5436 101.326 89.9776 101.63C89.1053 101.692 88.1933 101.786 87.321 101.879C87.0145 102.004 86.7398 102.907 86.4883 103.281C84.8144 105.82 81.2857 106.591 78.6844 104.987C78.2443 104.714 78.0479 104.55 77.8122 104.122C77.3485 103.865 77.2382 103.756 76.9238 103.281C76.5545 102.72 76.4761 101.832 75.7688 101.809C70.4091 101.342 64.8843 101.451 59.5481 100.937C58.9823 100.882 58.2751 100.804 58.0865 100.174C57.9843 99.8387 58.9039 99.9477 59.1318 99.9633C61.4266 100.08 63.7685 100.251 66.0712 100.392L76.4288 100.664C76.476 101.24 76.8769 102.938 77.2934 103.273C77.3798 103.343 77.5054 103.273 77.5447 103.297H77.537ZM81.4269 95.812C78.1105 96.1703 76.2876 99.1454 77.8122 102.191C77.8593 102.284 77.8905 102.37 77.9534 102.471C79.2029 104.519 81.5135 105.267 83.7454 104.161C84.2798 103.896 85.3488 103.086 85.4588 102.471C85.4666 102.409 85.4745 102.245 85.4588 102.191C85.9067 102.206 86.1188 101.186 86.1503 100.874C86.4568 98.2108 84.7279 96.1547 82.1188 95.812C82.0795 95.812 81.9695 95.6563 81.773 95.6563C81.5766 95.6563 81.4584 95.8043 81.4269 95.812Z" fill="#D2D2D4"/>
<path d="M76.4299 99.8304C76.8307 93.2805 86.5913 93.2805 86.9921 99.8304C87.0078 100.087 87.0157 100.407 86.9921 100.664C86.7485 103.748 84.1474 105.773 81.0903 105.516C79.8879 105.415 78.8504 104.698 77.8209 104.129C77.6795 103.865 77.6323 103.522 77.5458 103.296C78.2295 103.686 78.6696 104.324 79.314 104.651C83.9822 106.996 88.7918 101.754 85.8605 97.4316C82.9291 93.1091 75.9428 95.7493 76.7208 101.139C76.7994 101.707 77.31 102.712 77.5458 103.296C77.5144 103.273 77.3809 103.343 77.2945 103.273C76.8858 102.938 76.4771 101.232 76.4299 100.664C76.4063 100.407 76.4142 100.087 76.4299 99.8304Z" fill="#909195"/>
<path d="M102.412 99.418C102.6 100.415 101.767 99.8306 101.248 99.8462C100.824 99.8618 100.258 100.064 99.8255 100.095C99.4717 100.119 99.0944 99.8618 98.6621 100.111V99.6982C99.5739 99.6048 100.525 99.6282 101.437 99.5581C101.807 99.527 102.121 99.4491 102.412 99.418Z" fill="#909195"/>
<path d="M104.493 99.1375C104.258 99.3946 103.731 99.2543 103.385 99.2777C103.613 99.0284 104.147 99.1375 104.493 99.1375Z" fill="#3B3A3C"/>
<path d="M101.578 100.111L101.161 100.251C101.161 100.251 101.271 100.127 101.578 100.111Z" fill="#3B3A3C"/>
<path d="M104.636 99.9712L104.219 100.111C104.219 100.111 104.345 99.9946 104.636 99.9712Z" fill="#3B3A3C"/>
<path d="M99.4877 99.2778C99.4877 99.2778 99.2436 99.4104 98.9292 99.4182L99.4877 99.2778Z" fill="#3B3A3C"/>
<path d="M85.46 102.471C85.35 103.079 84.2889 103.896 83.7466 104.161C81.5147 105.267 79.2041 104.519 77.9546 102.471C79.0077 102.385 80.721 101.132 81.6484 101.093C82.5757 101.054 84.4069 102.424 85.46 102.471Z" fill="#252222"/>
<path d="M82.1192 95.8115C84.7289 96.1464 86.4503 98.2103 86.1516 100.874C86.1201 101.185 85.9001 102.206 85.4599 102.19C85.4285 102.073 85.334 102.073 85.3183 102.05C84.7681 101.209 83.196 100.453 82.465 99.6979L81.9775 95.9517C81.9775 95.9517 82.0641 95.8427 82.1192 95.8115Z" fill="#252222"/>
<path d="M81.4283 95.8115L81.0118 99.8304C80.5795 99.7759 78.52 101.629 78.0956 102.05C77.9934 102.081 77.8675 102.05 77.8204 102.19C76.2876 99.1449 78.1192 96.1698 81.4363 95.8115H81.4283Z" fill="#252222"/>
<path d="M82.1201 95.812C82.0651 95.8431 82.0178 95.9365 81.9785 95.9521C81.8842 95.9833 81.7033 95.8665 81.6876 96.0301C81.6719 96.2404 81.8528 96.4897 81.845 96.7155C81.8135 97.5177 81.782 97.9538 81.8135 98.7872C81.8292 99.2155 81.3656 99.8775 82.1201 99.971L81.845 100.243L85.3185 102.05C85.3185 102.05 85.4286 102.074 85.4601 102.191C85.4758 102.245 85.4679 102.401 85.4601 102.471C84.407 102.424 82.5758 101.054 81.6485 101.092C80.7211 101.131 79.0078 102.385 77.9547 102.471C77.8918 102.37 77.8606 102.292 77.8135 102.191C77.8606 102.05 77.9861 102.082 78.0882 102.05C79.2906 101.692 80.3597 100.656 81.5621 100.243C81.5857 100.103 81.0435 99.8309 81.0042 99.8309L81.4205 95.812C81.4205 95.812 81.5698 95.6562 81.7663 95.6562C81.9628 95.6562 82.0727 95.8042 82.112 95.812H82.1201Z" fill="#909195"/>
<path d="M81.9854 95.9522L82.4725 99.6984C83.2035 100.454 84.7681 101.209 85.3262 102.05L81.8515 100.244L82.1267 99.9711C81.3721 99.8776 81.8357 99.2156 81.82 98.7872C81.7886 97.9539 81.8201 97.5178 81.8515 96.7156C81.8594 96.4897 81.6867 96.2326 81.6945 96.0301C81.7024 95.8666 81.8911 95.9755 81.9854 95.9522Z" fill="#D2D2D4"/>
<path d="M81.012 99.8313C81.012 99.8313 81.5936 100.111 81.57 100.244C80.3752 100.649 79.2984 101.685 78.0957 102.051C78.5202 101.63 80.5875 99.7767 81.012 99.8313Z" fill="#D2D2D4"/>
</svg>
