<svg width="296" height="241" viewBox="0 0 296 241" fill="none" xmlns="http://www.w3.org/2000/svg">
<g clip-path="url(#clip0_197_184)">
<path d="M275.093 132.16C273.707 132.402 272.072 132.749 272.632 130.708L290.906 95.6729C289.967 94.9473 271.141 101.803 267.811 102.559C266.289 102.907 265.07 103.391 265.487 101.244L289.869 68.2493C250.824 72.7468 210 82.6187 178.033 105.779L194.301 105.258C174.983 119.695 157.716 139.945 159.73 165.638C159.555 165.6 159.419 165.532 159.245 165.464C161.637 167.959 160.146 171.383 159.866 174.293C160.804 174.671 161.493 175.019 161.811 175.298C162.848 176.304 164.688 181.701 166.247 184.059C175.126 197.287 187.405 203.553 202.453 206.841V205.7C203.112 206.358 203.733 206.841 204.399 207.257C204.709 207.325 204.989 207.393 205.337 207.461V207.809C207.555 208.92 210.121 209.124 213.8 209.162C213.732 208.814 213.664 208.542 213.626 208.293L223.3 208.225V209.056C225.45 206.978 228.811 206.214 231.9 206.668C231.9 206.494 231.937 206.358 231.968 206.32L256.244 198.111L262.693 192.502C280.384 176.024 288.082 151.956 287.764 128.07C283.223 127.549 279.195 131.328 275.002 132.084L275.108 132.152L275.093 132.16Z" fill="#FCCA59"/>
<path opacity="0.38" d="M222.596 241C250.816 241 273.692 237.277 273.692 232.685C273.692 228.093 250.816 224.37 222.596 224.37C194.377 224.37 171.5 228.093 171.5 232.685C171.5 237.277 194.377 241 222.596 241Z" fill="#2E2929"/>
<path d="M159.752 167.86C159.752 167.86 158.329 155.607 163.945 142.485C163.945 142.485 168.177 131.857 177.261 121.781C186.344 111.705 194.323 106.134 194.323 106.134L178.055 106.656C178.055 106.656 191.719 96.4437 199.97 93.1178C208.221 89.7919 207.184 88.3406 234.511 79.338C261.837 70.3353 289.891 68.2944 289.891 68.2944L264.419 103.065L290.913 95.8844L271.989 132.923L287.885 128.01C287.885 128.01 287.522 154.095 281.072 166.56C281.072 166.56 275.887 181.239 261.769 193.772" stroke="#EAEBA0" stroke-width="7" stroke-miterlimit="10"/>
<path d="M159.654 171.284C159.654 171.284 166.868 190.046 182.227 198.466C197.586 206.879 207.336 207.499 207.336 207.499" stroke="#EAEBA0" stroke-width="7" stroke-miterlimit="10"/>
<path d="M229.424 207.499C229.424 207.499 255.434 198.912 256.713 197.839" stroke="#EAEBA1" stroke-width="7" stroke-miterlimit="10"/>
<path d="M212.4 208.331L225.443 208.293" stroke="#EAECA2" stroke-width="7" stroke-miterlimit="10"/>
<path d="M223.497 204.453C223.603 209.888 225.442 216.744 225.056 221.589C224.746 225.157 217.668 234.189 225.821 235.157C238.061 236.578 233.936 229.684 233.209 221.445C233.005 218.883 231.854 204.309 232.096 201.573C229.008 200.983 225.609 201.951 223.497 204.483V204.445V204.453Z" fill="#FCCA59"/>
<path d="M208.895 222.806C208.963 225.822 206.639 227.311 206.813 230.077C207.161 235.89 213.989 234.545 217.388 234.575C222.142 233.192 214.406 210.787 213.157 204.317C209.516 204.279 206.949 204.007 204.694 202.654C204.626 208.784 208.789 217.787 208.925 222.806H208.887H208.895Z" fill="#FCCA59"/>
<path d="M265.835 198.708C264.063 195.382 262.678 191.406 261.739 187.596L257.303 192.17C256.887 193.175 256.683 194.248 256.683 195.322C256.683 194.248 256.925 193.175 257.303 192.17L254.979 194.558C256.819 203.493 263.299 219.971 272.874 214.468C274.782 207.023 268.923 204.604 265.797 198.716H265.835V198.708Z" fill="#FCCA59"/>
<path d="M165.202 166.333C154.067 163.491 144.635 156.325 139.473 147.156C137.323 143.316 136.036 132.749 129.344 134.208C122.615 135.659 126.256 143.868 127.891 147.504C131.744 156.053 141.592 166.129 150.502 170.77C153.764 172.464 161.803 174.542 165.936 176.031C166.315 172.811 168.124 169.07 165.21 166.303V166.341L165.202 166.333Z" fill="#FCCA59"/>
<path d="M202.271 154.005C202.271 158.555 198.577 162.244 194.02 162.244C189.463 162.244 185.762 158.555 185.762 154.005C185.762 153.551 185.8 153.105 185.875 152.667H202.158C202.234 153.105 202.271 153.551 202.271 154.005Z" fill="#2E2929" stroke="#FFEA92" stroke-width="0.25" stroke-miterlimit="10"/>
<path d="M257.44 150.671C257.44 155.222 253.746 158.91 249.189 158.91C245.086 158.91 241.68 155.917 241.051 152.002L256.259 146.431C257.008 147.67 257.44 149.122 257.44 150.671Z" fill="#2E2929" stroke="#FFEA92" stroke-width="0.25" stroke-miterlimit="10"/>
<path d="M235.805 171.859C235.805 171.859 226.048 158.17 214.466 174.021" stroke="#2E2929" stroke-width="3" stroke-miterlimit="10" stroke-linecap="round"/>
<path d="M158.655 30.2431C115.999 0.786122 66.5611 25.156 23.1561 0L21.6724 4.22542C19.5151 10.0231 18.6067 12.8728 18.6067 12.8728C16.3131 18.9199 15.821 19.8874 15.3744 21.3917C13.0278 27.212 12.1648 28.2022 11.582 29.782C8.77359 35.6553 7.78952 38.1195 7.78952 38.1195C5.72298 42.4583 3.76241 46.3511 3.76241 46.3511C0.416579 52.6477 0.605823 53.1087 0.0078125 54.6583C10.4541 63.0562 22.8609 69.058 36.8498 72.2327C46.1152 74.3341 55.214 75.5738 64.7141 75.9215L93.6986 76.9873C111.23 77.6298 130.026 80.4795 145.551 87.6982" fill="#F6F6F6"/>
<path d="M141.01 121.743L144.643 105.288L146.006 99.1574L147.906 90.5479L149.7 82.3918L151.501 74.2358L153.303 66.0798L155.105 57.9237L156.914 49.7677L158.723 41.6419L159.934 36.207L161.062 31.1804L162.47 24.332C162.599 23.6895 161.675 22.4499 161.069 22.3365C160.464 22.2231 159.079 22.9336 158.942 23.561L158.019 27.983L143.598 93.0877L142.448 98.137L140.646 106.263L138.837 114.419L137.036 122.575L135.499 129.529L133.743 135.954L136.332 142.644L139.337 129.348L141.025 121.736L141.01 121.743Z" fill="#F6F6F6"/>
<path d="M126.824 179.524L128.55 171.519L130.434 162.917L132.228 154.776L132.334 154.232L129.443 150.482L128.413 155.063L126.695 162.773L124.886 170.944C124.159 174.232 121.57 181.111 124.977 181.149C125.59 181.149 126.665 180.287 126.824 179.524Z" fill="white"/>
<path d="M89.8376 19.7212L113.395 63.4116C115.431 67.191 112.57 71.7415 108.278 71.5525L57.4467 69.3377C53.1546 69.1488 50.702 64.364 53.0638 60.7811L80.3376 19.3055C82.6388 15.8057 87.8544 16.0325 89.8376 19.7212Z" fill="#FF9DDE"/>
<path d="M87.7407 24.9368L107.573 61.7259C108.701 63.8122 107.119 66.3293 104.742 66.231L61.943 64.3715C59.566 64.2657 58.2111 61.6201 59.5206 59.6397L82.4873 24.71C83.759 22.775 86.6431 22.8959 87.7407 24.9368Z" fill="#FDE7E5"/>
<path d="M83.2596 62.2021C85.6426 62.2021 87.5743 60.2731 87.5743 57.8935C87.5743 55.514 85.6426 53.585 83.2596 53.585C80.8766 53.585 78.9448 55.514 78.9448 57.8935C78.9448 60.2731 80.8766 62.2021 83.2596 62.2021Z" fill="#FF9DDE"/>
<path d="M80.5268 51.3325C80.5268 51.3325 82.9718 52.9123 85.5228 51.786C85.5228 51.786 86.2041 51.8994 86.7718 49.1858C87.3395 46.4721 88.2933 39.722 88.2933 39.722L88.7021 35.1867C88.7021 35.1867 88.6794 34.2267 86.2117 34.1133C83.7439 34 79.6562 34.1587 79.6562 34.1587C79.6562 34.1587 79.7849 50.1004 80.5268 51.34V51.3325Z" fill="#FF9DDE"/>
</g>
<defs>
<clipPath id="clip0_197_184">
<rect width="296" height="241" fill="white"/>
</clipPath>
</defs>
</svg>
