<svg width="257" height="236" viewBox="0 0 257 236" fill="none" xmlns="http://www.w3.org/2000/svg">
<path d="M207.849 90.0116C206.017 90.3322 203.864 90.7902 204.597 88.0878L228.74 41.7346C227.503 40.7727 202.627 49.8418 198.229 50.8495C196.213 51.3075 194.61 51.9487 195.159 49.1089L227.365 5.45813C175.781 11.4126 121.86 24.4667 79.6217 55.1093L101.107 54.4222C75.5902 73.5222 52.7758 100.317 55.4329 134.304C55.2039 134.258 55.0206 134.166 54.7915 134.075C57.9525 137.372 55.9827 141.907 55.6162 145.754C56.8531 146.258 57.7694 146.716 58.1817 147.083C59.556 148.411 61.9841 155.556 64.0456 158.671C75.7735 176.168 91.9909 184.458 111.873 188.81V187.298C112.744 188.169 113.568 188.81 114.439 189.36C114.851 189.451 115.218 189.543 115.676 189.634C115.676 189.772 115.676 189.955 115.676 190.092C118.608 191.558 121.998 191.833 126.854 191.879C126.762 191.421 126.671 191.054 126.625 190.734L139.406 190.642C139.406 191.008 139.406 191.375 139.406 191.741C142.247 188.993 146.69 187.985 150.768 188.581C150.768 188.352 150.813 188.169 150.859 188.123L182.928 177.267L191.449 169.847C214.813 148.045 224.983 116.211 224.571 84.6067C218.569 83.9196 213.255 88.9122 207.712 89.9199L207.849 90.0116Z" fill="#FCCA59"/>
<ellipse opacity="0.38" cx="138.5" cy="223" rx="67.5" ry="11" fill="#2E2929"/>
<path d="M55.4787 137.235C55.4787 137.235 53.6005 121.02 61.0221 103.661C61.0221 103.661 66.6111 89.5992 78.6138 76.2704C90.6166 62.9416 101.153 55.5672 101.153 55.5672L79.6676 56.2543C79.6676 56.2543 97.7174 42.7422 108.621 38.3451C119.524 33.9479 118.15 32.0242 154.249 20.1153C190.349 8.20633 227.411 5.50391 227.411 5.50391L193.761 51.5L228.761 42L203.761 91L224.761 84.5C224.761 84.5 224.282 119.011 215.761 135.5C215.761 135.5 208.906 154.919 190.261 171.5" stroke="#EAEBA0" stroke-width="7" stroke-miterlimit="10"/>
<path d="M55.3413 141.77C55.3413 141.77 64.8702 166.595 85.1649 177.725C105.46 188.856 118.333 189.68 118.333 189.68" stroke="#EAEBA0" stroke-width="7" stroke-miterlimit="10"/>
<path d="M147.515 189.68C147.515 189.68 181.874 178.321 183.569 176.901" stroke="#EAEBA1" stroke-width="7" stroke-miterlimit="10"/>
<path d="M125.021 190.779L142.247 190.734" stroke="#EAECA2" stroke-width="7" stroke-miterlimit="10"/>
<path d="M139.682 185.65C139.819 192.841 142.247 201.91 141.744 208.322C141.331 213.04 131.986 224.995 142.751 226.277C158.923 228.155 153.471 219.04 152.509 208.139C152.235 204.75 150.723 185.466 151.043 181.848C146.966 181.069 142.476 182.352 139.682 185.695V185.65Z" fill="#FCCA59"/>
<path d="M120.395 209.925C120.487 213.91 117.417 215.88 117.646 219.544C118.104 227.239 127.129 225.453 131.619 225.499C137.895 223.666 127.679 194.032 126.03 185.466C121.22 185.42 117.829 185.054 114.852 183.268C114.76 191.375 120.258 203.284 120.441 209.925H120.395Z" fill="#FCCA59"/>
<path d="M195.617 178.046C193.281 173.649 191.448 168.382 190.212 163.343L184.348 169.389C183.798 170.718 183.523 172.137 183.523 173.557C183.523 172.137 183.844 170.718 184.348 169.389L181.278 172.55C183.706 184.367 192.273 206.17 204.917 198.887C207.437 189.039 199.695 185.833 195.572 178.046H195.617Z" fill="#FCCA59"/>
<path d="M62.6714 135.22C47.9657 131.464 35.5049 121.983 28.679 109.845C25.8386 104.76 24.1435 90.7904 15.3018 92.7141C6.41429 94.6379 11.2246 105.493 13.3778 110.303C18.4629 121.616 31.4735 134.945 43.2471 141.083C47.5535 143.327 58.1819 146.075 63.6335 148.045C64.1375 143.785 66.5196 138.838 62.6714 135.174V135.22Z" fill="#FCCA59"/>
<path d="M100.741 129.815C106.763 129.815 111.644 124.934 111.644 118.914C111.644 112.893 106.763 108.012 100.741 108.012C94.7195 108.012 89.8379 112.893 89.8379 118.914C89.8379 124.934 94.7195 129.815 100.741 129.815Z" fill="#2E2929" stroke="#FFEA92" stroke-width="0.25" stroke-miterlimit="10"/>
<path d="M174.407 129.815C180.428 129.815 185.31 124.934 185.31 118.914C185.31 112.893 180.428 108.012 174.407 108.012C168.385 108.012 163.503 112.893 163.503 118.914C163.503 124.934 168.385 129.815 174.407 129.815Z" fill="#2E2929" stroke="#FFEA92" stroke-width="0.25" stroke-miterlimit="10"/>
<path d="M128.503 141.953C128.503 141.953 143.85 158.03 155.991 135.082" stroke="#2E2929" stroke-width="3" stroke-miterlimit="10" stroke-linecap="round"/>
</svg>
