<svg width="265" height="313" viewBox="0 0 265 313" fill="none" xmlns="http://www.w3.org/2000/svg">
<path d="M234.234 119.325L210.433 129.029L209.879 127.415C211.396 119.542 237.438 73.3141 236.908 70.1841C236.619 68.4024 235.174 68.9324 233.921 69.3177C222.454 72.7847 209.685 78.4186 198.266 81.2597C196.869 81.5968 193.834 82.2708 194.749 79.9113L232.572 26.4365C191.208 30.5537 148.567 40.1365 109.829 55.5457C92.8926 62.2873 71.0661 72.64 56.0333 82.8245C53.5038 84.5339 51.0465 86.5086 48.8061 88.5551L76.8964 89.0606C60.6592 98.7155 44.3498 115.401 34.9303 131.942C20.4034 157.487 20.1868 185.32 35.1232 210.77C43.2418 221.075 52.0832 229.357 63.43 236.002C63.3818 236.411 63.3088 236.869 63.2606 237.351C68.3197 240.047 73.3789 240.962 78.4621 243.322C78.7271 243.081 79.0412 242.84 79.3785 242.647L98.3853 247.992C98.2408 248.378 98.1447 248.811 98.0724 249.22C102.361 250.28 108.119 245.705 112.503 249.605C112.503 249.389 112.528 249.172 112.552 248.955L120.164 249.437L121.055 250.713C121.055 250.713 121.055 250.809 121.055 250.857C125.536 249.485 131.149 245.44 135.22 250.737C135.245 250.159 135.269 249.581 135.293 249.003L149.29 246.789C149.339 247.222 149.386 247.704 149.459 248.233C153.602 244.622 158.806 244.79 163.768 244.429C163.768 244.14 163.769 243.851 163.793 243.586C174.176 238.458 184.053 234.726 193.473 227.792C223.105 206.003 239.005 161.388 235.728 125.297C235.56 123.491 235.078 120.866 234.114 119.35L234.234 119.325Z" fill="#FCCA59"/>
<path d="M224.67 170.874C229.488 163.651 222.261 158.836 219.852 151.612M209.758 129.077L237.632 68.4265L197.544 79.213L232.596 26.4365C109.877 38.7398 48.8309 88.5551 48.8309 88.5551L76.9213 89.0606C46.3259 110.513 16.0673 144.654 26.5951 190.593C37.1228 236.532 98.4337 247.992 98.4337 247.992C126.355 252.567 163.865 243.562 163.865 243.562C248.93 209.71 234.211 119.325 234.211 119.325L209.709 129.077L209.758 129.077Z" stroke="#EAEBA0" stroke-width="6" stroke-miterlimit="10"/>
<path d="M166.996 268.073C174.513 262.342 163.745 246.307 163.865 237.109C158.926 237.567 153.699 237.374 149.555 242.021C150.808 253.289 156.131 276.331 166.996 268.073Z" fill="#FCCA59"/>
<path d="M69.3319 268.362C75.8846 273.683 85.8827 268.146 84.1723 258.9C83.1363 253.29 75.8856 240.12 81.1856 234.823C75.2592 231.717 69.332 230.513 63.4056 226.998C62.3215 237.785 62.3696 262.752 69.3319 268.386L69.3319 268.362Z" fill="#FCCA59"/>
<path d="M113.179 246.187C113.179 246.187 110.505 255.361 121.828 277.535C121.828 277.535 122.96 285.649 114.336 287.816C105.711 289.983 100.531 283.627 100.194 277.126C100.194 277.126 100.411 275.634 102.796 275.369C102.796 275.369 104.603 270.047 100.387 261.861C96.171 253.675 98.9894 245.056 98.9894 245.056" fill="#FCCA59"/>
<path d="M135.727 244.43C135.727 244.43 133.053 253.964 144.376 277.078C144.376 277.078 145.508 285.529 136.883 287.792C128.258 290.056 123.08 283.41 122.743 276.644C122.743 276.644 122.958 275.079 125.343 274.815C125.343 274.815 127.15 269.277 122.934 260.754C118.718 252.231 121.538 243.25 121.538 243.25" fill="#FCCA59"/>
<path d="M213.854 149.661L227.538 148L229.224 163.626C229.224 163.626 228.55 172.318 225.394 175.087C222.238 177.855 218.624 170.849 218.624 170.849L213.854 149.637L213.854 149.661Z" fill="#FCCA59"/>
<path d="M63.5048 183.345L88.4156 183.345C88.4156 183.345 92.7993 174.34 81.5247 167.864C79.212 166.539 76.4417 166.203 73.8881 166.997C69.1181 168.514 62.084 172.583 63.5295 183.345L63.5048 183.345Z" fill="#2E2929" stroke="#2E2929" stroke-linecap="round" stroke-linejoin="round"/>
<path d="M151.461 183.344L177.913 183.344C177.913 183.344 179.454 167.358 166.541 166.13C153.629 164.902 151.461 178.722 151.461 183.344Z" fill="#2E2929" stroke="#2E2929" stroke-linecap="round" stroke-linejoin="round"/>
<path d="M106.266 200.97C106.266 200.97 110.771 196.564 112.41 196.973C114.048 197.382 117.853 202.294 119.274 202.101C120.696 201.909 125.731 196.419 127.683 196.949C129.634 197.479 134.236 202.101 134.236 202.101" stroke="#2E2929" stroke-linecap="round" stroke-linejoin="round"/>
<path d="M222.961 162.278L221.54 155.489L221.588 155.417C221.106 154.574 220.673 153.707 220.312 152.792C219.71 153.202 219.107 153.611 218.505 154.02L217.469 154.405C214.409 154.285 211.446 153.876 208.387 153.732C199.666 153.274 189.909 152.889 181.14 152.792C168.564 152.648 147.196 153.322 135.946 157.319C131.609 158.86 128.886 160.545 123.634 161.075C112.336 162.254 108.096 159.871 99.0376 157.271C86.703 153.707 73.1641 152.311 59.4805 151.396C59.1914 151.179 55.7225 150.698 53.6989 150.674C48.6398 151.059 40.7379 151.974 36.787 152.263C35.727 152.335 34.3052 152.889 33.3416 152.383C33.7512 152.191 29.0538 152.889 29.4633 152.72C27.7288 152.672 24.7658 153.057 22.4772 154.044C20.3572 154.935 18.0929 155.585 17.9484 157.271C17.7315 159.775 18.7191 162.303 18.96 164.783L23.417 167.407C26.597 171.789 27.8973 176.725 30.5232 181.3C35.8713 190.593 42.1829 196.853 58.5406 199.285C66.8038 200.513 76.9705 200.657 85.3782 199.044C104.193 195.432 108.601 182.527 110.89 172.15C111.107 171.885 111.396 171.693 111.878 171.621C114.046 171.235 120.936 171.163 122.285 172.367C127.272 181.324 129.489 190.81 141.872 196.998C152.785 202.463 170.275 203.041 184.296 201.693C208.049 199.405 210.7 188.571 214.94 176.34C215.494 174.751 216.264 170.465 217.421 169.285C218.143 168.539 222.07 166.901 223.395 166.083C224.262 165.553 225.129 164.927 226.021 164.277C225.804 163.314 225.443 162.351 224.961 161.412C224.118 161.942 223.154 162.495 222.913 162.399L222.961 162.278ZM219.492 164.783C219.275 165.962 215.06 166.901 214.048 168.418C212.169 171.235 211.47 176.845 210.265 180.12C206.314 190.834 202.412 197.961 182.682 199.791C168.757 201.067 150.256 199.646 140.812 193.145C131.176 186.524 130.959 179.446 125.755 171.838C123.683 168.828 117.974 168.539 113.059 169.068C109.59 169.429 108.072 169.959 107.325 172.102C104.843 179.349 104.411 185.706 96.292 191.99C85.0416 200.681 59.5053 199.02 46.9539 193.554C38.3775 189.822 34.4263 181.877 31.5595 175.762C30.2827 173.041 29.0779 168.105 26.5484 165.962C25.5125 165.096 23.2717 164.277 22.5489 163.338C22.1153 162.76 21.8266 161.171 21.7302 160.473C21.6339 159.847 21.417 157.68 21.682 157.223C22.1638 156.428 25.7533 155.898 27.0542 155.681C52.8556 151.54 77.7414 153.346 100.483 160.232C109.373 162.929 113.637 164.157 124.502 163.025C130.381 162.423 135.175 159.414 140.716 157.993C159.531 153.178 193.113 154.454 212.819 156.139C215.927 156.404 218.288 156.236 218.842 158.499C219.203 160.016 219.757 163.314 219.492 164.758L219.492 164.783Z" fill="black"/>
<path d="M100.508 160.232C109.397 162.928 113.661 164.156 124.526 163.025C130.404 162.423 135.198 159.413 140.739 157.993C159.554 153.177 193.137 154.453 212.843 156.139C215.951 156.404 218.312 156.235 218.866 158.498C219.227 160.015 219.781 163.313 219.516 164.758C219.3 165.938 215.083 166.877 214.071 168.394C212.192 171.211 211.494 176.821 210.289 180.095C206.339 190.81 202.435 197.936 182.705 199.766C168.78 201.042 150.279 199.621 140.835 193.121C131.199 186.5 130.982 179.421 125.778 171.813C123.707 168.803 117.997 168.514 113.082 169.044C109.613 169.405 108.096 169.935 107.349 172.077C104.868 179.325 104.434 185.681 96.3152 191.965C85.0647 200.657 59.5284 198.995 46.9771 193.53C38.4007 189.798 34.4495 181.853 31.5826 175.737C30.3058 173.017 29.1011 168.081 26.5715 165.938C25.5356 165.071 23.296 164.253 22.5732 163.314C22.1396 162.736 21.8497 161.146 21.7534 160.448C21.657 159.822 21.4401 157.656 21.7051 157.198C22.1869 156.404 25.7776 155.874 27.0785 155.657C52.8799 151.516 77.7658 153.322 100.508 160.208L100.508 160.232ZM45.002 190.568C53.8434 195.986 70.8512 197.816 83.1616 195.456C100.435 192.158 103.349 178.217 101.856 169.02C99.9524 157.246 67.9121 155.922 52.9998 156.476C42.5202 156.861 33.3172 157.728 32.8354 165.649C32.4018 173.017 36.6425 185.44 45.002 190.568ZM199.738 192.856C207.543 187.15 210.168 170.44 205.543 164.204C200.315 157.15 179.669 156.716 168.347 157.102C147.821 157.8 125.971 159.654 131.392 175.93C134.644 185.777 139.462 193.458 155.579 196.925C167.625 199.525 190.27 199.742 199.738 192.856Z" fill="black"/>
<path d="M199.738 192.856C190.27 199.766 167.624 199.525 155.579 196.925C139.462 193.458 134.668 185.777 131.392 175.93C125.995 159.63 147.821 157.8 168.347 157.101C179.669 156.716 200.315 157.15 205.543 164.204C210.168 170.44 207.543 187.15 199.738 192.856ZM155.724 159.967C148.593 160.617 137.222 162.519 134.644 167.406C132.982 170.536 133.896 172.872 134.981 175.882C139.823 189.533 148.978 196.756 173.238 196.539C184.416 196.443 195.979 195.456 200.46 187.968C204.7 180.89 208.578 165.071 195.858 161.315C186.776 158.618 166.01 159.003 155.747 159.967L155.724 159.967Z" fill="black"/>
<path d="M45.002 190.569C36.6425 185.441 32.4018 173.018 32.8354 165.65C33.3172 157.705 42.4961 156.862 52.9998 156.477C67.9121 155.923 99.9524 157.247 101.856 169.021C103.349 178.218 100.435 192.134 83.1616 195.457C70.8512 197.817 53.8434 195.987 45.002 190.569ZM92.4604 163.218C83.6431 158.86 57.5287 157.777 46.1819 158.932C42.255 159.318 38.882 159.92 37.4124 162.472C34.0156 168.419 39.5812 183.202 45.869 187.921C50.639 191.509 57.6736 193.435 65.1899 194.085C84.029 195.722 94.0744 191.942 97.7362 180.096C99.543 174.221 100.362 167.143 92.4604 163.242L92.4604 163.218Z" fill="black"/>
<path opacity="0.27" d="M155.724 159.967C165.987 159.004 186.753 158.619 195.835 161.315C208.555 165.095 204.677 180.89 200.437 187.969C195.956 195.457 184.392 196.443 173.214 196.54C148.954 196.756 139.8 189.558 134.958 175.882C133.898 172.872 132.958 170.537 134.62 167.407C137.198 162.519 148.593 160.617 155.7 159.967L155.724 159.967Z" fill="white"/>
<path opacity="0.27" d="M92.4594 163.217C100.385 167.117 99.542 174.196 97.7352 180.071C94.0734 191.917 84.028 195.697 65.1889 194.06C57.6726 193.409 50.638 191.483 45.868 187.896C39.5802 183.177 34.0146 168.393 37.4114 162.446C38.8569 159.894 42.254 159.316 46.1809 158.907C57.5277 157.775 83.618 158.859 92.4594 163.193L92.4594 163.217Z" fill="white"/>
<path d="M19.0796 155.562L28.4995 140.754C28.4995 140.754 24.452 152.335 24.6447 154.213" fill="black"/>
<path d="M224.19 165.48L235.151 161.46C235.151 161.46 237.199 150.432 236.958 148.386C236.717 146.339 220.287 152.768 220.287 152.768L221.347 163.338L224.19 165.48Z" fill="black"/>
</svg>
