<svg width="231" height="365" viewBox="0 0 231 365" fill="none" xmlns="http://www.w3.org/2000/svg">
<path d="M196.787 206.017L176.492 213.626L200.615 159.086L167.618 169.216L199.331 118.48C146.661 124.293 94.61 142.993 50.985 172.956C50.985 172.956 54.8551 173.041 55.24 173.02C61.3561 172.721 67.537 173.234 73.6531 173.02C47.3712 195.546 24.4253 226.555 28.7022 263.143C30.1992 266.755 29.4505 270.666 29.5574 274.62C29.6002 274.62 29.6431 274.62 29.6858 274.62C31.1828 275.112 36.0159 288.789 37.8764 291.888C44.4201 302.851 54.4493 309.477 64.3505 316.978C68.2425 317.47 71.4717 320.077 75.1713 321.787C92.0225 324.544 108.425 327.6 125.105 321.659C127.949 318.41 133.017 318.303 137.23 318.026C137.209 317.919 137.187 317.812 137.165 317.705C153.161 313.281 166.035 300.073 175.723 287.079C177.797 284.301 179.08 279.364 181.903 277.804C183.315 273.487 184.212 268.85 186.842 265.687C193.536 246.517 197.086 226.384 196.787 206.017Z" fill="#FCCA59"/>
<path d="M28.7011 263.165C28.7011 263.165 19.0352 218.841 73.652 173.041L50.9839 172.977C50.9839 172.977 116.742 126.11 199.33 118.501L167.617 169.237L200.614 159.107L176.491 213.647L196.786 206.039C196.786 206.039 197.149 239.229 186.692 266.136C186.692 266.136 170.631 307.468 137.164 317.726C137.164 317.726 105.152 331.874 73.7376 321.573C42.3233 311.272 28.9786 278.488 28.6792 263.165H28.7011Z" stroke="#EAEBA1" stroke-width="4" stroke-miterlimit="10"/>
<path d="M121.297 314.82C121.297 314.82 113.129 334.033 115.267 337.687C117.406 341.342 128.568 351.621 128.568 353.181C128.568 354.742 124.313 357.285 127.906 361.324C131.498 365.363 143.666 363.739 145.312 362.627C146.959 361.516 150.573 355.596 140.715 351.514C140.715 351.514 129.061 338.157 128.398 335.892C127.735 333.626 137.914 311.528 137.101 308.857C136.288 306.186 121.276 314.841 121.276 314.841L121.297 314.82Z" fill="#FCCA59"/>
<path d="M80.6455 312.212C80.6455 312.212 99.3778 334.396 96.9827 338.542C94.5876 342.688 78.4851 350.809 78.9769 353.032C79.4688 355.254 81.0725 353.759 82.099 357.477C82.8902 360.341 82.8267 363.098 73.6954 363.846C64.5641 364.594 62.7244 364.957 60.7142 363.675C58.2763 362.136 50.4074 357.627 62.4256 351.557C74.4439 345.488 82.5908 336.17 82.5908 336.17C82.5908 336.17 74.6571 321.231 67.7071 314.585C60.757 307.938 80.6883 312.212 80.6883 312.212H80.6455Z" fill="#FCCA59"/>
<path d="M176.363 183.491C149.674 210.162 106.969 213.646 76.2395 191.676C40.7621 166.287 33.1701 117.303 58.7463 81.9763C56.672 70.9486 52.8872 59.7076 51.0267 48.7013C46.8567 24.1241 53.1438 3.18006 80.9654 0.572736C107.247 1.89777 135.304 -1.22247 161.372 0.572736C168.429 1.06428 176.855 3.64987 182.308 8.22337C202.645 25.2351 188.061 60.5407 183.998 81.9763C206.623 113.05 203.585 156.285 176.363 183.512V183.491ZM81.9062 4.80424C38.5593 8.20231 57.7629 56.1812 63.2802 82.7887C38.0033 116.406 44.4188 163.744 78.7841 188.278C111.653 211.744 157.565 203.965 180.96 171.331C200.292 144.381 199.052 109.182 179.421 82.7887C185.174 55.6256 204.248 7.41144 159.704 4.67589C134.384 3.11577 107.376 5.78735 81.8853 4.82564L81.9062 4.80424Z" fill="#6E6E6E"/>
<path d="M81.9064 4.80443C107.397 5.76615 134.406 3.09457 159.726 4.65469C204.27 7.4116 185.195 55.6044 179.442 82.7675C199.052 109.161 200.293 144.36 180.982 171.309C157.587 203.944 111.674 211.723 78.8052 188.257C44.4399 163.722 38.0244 116.385 63.3012 82.7675C57.784 56.1814 38.5814 8.20247 81.9283 4.78304L81.9064 4.80443ZM165.158 25.5347C160.688 20.9184 153.118 19.1234 146.873 18.7387C130.257 17.7128 112.594 19.5508 95.8493 18.7387C76.8383 19.8714 69.5459 31.2408 71.663 49.5562C72.0693 53.0397 74.2936 64.7083 75.6622 67.508C76.261 68.7048 76.9667 69.1324 78.3353 68.7905C79.4046 68.5126 83.8313 65.1149 85.4138 64.26C108.231 51.6936 134.428 51.9073 157.267 64.26C159.042 65.2217 164.217 69.2821 165.821 68.8333C166.484 68.6409 166.889 67.8288 167.146 67.2304C168.065 65.0719 169.113 59.451 169.648 56.8864C171.722 46.564 173.198 33.8268 165.136 25.5347H165.158ZM124.976 78.5146C123.393 78.9634 122.73 81.6136 124.27 82.3616C125.895 83.1737 131.733 83.1092 134.235 83.6008C151.514 86.8706 165.349 101.702 168.087 118.949C168.386 120.83 168.408 125.681 168.921 126.814C169.477 128.011 171.209 128.117 172.172 127.369C173.711 126.151 172.172 117.475 171.723 115.316C168.023 98.3045 154.059 83.9855 137.101 79.9035C134.599 79.3051 127.156 77.9162 124.954 78.536L124.976 78.5146Z" fill="#6E6E6E"/>
<path d="M165.979 133.02C165.979 105.82 132.312 86.3533 115.479 80.0199C93.4791 66.5199 128.979 64.0199 165.979 83.5199C202.979 103.02 165.979 167.02 165.979 133.02Z" fill="#8D8D8D"/>
<path d="M37.5555 252.82C37.5555 252.82 -13.063 209.201 3.23225 185.649C19.5275 162.098 47.9691 144.382 47.9691 144.382C47.9691 144.382 62.0194 141.047 53.8718 153.015C45.7242 164.983 18.6718 185.222 13.1332 194.284C7.5945 203.345 37.2767 230.209 37.2767 230.209L37.5763 252.799L37.5555 252.82Z" fill="#FCCA59"/>
<path d="M178.117 256.219C178.117 256.219 239.961 231.642 229.033 196.956C218.106 162.27 189.621 149.319 189.643 149.212C189.664 149.105 180.405 148.015 186.029 156.756C191.653 165.497 217.786 196.913 213.723 208.154C209.66 219.396 184.062 239.677 181.86 239.057C179.657 238.438 178.117 256.219 178.117 256.219Z" fill="#FCCA59"/>
<path d="M67.6858 243.738C70.8294 247.606 76.3465 248.91 80.8373 246.708C82.8902 245.704 84.9433 243.887 86.3119 240.66C88.3648 235.83 86.1833 232.24 83.8737 229.996C81.9491 228.136 79.3833 227.132 76.7315 226.983C72.8395 226.79 66.8734 227.196 65.184 231.214C63.4946 235.232 64.7984 240.169 67.7067 243.738H67.6858Z" fill="#2E2929"/>
<path d="M134.577 247.627C139.025 252.97 147.579 252.735 151.599 247.072C153.011 245.084 153.887 242.434 153.374 238.951C152.348 232.091 146.83 231.214 142.917 231.492C140.286 231.684 137.828 232.859 135.989 234.74C133.465 237.305 130.579 241.43 133.123 245.191C133.123 245.191 133.444 246.259 134.599 247.649L134.577 247.627Z" fill="#2E2929"/>
<path d="M82.6978 273.294L89.3481 267.61L94.9293 272.867L100.297 267.61L104.895 273.294L110.37 267.61L115.31 273.294L120.463 267.61L125.724 273.294" stroke="#2E2929" stroke-width="2" stroke-linecap="round" stroke-linejoin="round"/>
<path d="M69.4421 131.312V128.684C69.4421 127.784 69.0101 127.352 68.1101 127.352H58.7861C58.0661 127.352 57.7061 126.992 57.7061 126.272V121.232C57.7061 120.512 57.8861 119.864 58.2821 119.252L65.1941 108.092C65.5901 107.48 66.1301 107.192 66.8501 107.192H78.4421C79.1621 107.192 79.5221 107.552 79.5221 108.272V131.312C79.5221 132.032 79.1621 132.392 78.4421 132.392H70.5221C69.8021 132.392 69.4421 132.032 69.4421 131.312ZM66.4901 120.152H68.1101C69.0101 120.152 69.4781 119.72 69.5141 118.82L69.7661 114.536C69.8021 114.068 69.5861 113.744 69.0821 113.744C68.6141 113.744 68.2541 113.996 68.0021 114.428L65.6981 118.172C65.4461 118.568 65.3021 119.072 65.4461 119.54C65.5901 120.008 66.0221 120.152 66.4901 120.152ZM104.152 131.312L103.936 128.72C103.9 128.396 103.792 128.108 103.36 128.108C102.892 128.108 102.748 128.468 102.676 128.684C101.74 131.564 100.228 132.752 97.2402 132.752C92.3802 132.752 87.8082 128.756 87.8082 119.792C87.8082 110.864 92.9202 106.832 100.048 106.832C106.96 106.832 111.496 110.252 112.18 117.776C112.252 118.496 111.892 118.856 111.172 118.856H103.036C102.352 118.856 101.992 118.568 101.74 117.812C101.488 116.984 101.02 116.552 100.192 116.552C99.0042 116.552 98.4282 117.884 98.4282 119.432C98.4282 120.98 98.9682 122.312 100.804 122.312C101.704 122.312 102.352 121.988 102.64 121.412C102.892 120.908 103.144 120.656 103.792 120.656H112.288C113.008 120.656 113.368 121.016 113.368 121.736V131.312C113.368 132.032 113.008 132.392 112.288 132.392H105.34C104.62 132.392 104.224 132.032 104.152 131.312ZM134.673 117.812C134.421 116.984 133.953 116.552 133.125 116.552C132.045 116.552 131.361 117.812 131.361 119.756C131.361 121.772 132.261 123.032 133.701 123.032C134.781 123.032 135.429 122.564 135.753 121.7C136.041 120.944 136.437 120.656 137.085 120.656H145.221C145.941 120.656 146.301 121.016 146.229 121.736C145.509 129.332 140.865 132.752 133.701 132.752C126.357 132.752 121.101 128.756 121.101 119.792C121.101 110.864 126.141 106.832 133.161 106.832C139.965 106.832 144.429 110.252 145.113 117.776C145.185 118.496 144.825 118.856 144.105 118.856H135.969C135.285 118.856 134.925 118.568 134.673 117.812ZM146.66 119.792C146.66 110.864 151.988 106.832 159.44 106.832C166.892 106.832 172.22 110.864 172.22 119.792C172.22 128.756 166.892 132.752 159.44 132.752C151.988 132.752 146.66 128.756 146.66 119.792ZM156.92 119.756C156.92 121.772 158 122.672 159.44 122.672C160.88 122.672 161.96 121.772 161.96 119.756C161.96 117.812 160.88 116.912 159.44 116.912C158 116.912 156.92 117.812 156.92 119.756ZM183.613 137.072H173.461V135.128L177.601 131.096C178.585 130.16 179.317 129.404 179.797 128.828C180.301 128.228 180.637 127.7 180.805 127.244C180.997 126.764 181.093 126.26 181.093 125.732C181.093 124.964 180.865 124.388 180.409 124.004C179.977 123.62 179.401 123.428 178.681 123.428C177.961 123.428 177.301 123.572 176.701 123.86C176.125 124.124 175.525 124.496 174.901 124.976L173.641 123.32C174.337 122.72 175.093 122.24 175.909 121.88C176.749 121.52 177.685 121.34 178.717 121.34C180.253 121.34 181.453 121.724 182.317 122.492C183.205 123.236 183.649 124.268 183.649 125.588C183.649 126.38 183.481 127.112 183.145 127.784C182.833 128.432 182.365 129.104 181.741 129.8C181.141 130.472 180.397 131.228 179.509 132.068L176.593 134.84H183.613V137.072Z" fill="white"/>
</svg>
