<svg width="450" height="489" viewBox="0 0 450 489" fill="none" xmlns="http://www.w3.org/2000/svg">
<g clip-path="url(#clip0_197_54)">
<path d="M62.7631 210.508C62.7631 210.508 34.5934 138.916 92.9496 102.711C151.306 66.5073 231.115 82.0424 231.115 82.0424C231.115 82.0424 329.081 102.337 344.02 136.701C358.96 171.065 351.428 201.565 351.428 201.565C351.428 201.565 337.059 266.223 344.4 273.096C351.741 279.969 74.383 229.162 74.383 229.162L62.7631 210.508Z" fill="#FF9DDE"/>
<path d="M62.7628 210.508C62.7628 210.508 91.8312 258.235 95.5288 258.94C99.2263 259.646 360.221 316.402 360.221 316.402C360.221 316.402 343.433 274.706 343.914 271.367C338.501 270.164 327.432 276.681 310.071 261.558C292.711 246.435 256.342 215.909 230.333 210.882C204.325 205.855 183.432 206.627 183.432 206.627C183.432 206.627 89.3527 222.701 62.7567 210.535L62.7628 210.508Z" fill="#FFF2F2"/>
<path d="M174.093 446.477C174.093 446.477 104.57 434.734 94.1437 395.059C85.3989 376.117 92.521 357.37 92.521 357.37L104.887 315.029C104.887 315.029 114.702 289.12 101.326 269.496L95.5225 258.968C95.5225 258.968 118.902 265.264 174.559 256.203C230.216 247.142 265.716 273.883 265.716 273.883C265.716 273.883 291.782 294.822 326.316 305.827C360.85 316.831 358.247 313.676 358.247 313.676C358.247 313.676 381.606 345.104 383.684 370.702C385.762 396.3 366.247 417.477 366.247 417.477C366.247 417.477 346.902 447.929 299.179 452.845C251.456 457.762 219.219 454.681 219.219 454.681L174.06 446.499L174.093 446.477Z" fill="#FF9DDE"/>
<path d="M101.248 114.662C101.248 114.662 93.9544 135.224 107.703 146.649C121.451 158.073 152.251 174.793 152.251 174.793C152.251 174.793 257.046 205.959 279.39 199.833C301.733 193.707 302.149 185.054 302.149 185.054C302.149 185.054 312.027 150.644 317.364 136.54C322.701 122.436 328.688 103.321 328.688 103.321L333.395 79.6646C333.395 79.6646 336.141 63.3918 311.535 58.1841C286.928 52.9764 213.964 34.4158 201.616 28.9495C189.268 23.4832 157.173 9.7191 144.882 17.8184C132.591 25.9177 132.746 34.0896 132.746 34.0896C132.746 34.0896 121.256 68.3145 116.799 74.1583C112.341 80.0021 101.199 114.623 101.199 114.623L101.248 114.662Z" fill="#FFF2F2"/>
<path d="M110.97 122.817C111.283 121.41 111.546 96.8822 121.069 84.0265C130.591 71.1708 142.977 37.8689 144.311 33.5609C146.186 39.3352 142.611 52.0355 142.611 52.0355C142.611 52.0355 129.284 87.8792 128.323 89.7219C127.363 91.5647 110.964 122.845 110.964 122.845L110.97 122.817Z" fill="#FF9DDE"/>
<path d="M159.741 193.254L185.917 164.407C185.917 164.407 201.846 151.672 210.484 151.014C219.121 150.356 246.396 145.123 257.354 150.715C268.312 156.307 287.325 160.735 283.701 181.996C280.078 203.258 273.481 206.599 273.481 206.599L266.663 229.584C266.663 229.584 253.574 232.669 234.192 223.381C234.456 221.413 234.928 219.288 234.928 219.288C234.928 219.288 193.582 209.723 186.888 213.245C179.833 213.299 174.282 213.89 174.282 213.89L159.769 193.26L159.741 193.254Z" fill="#8AACF6"/>
<path d="M188.22 295.93L173.566 300.579C173.157 300.72 172.734 300.8 172.311 300.88L167.269 301.526L162.056 301.641C162.056 301.641 154.158 302.232 159.693 300.276C163.934 298.931 169.595 297.322 169.595 297.322C169.595 297.322 154.695 300.729 154.087 300.334C154.087 300.334 152.221 299.601 152.973 298.175C152.973 298.175 153.255 297.427 157.189 297.2C161.92 296.775 167.198 295.718 167.198 295.718C167.198 295.718 153.945 297.319 152.558 297.04C151.171 296.761 150.033 296.016 150.386 295.341C150.739 294.667 151.779 294.811 153.614 294.9C155.449 294.989 163.301 293.954 163.301 293.954L153.739 293.943C153.739 293.943 150.603 293.71 151.518 291.944C151.929 291.137 153.362 291.079 154.985 291.469C156.746 291.889 158.952 291.482 158.952 291.482C158.952 291.482 169.231 290.61 169.581 290.079C169.931 289.549 163.904 287.196 162.536 287.095C160.679 286.972 160.348 286.377 160.348 286.377C159.54 284.141 162.139 283.792 165.067 284.443C166.558 284.774 172.861 286.146 172.861 286.146C172.861 286.146 179.55 285.518 180.774 286.138C181.999 286.757 188.948 281.96 190.718 280.645L200.882 270.509L216.493 257.645L229.081 246.513C229.081 246.513 232.307 236.95 233.393 232.326C234.479 227.702 235.405 223.274 235.405 223.274C235.405 223.274 241.932 227.157 249.413 228.443C256.894 229.729 263.985 228.988 263.985 228.988L255.333 254.229C255.333 254.229 253.498 260.395 249.295 263.139C245.092 265.883 232.092 273.912 232.092 273.912L188.177 295.863L188.22 295.93Z" fill="#F2C09C"/>
<path d="M139.058 155.528C138.131 156.307 137.591 157.171 137.591 157.171C137.591 157.171 137.008 159.272 135.637 160.357C134.287 161.476 134.385 162.598 134.385 162.598L133.656 165.882C133.656 165.882 130.621 167.93 128.231 172.033C125.842 176.135 127.717 179.564 127.717 179.564L127.242 183.396C127.242 183.396 139.546 198.323 143.391 203.579C147.209 208.829 147.789 206.612 147.789 206.612L159.769 193.26L174.283 213.89L147.123 227.083C147.123 227.083 138.866 230.982 132.486 223.83C126.133 216.685 116.884 192.447 116.884 192.447L112.206 175.161L126.687 166.593C126.687 166.593 132.111 156.533 132.51 156.563C132.908 156.594 134.654 155.65 134.654 155.65C134.654 155.65 135.446 154.175 136.289 153.118C137.133 152.06 138.041 149.8 138.041 149.8C138.041 149.8 138.869 148.42 139.891 148.647C140.775 148.844 140.738 148.749 141.088 149.522C141.438 150.294 141.423 152.318 140.683 152.907L139.058 155.528Z" fill="#F2C09C"/>
<path d="M112.313 174.547L128.746 141.421L141.108 139.911L126.976 167.641L112.061 175.679L112.313 174.547Z" fill="#2E2929"/>
<path d="M112.652 167.412C112.652 167.412 112.563 166.379 113.174 165.066C113.784 163.754 113.354 161.776 113.354 161.776C113.354 161.776 113.305 159.651 115.87 157.76C116.115 154.31 118.554 153.636 118.554 153.636L120.824 148.377C120.824 148.377 122.109 146.115 125.208 146.774C127.952 147.992 129.216 149.084 129.216 149.084C129.216 149.084 130.686 150.164 130.161 151.09C129.637 152.016 128.815 152.586 127.219 151.681C125.623 150.776 124.344 150.405 123.88 151.316C123.417 152.226 124.194 153.036 124.194 153.036C124.194 153.036 126.535 153.324 126.971 153.711C127.406 154.097 127.802 154.533 126.897 155.345C125.992 156.158 122.393 156.053 122.393 156.053L119.905 158.512C119.905 158.512 122.55 158.086 123.366 158.065C124.182 158.043 124.786 158.322 124.633 158.752C124.48 159.181 123.151 160.594 123.151 160.594C123.151 160.594 121.553 161.397 118.945 161.658C116.582 162.899 116.318 164.346 116.318 164.346C116.318 164.346 117.288 164.938 119.145 164.279C121.001 163.62 120.679 165.721 120.679 165.721C120.679 165.721 116.638 169.688 113.92 168.62C112.542 167.909 112.652 167.412 112.652 167.412Z" fill="#F2C09C"/>
<path d="M185.917 164.407C185.917 164.407 202.2 153.603 217.787 153.361C233.375 153.118 246.136 150.596 246.136 150.596C246.136 150.596 266.399 161.007 268.123 161.593C269.848 162.179 278.434 166.838 278.481 174.06C278.528 181.281 274.052 205.596 273.481 206.599C272.911 207.602 272.651 216.203 272.651 216.203L298.212 218.553C298.212 218.553 303.646 219.008 299.892 210.991C296.138 202.975 295.911 203.996 297.663 200.158C299.414 196.319 305.832 188.304 305.832 188.304L315.812 176.651C315.812 176.651 331.17 159.184 298.472 130.661C272.055 105.562 275.097 96.8264 275.097 96.8264C275.097 96.8264 270.709 74.9716 253.236 67.0054C235.763 59.0391 206.906 69.828 206.906 69.828C206.906 69.828 195.751 77.5135 191.202 90.5479C181.659 105.976 170.961 120.859 170.961 120.859C170.961 120.859 159.288 135.959 170.809 149.06C182.33 162.161 185.883 164.428 185.883 164.428L185.917 164.407Z" fill="#020304"/>
<path d="M244.283 151.372C244.283 151.372 238.712 163.137 224.318 164.137C213.937 160.904 215.391 154.624 215.391 154.624L216.667 153.836L214.959 138.832C214.959 138.832 203.225 139.989 199.902 134.994C196.578 129.998 194.165 124.162 194.207 120.059C194.25 115.957 195.663 106.338 196.945 105.262C198.228 104.186 199.353 100.555 199.353 100.555L201.19 89.8139C201.19 89.8139 214.547 92.1742 222.543 88.0144C226.589 85.5835 227.126 85.3843 227.126 85.3843C227.126 85.3843 227.625 92.2714 233.379 97.8072C239.133 103.343 239.739 111.963 239.739 111.963C239.739 111.963 243.862 110.36 246.099 110.857C248.336 111.354 250.052 114.457 249.887 116.245C249.721 118.033 248.427 123.334 243.312 125.615C241.051 125.749 239.983 126.381 239.983 126.381C239.983 126.381 236.714 138.222 244.323 151.323L244.283 151.372Z" fill="#F2C09C"/>
<path d="M200.711 107.228C201.87 107.486 203.018 106.755 203.276 105.597C203.533 104.439 202.802 103.291 201.643 103.033C200.484 102.776 199.335 103.506 199.078 104.664C198.82 105.823 199.551 106.97 200.711 107.228Z" fill="#020304"/>
<path d="M219.576 113.621C220.735 113.879 221.884 113.148 222.141 111.99C222.399 110.832 221.668 109.684 220.508 109.426C219.349 109.169 218.201 109.899 217.944 111.057C217.686 112.216 218.417 113.363 219.576 113.621Z" fill="#020304"/>
<path d="M198.294 96.8445C198.294 96.8445 204.397 94.2912 206.806 99.7497" stroke="#020304" stroke-miterlimit="10" stroke-linecap="round"/>
<path d="M216.491 102.336C216.491 102.336 224.72 100.777 228.63 106.916" stroke="#020304" stroke-miterlimit="10" stroke-linecap="round"/>
<path d="M204.841 112.895L202.24 114.952C202.24 114.952 201.556 115.553 203.937 118.399" stroke="#020304" stroke-miterlimit="10" stroke-linecap="round"/>
<path d="M199.618 123.231C199.618 123.231 201.444 126.359 205.065 127.019C208.686 127.678 211.223 126.041 211.223 126.041" stroke="#020304" stroke-miterlimit="10" stroke-linecap="round"/>
</g>
<defs>
<clipPath id="clip0_197_54">
<rect width="367.778" height="418.389" fill="white" transform="translate(90.7646) rotate(12.5293)"/>
</clipPath>
</defs>
</svg>
