<svg width="272" height="590" viewBox="0 0 272 590" fill="none" xmlns="http://www.w3.org/2000/svg">
<g clip-path="url(#clip0_197_91)">
<ellipse opacity="0.38" cx="129.239" cy="567.5" rx="122" ry="22.5" fill="#2E2929"/>
<path d="M109.95 499.741L120.437 570.344H26.6393C26.6393 570.344 23.4427 548.342 39.9029 543.577C39.9029 543.577 40.9404 543.156 60.0365 537.186C60.0365 537.186 72.4587 534.327 81.0393 523.116C81.0393 523.116 87.7132 509.747 84.853 499.741H109.922H109.95Z" fill="#FEF1F2"/>
<path d="M84.8809 499.124L109.95 499.741L112.922 522.836L98.9015 525.246L84.236 521.743L82.3853 519.052L82.7217 517.987L84.8809 499.124Z" fill="#F2C09C"/>
<path d="M82.7777 517.763C82.7777 517.763 98.3406 526.087 112.67 521.266L116.091 540.942L89.3113 539.513L78.7397 526.171L81.0672 523.088L82.7777 517.735V517.763Z" fill="#F5793B"/>
<path d="M47.1372 541.25C47.1372 541.25 72.4865 535.701 81.0671 523.116C81.0671 523.116 94.2465 526.816 98.3685 537.186H115.53L118.839 559.188H52.7735L47.1372 541.25Z" fill="black"/>
<path d="M56.7837 538.027L63.093 547.361" stroke="#FEF1F2" stroke-miterlimit="10"/>
<path d="M63.2891 537.018L70.4676 545.679" stroke="#FEF1F2" stroke-miterlimit="10"/>
<path d="M68 534.243L76.2722 541.923" stroke="#FEF1F2" stroke-miterlimit="10"/>
<path d="M73.272 531.917L82.2451 538.756" stroke="#FEF1F2" stroke-miterlimit="10"/>
<path d="M77.2256 528.498L87.5728 535.813" stroke="#FEF1F2" stroke-miterlimit="10"/>
<path d="M26.8354 565.327H119.708" stroke="black" stroke-width="0.5" stroke-miterlimit="10"/>
<path d="M74.3652 550.836C74.3652 550.836 110.959 554.592 115.614 552.097" stroke="#FEF1F2" stroke-width="0.25" stroke-miterlimit="10" stroke-linecap="round"/>
<path d="M53.2783 552.938C53.2783 552.938 76.3282 548.986 98.2845 538.083" stroke="#FEF1F2" stroke-width="0.25" stroke-miterlimit="10" stroke-linecap="round"/>
<path d="M166.397 517.987C166.397 517.987 164.518 503.497 164.827 499.124H191.101C191.101 499.124 192.616 512.241 193.429 515.325L192.616 518.996L168.192 519.753L166.397 518.015V517.987Z" fill="#F2C09C"/>
<path d="M167.687 537.186C167.687 537.186 168.164 534.44 167.687 528.189C167.21 521.939 166.397 517.987 166.397 517.987C166.397 517.987 190.204 518.968 193.429 515.297L194.494 527.629L172.202 539.709L167.687 537.186Z" fill="#F5793B"/>
<path d="M167.687 557.815V537.186H170.491C170.491 537.186 169.37 524.181 181.063 522.528C181.063 522.528 188.578 522.163 195.869 527.545C195.869 527.545 202.542 535.645 203.748 536.009C204.954 536.374 214.067 543.409 212.805 546.94L193.85 543.296L173.211 558.684L167.715 557.843L167.687 557.815Z" fill="black"/>
<path d="M167.687 558.516V537.158V569.363H217.909C217.909 569.363 221.358 540.606 198.112 540.382C174.866 540.157 172.566 557.198 172.566 557.198L167.687 556.946" fill="#FEF1F2"/>
<path d="M167.687 564.71H218.105" stroke="black" stroke-width="0.5" stroke-miterlimit="10"/>
<path d="M179.016 540.214H201.617" stroke="#FEF1F2" stroke-width="0.75" stroke-miterlimit="10"/>
<path d="M178.763 536.794H201.364" stroke="#FEF1F2" stroke-width="0.75" stroke-miterlimit="10"/>
<path d="M177.585 534.075H200.187" stroke="#FEF1F2" stroke-width="0.75" stroke-miterlimit="10"/>
<path d="M176.38 530.628H198.392" stroke="#FEF1F2" stroke-width="0.75" stroke-miterlimit="10"/>
<path d="M175.09 527.629H195.588" stroke="#FEF1F2" stroke-width="0.75" stroke-miterlimit="10"/>
<path d="M176.38 550.191C176.38 550.191 172.286 540.802 172.202 531.721" stroke="#FEF1F2" stroke-width="0.25" stroke-miterlimit="10" stroke-linecap="round"/>
<path d="M168.921 547.445H175.342" stroke="#FEF1F2" stroke-width="0.25" stroke-miterlimit="10" stroke-linecap="round"/>
<path d="M204.841 317.614L204.813 502.207L148.87 504.253L131.681 317.614H204.841Z" fill="black"/>
<path d="M136.448 317.614L127.391 502.207H67.1304L76.0755 317.614H136.448Z" fill="black"/>
<path d="M138.552 74.2464C138.552 74.2464 114.437 65.1934 118.278 43.7238C121.111 27.8039 121.812 9.30534 131.233 3.22325C134.514 1.12114 138.608 -0.728715 144.525 1.26128C167.435 8.88492 176.492 12.7248 175.062 23.6838C173.632 34.6427 179.38 62.3345 172.678 70.6869C165.977 79.0392 138.552 74.2745 138.552 74.2745" fill="#F2C09C"/>
<path d="M127.027 30.971C127.027 30.971 132.047 27.1592 136.365 30.971" stroke="#2E2929" stroke-miterlimit="10" stroke-linecap="round"/>
<path d="M148.03 30.971C148.03 30.971 153.05 27.1592 157.368 30.971" stroke="#2E2929" stroke-miterlimit="10" stroke-linecap="round"/>
<path d="M142.45 85.0372L140.207 64.6047L163.565 65.1373L160.592 89.1013H142.45V85.0372Z" fill="#F2C09C"/>
<path d="M131.233 40.1083C132.395 40.1083 133.337 39.1671 133.337 38.0062C133.337 36.8452 132.395 35.9041 131.233 35.9041C130.072 35.9041 129.13 36.8452 129.13 38.0062C129.13 39.1671 130.072 40.1083 131.233 40.1083Z" fill="#2E2929"/>
<path d="M151.255 40.1083C152.416 40.1083 153.358 39.1671 153.358 38.0062C153.358 36.8452 152.416 35.9041 151.255 35.9041C150.093 35.9041 149.152 36.8452 149.152 38.0062C149.152 39.1671 150.093 40.1083 151.255 40.1083Z" fill="#2E2929"/>
<path d="M139.421 40.1082C139.421 40.1082 136.982 44.3684 137.234 45.3774C137.487 46.3864 139.814 48.0401 139.814 48.0401" stroke="#2E2929" stroke-miterlimit="10" stroke-linecap="round"/>
<path d="M134.374 53.2534C134.374 53.2534 135.552 55.2434 138.664 55.7199C141.749 56.1963 147.217 55.0192 150.75 52.2444" stroke="#2E2929" stroke-miterlimit="10" stroke-linecap="round"/>
<path d="M144.272 4.1201C144.272 4.1201 138.916 21.1051 123.325 22.8989C123.325 22.8989 117.24 53.1412 129.943 60.8209C129.943 60.8209 136.561 65.8379 142.842 65.1092L145.169 91.9321C145.169 91.9321 110.09 103.255 104.005 112.925C97.9199 122.595 88.6103 170.663 88.6103 170.663H80.6185C68.0841 170.663 58.4939 159.536 60.2605 147.119C62.0271 134.703 65.3641 121.362 72.122 113.037C72.122 113.037 101.846 66.1743 104.341 58.9991C106.837 51.8239 116.511 33.6056 117.941 20.5446C117.941 20.5446 122.063 -3.25129 144.777 0.336309C167.49 3.9239 168.948 3.9239 178.959 19.3113C188.97 34.6987 196.317 52.0481 193.625 63.6798C190.933 75.3114 191.662 88.0082 182.156 94.0903L160.508 92.4927L159.246 59.924C159.246 59.924 171.584 56.3364 170.519 43.6397C169.453 30.943 157.62 23.5996 157.62 23.5996C157.62 23.5996 144.553 15.3594 144.188 4.09207L144.272 4.1201Z" fill="#2E2929"/>
<path d="M81.4039 197.57L73.8889 246.115C73.8889 246.115 71.7296 263.408 72.0942 269.742C72.4587 276.077 70.1313 295.696 70.1313 297.322C70.1313 298.948 73.3561 301.05 74.7862 297.322C74.7862 297.322 73.8889 285.774 73.8889 285.326C73.8889 284.85 80.3383 313.55 81.4039 313.718C82.4695 313.887 83.8995 315.008 84.6286 311.925C85.3577 308.842 81.0393 298.471 79.441 287.596C79.441 287.596 84.7969 313.074 85.8905 314.055C86.9841 315.036 88.7507 314.84 89.648 312.906C90.5453 310.972 86.9561 288.914 87.3206 286.952C87.3206 286.952 90.1808 312.261 91.9754 313.074C93.7701 313.887 97.5276 313.887 97.1631 309.178C96.7985 304.469 93.7701 287.764 94.6674 284.037C94.6674 284.037 104.51 301.554 105.772 301.891C107.034 302.227 111.688 303.04 110.427 297.995C110.427 297.995 101.117 285.662 98.4249 271.06C98.4249 271.06 95.733 262.455 94.3029 259.877C94.3029 259.877 90.9099 250.151 93.7701 241.882C93.7701 241.882 104.678 202.475 104.51 197.598H81.432L81.4039 197.57Z" fill="#F2C09C"/>
<path d="M74.73 297.322L75.5432 284.457L72.9634 284.205L74.73 297.322Z" fill="#F2C09C"/>
<path d="M191.325 78.5907C191.325 78.5907 205.178 82.5146 204.813 102.555C204.449 122.595 204.813 226.719 204.813 226.719V317.614H68.0562L89.5357 201.326L76.6368 202.391L99.5465 118.671C99.5465 118.671 107.062 98.6308 111.015 96.5007C111.015 96.5007 131.429 85.0372 144.3 82.1783L145.029 88.2604C145.029 88.2604 159.947 73.6017 191.325 78.5907Z" fill="#8AACF6"/>
<path d="M204.813 219.068H155.909" stroke="#2E2929" stroke-width="1.5" stroke-miterlimit="10"/>
<path d="M107.538 200.625L76.4688 202.951" stroke="#2E2929" stroke-width="1.5" stroke-miterlimit="10"/>
<path d="M163.901 219.684L156.386 273.246C156.386 273.246 154.227 292.333 154.591 299.312C154.956 306.291 152.628 327.929 152.628 329.722C152.628 331.516 155.853 333.842 157.283 329.722C157.283 329.722 156.386 316.97 156.386 316.493C156.386 315.961 162.835 347.632 163.901 347.8C164.967 347.969 166.397 349.23 167.126 345.839C167.855 342.447 163.536 330.984 161.938 319.016C161.938 319.016 167.294 347.128 168.388 348.193C169.481 349.258 171.248 349.062 172.145 346.932C173.043 344.801 169.453 320.445 169.818 318.315C169.818 318.315 172.678 346.231 174.473 347.128C176.267 348.025 180.025 348.025 179.66 342.84C179.296 337.654 176.267 319.212 177.165 315.12C177.165 315.12 187.007 334.431 188.269 334.795C189.531 335.16 194.186 336.057 192.924 330.507C192.924 330.507 183.614 316.914 180.922 300.797C180.922 300.797 178.23 291.324 176.8 288.465C176.8 288.465 173.407 277.73 176.267 268.593C176.267 268.593 187.175 225.122 187.007 219.74H163.929L163.901 219.684Z" fill="#F2C09C"/>
<path d="M157.227 329.694L158.04 315.484L155.433 315.204L157.227 329.694Z" fill="#F2C09C"/>
<path d="M162.583 343.064C162.583 343.064 163.228 346.371 163.733 347.016C164.237 347.66 166.284 346.735 165.948 345.194C165.611 343.652 165.191 342.699 164.658 342.503C164.125 342.307 162.751 341.746 162.611 343.036L162.583 343.064Z" fill="#F196BD"/>
<path d="M167.126 343.372C167.126 343.372 167.855 346.904 168.416 347.604C168.976 348.305 171.276 347.296 170.883 345.642C170.491 343.989 170.042 342.98 169.425 342.783C168.808 342.587 167.266 341.971 167.098 343.372H167.126Z" fill="#F196BD"/>
<path d="M172.93 341.298C172.93 341.298 173.575 345.362 174.22 346.203C174.865 347.044 177.669 346.035 177.333 344.157C176.996 342.279 176.491 341.074 175.762 340.794C175.033 340.513 173.239 339.728 172.93 341.298Z" fill="#F196BD"/>
<path d="M185.829 330.619C185.829 330.619 187.203 333.618 188.241 334.123C189.278 334.627 191.409 333.45 191.437 332.946C191.466 332.441 190.148 329.33 189.615 329.246C189.082 329.162 186.446 328.966 185.801 330.619H185.829Z" fill="#F196BD"/>
<path d="M152.853 326.163C152.853 326.163 152.46 329.022 152.657 329.358C152.853 329.694 154.507 330.703 155.629 329.807C155.629 329.807 156.246 328.854 155.965 326.331C155.965 326.331 154.423 325.21 152.881 326.163H152.853Z" fill="#F196BD"/>
</g>
<defs>
<clipPath id="clip0_197_91">
<rect width="272" height="590" fill="white"/>
</clipPath>
</defs>
</svg>
